<svg xmlns="http://www.w3.org/2000/svg" xmlns:xlink="http://www.w3.org/1999/xlink" viewBox="60 92.203 614.129 689.797"><defs><style>.a,.e,.k{fill:#fff;}.b{fill:#333;font-size:24px;font-family:HelveticaNeue, Helvetica Neue;}.c,.d{fill:#95989a;}.d{font-size:18px;font-family:HelveticaNeue-Light, Helvetica Neue;font-weight:300;}.e,.f{stroke:#cbcbcb;}.e,.f,.n,.o{stroke-width:2px;}.f{fill:none;}.g{fill:#bfbfbf;}.g,.h,.i,.l{stroke:rgba(0,0,0,0);}.h{fill:#0089ff;}.i{fill:#9a9a9a;}.j{fill:#00a7ff;}.k{stroke:#fff;}.l,.m{fill:#8bc34a;}.n,.o{fill:rgba(0,0,0,0);}.n{stroke:#393939;}.o{stroke:#bfbfbf;}.p{filter:url(#m);}.q{filter:url(#k);}.r{filter:url(#i);}.s{filter:url(#g);}.t{filter:url(#e);}.u{filter:url(#c);}.v{filter:url(#a);}</style><filter id="a" x="162.5" y="116.5" width="401" height="111" filterUnits="userSpaceOnUse"><feOffset dy="6" input="SourceAlpha"/><feGaussianBlur stdDeviation="7.5" result="b"/><feFlood flood-opacity="0.114"/><feComposite operator="in" in2="b"/><feComposite in="SourceGraphic"/></filter><filter id="c" x="80" y="229" width="566" height="122" filterUnits="userSpaceOnUse"><feOffset dy="4" input="SourceAlpha"/><feGaussianBlur stdDeviation="6" result="d"/><feFlood flood-opacity="0.102"/><feComposite operator="in" in2="d"/><feComposite in="SourceGraphic"/></filter><filter id="e" x="80" y="331" width="566" height="122" filterUnits="userSpaceOnUse"><feOffset dy="4" input="SourceAlpha"/><feGaussianBlur stdDeviation="6" result="f"/><feFlood flood-opacity="0.102"/><feComposite operator="in" in2="f"/><feComposite in="SourceGraphic"/></filter><filter id="g" x="60" y="433" width="614.129" height="141.653" filterUnits="userSpaceOnUse"><feOffset dy="4" input="SourceAlpha"/><feGaussianBlur stdDeviation="6" result="h"/><feFlood flood-opacity="0.102"/><feComposite operator="in" in2="h"/><feComposite in="SourceGraphic"/></filter><filter id="i" x="80" y="558" width="566" height="122" filterUnits="userSpaceOnUse"><feOffset dy="4" input="SourceAlpha"/><feGaussianBlur stdDeviation="6" result="j"/><feFlood flood-opacity="0.102"/><feComposite operator="in" in2="j"/><feComposite in="SourceGraphic"/></filter><filter id="k" x="80" y="660" width="566" height="122" filterUnits="userSpaceOnUse"><feOffset dy="4" input="SourceAlpha"/><feGaussianBlur stdDeviation="6" result="l"/><feFlood flood-opacity="0.102"/><feComposite operator="in" in2="l"/><feComposite in="SourceGraphic"/></filter><filter id="m" x="303" y="488" width="27" height="27" filterUnits="userSpaceOnUse"><feOffset dy="2" input="SourceAlpha"/><feGaussianBlur stdDeviation="2" result="n"/><feFlood flood-opacity="0.141"/><feComposite operator="in" in2="n"/><feComposite in="SourceGraphic"/></filter></defs><g class="v" transform="matrix(1, 0, 0, 1, 0, 0)"><path class="a" d="M33,0H323a33,33,0,0,1,0,66H33A33,33,0,0,1,33,0Z" transform="translate(185 133)"/></g><g transform="translate(0 30)"><text class="b" transform="translate(226 145)"><tspan x="0" y="0">1</tspan><tspan class="c" y="0"> </tspan><tspan class="d" y="0">час</tspan></text><text class="b" transform="translate(293 145)"><tspan x="0" y="0">32</tspan><tspan class="c" y="0"> </tspan><tspan class="d" y="0">мин.</tspan></text><text class="b" transform="translate(382 145)"><tspan x="0" y="0">14</tspan><tspan class="c" y="0"> </tspan><tspan class="d" y="0">сек.</tspan></text></g><path class="e" d="M17,1A16,16,0,1,1,1,17,16,16,0,0,1,17,1Z" transform="translate(486 150)"/><path class="f" d="M503,127.855V137l6.343,6.343" transform="translate(-1 31)"/><path class="g" d="M1.98,0V-17.062H7.559a6.475,6.475,0,0,1,4.178,1.148,4.139,4.139,0,0,1,1.4,3.4,3.466,3.466,0,0,1-.68,2.115,4.406,4.406,0,0,1-1.852,1.424,3.957,3.957,0,0,1,2.186,1.471,4.221,4.221,0,0,1,.8,2.584,4.563,4.563,0,0,1-1.488,3.609A6.155,6.155,0,0,1,7.9,0ZM4.23-7.98V-1.84H7.945a3.577,3.577,0,0,0,2.479-.814A2.86,2.86,0,0,0,11.332-4.9q0-3.082-3.352-3.082Zm0-1.8h3.4a3.567,3.567,0,0,0,2.361-.738,2.473,2.473,0,0,0,.885-2,2.431,2.431,0,0,0-.82-2.045,4.035,4.035,0,0,0-2.5-.639H4.23Zm17.438,8.25a3.123,3.123,0,0,0,2.027-.7A2.474,2.474,0,0,0,24.656-4h2.051a3.931,3.931,0,0,1-.75,2.074,4.94,4.94,0,0,1-1.846,1.57,5.326,5.326,0,0,1-2.443.586,5.223,5.223,0,0,1-4.119-1.729A6.884,6.884,0,0,1,16.02-6.223v-.363a7.634,7.634,0,0,1,.68-3.293,5.177,5.177,0,0,1,1.951-2.238,5.543,5.543,0,0,1,3.006-.8A5.085,5.085,0,0,1,25.2-11.637,4.565,4.565,0,0,1,26.707-8.32H24.656a2.988,2.988,0,0,0-.932-2.021,2.9,2.9,0,0,0-2.068-.791A3.034,3.034,0,0,0,19.1-9.943,5.586,5.586,0,0,0,18.188-6.5v.41a5.475,5.475,0,0,0,.9,3.375A3.049,3.049,0,0,0,21.668-1.535ZM34.406.234a5.54,5.54,0,0,1-4.2-1.693,6.285,6.285,0,0,1-1.617-4.529v-.4a7.609,7.609,0,0,1,.721-3.369,5.622,5.622,0,0,1,2.016-2.32,5.068,5.068,0,0,1,2.807-.838,4.749,4.749,0,0,1,3.844,1.629,7.053,7.053,0,0,1,1.371,4.664v.9h-8.59a4.507,4.507,0,0,0,1.1,3.029,3.444,3.444,0,0,0,2.666,1.154A3.776,3.776,0,0,0,36.469-2a4.888,4.888,0,0,0,1.395-1.242l1.324,1.031A5.325,5.325,0,0,1,34.406.234Zm-.27-11.367a2.892,2.892,0,0,0-2.2.955,4.642,4.642,0,0,0-1.1,2.678h6.352v-.164a4.129,4.129,0,0,0-.891-2.561A2.723,2.723,0,0,0,34.137-11.133Zm15.914.246H44.2V0h-2.18V-12.68h8.027Zm1.3,4.43a7.489,7.489,0,0,1,.732-3.352,5.464,5.464,0,0,1,2.039-2.3,5.551,5.551,0,0,1,2.982-.809,5.347,5.347,0,0,1,4.189,1.793,6.9,6.9,0,0,1,1.6,4.77V-6.2a7.555,7.555,0,0,1-.709,3.322A5.383,5.383,0,0,1,60.158-.586a5.614,5.614,0,0,1-3.029.82,5.334,5.334,0,0,1-4.178-1.793,6.863,6.863,0,0,1-1.6-4.746Zm2.18.258a5.424,5.424,0,0,0,.979,3.387,3.132,3.132,0,0,0,2.619,1.277A3.113,3.113,0,0,0,59.754-2.83a5.932,5.932,0,0,0,.973-3.627,5.415,5.415,0,0,0-.99-3.381,3.148,3.148,0,0,0-2.631-1.295,3.113,3.113,0,0,0-2.59,1.277A5.888,5.888,0,0,0,53.531-6.2Zm25-3.012a1.686,1.686,0,0,0-.68-1.412,2.992,2.992,0,0,0-1.863-.521,3.024,3.024,0,0,0-1.916.6A1.748,1.748,0,0,0,73.3-9.141H71.145a3.26,3.26,0,0,1,1.383-2.707A5.535,5.535,0,0,1,75.984-12.9a5.574,5.574,0,0,1,3.469.955A3.233,3.233,0,0,1,80.7-9.223a2.626,2.626,0,0,1-.516,1.57,3.512,3.512,0,0,1-1.465,1.137A2.907,2.907,0,0,1,80.93-3.562,3.285,3.285,0,0,1,79.582-.8a5.818,5.818,0,0,1-3.6,1.02A5.843,5.843,0,0,1,72.369-.85a3.441,3.441,0,0,1-1.424-2.9H73.1a1.979,1.979,0,0,0,.826,1.588,3.184,3.184,0,0,0,2.057.662,3.244,3.244,0,0,0,2-.574,1.782,1.782,0,0,0,.762-1.488,1.761,1.761,0,0,0-.639-1.529,3.41,3.41,0,0,0-1.986-.463H73.957V-7.383h2.355Q78.527-7.441,78.527-9.211ZM91.57,0a4.554,4.554,0,0,1-.3-1.336A4.837,4.837,0,0,1,87.656.234,4.476,4.476,0,0,1,84.58-.826a3.431,3.431,0,0,1-1.2-2.689,3.584,3.584,0,0,1,1.506-3.076,7.1,7.1,0,0,1,4.236-1.1H91.23v-1a2.435,2.435,0,0,0-.68-1.811,2.732,2.732,0,0,0-2-.674,3.161,3.161,0,0,0-1.945.586,1.727,1.727,0,0,0-.785,1.418h-2.18A2.992,2.992,0,0,1,84.311-11a4.6,4.6,0,0,1,1.828-1.4,6.15,6.15,0,0,1,2.537-.516,5.013,5.013,0,0,1,3.434,1.1A3.953,3.953,0,0,1,93.4-8.8v5.836a7.135,7.135,0,0,0,.445,2.777V0Zm-3.6-1.652a3.81,3.81,0,0,0,1.934-.527A3.19,3.19,0,0,0,91.23-3.551v-2.6h-1.7q-3.984,0-3.984,2.332a1.974,1.974,0,0,0,.68,1.594A2.612,2.612,0,0,0,87.973-1.652ZM107.168,0H105V-10.887H99.164V0h-2.18V-12.68h10.184Zm11.684-12.68h2.168V0h-2.168V-9.246L113,0h-2.168V-12.68H113v9.258ZM129.586-1.535a3.123,3.123,0,0,0,2.027-.7A2.474,2.474,0,0,0,132.574-4h2.051a3.931,3.931,0,0,1-.75,2.074,4.94,4.94,0,0,1-1.846,1.57,5.326,5.326,0,0,1-2.443.586,5.223,5.223,0,0,1-4.119-1.729,6.884,6.884,0,0,1-1.529-4.729v-.363a7.634,7.634,0,0,1,.68-3.293,5.177,5.177,0,0,1,1.951-2.238,5.543,5.543,0,0,1,3.006-.8,5.085,5.085,0,0,1,3.545,1.277,4.565,4.565,0,0,1,1.506,3.316h-2.051a2.988,2.988,0,0,0-.932-2.021,2.9,2.9,0,0,0-2.068-.791,3.034,3.034,0,0,0-2.561,1.189,5.586,5.586,0,0,0-.908,3.439v.41a5.475,5.475,0,0,0,.9,3.375A3.049,3.049,0,0,0,129.586-1.535ZM142.324.234a5.54,5.54,0,0,1-4.2-1.693,6.285,6.285,0,0,1-1.617-4.529v-.4a7.609,7.609,0,0,1,.721-3.369,5.622,5.622,0,0,1,2.016-2.32,5.068,5.068,0,0,1,2.807-.838,4.749,4.749,0,0,1,3.844,1.629,7.053,7.053,0,0,1,1.371,4.664v.9h-8.59a4.507,4.507,0,0,0,1.1,3.029,3.444,3.444,0,0,0,2.666,1.154A3.776,3.776,0,0,0,144.387-2a4.888,4.888,0,0,0,1.395-1.242l1.324,1.031A5.325,5.325,0,0,1,142.324.234Zm-.27-11.367a2.892,2.892,0,0,0-2.2.955,4.642,4.642,0,0,0-1.1,2.678H145.1v-.164a4.129,4.129,0,0,0-.891-2.561A2.723,2.723,0,0,0,142.055-11.133ZM157.98-12.68h2.168V0H157.98V-9.246L152.133,0h-2.168V-12.68h2.168v9.258Zm.586-4.617a2.9,2.9,0,0,1-.967,2.279,3.671,3.671,0,0,1-2.537.861,3.678,3.678,0,0,1-2.543-.867,2.9,2.9,0,0,1-.973-2.273h1.77a1.774,1.774,0,0,0,.445,1.283,1.723,1.723,0,0,0,1.3.463,1.747,1.747,0,0,0,1.283-.457,1.73,1.73,0,0,0,.463-1.289Z" transform="translate(282 110)"/><g class="u" transform="matrix(1, 0, 0, 1, 0, 0)"><path class="a" d="M10,0H520a10,10,0,0,1,10,10V76a10,10,0,0,1-10,10H10A10,10,0,0,1,0,76V10A10,10,0,0,1,10,0Z" transform="translate(98 243)"/></g><path class="h" d="M11.146-14.93h1.969V0H11.146V-11.5L3.794,0H1.815V-14.93H3.794v11.5Zm9.71,13.586a2.732,2.732,0,0,0,1.774-.615A2.164,2.164,0,0,0,23.471-3.5h1.794a3.44,3.44,0,0,1-.656,1.815A4.322,4.322,0,0,1,22.994-.308a4.66,4.66,0,0,1-2.138.513,4.57,4.57,0,0,1-3.6-1.512,6.024,6.024,0,0,1-1.338-4.137v-.318a6.679,6.679,0,0,1,.595-2.881A4.53,4.53,0,0,1,18.216-10.6a4.85,4.85,0,0,1,2.63-.7,4.45,4.45,0,0,1,3.1,1.118,3.994,3.994,0,0,1,1.318,2.9H23.471a2.614,2.614,0,0,0-.815-1.769,2.536,2.536,0,0,0-1.81-.692A2.655,2.655,0,0,0,18.606-8.7a4.888,4.888,0,0,0-.795,3.01v.359a4.79,4.79,0,0,0,.79,2.953A2.668,2.668,0,0,0,20.856-1.343Zm10.264-5.7,2.461-4.05H35.8l-3.63,5.486L35.909,0H33.715L31.151-4.153,28.588,0h-2.2l3.743-5.609L26.5-11.095H28.69ZM37.3-5.65a6.553,6.553,0,0,1,.641-2.933,4.781,4.781,0,0,1,1.784-2.01,4.857,4.857,0,0,1,2.61-.708A4.679,4.679,0,0,1,46-9.731a6.036,6.036,0,0,1,1.4,4.173v.133a6.61,6.61,0,0,1-.62,2.907,4.71,4.71,0,0,1-1.774,2,4.913,4.913,0,0,1-2.651.718A4.667,4.667,0,0,1,38.7-1.364a6.005,6.005,0,0,1-1.4-4.153Zm1.907.226a4.746,4.746,0,0,0,.856,2.963,2.74,2.74,0,0,0,2.292,1.118,2.724,2.724,0,0,0,2.3-1.133,5.19,5.19,0,0,0,.851-3.174,4.738,4.738,0,0,0-.866-2.958,2.755,2.755,0,0,0-2.3-1.133,2.724,2.724,0,0,0-2.266,1.118A5.152,5.152,0,0,0,39.211-5.424ZM49.69-1.548l.656-.81a7.689,7.689,0,0,0,1.261-4.307l.174-4.43h7.147v9.546h1.425V3.261h-1.9V0H50.716V3.261h-1.9l.01-4.809Zm2.246,0h5.1V-9.341H53.618L53.5-6.7A9.179,9.179,0,0,1,51.936-1.548Zm19-9.546V0H69.029V-4.317H66.168L63.554,0H61.5l2.789-4.6a3.312,3.312,0,0,1-1.635-1.2,3.239,3.239,0,0,1-.569-1.9,3,3,0,0,1,1.138-2.446,4.716,4.716,0,0,1,3.045-.938Zm-6.942,3.4a1.673,1.673,0,0,0,.554,1.307,2.15,2.15,0,0,0,1.466.508h3.015V-9.557H66.3a2.555,2.555,0,0,0-1.682.518A1.668,1.668,0,0,0,63.995-7.69Zm11.946-3.4v9.546H80v-9.546h1.9v9.546h4.05v-9.546h1.907v9.546h1.559l-.185,4.84h-1.7V0H74.033V-11.095Zm22.589,0h1.9V0h-1.9V-8.09L93.413,0h-1.9V-11.095h1.9v8.1Zm12.12,0h1.9V0h-1.9V-8.09L105.533,0h-1.9V-11.095h1.9v8.1Zm.513-4.04a2.541,2.541,0,0,1-.846,1.994,3.212,3.212,0,0,1-2.22.754,3.218,3.218,0,0,1-2.225-.759,2.538,2.538,0,0,1-.851-1.989h1.548a1.553,1.553,0,0,0,.39,1.123,1.507,1.507,0,0,0,1.138.405,1.529,1.529,0,0,0,1.123-.4,1.514,1.514,0,0,0,.405-1.128ZM120.965,0V-11.095h4.327a6.216,6.216,0,0,1,3.4.774,2.542,2.542,0,0,1,1.184,2.271,2.271,2.271,0,0,1-.461,1.389,2.858,2.858,0,0,1-1.364.948,3.015,3.015,0,0,1,1.615.923,2.387,2.387,0,0,1,.61,1.641A2.706,2.706,0,0,1,129.153-.81a5.357,5.357,0,0,1-3.174.81Zm1.9-4.871v3.343H126a2.96,2.96,0,0,0,1.779-.441,1.459,1.459,0,0,0,.59-1.241q0-1.661-2.44-1.661Zm0-1.518h2.451q2.666,0,2.666-1.559t-2.522-1.61h-2.594Zm12-.882h2.881a4.44,4.44,0,0,1,2.984.984,3.3,3.3,0,0,1,1.1,2.615A3.4,3.4,0,0,1,140.694-1a4.4,4.4,0,0,1-3.035,1h-4.7V-11.095h1.9ZM145.78,0h-1.907V-11.095h1.907Zm-10.92-5.722v4.173h2.82A2.32,2.32,0,0,0,139.33-2.1a1.96,1.96,0,0,0,.584-1.5,2.088,2.088,0,0,0-.569-1.512,2.177,2.177,0,0,0-1.594-.61ZM155.193-8.06A1.475,1.475,0,0,0,154.6-9.3a2.618,2.618,0,0,0-1.63-.456,2.646,2.646,0,0,0-1.677.523A1.53,1.53,0,0,0,150.62-8h-1.887a2.853,2.853,0,0,1,1.21-2.369,4.843,4.843,0,0,1,3.025-.923,4.878,4.878,0,0,1,3.035.836A2.829,2.829,0,0,1,157.09-8.07a2.3,2.3,0,0,1-.451,1.374,3.073,3.073,0,0,1-1.282.995,2.543,2.543,0,0,1,1.938,2.584A2.874,2.874,0,0,1,156.116-.7a5.091,5.091,0,0,1-3.148.892A5.113,5.113,0,0,1,149.8-.743a3.011,3.011,0,0,1-1.246-2.538h1.887a1.731,1.731,0,0,0,.723,1.389,2.786,2.786,0,0,0,1.8.579,2.839,2.839,0,0,0,1.753-.5,1.559,1.559,0,0,0,.667-1.3,1.541,1.541,0,0,0-.559-1.338,2.983,2.983,0,0,0-1.738-.405h-1.9v-1.6h2.061Q155.193-6.511,155.193-8.06Zm4.061,2.41a6.553,6.553,0,0,1,.641-2.933,4.781,4.781,0,0,1,1.784-2.01,4.857,4.857,0,0,1,2.61-.708,4.679,4.679,0,0,1,3.666,1.569,6.036,6.036,0,0,1,1.4,4.173v.133a6.61,6.61,0,0,1-.62,2.907,4.71,4.71,0,0,1-1.774,2,4.913,4.913,0,0,1-2.651.718,4.667,4.667,0,0,1-3.656-1.569,6.005,6.005,0,0,1-1.4-4.153Zm1.907.226a4.746,4.746,0,0,0,.856,2.963,2.74,2.74,0,0,0,2.292,1.118,2.724,2.724,0,0,0,2.3-1.133,5.19,5.19,0,0,0,.851-3.174,4.738,4.738,0,0,0-.866-2.958,2.755,2.755,0,0,0-2.3-1.133,2.724,2.724,0,0,0-2.266,1.118A5.152,5.152,0,0,0,161.161-5.424ZM171.907,0V-11.095h4.327a6.216,6.216,0,0,1,3.4.774,2.542,2.542,0,0,1,1.184,2.271,2.271,2.271,0,0,1-.461,1.389,2.858,2.858,0,0,1-1.364.948,3.015,3.015,0,0,1,1.615.923,2.387,2.387,0,0,1,.61,1.641A2.706,2.706,0,0,1,180.094-.81a5.357,5.357,0,0,1-3.174.81Zm1.9-4.871v3.343h3.138a2.96,2.96,0,0,0,1.779-.441,1.459,1.459,0,0,0,.59-1.241q0-1.661-2.44-1.661Zm0-1.518h2.451q2.666,0,2.666-1.559T176.4-9.557H173.8Z" transform="translate(119 280)"/><path class="i" d="M4.58-5.339H7.355v1.2H4.58V-1H3.309V-4.143H.533v-1.2H3.309V-8.244H4.58Zm10.609-3.9L11.067,0H9.741L13.85-8.914H8.463V-9.953h6.727Zm4.983,5.2a10.569,10.569,0,0,1,.414-2.967A8.618,8.618,0,0,1,21.82-9.591a5.249,5.249,0,0,1,1.7-1.641l.26.834A5.444,5.444,0,0,0,22.145-8.06a10.135,10.135,0,0,0-.7,3.521l-.007.581A10.188,10.188,0,0,0,22.4.622,5.47,5.47,0,0,0,23.782,2.44l-.26.772a5.418,5.418,0,0,1-1.736-1.7A9.5,9.5,0,0,1,20.173-4.04Zm10.042.7H31.6v1.032H30.215V0H28.943V-2.311H24.411v-.745l4.457-6.9h1.347Zm-4.368,0h3.1V-8.224l-.15.273ZM37.584-4.375a3.094,3.094,0,0,1-.947.759,2.569,2.569,0,0,1-1.207.287,2.652,2.652,0,0,1-1.5-.424,2.755,2.755,0,0,1-.988-1.193,4.067,4.067,0,0,1-.349-1.7,4.143,4.143,0,0,1,.379-1.8A2.787,2.787,0,0,1,34.05-9.666a3.07,3.07,0,0,1,1.627-.424A2.78,2.78,0,0,1,38-8.986a4.815,4.815,0,0,1,.851,3.011v.369a6.434,6.434,0,0,1-1.148,4.242A4.412,4.412,0,0,1,34.241.007H34V-1.06h.267a3.478,3.478,0,0,0,2.406-.817A3.509,3.509,0,0,0,37.584-4.375Zm-1.948,0a1.953,1.953,0,0,0,1.172-.39,2.3,2.3,0,0,0,.783-.964v-.506a3.48,3.48,0,0,0-.54-2.023,1.611,1.611,0,0,0-1.367-.779,1.624,1.624,0,0,0-1.34.639,2.637,2.637,0,0,0-.506,1.685,2.744,2.744,0,0,0,.489,1.678A1.548,1.548,0,0,0,35.636-4.375ZM41.18-4.99l.506-4.963h5.1v1.169H42.759l-.3,2.714A3.212,3.212,0,0,1,44.119-6.5a2.746,2.746,0,0,1,2.16.9,3.523,3.523,0,0,1,.8,2.43,3.4,3.4,0,0,1-.831,2.423,3.027,3.027,0,0,1-2.321.885,3.146,3.146,0,0,1-2.153-.731,2.919,2.919,0,0,1-.95-2.023h1.2a2.008,2.008,0,0,0,.608,1.289,1.892,1.892,0,0,0,1.3.434,1.706,1.706,0,0,0,1.384-.6,2.515,2.515,0,0,0,.5-1.661,2.308,2.308,0,0,0-.543-1.6,1.849,1.849,0,0,0-1.446-.6,2.085,2.085,0,0,0-1.3.362l-.335.273ZM51.509-3.972a10.574,10.574,0,0,1-.4,2.922,8.641,8.641,0,0,1-1.224,2.581,5.361,5.361,0,0,1-1.726,1.682l-.267-.772A5.5,5.5,0,0,0,49.584-.065a10.839,10.839,0,0,0,.653-3.77v-.219a11.254,11.254,0,0,0-.3-2.669A9.009,9.009,0,0,0,49.1-8.935a5.108,5.108,0,0,0-1.207-1.524l.267-.772a5.34,5.34,0,0,1,1.719,1.668A8.66,8.66,0,0,1,51.1-6.986,10.818,10.818,0,0,1,51.509-3.972ZM63.314,0H56.793V-.909l3.445-3.828a8.185,8.185,0,0,0,1.056-1.412,2.356,2.356,0,0,0,.291-1.125,1.786,1.786,0,0,0-.472-1.278,1.649,1.649,0,0,0-1.258-.5,1.953,1.953,0,0,0-1.466.537,2.05,2.05,0,0,0-.523,1.494H56.6a2.936,2.936,0,0,1,.885-2.222,3.282,3.282,0,0,1,2.369-.848,3.153,3.153,0,0,1,2.194.728,2.483,2.483,0,0,1,.807,1.938q0,1.47-1.873,3.5L58.317-1.032h5Zm6.3-9.96v1.073h-.232a3.33,3.33,0,0,0-2.352.875,3.641,3.641,0,0,0-1.012,2.386,2.7,2.7,0,0,1,2.146-.9,2.581,2.581,0,0,1,2.075.916,3.533,3.533,0,0,1,.776,2.365,3.522,3.522,0,0,1-.837,2.461,2.883,2.883,0,0,1-2.246.923,2.841,2.841,0,0,1-2.317-1.1,4.348,4.348,0,0,1-.889-2.827v-.485a6.552,6.552,0,0,1,1.172-4.2,4.306,4.306,0,0,1,3.49-1.487ZM67.956-5.476a2.018,2.018,0,0,0-1.2.39A2.03,2.03,0,0,0,66-4.108v.465a3.265,3.265,0,0,0,.554,1.982,1.659,1.659,0,0,0,1.381.752,1.608,1.608,0,0,0,1.343-.629,2.61,2.61,0,0,0,.489-1.647,2.61,2.61,0,0,0-.5-1.658A1.589,1.589,0,0,0,67.956-5.476ZM77.479-9.96v1.073h-.232a3.33,3.33,0,0,0-2.352.875,3.641,3.641,0,0,0-1.012,2.386,2.7,2.7,0,0,1,2.146-.9,2.581,2.581,0,0,1,2.075.916,3.533,3.533,0,0,1,.776,2.365,3.522,3.522,0,0,1-.837,2.461A2.883,2.883,0,0,1,75.8.137a2.841,2.841,0,0,1-2.317-1.1,4.348,4.348,0,0,1-.889-2.827v-.485a6.552,6.552,0,0,1,1.172-4.2,4.306,4.306,0,0,1,3.49-1.487ZM75.817-5.476a2.018,2.018,0,0,0-1.2.39,2.03,2.03,0,0,0-.759.978v.465a3.265,3.265,0,0,0,.554,1.982A1.659,1.659,0,0,0,75.8-.909a1.608,1.608,0,0,0,1.343-.629,2.61,2.61,0,0,0,.489-1.647,2.61,2.61,0,0,0-.5-1.658A1.589,1.589,0,0,0,75.817-5.476ZM88.806-9.96v1.073h-.232a3.33,3.33,0,0,0-2.352.875A3.641,3.641,0,0,0,85.21-5.626a2.7,2.7,0,0,1,2.146-.9,2.581,2.581,0,0,1,2.075.916,3.533,3.533,0,0,1,.776,2.365A3.522,3.522,0,0,1,89.37-.786a2.883,2.883,0,0,1-2.246.923,2.841,2.841,0,0,1-2.317-1.1,4.348,4.348,0,0,1-.889-2.827v-.485a6.552,6.552,0,0,1,1.172-4.2A4.306,4.306,0,0,1,88.58-9.96ZM87.145-5.476a2.018,2.018,0,0,0-1.2.39,2.03,2.03,0,0,0-.759.978v.465a3.265,3.265,0,0,0,.554,1.982,1.659,1.659,0,0,0,1.381.752,1.608,1.608,0,0,0,1.343-.629,2.61,2.61,0,0,0,.489-1.647,2.61,2.61,0,0,0-.5-1.658A1.589,1.589,0,0,0,87.145-5.476ZM98.226,0H91.7V-.909l3.445-3.828a8.185,8.185,0,0,0,1.056-1.412A2.356,2.356,0,0,0,96.5-7.273a1.786,1.786,0,0,0-.472-1.278,1.649,1.649,0,0,0-1.258-.5,1.953,1.953,0,0,0-1.466.537,2.05,2.05,0,0,0-.523,1.494H91.513A2.936,2.936,0,0,1,92.4-9.242a3.282,3.282,0,0,1,2.369-.848,3.153,3.153,0,0,1,2.194.728,2.483,2.483,0,0,1,.807,1.938q0,1.47-1.873,3.5L93.229-1.032h5Zm11.231-9.242L105.335,0h-1.326l4.108-8.914H102.73V-9.953h6.727Zm3.274,3.65h.95a2.088,2.088,0,0,0,1.408-.472A1.576,1.576,0,0,0,115.6-7.3a1.544,1.544,0,0,0-1.743-1.75,1.813,1.813,0,0,0-1.309.468,1.639,1.639,0,0,0-.489,1.241H110.8a2.539,2.539,0,0,1,.865-1.965,3.15,3.15,0,0,1,2.2-.783,3.113,3.113,0,0,1,2.208.745,2.692,2.692,0,0,1,.8,2.071,2.185,2.185,0,0,1-.42,1.258,2.538,2.538,0,0,1-1.145.909,2.446,2.446,0,0,1,1.268.861,2.392,2.392,0,0,1,.448,1.47,2.715,2.715,0,0,1-.875,2.126,3.277,3.277,0,0,1-2.276.786,3.363,3.363,0,0,1-2.28-.759,2.517,2.517,0,0,1-.878-2h1.271a1.627,1.627,0,0,0,.513,1.258,1.95,1.95,0,0,0,1.374.472,1.914,1.914,0,0,0,1.4-.479,1.844,1.844,0,0,0,.485-1.374,1.673,1.673,0,0,0-.533-1.333,2.323,2.323,0,0,0-1.538-.479h-.95Z" transform="translate(119 308)"/><path class="i" d="M1.155,0V-9.953H4.409a3.777,3.777,0,0,1,2.437.67A2.414,2.414,0,0,1,7.663-7.3a2.022,2.022,0,0,1-.4,1.234,2.57,2.57,0,0,1-1.08.831,2.308,2.308,0,0,1,1.275.858A2.462,2.462,0,0,1,7.93-2.871,2.662,2.662,0,0,1,7.062-.766,3.59,3.59,0,0,1,4.607,0ZM2.468-4.655v3.582H4.635a2.087,2.087,0,0,0,1.446-.475,1.669,1.669,0,0,0,.53-1.309q0-1.8-1.955-1.8Zm0-1.053H4.45a2.081,2.081,0,0,0,1.377-.431,1.442,1.442,0,0,0,.516-1.169A1.418,1.418,0,0,0,5.865-8.5a2.354,2.354,0,0,0-1.456-.373H2.468ZM15.258,0H13.986V-2.68a6.708,6.708,0,0,1-1.709.219,2.907,2.907,0,0,1-2.116-.711A2.742,2.742,0,0,1,9.42-5.2V-7.4h1.265v2.249Q10.719-3.5,12.277-3.5a6.708,6.708,0,0,0,1.709-.219V-7.4h1.271Zm5.093.137A3.232,3.232,0,0,1,17.9-.851a3.666,3.666,0,0,1-.943-2.642v-.232a4.438,4.438,0,0,1,.42-1.965,3.28,3.28,0,0,1,1.176-1.354,2.956,2.956,0,0,1,1.637-.489,2.77,2.77,0,0,1,2.242.95,4.114,4.114,0,0,1,.8,2.721v.526H18.225a2.629,2.629,0,0,0,.639,1.767A2.009,2.009,0,0,0,20.419-.9a2.2,2.2,0,0,0,1.135-.273,2.851,2.851,0,0,0,.813-.725l.772.6A3.106,3.106,0,0,1,20.351.137Zm-.157-6.631a1.687,1.687,0,0,0-1.285.557,2.708,2.708,0,0,0-.643,1.562h3.705v-.1a2.409,2.409,0,0,0-.52-1.494A1.588,1.588,0,0,0,20.193-6.494ZM30.946-3.616A4.429,4.429,0,0,1,30.174-.9,2.476,2.476,0,0,1,28.082.137a2.713,2.713,0,0,1-2.119-.854V2.844H24.7V-7.4h1.155l.062.82a2.605,2.605,0,0,1,2.146-.957,2.522,2.522,0,0,1,2.109,1,4.477,4.477,0,0,1,.776,2.8ZM29.682-3.76a3.268,3.268,0,0,0-.533-1.976,1.718,1.718,0,0,0-1.463-.725,1.859,1.859,0,0,0-1.723,1.019v3.534A1.863,1.863,0,0,0,27.7-.9a1.71,1.71,0,0,0,1.446-.721A3.567,3.567,0,0,0,29.682-3.76ZM37.119,0a2.657,2.657,0,0,1-.178-.779,2.822,2.822,0,0,1-2.105.916,2.611,2.611,0,0,1-1.794-.619,2,2,0,0,1-.7-1.569,2.091,2.091,0,0,1,.878-1.794,4.142,4.142,0,0,1,2.471-.639h1.23v-.581a1.42,1.42,0,0,0-.4-1.056,1.593,1.593,0,0,0-1.169-.393,1.844,1.844,0,0,0-1.135.342,1.007,1.007,0,0,0-.458.827H32.491a1.745,1.745,0,0,1,.393-1.07,2.683,2.683,0,0,1,1.066-.817,3.588,3.588,0,0,1,1.48-.3,2.924,2.924,0,0,1,2,.639,2.306,2.306,0,0,1,.752,1.76v3.4a4.162,4.162,0,0,0,.26,1.62V0Zm-2.1-.964a2.223,2.223,0,0,0,1.128-.308,1.861,1.861,0,0,0,.772-.8V-3.589H35.93q-2.324,0-2.324,1.36a1.151,1.151,0,0,0,.4.93A1.524,1.524,0,0,0,35.021-.964Z" transform="translate(567 278)"/><path class="i" d="M4.983,0H3.712V-8.429l-2.55.937V-8.641L4.785-10h.2ZM15.21,0H8.688V-.909l3.445-3.828A8.185,8.185,0,0,0,13.19-6.149a2.356,2.356,0,0,0,.291-1.125,1.786,1.786,0,0,0-.472-1.278,1.649,1.649,0,0,0-1.258-.5,1.953,1.953,0,0,0-1.466.537,2.05,2.05,0,0,0-.523,1.494H8.5a2.936,2.936,0,0,1,.885-2.222,3.282,3.282,0,0,1,2.369-.848,3.153,3.153,0,0,1,2.194.728,2.483,2.483,0,0,1,.807,1.938q0,1.47-1.873,3.5L10.213-1.032h5Zm1.429-.663a.792.792,0,0,1,.195-.547.742.742,0,0,1,.584-.219.765.765,0,0,1,.591.219.776.776,0,0,1,.2.547.734.734,0,0,1-.2.526.778.778,0,0,1-.591.212.755.755,0,0,1-.584-.212A.748.748,0,0,1,16.639-.663ZM16.646-6.7a.792.792,0,0,1,.195-.547.742.742,0,0,1,.584-.219.765.765,0,0,1,.591.219.776.776,0,0,1,.2.547.734.734,0,0,1-.2.526.778.778,0,0,1-.591.212.755.755,0,0,1-.584-.212A.748.748,0,0,1,16.646-6.7ZM26.462,0H19.94V-.909l3.445-3.828a8.185,8.185,0,0,0,1.056-1.412,2.356,2.356,0,0,0,.291-1.125,1.786,1.786,0,0,0-.472-1.278A1.649,1.649,0,0,0,23-9.051a1.953,1.953,0,0,0-1.466.537,2.05,2.05,0,0,0-.523,1.494H19.749a2.936,2.936,0,0,1,.885-2.222A3.282,3.282,0,0,1,23-10.09a3.153,3.153,0,0,1,2.194.728A2.483,2.483,0,0,1,26-7.424q0,1.47-1.873,3.5L21.465-1.032h5Zm6.679-3.343h1.381v1.032H33.141V0H31.869V-2.311H27.337v-.745l4.457-6.9h1.347Zm-4.368,0h3.1V-8.224l-.15.273Z" transform="translate(567 308)"/><path class="j" d="M15.5,0A15.5,15.5,0,1,1,0,15.5,15.5,15.5,0,0,1,15.5,0Z" transform="translate(519 271)"/><path class="k" d="M24.131,5.262a.474.474,0,1,0-.5.8,1.753,1.753,0,0,1,0,2.975l-7.774,4.847A1.753,1.753,0,0,1,13.174,12.4V2.706a1.753,1.753,0,0,1,2.681-1.488L20.38,4.041a.474.474,0,1,0,.5-.8L16.356.414a2.7,2.7,0,0,0-4.13,2.292V12.4a2.668,2.668,0,0,0,1.39,2.362,2.668,2.668,0,0,0,2.74-.07l7.774-4.847a2.7,2.7,0,0,0,0-4.584Z" transform="translate(516.774 278.892)"/><g class="t" transform="matrix(1, 0, 0, 1, 0, 0)"><path class="a" d="M10,0H520a10,10,0,0,1,10,10V76a10,10,0,0,1-10,10H10A10,10,0,0,1,0,76V10A10,10,0,0,1,10,0Z" transform="translate(98 345)"/></g><path class="h" d="M4.276-14.93,9.157-2.748,14.038-14.93h2.553V0H14.622V-5.814l.185-6.275L9.905,0H8.4L3.507-12.059,3.7-5.814V0H1.733V-14.93Zm22.671,3.835h1.9V0h-1.9V-8.09L21.831,0h-1.9V-11.095h1.9v8.1Zm8.665,4.05,2.461-4.05h2.215l-3.63,5.486L40.4,0H38.206L35.643-4.153,33.079,0h-2.2l3.743-5.609-3.63-5.486h2.194ZM49.147,0a3.985,3.985,0,0,1-.267-1.169A4.233,4.233,0,0,1,45.722.205a3.916,3.916,0,0,1-2.692-.928,3,3,0,0,1-1.051-2.353A3.136,3.136,0,0,1,43.3-5.768,6.212,6.212,0,0,1,47-6.727H48.85V-7.6a2.131,2.131,0,0,0-.595-1.584,2.39,2.39,0,0,0-1.753-.59,2.766,2.766,0,0,0-1.7.513,1.511,1.511,0,0,0-.687,1.241H42.205a2.618,2.618,0,0,1,.59-1.6,4.024,4.024,0,0,1,1.6-1.225,5.381,5.381,0,0,1,2.22-.451,4.386,4.386,0,0,1,3,.959A3.458,3.458,0,0,1,50.747-7.7v5.106a6.243,6.243,0,0,0,.39,2.43V0ZM46-1.446a3.334,3.334,0,0,0,1.692-.461,2.791,2.791,0,0,0,1.159-1.2V-5.383H47.363q-3.486,0-3.486,2.041a1.727,1.727,0,0,0,.595,1.395A2.286,2.286,0,0,0,46-1.446Zm14.9-9.649h1.9V0H60.9V-8.09L55.781,0h-1.9V-11.095h1.9v8.1Zm14.038,0V0H73.028V-9.526H69.255l-.226,4.153a9.179,9.179,0,0,1-.959,4.091A2.8,2.8,0,0,1,65.615,0h-.759V-1.671l.543-.041a1.568,1.568,0,0,0,1.323-1.066,12.022,12.022,0,0,0,.513-3.568l.205-4.748Zm17.8-2.215h-7.2V0H83.559V-14.93h9.177ZM98.489-2.779l2.584-8.316h2.03L98.643,1.712q-1.036,2.769-3.292,2.769l-.359-.031-.708-.133V2.779l.513.041a2.524,2.524,0,0,0,1.5-.39A2.82,2.82,0,0,0,97.187,1l.42-1.128L93.649-11.095H95.72Zm11.177-7.68a4.278,4.278,0,0,1,3.348,1.4,5.31,5.31,0,0,1,1.256,3.686V-5.2a6.3,6.3,0,0,1-.6,2.8,4.483,4.483,0,0,1-1.738,1.917,4.961,4.961,0,0,1-2.61.682,4.644,4.644,0,0,1-3.6-1.492,5.706,5.706,0,0,1-1.364-4v-.923a10.352,10.352,0,0,1,1.3-5.558,5.435,5.435,0,0,1,3.83-2.512,5.086,5.086,0,0,0,1.938-.625,1.191,1.191,0,0,0,.5-1.015h1.559a3.1,3.1,0,0,1-.579,2,3.236,3.236,0,0,1-1.851,1.015l-1.415.318a4.763,4.763,0,0,0-2.538,1.348,4.878,4.878,0,0,0-1.1,2.528A4.679,4.679,0,0,1,109.666-10.459ZM109.3-8.9a2.792,2.792,0,0,0-2.215.938,3.818,3.818,0,0,0-.82,2.6V-5.2a4.425,4.425,0,0,0,.825,2.825,2.7,2.7,0,0,0,2.23,1.041,2.688,2.688,0,0,0,2.235-1.046,4.874,4.874,0,0,0,.82-3.056,3.7,3.7,0,0,0-.825-2.517A2.829,2.829,0,0,0,109.3-8.9Zm14.284-2.194h1.9V0h-1.9V-8.09L118.463,0h-1.9V-11.095h1.9v8.1ZM137.587,0h-1.9V-4.737h-5.1V0h-1.907V-11.095h1.907v4.809h5.1v-4.809h1.9Zm2.543-5.65a6.553,6.553,0,0,1,.641-2.933,4.781,4.781,0,0,1,1.784-2.01,4.857,4.857,0,0,1,2.61-.708,4.679,4.679,0,0,1,3.666,1.569,6.036,6.036,0,0,1,1.4,4.173v.133a6.61,6.61,0,0,1-.62,2.907,4.71,4.71,0,0,1-1.774,2,4.913,4.913,0,0,1-2.651.718,4.667,4.667,0,0,1-3.656-1.569,6.005,6.005,0,0,1-1.4-4.153Zm1.907.226a4.746,4.746,0,0,0,.856,2.963,2.74,2.74,0,0,0,2.292,1.118,2.724,2.724,0,0,0,2.3-1.133,5.19,5.19,0,0,0,.851-3.174,4.738,4.738,0,0,0-.866-2.958,2.755,2.755,0,0,0-2.3-1.133A2.724,2.724,0,0,0,142.9-8.624,5.152,5.152,0,0,0,142.037-5.424ZM152.783,0V-11.095h4.327a6.216,6.216,0,0,1,3.4.774,2.542,2.542,0,0,1,1.184,2.271,2.271,2.271,0,0,1-.461,1.389,2.858,2.858,0,0,1-1.364.948,3.015,3.015,0,0,1,1.615.923,2.387,2.387,0,0,1,.61,1.641A2.706,2.706,0,0,1,160.971-.81,5.357,5.357,0,0,1,157.8,0Zm1.9-4.871v3.343h3.138a2.96,2.96,0,0,0,1.779-.441,1.459,1.459,0,0,0,.59-1.241q0-1.661-2.44-1.661Zm0-1.518h2.451q2.666,0,2.666-1.559t-2.522-1.61H154.68Zm17.1-4.707h1.9V0h-1.9V-8.09L166.667,0h-1.9V-11.095h1.9v8.1ZM185.1,0H183.2V-4.02a10.062,10.062,0,0,1-2.563.328,4.361,4.361,0,0,1-3.174-1.066,4.113,4.113,0,0,1-1.113-3.035V-11.1h1.9v3.374q.051,2.481,2.389,2.481a10.062,10.062,0,0,0,2.563-.328v-5.517H185.1Z" transform="translate(119 382)"/><path class="i" d="M4.58-5.339H7.355v1.2H4.58V-1H3.309V-4.143H.533v-1.2H3.309V-8.244H4.58Zm10.609-3.9L11.067,0H9.741L13.85-8.914H8.463V-9.953h6.727Zm4.983,5.2a10.569,10.569,0,0,1,.414-2.967A8.618,8.618,0,0,1,21.82-9.591a5.249,5.249,0,0,1,1.7-1.641l.26.834A5.444,5.444,0,0,0,22.145-8.06a10.135,10.135,0,0,0-.7,3.521l-.007.581A10.188,10.188,0,0,0,22.4.622,5.47,5.47,0,0,0,23.782,2.44l-.26.772a5.418,5.418,0,0,1-1.736-1.7A9.5,9.5,0,0,1,20.173-4.04Zm10.042.7H31.6v1.032H30.215V0H28.943V-2.311H24.411v-.745l4.457-6.9h1.347Zm-4.368,0h3.1V-8.224l-.15.273ZM37.584-4.375a3.094,3.094,0,0,1-.947.759,2.569,2.569,0,0,1-1.207.287,2.652,2.652,0,0,1-1.5-.424,2.755,2.755,0,0,1-.988-1.193,4.067,4.067,0,0,1-.349-1.7,4.143,4.143,0,0,1,.379-1.8A2.787,2.787,0,0,1,34.05-9.666a3.07,3.07,0,0,1,1.627-.424A2.78,2.78,0,0,1,38-8.986a4.815,4.815,0,0,1,.851,3.011v.369a6.434,6.434,0,0,1-1.148,4.242A4.412,4.412,0,0,1,34.241.007H34V-1.06h.267a3.478,3.478,0,0,0,2.406-.817A3.509,3.509,0,0,0,37.584-4.375Zm-1.948,0a1.953,1.953,0,0,0,1.172-.39,2.3,2.3,0,0,0,.783-.964v-.506a3.48,3.48,0,0,0-.54-2.023,1.611,1.611,0,0,0-1.367-.779,1.624,1.624,0,0,0-1.34.639,2.637,2.637,0,0,0-.506,1.685,2.744,2.744,0,0,0,.489,1.678A1.548,1.548,0,0,0,35.636-4.375ZM41.18-4.99l.506-4.963h5.1v1.169H42.759l-.3,2.714A3.212,3.212,0,0,1,44.119-6.5a2.746,2.746,0,0,1,2.16.9,3.523,3.523,0,0,1,.8,2.43,3.4,3.4,0,0,1-.831,2.423,3.027,3.027,0,0,1-2.321.885,3.146,3.146,0,0,1-2.153-.731,2.919,2.919,0,0,1-.95-2.023h1.2a2.008,2.008,0,0,0,.608,1.289,1.892,1.892,0,0,0,1.3.434,1.706,1.706,0,0,0,1.384-.6,2.515,2.515,0,0,0,.5-1.661,2.308,2.308,0,0,0-.543-1.6,1.849,1.849,0,0,0-1.446-.6,2.085,2.085,0,0,0-1.3.362l-.335.273ZM51.509-3.972a10.574,10.574,0,0,1-.4,2.922,8.641,8.641,0,0,1-1.224,2.581,5.361,5.361,0,0,1-1.726,1.682l-.267-.772A5.5,5.5,0,0,0,49.584-.065a10.839,10.839,0,0,0,.653-3.77v-.219a11.254,11.254,0,0,0-.3-2.669A9.009,9.009,0,0,0,49.1-8.935a5.108,5.108,0,0,0-1.207-1.524l.267-.772a5.34,5.34,0,0,1,1.719,1.668A8.66,8.66,0,0,1,51.1-6.986,10.818,10.818,0,0,1,51.509-3.972Zm7.123-1.62h.95a2.088,2.088,0,0,0,1.408-.472A1.576,1.576,0,0,0,61.5-7.3a1.544,1.544,0,0,0-1.743-1.75,1.813,1.813,0,0,0-1.309.468,1.639,1.639,0,0,0-.489,1.241H56.7a2.539,2.539,0,0,1,.865-1.965,3.15,3.15,0,0,1,2.2-.783,3.113,3.113,0,0,1,2.208.745,2.692,2.692,0,0,1,.8,2.071,2.185,2.185,0,0,1-.42,1.258,2.538,2.538,0,0,1-1.145.909,2.446,2.446,0,0,1,1.268.861,2.392,2.392,0,0,1,.448,1.47,2.715,2.715,0,0,1-.875,2.126,3.277,3.277,0,0,1-2.276.786,3.363,3.363,0,0,1-2.28-.759,2.517,2.517,0,0,1-.878-2H57.88a1.627,1.627,0,0,0,.513,1.258A1.95,1.95,0,0,0,59.767-.9a1.914,1.914,0,0,0,1.4-.479,1.844,1.844,0,0,0,.485-1.374,1.673,1.673,0,0,0-.533-1.333,2.323,2.323,0,0,0-1.538-.479h-.95ZM69.993-3.343h1.381v1.032H69.993V0H68.722V-2.311H64.189v-.745l4.457-6.9h1.347Zm-4.368,0h3.1V-8.224l-.15.273ZM77.479-9.96v1.073h-.232a3.33,3.33,0,0,0-2.352.875,3.641,3.641,0,0,0-1.012,2.386,2.7,2.7,0,0,1,2.146-.9,2.581,2.581,0,0,1,2.075.916,3.533,3.533,0,0,1,.776,2.365,3.522,3.522,0,0,1-.837,2.461A2.883,2.883,0,0,1,75.8.137a2.841,2.841,0,0,1-2.317-1.1,4.348,4.348,0,0,1-.889-2.827v-.485a6.552,6.552,0,0,1,1.172-4.2,4.306,4.306,0,0,1,3.49-1.487ZM75.817-5.476a2.018,2.018,0,0,0-1.2.39,2.03,2.03,0,0,0-.759.978v.465a3.265,3.265,0,0,0,.554,1.982A1.659,1.659,0,0,0,75.8-.909a1.608,1.608,0,0,0,1.343-.629,2.61,2.61,0,0,0,.489-1.647,2.61,2.61,0,0,0-.5-1.658A1.589,1.589,0,0,0,75.817-5.476Zm9.864-.116h.95a2.088,2.088,0,0,0,1.408-.472A1.576,1.576,0,0,0,88.553-7.3a1.544,1.544,0,0,0-1.743-1.75,1.813,1.813,0,0,0-1.309.468,1.639,1.639,0,0,0-.489,1.241H83.747a2.539,2.539,0,0,1,.865-1.965,3.15,3.15,0,0,1,2.2-.783,3.113,3.113,0,0,1,2.208.745,2.692,2.692,0,0,1,.8,2.071,2.185,2.185,0,0,1-.42,1.258,2.538,2.538,0,0,1-1.145.909,2.446,2.446,0,0,1,1.268.861,2.392,2.392,0,0,1,.448,1.47,2.715,2.715,0,0,1-.875,2.126,3.277,3.277,0,0,1-2.276.786,3.363,3.363,0,0,1-2.28-.759,2.517,2.517,0,0,1-.878-2H84.93a1.627,1.627,0,0,0,.513,1.258A1.95,1.95,0,0,0,86.816-.9a1.914,1.914,0,0,0,1.4-.479A1.844,1.844,0,0,0,88.7-2.748a1.673,1.673,0,0,0-.533-1.333,2.323,2.323,0,0,0-1.538-.479h-.95ZM97.043-3.343h1.381v1.032H97.043V0H95.771V-2.311H91.239v-.745l4.457-6.9h1.347Zm-4.368,0h3.1V-8.224l-.15.273ZM107.188,0h-1.271V-8.429l-2.55.937V-8.641L106.989-10h.2Zm9.946-4.245a5.784,5.784,0,0,1-.759,3.3A2.7,2.7,0,0,1,114,.137a2.718,2.718,0,0,1-2.358-1.056,5.49,5.49,0,0,1-.793-3.155V-5.763a5.655,5.655,0,0,1,.759-3.261,2.719,2.719,0,0,1,2.379-1.066,2.744,2.744,0,0,1,2.365,1.029,5.458,5.458,0,0,1,.779,3.175Zm-1.265-1.729a4.634,4.634,0,0,0-.451-2.341,1.553,1.553,0,0,0-1.429-.735,1.532,1.532,0,0,0-1.415.731,4.525,4.525,0,0,0-.458,2.249v2.023a4.708,4.708,0,0,0,.468,2.382A1.55,1.55,0,0,0,114-.9a1.529,1.529,0,0,0,1.391-.725,4.538,4.538,0,0,0,.475-2.283Z" transform="translate(119 410)"/><path class="i" d="M1.155,0V-9.953H4.409a3.777,3.777,0,0,1,2.437.67A2.414,2.414,0,0,1,7.663-7.3a2.022,2.022,0,0,1-.4,1.234,2.57,2.57,0,0,1-1.08.831,2.308,2.308,0,0,1,1.275.858A2.462,2.462,0,0,1,7.93-2.871,2.662,2.662,0,0,1,7.062-.766,3.59,3.59,0,0,1,4.607,0ZM2.468-4.655v3.582H4.635a2.087,2.087,0,0,0,1.446-.475,1.669,1.669,0,0,0,.53-1.309q0-1.8-1.955-1.8Zm0-1.053H4.45a2.081,2.081,0,0,0,1.377-.431,1.442,1.442,0,0,0,.516-1.169A1.418,1.418,0,0,0,5.865-8.5a2.354,2.354,0,0,0-1.456-.373H2.468ZM15.258,0H13.986V-2.68a6.708,6.708,0,0,1-1.709.219,2.907,2.907,0,0,1-2.116-.711A2.742,2.742,0,0,1,9.42-5.2V-7.4h1.265v2.249Q10.719-3.5,12.277-3.5a6.708,6.708,0,0,0,1.709-.219V-7.4h1.271Zm5.093.137A3.232,3.232,0,0,1,17.9-.851a3.666,3.666,0,0,1-.943-2.642v-.232a4.438,4.438,0,0,1,.42-1.965,3.28,3.28,0,0,1,1.176-1.354,2.956,2.956,0,0,1,1.637-.489,2.77,2.77,0,0,1,2.242.95,4.114,4.114,0,0,1,.8,2.721v.526H18.225a2.629,2.629,0,0,0,.639,1.767A2.009,2.009,0,0,0,20.419-.9a2.2,2.2,0,0,0,1.135-.273,2.851,2.851,0,0,0,.813-.725l.772.6A3.106,3.106,0,0,1,20.351.137Zm-.157-6.631a1.687,1.687,0,0,0-1.285.557,2.708,2.708,0,0,0-.643,1.562h3.705v-.1a2.409,2.409,0,0,0-.52-1.494A1.588,1.588,0,0,0,20.193-6.494ZM30.946-3.616A4.429,4.429,0,0,1,30.174-.9,2.476,2.476,0,0,1,28.082.137a2.713,2.713,0,0,1-2.119-.854V2.844H24.7V-7.4h1.155l.062.82a2.605,2.605,0,0,1,2.146-.957,2.522,2.522,0,0,1,2.109,1,4.477,4.477,0,0,1,.776,2.8ZM29.682-3.76a3.268,3.268,0,0,0-.533-1.976,1.718,1.718,0,0,0-1.463-.725,1.859,1.859,0,0,0-1.723,1.019v3.534A1.863,1.863,0,0,0,27.7-.9a1.71,1.71,0,0,0,1.446-.721A3.567,3.567,0,0,0,29.682-3.76ZM37.119,0a2.657,2.657,0,0,1-.178-.779,2.822,2.822,0,0,1-2.105.916,2.611,2.611,0,0,1-1.794-.619,2,2,0,0,1-.7-1.569,2.091,2.091,0,0,1,.878-1.794,4.142,4.142,0,0,1,2.471-.639h1.23v-.581a1.42,1.42,0,0,0-.4-1.056,1.593,1.593,0,0,0-1.169-.393,1.844,1.844,0,0,0-1.135.342,1.007,1.007,0,0,0-.458.827H32.491a1.745,1.745,0,0,1,.393-1.07,2.683,2.683,0,0,1,1.066-.817,3.588,3.588,0,0,1,1.48-.3,2.924,2.924,0,0,1,2,.639,2.306,2.306,0,0,1,.752,1.76v3.4a4.162,4.162,0,0,0,.26,1.62V0Zm-2.1-.964a2.223,2.223,0,0,0,1.128-.308,1.861,1.861,0,0,0,.772-.8V-3.589H35.93q-2.324,0-2.324,1.36a1.151,1.151,0,0,0,.4.93A1.524,1.524,0,0,0,35.021-.964Z" transform="translate(567 380)"/><path class="i" d="M4.983,0H3.712V-8.429l-2.55.937V-8.641L4.785-10h.2Zm7.861,0H11.573V-8.429l-2.55.937V-8.641L12.646-10h.2Zm3.794-.663a.792.792,0,0,1,.195-.547.742.742,0,0,1,.584-.219.765.765,0,0,1,.591.219.776.776,0,0,1,.2.547.734.734,0,0,1-.2.526.778.778,0,0,1-.591.212.755.755,0,0,1-.584-.212A.748.748,0,0,1,16.639-.663ZM16.646-6.7a.792.792,0,0,1,.195-.547.742.742,0,0,1,.584-.219.765.765,0,0,1,.591.219.776.776,0,0,1,.2.547.734.734,0,0,1-.2.526.778.778,0,0,1-.591.212.755.755,0,0,1-.584-.212A.748.748,0,0,1,16.646-6.7Zm8.634,3.356H26.66v1.032H25.279V0H24.008V-2.311H19.476v-.745l4.457-6.9h1.347Zm-4.368,0h3.1V-8.224l-.15.273ZM34.323,0H27.8V-.909l3.445-3.828A8.185,8.185,0,0,0,32.3-6.149a2.356,2.356,0,0,0,.291-1.125,1.786,1.786,0,0,0-.472-1.278,1.649,1.649,0,0,0-1.258-.5,1.953,1.953,0,0,0-1.466.537,2.05,2.05,0,0,0-.523,1.494H27.61A2.936,2.936,0,0,1,28.5-9.242a3.282,3.282,0,0,1,2.369-.848,3.153,3.153,0,0,1,2.194.728,2.483,2.483,0,0,1,.807,1.938q0,1.47-1.873,3.5L29.326-1.032h5Z" transform="translate(567 410)"/><path class="j" d="M15.5,0A15.5,15.5,0,1,1,0,15.5,15.5,15.5,0,0,1,15.5,0Z" transform="translate(519 373)"/><path class="k" d="M24.131,5.262a.474.474,0,1,0-.5.8,1.753,1.753,0,0,1,0,2.975l-7.774,4.847A1.753,1.753,0,0,1,13.174,12.4V2.706a1.753,1.753,0,0,1,2.681-1.488L20.38,4.041a.474.474,0,1,0,.5-.8L16.356.414a2.7,2.7,0,0,0-4.13,2.292V12.4a2.668,2.668,0,0,0,1.39,2.362,2.668,2.668,0,0,0,2.74-.07l7.774-4.847a2.7,2.7,0,0,0,0-4.584Z" transform="translate(516.774 380.892)"/><g class="s" transform="matrix(1, 0, 0, 1, 0, 0)"><path class="a" d="M10,0H568.129a10,10,0,0,1,10,10V95.653a10,10,0,0,1-10,10H10a10,10,0,0,1-10-10V10A10,10,0,0,1,10,0Z" transform="translate(78 447)"/></g><path class="h" d="M9.023-12.086h1.594V0H9.023V-9.313L3.071,0h-1.6V-12.086h1.6v9.313Zm7.861,11a2.212,2.212,0,0,0,1.436-.5A1.752,1.752,0,0,0,19-2.831h1.453a2.785,2.785,0,0,1-.531,1.469A3.5,3.5,0,0,1,18.615-.249a3.772,3.772,0,0,1-1.731.415,3.7,3.7,0,0,1-2.918-1.224,4.877,4.877,0,0,1-1.083-3.349v-.257A5.407,5.407,0,0,1,13.364-7a3.667,3.667,0,0,1,1.382-1.585,3.926,3.926,0,0,1,2.129-.564,3.6,3.6,0,0,1,2.511.9,3.234,3.234,0,0,1,1.067,2.349H19a2.116,2.116,0,0,0-.66-1.432,2.053,2.053,0,0,0-1.465-.56,2.149,2.149,0,0,0-1.814.843,3.957,3.957,0,0,0-.643,2.436v.291a3.878,3.878,0,0,0,.639,2.391A2.16,2.16,0,0,0,16.884-1.087ZM25.193-5.7l1.992-3.279h1.793L26.04-4.541,29.069,0H27.293L25.218-3.362,23.143,0H21.358l3.03-4.541L21.449-8.981h1.776ZM30.2-4.574a5.3,5.3,0,0,1,.519-2.374,3.87,3.87,0,0,1,1.444-1.627,3.932,3.932,0,0,1,2.113-.573,3.788,3.788,0,0,1,2.968,1.27A4.886,4.886,0,0,1,38.375-4.5v.108a5.351,5.351,0,0,1-.5,2.353A3.813,3.813,0,0,1,36.436-.415a3.977,3.977,0,0,1-2.146.581A3.778,3.778,0,0,1,31.331-1.1,4.861,4.861,0,0,1,30.2-4.466Zm1.544.183a3.842,3.842,0,0,0,.693,2.4,2.218,2.218,0,0,0,1.855.9A2.2,2.2,0,0,0,36.15-2a4.2,4.2,0,0,0,.689-2.569,3.836,3.836,0,0,0-.7-2.395,2.23,2.23,0,0,0-1.864-.917,2.205,2.205,0,0,0-1.834.9A4.17,4.17,0,0,0,31.742-4.391Zm8.483,3.138.531-.656A6.224,6.224,0,0,0,41.778-5.4l.141-3.586H47.7v7.728h1.154V2.64H47.323V0H41.056V2.64H39.52l.008-3.893Zm1.818,0h4.125V-7.562H43.4L43.313-5.42A7.43,7.43,0,0,1,42.043-1.253ZM57.425-8.981V0H55.881V-3.495H53.565L51.448,0h-1.66l2.258-3.727A2.681,2.681,0,0,1,50.722-4.7a2.622,2.622,0,0,1-.461-1.54,2.429,2.429,0,0,1,.921-1.98,3.818,3.818,0,0,1,2.465-.76Zm-5.62,2.756a1.355,1.355,0,0,0,.448,1.058,1.74,1.74,0,0,0,1.187.411h2.44v-2.98H53.673a2.069,2.069,0,0,0-1.361.419A1.35,1.35,0,0,0,51.805-6.226Zm9.67-2.756v7.728h3.287V-8.981H66.3v7.728h3.279V-8.981h1.544v7.728h1.262l-.149,3.918H70.855V0H59.932V-8.981Zm18.287,0H81.3V0H79.762V-6.549L75.62,0H74.084V-8.981H75.62v6.558Zm9.812,0h1.536V0H89.574V-6.549L85.432,0H83.9V-8.981h1.536v6.558Zm.415-3.271a2.057,2.057,0,0,1-.685,1.615,2.6,2.6,0,0,1-1.8.61,2.605,2.605,0,0,1-1.8-.614,2.055,2.055,0,0,1-.689-1.61H86.27a1.257,1.257,0,0,0,.315.909,1.22,1.22,0,0,0,.921.328,1.238,1.238,0,0,0,.909-.324,1.226,1.226,0,0,0,.328-.913ZM97.924,0V-8.981h3.5a5.032,5.032,0,0,1,2.752.627,2.058,2.058,0,0,1,.959,1.839,1.839,1.839,0,0,1-.374,1.125,2.314,2.314,0,0,1-1.1.768,2.44,2.44,0,0,1,1.307.747,1.933,1.933,0,0,1,.494,1.328,2.19,2.19,0,0,1-.909,1.893A4.337,4.337,0,0,1,101.983,0ZM99.46-3.943v2.706H102a2.4,2.4,0,0,0,1.44-.357,1.181,1.181,0,0,0,.477-1q0-1.345-1.976-1.345Zm0-1.229h1.984q2.158,0,2.158-1.262t-2.042-1.3h-2.1Zm9.712-.714H111.5a3.594,3.594,0,0,1,2.416.8,2.674,2.674,0,0,1,.888,2.117A2.749,2.749,0,0,1,113.9-.813,3.558,3.558,0,0,1,111.438,0h-3.8V-8.981h1.536ZM118.012,0h-1.544V-8.981h1.544Zm-8.84-4.632v3.378h2.283a1.878,1.878,0,0,0,1.336-.444,1.587,1.587,0,0,0,.473-1.216,1.69,1.69,0,0,0-.461-1.224,1.762,1.762,0,0,0-1.291-.494Zm16.46-1.893a1.194,1.194,0,0,0-.481-1,2.119,2.119,0,0,0-1.32-.369,2.142,2.142,0,0,0-1.357.423,1.238,1.238,0,0,0-.544,1H120.4a2.31,2.31,0,0,1,.979-1.917,3.92,3.92,0,0,1,2.449-.747,3.949,3.949,0,0,1,2.457.677,2.29,2.29,0,0,1,.88,1.93A1.86,1.86,0,0,1,126.8-5.42a2.488,2.488,0,0,1-1.038.805,2.059,2.059,0,0,1,1.569,2.092,2.327,2.327,0,0,1-.955,1.959,4.121,4.121,0,0,1-2.548.722A4.139,4.139,0,0,1,121.27-.6a2.437,2.437,0,0,1-1.009-2.054h1.527a1.4,1.4,0,0,0,.585,1.125,2.255,2.255,0,0,0,1.457.469,2.3,2.3,0,0,0,1.419-.407,1.262,1.262,0,0,0,.54-1.054,1.247,1.247,0,0,0-.452-1.083,2.415,2.415,0,0,0-1.407-.328H122.4V-5.229h1.668Q125.632-5.271,125.632-6.524Zm3.287,1.951a5.3,5.3,0,0,1,.519-2.374,3.87,3.87,0,0,1,1.444-1.627A3.932,3.932,0,0,1,133-9.147a3.788,3.788,0,0,1,2.968,1.27A4.886,4.886,0,0,1,137.1-4.5v.108a5.351,5.351,0,0,1-.5,2.353,3.813,3.813,0,0,1-1.436,1.623,3.977,3.977,0,0,1-2.146.581,3.778,3.778,0,0,1-2.959-1.27,4.861,4.861,0,0,1-1.133-3.362Zm1.544.183a3.842,3.842,0,0,0,.693,2.4,2.218,2.218,0,0,0,1.855.9A2.2,2.2,0,0,0,134.871-2a4.2,4.2,0,0,0,.689-2.569,3.836,3.836,0,0,0-.7-2.395A2.23,2.23,0,0,0,133-7.886a2.205,2.205,0,0,0-1.834.9A4.17,4.17,0,0,0,130.463-4.391ZM139.163,0V-8.981h3.5a5.032,5.032,0,0,1,2.752.627,2.058,2.058,0,0,1,.959,1.839A1.839,1.839,0,0,1,146-5.391a2.314,2.314,0,0,1-1.1.768,2.44,2.44,0,0,1,1.307.747,1.933,1.933,0,0,1,.494,1.328,2.19,2.19,0,0,1-.909,1.893A4.337,4.337,0,0,1,143.222,0ZM140.7-3.943v2.706h2.54a2.4,2.4,0,0,0,1.44-.357,1.181,1.181,0,0,0,.477-1q0-1.345-1.976-1.345Zm0-1.229h1.984q2.158,0,2.158-1.262t-2.042-1.3h-2.1Z" transform="translate(185.907 477.428)"/><path class="i" d="M3.926-4.576H6.3v1.025H3.926v2.7H2.836v-2.7H.457V-4.576H2.836v-2.49h1.09ZM13.02-7.922,9.486,0H8.35l3.521-7.641H7.254v-.891H13.02Zm4.271,4.459a9.059,9.059,0,0,1,.354-2.543A7.387,7.387,0,0,1,18.7-8.221a4.5,4.5,0,0,1,1.459-1.406l.223.715a4.667,4.667,0,0,0-1.4,2,8.687,8.687,0,0,0-.6,3.018l-.006.5A8.733,8.733,0,0,0,19.2.533a4.689,4.689,0,0,0,1.184,1.559l-.223.662A4.644,4.644,0,0,1,18.674,1.3,8.144,8.144,0,0,1,17.291-3.463Zm8.607.6h1.184v.885H25.9V0h-1.09V-1.98H20.924v-.639l3.82-5.912H25.9Zm-3.744,0h2.654V-7.049l-.129.234ZM32.215-3.75a2.652,2.652,0,0,1-.812.65,2.2,2.2,0,0,1-1.034.246,2.273,2.273,0,0,1-1.286-.363,2.362,2.362,0,0,1-.847-1.022,3.486,3.486,0,0,1-.3-1.456,3.551,3.551,0,0,1,.325-1.541,2.389,2.389,0,0,1,.923-1.049,2.632,2.632,0,0,1,1.395-.363,2.382,2.382,0,0,1,2,.946A4.128,4.128,0,0,1,33.3-5.121V-4.8a5.515,5.515,0,0,1-.984,3.636A3.782,3.782,0,0,1,29.35.006h-.211V-.908h.229a2.981,2.981,0,0,0,2.063-.7A3.008,3.008,0,0,0,32.215-3.75Zm-1.67,0a1.674,1.674,0,0,0,1-.334,1.969,1.969,0,0,0,.671-.826v-.434a2.983,2.983,0,0,0-.463-1.734,1.381,1.381,0,0,0-1.172-.668,1.392,1.392,0,0,0-1.148.548A2.26,2.26,0,0,0,29-5.754a2.352,2.352,0,0,0,.419,1.438A1.326,1.326,0,0,0,30.545-3.75ZM35.3-4.277l.434-4.254H40.1v1H36.65L36.393-5.2a2.753,2.753,0,0,1,1.424-.369,2.354,2.354,0,0,1,1.852.771,3.02,3.02,0,0,1,.686,2.083,2.915,2.915,0,0,1-.712,2.077,2.6,2.6,0,0,1-1.989.759A2.7,2.7,0,0,1,35.807-.51a2.5,2.5,0,0,1-.814-1.734h1.025a1.722,1.722,0,0,0,.521,1.1,1.621,1.621,0,0,0,1.113.372,1.463,1.463,0,0,0,1.187-.516,2.156,2.156,0,0,0,.431-1.424A1.978,1.978,0,0,0,38.8-4.081,1.584,1.584,0,0,0,37.564-4.6a1.787,1.787,0,0,0-1.113.311l-.287.234ZM44.15-3.4a9.063,9.063,0,0,1-.343,2.5,7.407,7.407,0,0,1-1.049,2.212,4.6,4.6,0,0,1-1.479,1.441l-.229-.662A4.711,4.711,0,0,0,42.5-.056a9.29,9.29,0,0,0,.56-3.231v-.187A9.646,9.646,0,0,0,42.8-5.763a7.722,7.722,0,0,0-.718-1.9,4.378,4.378,0,0,0-1.034-1.307l.229-.662A4.577,4.577,0,0,1,42.753-8.2,7.423,7.423,0,0,1,43.8-5.988,9.273,9.273,0,0,1,44.15-3.4ZM54.27,0H48.68V-.779l2.953-3.281a7.016,7.016,0,0,0,.905-1.21,2.019,2.019,0,0,0,.249-.964,1.531,1.531,0,0,0-.4-1.1A1.414,1.414,0,0,0,51.3-7.758a1.674,1.674,0,0,0-1.257.46,1.757,1.757,0,0,0-.448,1.28H48.516a2.516,2.516,0,0,1,.759-1.9,2.813,2.813,0,0,1,2.03-.727,2.7,2.7,0,0,1,1.881.624,2.129,2.129,0,0,1,.691,1.661,4.88,4.88,0,0,1-1.605,3L49.986-.885H54.27Zm5.4-8.537v.92h-.2a2.854,2.854,0,0,0-2.016.75,3.121,3.121,0,0,0-.867,2.045A2.314,2.314,0,0,1,58.43-5.6a2.212,2.212,0,0,1,1.778.785,3.028,3.028,0,0,1,.665,2.027,3.019,3.019,0,0,1-.718,2.109A2.472,2.472,0,0,1,58.23.117a2.435,2.435,0,0,1-1.986-.94,3.727,3.727,0,0,1-.762-2.423v-.416a5.616,5.616,0,0,1,1-3.6,3.691,3.691,0,0,1,2.991-1.274ZM58.248-4.693a1.729,1.729,0,0,0-1.025.334,1.74,1.74,0,0,0-.65.838v.4a2.8,2.8,0,0,0,.475,1.7,1.422,1.422,0,0,0,1.184.645,1.378,1.378,0,0,0,1.151-.539A2.237,2.237,0,0,0,59.8-2.73a2.238,2.238,0,0,0-.425-1.421A1.362,1.362,0,0,0,58.248-4.693ZM66.41-8.537v.92h-.2a2.854,2.854,0,0,0-2.016.75,3.121,3.121,0,0,0-.867,2.045,2.314,2.314,0,0,1,1.84-.773,2.212,2.212,0,0,1,1.778.785,3.028,3.028,0,0,1,.665,2.027,3.019,3.019,0,0,1-.718,2.109,2.472,2.472,0,0,1-1.925.791,2.435,2.435,0,0,1-1.986-.94,3.727,3.727,0,0,1-.762-2.423v-.416a5.616,5.616,0,0,1,1-3.6,3.691,3.691,0,0,1,2.991-1.274ZM64.986-4.693a1.729,1.729,0,0,0-1.025.334,1.74,1.74,0,0,0-.65.838v.4a2.8,2.8,0,0,0,.475,1.7,1.422,1.422,0,0,0,1.184.645,1.378,1.378,0,0,0,1.151-.539,2.237,2.237,0,0,0,.419-1.412,2.238,2.238,0,0,0-.425-1.421A1.362,1.362,0,0,0,64.986-4.693ZM76.119-8.537v.92h-.2a2.854,2.854,0,0,0-2.016.75,3.121,3.121,0,0,0-.867,2.045,2.314,2.314,0,0,1,1.84-.773,2.212,2.212,0,0,1,1.778.785,3.028,3.028,0,0,1,.665,2.027A3.019,3.019,0,0,1,76.6-.674a2.472,2.472,0,0,1-1.925.791,2.435,2.435,0,0,1-1.986-.94,3.727,3.727,0,0,1-.762-2.423v-.416a5.616,5.616,0,0,1,1-3.6,3.691,3.691,0,0,1,2.991-1.274ZM74.7-4.693a1.729,1.729,0,0,0-1.025.334,1.74,1.74,0,0,0-.65.838v.4a2.8,2.8,0,0,0,.475,1.7,1.422,1.422,0,0,0,1.184.645,1.378,1.378,0,0,0,1.151-.539,2.237,2.237,0,0,0,.419-1.412,2.238,2.238,0,0,0-.425-1.421A1.362,1.362,0,0,0,74.7-4.693ZM84.193,0H78.6V-.779l2.953-3.281a7.016,7.016,0,0,0,.905-1.21,2.019,2.019,0,0,0,.249-.964,1.531,1.531,0,0,0-.4-1.1,1.414,1.414,0,0,0-1.078-.428,1.674,1.674,0,0,0-1.257.46,1.757,1.757,0,0,0-.448,1.28H78.439a2.516,2.516,0,0,1,.759-1.9,2.813,2.813,0,0,1,2.03-.727,2.7,2.7,0,0,1,1.881.624A2.129,2.129,0,0,1,83.8-6.363a4.88,4.88,0,0,1-1.605,3L79.91-.885h4.283ZM93.82-7.922,90.287,0H89.15l3.521-7.641H88.055v-.891H93.82Zm2.807,3.129h.814a1.79,1.79,0,0,0,1.207-.4,1.351,1.351,0,0,0,.439-1.061,1.323,1.323,0,0,0-1.494-1.5,1.554,1.554,0,0,0-1.122.4,1.4,1.4,0,0,0-.419,1.063H94.969a2.176,2.176,0,0,1,.741-1.685,2.7,2.7,0,0,1,1.884-.671,2.668,2.668,0,0,1,1.893.639,2.307,2.307,0,0,1,.686,1.775,1.873,1.873,0,0,1-.36,1.078,2.176,2.176,0,0,1-.981.779,2.1,2.1,0,0,1,1.087.738,2.05,2.05,0,0,1,.384,1.26,2.327,2.327,0,0,1-.75,1.822A2.809,2.809,0,0,1,97.6.117a2.883,2.883,0,0,1-1.954-.65,2.158,2.158,0,0,1-.753-1.717h1.09a1.394,1.394,0,0,0,.439,1.078,1.671,1.671,0,0,0,1.178.4,1.64,1.64,0,0,0,1.2-.41,1.581,1.581,0,0,0,.416-1.178A1.434,1.434,0,0,0,98.76-3.5a1.991,1.991,0,0,0-1.318-.41h-.814Z" transform="translate(185.907 532.426)"/><path class="i" d="M8.078-4.852a6.61,6.61,0,0,1-.867,3.773A3.084,3.084,0,0,1,4.5.156,3.107,3.107,0,0,1,1.8-1.051,6.274,6.274,0,0,1,.9-4.656v-1.93a6.463,6.463,0,0,1,.867-3.727,3.108,3.108,0,0,1,2.719-1.219,3.136,3.136,0,0,1,2.7,1.176,6.237,6.237,0,0,1,.891,3.629ZM6.633-6.828A5.3,5.3,0,0,0,6.117-9.5a1.775,1.775,0,0,0-1.633-.84,1.751,1.751,0,0,0-1.617.836,5.171,5.171,0,0,0-.523,2.57v2.313A5.381,5.381,0,0,0,2.879-1.9,1.771,1.771,0,0,0,4.5-1.023a1.747,1.747,0,0,0,1.59-.828,5.186,5.186,0,0,0,.543-2.609Zm5.4.438h1.086a2.387,2.387,0,0,0,1.609-.539,1.8,1.8,0,0,0,.586-1.414,1.764,1.764,0,0,0-1.992-2,2.072,2.072,0,0,0-1.5.535,1.873,1.873,0,0,0-.559,1.418H9.82a2.9,2.9,0,0,1,.988-2.246,3.6,3.6,0,0,1,2.512-.895,3.558,3.558,0,0,1,2.523.852,3.076,3.076,0,0,1,.914,2.367,2.5,2.5,0,0,1-.48,1.438,2.9,2.9,0,0,1-1.309,1.039,2.8,2.8,0,0,1,1.449.984,2.734,2.734,0,0,1,.512,1.68,3.1,3.1,0,0,1-1,2.43,3.745,3.745,0,0,1-2.6.9,3.844,3.844,0,0,1-2.605-.867A2.877,2.877,0,0,1,9.719-3h1.453a1.859,1.859,0,0,0,.586,1.438,2.229,2.229,0,0,0,1.57.539,2.187,2.187,0,0,0,1.6-.547,2.108,2.108,0,0,0,.555-1.57,1.912,1.912,0,0,0-.609-1.523,2.655,2.655,0,0,0-1.758-.547H12.031ZM19.016-.758a.905.905,0,0,1,.223-.625.848.848,0,0,1,.668-.25.874.874,0,0,1,.676.25.887.887,0,0,1,.23.625.839.839,0,0,1-.23.6.89.89,0,0,1-.676.242.863.863,0,0,1-.668-.242A.855.855,0,0,1,19.016-.758Zm.008-6.9a.905.905,0,0,1,.223-.625.848.848,0,0,1,.668-.25.874.874,0,0,1,.676.25.887.887,0,0,1,.23.625.839.839,0,0,1-.23.6.89.89,0,0,1-.676.242.863.863,0,0,1-.668-.242A.855.855,0,0,1,19.023-7.656ZM28.891-3.82h1.578v1.18H28.891V0H27.438V-2.641h-5.18v-.852l5.094-7.883h1.539Zm-4.992,0h3.539V-9.4l-.172.313ZM32.438-5.7l.578-5.672h5.828v1.336h-4.6l-.344,3.1a3.671,3.671,0,0,1,1.9-.492A3.138,3.138,0,0,1,38.266-6.4a4.026,4.026,0,0,1,.914,2.777,3.886,3.886,0,0,1-.949,2.77A3.46,3.46,0,0,1,35.578.156,3.6,3.6,0,0,1,33.117-.68a3.337,3.337,0,0,1-1.086-2.312H33.4a2.3,2.3,0,0,0,.7,1.473,2.162,2.162,0,0,0,1.484.5,1.95,1.95,0,0,0,1.582-.687,2.874,2.874,0,0,0,.574-1.9,2.638,2.638,0,0,0-.621-1.832,2.113,2.113,0,0,0-1.652-.691,2.383,2.383,0,0,0-1.484.414l-.383.313Z" transform="translate(578.59 506.426)"/><g class="r" transform="matrix(1, 0, 0, 1, 0, 0)"><path class="a" d="M10,0H520a10,10,0,0,1,10,10V76a10,10,0,0,1-10,10H10A10,10,0,0,1,0,76V10A10,10,0,0,1,10,0Z" transform="translate(98 572)"/></g><path class="l" d="M11.146-14.93h1.969V0H11.146V-11.5L3.794,0H1.815V-14.93H3.794v11.5ZM16.581,0V-11.095h4.327a6.216,6.216,0,0,1,3.4.774,2.542,2.542,0,0,1,1.184,2.271A2.271,2.271,0,0,1,25.03-6.66a2.858,2.858,0,0,1-1.364.948,3.015,3.015,0,0,1,1.615.923,2.387,2.387,0,0,1,.61,1.641A2.706,2.706,0,0,1,24.768-.81,5.357,5.357,0,0,1,21.595,0Zm1.9-4.871v3.343h3.138a2.96,2.96,0,0,0,1.779-.441,1.459,1.459,0,0,0,.59-1.241q0-1.661-2.44-1.661Zm0-1.518h2.451q2.666,0,2.666-1.559t-2.522-1.61H18.478ZM35.253,0a3.985,3.985,0,0,1-.267-1.169A4.233,4.233,0,0,1,31.828.205a3.916,3.916,0,0,1-2.692-.928,3,3,0,0,1-1.051-2.353A3.136,3.136,0,0,1,29.4-5.768a6.212,6.212,0,0,1,3.707-.959h1.846V-7.6a2.131,2.131,0,0,0-.595-1.584,2.39,2.39,0,0,0-1.753-.59,2.766,2.766,0,0,0-1.7.513,1.511,1.511,0,0,0-.687,1.241H28.311a2.618,2.618,0,0,1,.59-1.6,4.024,4.024,0,0,1,1.6-1.225,5.381,5.381,0,0,1,2.22-.451,4.386,4.386,0,0,1,3,.959A3.458,3.458,0,0,1,36.853-7.7v5.106a6.243,6.243,0,0,0,.39,2.43V0ZM32.1-1.446A3.334,3.334,0,0,0,33.8-1.907a2.791,2.791,0,0,0,1.159-1.2V-5.383H33.469q-3.486,0-3.486,2.041a1.727,1.727,0,0,0,.595,1.395A2.286,2.286,0,0,0,32.1-1.446ZM48.891,0h-1.9V-4.737H41.9V0H39.99V-11.095H41.9v4.809h5.1v-4.809h1.9ZM68.722-14.93V0H66.753V-13.31H61.4l-.267,5.917a19.945,19.945,0,0,1-.61,4.471,4.332,4.332,0,0,1-1.338,2.2A3.766,3.766,0,0,1,56.827,0h-.646V-1.61l.41-.021a2.142,2.142,0,0,0,1.466-.62A3.74,3.74,0,0,0,58.837-4a23.482,23.482,0,0,0,.379-3.691l.308-7.239Zm6.9,12.151,2.584-8.316h2.03L75.776,1.712q-1.036,2.769-3.292,2.769l-.359-.031-.708-.133V2.779l.513.041a2.524,2.524,0,0,0,1.5-.39A2.82,2.82,0,0,0,74.32,1l.42-1.128L70.783-11.095h2.071Zm9.762-1.948H84V0H82.093V-11.095H84v4.7h1.241l3.732-4.7h2.3L86.881-5.763,91.639,0h-2.41Zm9.957-6.368v9.546H99.4v-9.546h1.9v9.546h4.05v-9.546h1.907V0H93.434V-11.095ZM114.854.205a4.848,4.848,0,0,1-3.671-1.482,5.5,5.5,0,0,1-1.415-3.963v-.349a6.658,6.658,0,0,1,.631-2.948,4.919,4.919,0,0,1,1.764-2.03,4.434,4.434,0,0,1,2.456-.733,4.155,4.155,0,0,1,3.363,1.425,6.171,6.171,0,0,1,1.2,4.081V-5h-7.516a3.944,3.944,0,0,0,.959,2.651,3.014,3.014,0,0,0,2.333,1.01,3.3,3.3,0,0,0,1.7-.41,4.277,4.277,0,0,0,1.22-1.087l1.159.9A4.659,4.659,0,0,1,114.854.205Zm-.236-9.946a2.53,2.53,0,0,0-1.928.836,4.062,4.062,0,0,0-.964,2.343h5.558v-.144a3.613,3.613,0,0,0-.779-2.24A2.382,2.382,0,0,0,114.618-9.741ZM130.44,0h-1.9V-4.737h-5.1V0H121.54V-11.095h1.907v4.809h5.1v-4.809h1.9Zm2.543-5.65a6.553,6.553,0,0,1,.641-2.933,4.781,4.781,0,0,1,1.784-2.01,4.857,4.857,0,0,1,2.61-.708,4.679,4.679,0,0,1,3.666,1.569,6.036,6.036,0,0,1,1.4,4.173v.133a6.61,6.61,0,0,1-.62,2.907,4.71,4.71,0,0,1-1.774,2,4.913,4.913,0,0,1-2.651.718,4.667,4.667,0,0,1-3.656-1.569,6.005,6.005,0,0,1-1.4-4.153Zm1.907.226a4.746,4.746,0,0,0,.856,2.963,2.74,2.74,0,0,0,2.292,1.118,2.724,2.724,0,0,0,2.3-1.133,5.19,5.19,0,0,0,.851-3.174,4.738,4.738,0,0,0-.866-2.958,2.755,2.755,0,0,0-2.3-1.133,2.724,2.724,0,0,0-2.266,1.118A5.152,5.152,0,0,0,134.89-5.424ZM145.636,0V-11.095h4.327a6.216,6.216,0,0,1,3.4.774,2.542,2.542,0,0,1,1.184,2.271,2.271,2.271,0,0,1-.461,1.389,2.858,2.858,0,0,1-1.364.948,3.015,3.015,0,0,1,1.615.923,2.387,2.387,0,0,1,.61,1.641A2.706,2.706,0,0,1,153.824-.81,5.357,5.357,0,0,1,150.65,0Zm1.9-4.871v3.343h3.138a2.96,2.96,0,0,0,1.779-.441,1.459,1.459,0,0,0,.59-1.241q0-1.661-2.44-1.661Zm0-1.518h2.451q2.666,0,2.666-1.559t-2.522-1.61h-2.594Zm17.1-4.707h1.9V0h-1.9V-8.09L159.52,0h-1.9V-11.095h1.9v8.1ZM177.957,0h-1.907V-4.02a10.062,10.062,0,0,1-2.563.328,4.361,4.361,0,0,1-3.174-1.066A4.113,4.113,0,0,1,169.2-7.793V-11.1h1.9v3.374q.051,2.481,2.389,2.481a10.062,10.062,0,0,0,2.563-.328v-5.517h1.907Z" transform="translate(119 609)"/><path class="i" d="M4.58-5.339H7.355v1.2H4.58V-1H3.309V-4.143H.533v-1.2H3.309V-8.244H4.58Zm10.609-3.9L11.067,0H9.741L13.85-8.914H8.463V-9.953h6.727Zm4.983,5.2a10.569,10.569,0,0,1,.414-2.967A8.618,8.618,0,0,1,21.82-9.591a5.249,5.249,0,0,1,1.7-1.641l.26.834A5.444,5.444,0,0,0,22.145-8.06a10.135,10.135,0,0,0-.7,3.521l-.007.581A10.188,10.188,0,0,0,22.4.622,5.47,5.47,0,0,0,23.782,2.44l-.26.772a5.418,5.418,0,0,1-1.736-1.7A9.5,9.5,0,0,1,20.173-4.04Zm10.042.7H31.6v1.032H30.215V0H28.943V-2.311H24.411v-.745l4.457-6.9h1.347Zm-4.368,0h3.1V-8.224l-.15.273ZM37.584-4.375a3.094,3.094,0,0,1-.947.759,2.569,2.569,0,0,1-1.207.287,2.652,2.652,0,0,1-1.5-.424,2.755,2.755,0,0,1-.988-1.193,4.067,4.067,0,0,1-.349-1.7,4.143,4.143,0,0,1,.379-1.8A2.787,2.787,0,0,1,34.05-9.666a3.07,3.07,0,0,1,1.627-.424A2.78,2.78,0,0,1,38-8.986a4.815,4.815,0,0,1,.851,3.011v.369a6.434,6.434,0,0,1-1.148,4.242A4.412,4.412,0,0,1,34.241.007H34V-1.06h.267a3.478,3.478,0,0,0,2.406-.817A3.509,3.509,0,0,0,37.584-4.375Zm-1.948,0a1.953,1.953,0,0,0,1.172-.39,2.3,2.3,0,0,0,.783-.964v-.506a3.48,3.48,0,0,0-.54-2.023,1.611,1.611,0,0,0-1.367-.779,1.624,1.624,0,0,0-1.34.639,2.637,2.637,0,0,0-.506,1.685,2.744,2.744,0,0,0,.489,1.678A1.548,1.548,0,0,0,35.636-4.375ZM41.18-4.99l.506-4.963h5.1v1.169H42.759l-.3,2.714A3.212,3.212,0,0,1,44.119-6.5a2.746,2.746,0,0,1,2.16.9,3.523,3.523,0,0,1,.8,2.43,3.4,3.4,0,0,1-.831,2.423,3.027,3.027,0,0,1-2.321.885,3.146,3.146,0,0,1-2.153-.731,2.919,2.919,0,0,1-.95-2.023h1.2a2.008,2.008,0,0,0,.608,1.289,1.892,1.892,0,0,0,1.3.434,1.706,1.706,0,0,0,1.384-.6,2.515,2.515,0,0,0,.5-1.661,2.308,2.308,0,0,0-.543-1.6,1.849,1.849,0,0,0-1.446-.6,2.085,2.085,0,0,0-1.3.362l-.335.273ZM51.509-3.972a10.574,10.574,0,0,1-.4,2.922,8.641,8.641,0,0,1-1.224,2.581,5.361,5.361,0,0,1-1.726,1.682l-.267-.772A5.5,5.5,0,0,0,49.584-.065a10.839,10.839,0,0,0,.653-3.77v-.219a11.254,11.254,0,0,0-.3-2.669A9.009,9.009,0,0,0,49.1-8.935a5.108,5.108,0,0,0-1.207-1.524l.267-.772a5.34,5.34,0,0,1,1.719,1.668A8.66,8.66,0,0,1,51.1-6.986,10.818,10.818,0,0,1,51.509-3.972Zm10.623.629h1.381v1.032H62.132V0H60.86V-2.311H56.328v-.745l4.457-6.9h1.347Zm-4.368,0h3.1V-8.224l-.15.273ZM70.69-7.355A2.311,2.311,0,0,1,70.3-6.029a2.674,2.674,0,0,1-1.063.909,2.853,2.853,0,0,1,1.234.978,2.46,2.46,0,0,1,.455,1.456,2.6,2.6,0,0,1-.872,2.058,3.349,3.349,0,0,1-2.293.766,3.334,3.334,0,0,1-2.3-.769,2.613,2.613,0,0,1-.865-2.054,2.533,2.533,0,0,1,.441-1.456,2.744,2.744,0,0,1,1.22-.984,2.609,2.609,0,0,1-1.046-.909,2.344,2.344,0,0,1-.383-1.319,2.573,2.573,0,0,1,.807-2,3.026,3.026,0,0,1,2.126-.738,3.029,3.029,0,0,1,2.123.738A2.567,2.567,0,0,1,70.69-7.355ZM69.658-2.714a1.834,1.834,0,0,0-.53-1.36A1.879,1.879,0,0,0,67.744-4.6a1.846,1.846,0,0,0-1.371.52,1.855,1.855,0,0,0-.516,1.367,1.767,1.767,0,0,0,.5,1.333,1.929,1.929,0,0,0,1.4.485,1.923,1.923,0,0,0,1.395-.489A1.763,1.763,0,0,0,69.658-2.714Zm-1.9-6.337a1.632,1.632,0,0,0-1.207.461,1.7,1.7,0,0,0-.461,1.254,1.687,1.687,0,0,0,.455,1.227,1.613,1.613,0,0,0,1.213.468,1.613,1.613,0,0,0,1.213-.468,1.687,1.687,0,0,0,.455-1.227,1.687,1.687,0,0,0-.472-1.237A1.609,1.609,0,0,0,67.758-9.051Zm9.721-.909v1.073h-.232a3.33,3.33,0,0,0-2.352.875,3.641,3.641,0,0,0-1.012,2.386,2.7,2.7,0,0,1,2.146-.9,2.581,2.581,0,0,1,2.075.916,3.533,3.533,0,0,1,.776,2.365,3.522,3.522,0,0,1-.837,2.461A2.883,2.883,0,0,1,75.8.137a2.841,2.841,0,0,1-2.317-1.1,4.348,4.348,0,0,1-.889-2.827v-.485a6.552,6.552,0,0,1,1.172-4.2,4.306,4.306,0,0,1,3.49-1.487ZM75.817-5.476a2.018,2.018,0,0,0-1.2.39,2.03,2.03,0,0,0-.759.978v.465a3.265,3.265,0,0,0,.554,1.982A1.659,1.659,0,0,0,75.8-.909a1.608,1.608,0,0,0,1.343-.629,2.61,2.61,0,0,0,.489-1.647,2.61,2.61,0,0,0-.5-1.658A1.589,1.589,0,0,0,75.817-5.476ZM88,0H86.728V-8.429l-2.55.937V-8.641L87.8-10H88ZM98.226,0H91.7V-.909l3.445-3.828a8.185,8.185,0,0,0,1.056-1.412A2.356,2.356,0,0,0,96.5-7.273a1.786,1.786,0,0,0-.472-1.278,1.649,1.649,0,0,0-1.258-.5,1.953,1.953,0,0,0-1.466.537,2.05,2.05,0,0,0-.523,1.494H91.513A2.936,2.936,0,0,1,92.4-9.242a3.282,3.282,0,0,1,2.369-.848,3.153,3.153,0,0,1,2.194.728,2.483,2.483,0,0,1,.807,1.938q0,1.47-1.873,3.5L93.229-1.032h5Zm6.645-5.592h.95a2.088,2.088,0,0,0,1.408-.472,1.576,1.576,0,0,0,.513-1.237A1.544,1.544,0,0,0,106-9.051a1.813,1.813,0,0,0-1.309.468,1.639,1.639,0,0,0-.489,1.241h-1.265a2.539,2.539,0,0,1,.865-1.965,3.15,3.15,0,0,1,2.2-.783,3.113,3.113,0,0,1,2.208.745,2.692,2.692,0,0,1,.8,2.071,2.185,2.185,0,0,1-.42,1.258,2.538,2.538,0,0,1-1.145.909,2.446,2.446,0,0,1,1.268.861,2.392,2.392,0,0,1,.448,1.47,2.715,2.715,0,0,1-.875,2.126A3.277,3.277,0,0,1,106,.137a3.363,3.363,0,0,1-2.28-.759,2.517,2.517,0,0,1-.878-2h1.271a1.627,1.627,0,0,0,.513,1.258A1.95,1.95,0,0,0,106-.9a1.914,1.914,0,0,0,1.4-.479,1.844,1.844,0,0,0,.485-1.374,1.673,1.673,0,0,0-.533-1.333,2.323,2.323,0,0,0-1.538-.479h-.95Zm12.264,1.347a5.784,5.784,0,0,1-.759,3.3A2.7,2.7,0,0,1,114,.137a2.718,2.718,0,0,1-2.358-1.056,5.49,5.49,0,0,1-.793-3.155V-5.763a5.655,5.655,0,0,1,.759-3.261,2.719,2.719,0,0,1,2.379-1.066,2.744,2.744,0,0,1,2.365,1.029,5.458,5.458,0,0,1,.779,3.175Zm-1.265-1.729a4.634,4.634,0,0,0-.451-2.341,1.553,1.553,0,0,0-1.429-.735,1.532,1.532,0,0,0-1.415.731,4.525,4.525,0,0,0-.458,2.249v2.023a4.708,4.708,0,0,0,.468,2.382A1.55,1.55,0,0,0,114-.9a1.529,1.529,0,0,0,1.391-.725,4.538,4.538,0,0,0,.475-2.283Z" transform="translate(119 637)"/><path class="i" d="M1.155,0V-9.953H4.409a3.777,3.777,0,0,1,2.437.67A2.414,2.414,0,0,1,7.663-7.3a2.022,2.022,0,0,1-.4,1.234,2.57,2.57,0,0,1-1.08.831,2.308,2.308,0,0,1,1.275.858A2.462,2.462,0,0,1,7.93-2.871,2.662,2.662,0,0,1,7.062-.766,3.59,3.59,0,0,1,4.607,0ZM2.468-4.655v3.582H4.635a2.087,2.087,0,0,0,1.446-.475,1.669,1.669,0,0,0,.53-1.309q0-1.8-1.955-1.8Zm0-1.053H4.45a2.081,2.081,0,0,0,1.377-.431,1.442,1.442,0,0,0,.516-1.169A1.418,1.418,0,0,0,5.865-8.5a2.354,2.354,0,0,0-1.456-.373H2.468ZM15.258,0H13.986V-2.68a6.708,6.708,0,0,1-1.709.219,2.907,2.907,0,0,1-2.116-.711A2.742,2.742,0,0,1,9.42-5.2V-7.4h1.265v2.249Q10.719-3.5,12.277-3.5a6.708,6.708,0,0,0,1.709-.219V-7.4h1.271Zm5.093.137A3.232,3.232,0,0,1,17.9-.851a3.666,3.666,0,0,1-.943-2.642v-.232a4.438,4.438,0,0,1,.42-1.965,3.28,3.28,0,0,1,1.176-1.354,2.956,2.956,0,0,1,1.637-.489,2.77,2.77,0,0,1,2.242.95,4.114,4.114,0,0,1,.8,2.721v.526H18.225a2.629,2.629,0,0,0,.639,1.767A2.009,2.009,0,0,0,20.419-.9a2.2,2.2,0,0,0,1.135-.273,2.851,2.851,0,0,0,.813-.725l.772.6A3.106,3.106,0,0,1,20.351.137Zm-.157-6.631a1.687,1.687,0,0,0-1.285.557,2.708,2.708,0,0,0-.643,1.562h3.705v-.1a2.409,2.409,0,0,0-.52-1.494A1.588,1.588,0,0,0,20.193-6.494ZM30.946-3.616A4.429,4.429,0,0,1,30.174-.9,2.476,2.476,0,0,1,28.082.137a2.713,2.713,0,0,1-2.119-.854V2.844H24.7V-7.4h1.155l.062.82a2.605,2.605,0,0,1,2.146-.957,2.522,2.522,0,0,1,2.109,1,4.477,4.477,0,0,1,.776,2.8ZM29.682-3.76a3.268,3.268,0,0,0-.533-1.976,1.718,1.718,0,0,0-1.463-.725,1.859,1.859,0,0,0-1.723,1.019v3.534A1.863,1.863,0,0,0,27.7-.9a1.71,1.71,0,0,0,1.446-.721A3.567,3.567,0,0,0,29.682-3.76ZM37.119,0a2.657,2.657,0,0,1-.178-.779,2.822,2.822,0,0,1-2.105.916,2.611,2.611,0,0,1-1.794-.619,2,2,0,0,1-.7-1.569,2.091,2.091,0,0,1,.878-1.794,4.142,4.142,0,0,1,2.471-.639h1.23v-.581a1.42,1.42,0,0,0-.4-1.056,1.593,1.593,0,0,0-1.169-.393,1.844,1.844,0,0,0-1.135.342,1.007,1.007,0,0,0-.458.827H32.491a1.745,1.745,0,0,1,.393-1.07,2.683,2.683,0,0,1,1.066-.817,3.588,3.588,0,0,1,1.48-.3,2.924,2.924,0,0,1,2,.639,2.306,2.306,0,0,1,.752,1.76v3.4a4.162,4.162,0,0,0,.26,1.62V0Zm-2.1-.964a2.223,2.223,0,0,0,1.128-.308,1.861,1.861,0,0,0,.772-.8V-3.589H35.93q-2.324,0-2.324,1.36a1.151,1.151,0,0,0,.4.93A1.524,1.524,0,0,0,35.021-.964Z" transform="translate(567 607)"/><path class="i" d="M4.983,0H3.712V-8.429l-2.55.937V-8.641L4.785-10h.2ZM14.93-4.245a5.784,5.784,0,0,1-.759,3.3A2.7,2.7,0,0,1,11.8.137,2.718,2.718,0,0,1,9.44-.919a5.49,5.49,0,0,1-.793-3.155V-5.763a5.655,5.655,0,0,1,.759-3.261,2.719,2.719,0,0,1,2.379-1.066A2.744,2.744,0,0,1,14.15-9.061a5.458,5.458,0,0,1,.779,3.175ZM13.665-5.975a4.634,4.634,0,0,0-.451-2.341,1.553,1.553,0,0,0-1.429-.735,1.532,1.532,0,0,0-1.415.731A4.525,4.525,0,0,0,9.912-6.07v2.023a4.708,4.708,0,0,0,.468,2.382A1.55,1.55,0,0,0,11.8-.9,1.529,1.529,0,0,0,13.19-1.62,4.538,4.538,0,0,0,13.665-3.9ZM16.639-.663a.792.792,0,0,1,.195-.547.742.742,0,0,1,.584-.219.765.765,0,0,1,.591.219.776.776,0,0,1,.2.547.734.734,0,0,1-.2.526.778.778,0,0,1-.591.212.755.755,0,0,1-.584-.212A.748.748,0,0,1,16.639-.663ZM16.646-6.7a.792.792,0,0,1,.195-.547.742.742,0,0,1,.584-.219.765.765,0,0,1,.591.219.776.776,0,0,1,.2.547.734.734,0,0,1-.2.526.778.778,0,0,1-.591.212.755.755,0,0,1-.584-.212A.748.748,0,0,1,16.646-6.7Zm9.536,2.454a5.784,5.784,0,0,1-.759,3.3A2.7,2.7,0,0,1,23.051.137,2.718,2.718,0,0,1,20.692-.919,5.49,5.49,0,0,1,19.9-4.074V-5.763a5.655,5.655,0,0,1,.759-3.261,2.719,2.719,0,0,1,2.379-1.066A2.744,2.744,0,0,1,25.4-9.061a5.458,5.458,0,0,1,.779,3.175ZM24.917-5.975a4.634,4.634,0,0,0-.451-2.341,1.553,1.553,0,0,0-1.429-.735,1.532,1.532,0,0,0-1.415.731,4.525,4.525,0,0,0-.458,2.249v2.023a4.708,4.708,0,0,0,.468,2.382A1.55,1.55,0,0,0,23.051-.9a1.529,1.529,0,0,0,1.391-.725A4.538,4.538,0,0,0,24.917-3.9Zm9.126,1.729a5.784,5.784,0,0,1-.759,3.3A2.7,2.7,0,0,1,30.912.137,2.718,2.718,0,0,1,28.554-.919a5.49,5.49,0,0,1-.793-3.155V-5.763a5.655,5.655,0,0,1,.759-3.261A2.719,2.719,0,0,1,30.9-10.09a2.744,2.744,0,0,1,2.365,1.029,5.458,5.458,0,0,1,.779,3.175ZM32.778-5.975a4.634,4.634,0,0,0-.451-2.341A1.553,1.553,0,0,0,30.9-9.051a1.532,1.532,0,0,0-1.415.731,4.525,4.525,0,0,0-.458,2.249v2.023a4.708,4.708,0,0,0,.468,2.382A1.55,1.55,0,0,0,30.912-.9,1.529,1.529,0,0,0,32.3-1.62,4.538,4.538,0,0,0,32.778-3.9Z" transform="translate(567 637)"/><path class="m" d="M15.5,0A15.5,15.5,0,1,1,0,15.5,15.5,15.5,0,0,1,15.5,0Z" transform="translate(519 600)"/><path class="k" d="M24.131,5.262a.474.474,0,1,0-.5.8,1.753,1.753,0,0,1,0,2.975l-7.774,4.847A1.753,1.753,0,0,1,13.174,12.4V2.706a1.753,1.753,0,0,1,2.681-1.488L20.38,4.041a.474.474,0,1,0,.5-.8L16.356.414a2.7,2.7,0,0,0-4.13,2.292V12.4a2.668,2.668,0,0,0,1.39,2.362,2.668,2.668,0,0,0,2.74-.07l7.774-4.847a2.7,2.7,0,0,0,0-4.584Z" transform="translate(516.774 607.892)"/><g class="q" transform="matrix(1, 0, 0, 1, 0, 0)"><path class="a" d="M10,0H520a10,10,0,0,1,10,10V76a10,10,0,0,1-10,10H10A10,10,0,0,1,0,76V10A10,10,0,0,1,10,0Z" transform="translate(98 674)"/></g><path class="l" d="M1.733,0V-14.93H6.614a5.666,5.666,0,0,1,3.656,1,3.622,3.622,0,0,1,1.225,2.974A3.032,3.032,0,0,1,10.9-9.1,3.855,3.855,0,0,1,9.28-7.854a3.462,3.462,0,0,1,1.912,1.287,3.693,3.693,0,0,1,.7,2.261,3.993,3.993,0,0,1-1.3,3.158A5.385,5.385,0,0,1,6.911,0ZM3.7-6.983V-1.61h3.25a3.13,3.13,0,0,0,2.169-.713,2.5,2.5,0,0,0,.795-1.964q0-2.7-2.933-2.7Zm0-1.579H6.675a3.121,3.121,0,0,0,2.066-.646,2.164,2.164,0,0,0,.774-1.753A2.127,2.127,0,0,0,8.8-12.751a3.531,3.531,0,0,0-2.184-.559H3.7Zm14.53,1.518,2.461-4.05h2.215l-3.63,5.486L23.02,0H20.826L18.262-4.153,15.7,0h-2.2l3.743-5.609-3.63-5.486H15.8ZM24.415-5.65a6.553,6.553,0,0,1,.641-2.933,4.781,4.781,0,0,1,1.784-2.01,4.857,4.857,0,0,1,2.61-.708,4.679,4.679,0,0,1,3.666,1.569,6.036,6.036,0,0,1,1.4,4.173v.133a6.61,6.61,0,0,1-.62,2.907,4.71,4.71,0,0,1-1.774,2A4.913,4.913,0,0,1,29.47.205a4.667,4.667,0,0,1-3.656-1.569,6.005,6.005,0,0,1-1.4-4.153Zm1.907.226a4.746,4.746,0,0,0,.856,2.963A2.74,2.74,0,0,0,29.47-1.343a2.724,2.724,0,0,0,2.3-1.133,5.19,5.19,0,0,0,.851-3.174,4.738,4.738,0,0,0-.866-2.958,2.755,2.755,0,0,0-2.3-1.133,2.724,2.724,0,0,0-2.266,1.118A5.152,5.152,0,0,0,26.322-5.424ZM36.8-1.548l.656-.81a7.689,7.689,0,0,0,1.261-4.307l.174-4.43H46.04v9.546h1.425V3.261h-1.9V0H37.827V3.261h-1.9l.01-4.809Zm2.246,0h5.1V-9.341H40.729L40.616-6.7A9.179,9.179,0,0,1,39.047-1.548Zm19-9.546V0H56.14V-4.317H53.279L50.665,0H48.614L51.4-4.6a3.312,3.312,0,0,1-1.635-1.2,3.239,3.239,0,0,1-.569-1.9,3,3,0,0,1,1.138-2.446,4.716,4.716,0,0,1,3.045-.938Zm-6.942,3.4a1.673,1.673,0,0,0,.554,1.307,2.15,2.15,0,0,0,1.466.508H56.14V-9.557H53.413a2.555,2.555,0,0,0-1.682.518A1.668,1.668,0,0,0,51.105-7.69Zm11.946-3.4v9.546h4.061v-9.546h1.9v9.546h4.05v-9.546h1.907v9.546h1.559l-.185,4.84h-1.7V0H61.144V-11.095Zm22.589,0h1.9V0h-1.9V-8.09L80.524,0h-1.9V-11.095h1.9v8.1Zm12.12,0h1.9V0h-1.9V-8.09L92.644,0h-1.9V-11.095h1.9v8.1Zm.513-4.04a2.541,2.541,0,0,1-.846,1.994,3.212,3.212,0,0,1-2.22.754,3.218,3.218,0,0,1-2.225-.759,2.538,2.538,0,0,1-.851-1.989H93.68a1.553,1.553,0,0,0,.39,1.123,1.507,1.507,0,0,0,1.138.405,1.529,1.529,0,0,0,1.123-.4,1.514,1.514,0,0,0,.405-1.128ZM108.076,0V-11.095H112.4a6.216,6.216,0,0,1,3.4.774,2.542,2.542,0,0,1,1.184,2.271,2.271,2.271,0,0,1-.461,1.389,2.858,2.858,0,0,1-1.364.948,3.015,3.015,0,0,1,1.615.923,2.387,2.387,0,0,1,.61,1.641A2.706,2.706,0,0,1,116.264-.81,5.357,5.357,0,0,1,113.09,0Zm1.9-4.871v3.343h3.138a2.96,2.96,0,0,0,1.779-.441,1.459,1.459,0,0,0,.59-1.241q0-1.661-2.44-1.661Zm0-1.518h2.451q2.666,0,2.666-1.559t-2.522-1.61h-2.594Zm12-.882h2.881a4.44,4.44,0,0,1,2.984.984,3.3,3.3,0,0,1,1.1,2.615A3.4,3.4,0,0,1,127.8-1a4.4,4.4,0,0,1-3.035,1h-4.7V-11.095h1.9ZM132.891,0h-1.907V-11.095h1.907ZM121.97-5.722v4.173h2.82a2.32,2.32,0,0,0,1.651-.549,1.96,1.96,0,0,0,.584-1.5,2.088,2.088,0,0,0-.569-1.512,2.177,2.177,0,0,0-1.594-.61ZM142.3-8.06a1.475,1.475,0,0,0-.595-1.236,2.618,2.618,0,0,0-1.63-.456,2.646,2.646,0,0,0-1.677.523A1.53,1.53,0,0,0,137.73-8h-1.887a2.853,2.853,0,0,1,1.21-2.369,4.843,4.843,0,0,1,3.025-.923,4.878,4.878,0,0,1,3.035.836A2.829,2.829,0,0,1,144.2-8.07,2.3,2.3,0,0,1,143.75-6.7a3.073,3.073,0,0,1-1.282.995,2.543,2.543,0,0,1,1.938,2.584A2.874,2.874,0,0,1,143.227-.7a5.091,5.091,0,0,1-3.148.892,5.113,5.113,0,0,1-3.163-.938,3.011,3.011,0,0,1-1.246-2.538h1.887a1.731,1.731,0,0,0,.723,1.389,2.786,2.786,0,0,0,1.8.579,2.839,2.839,0,0,0,1.753-.5,1.559,1.559,0,0,0,.667-1.3,1.541,1.541,0,0,0-.559-1.338A2.983,2.983,0,0,0,140.2-4.86h-1.9v-1.6h2.061Q142.3-6.511,142.3-8.06Zm4.061,2.41a6.553,6.553,0,0,1,.641-2.933,4.781,4.781,0,0,1,1.784-2.01,4.857,4.857,0,0,1,2.61-.708,4.679,4.679,0,0,1,3.666,1.569,6.036,6.036,0,0,1,1.4,4.173v.133a6.61,6.61,0,0,1-.62,2.907,4.71,4.71,0,0,1-1.774,2,4.913,4.913,0,0,1-2.651.718,4.667,4.667,0,0,1-3.656-1.569,6.005,6.005,0,0,1-1.4-4.153Zm1.907.226a4.746,4.746,0,0,0,.856,2.963,2.74,2.74,0,0,0,2.292,1.118,2.724,2.724,0,0,0,2.3-1.133,5.19,5.19,0,0,0,.851-3.174,4.738,4.738,0,0,0-.866-2.958,2.755,2.755,0,0,0-2.3-1.133,2.724,2.724,0,0,0-2.266,1.118A5.152,5.152,0,0,0,148.271-5.424ZM159.018,0V-11.095h4.327a6.216,6.216,0,0,1,3.4.774,2.542,2.542,0,0,1,1.184,2.271,2.271,2.271,0,0,1-.461,1.389,2.858,2.858,0,0,1-1.364.948,3.015,3.015,0,0,1,1.615.923,2.387,2.387,0,0,1,.61,1.641A2.706,2.706,0,0,1,167.205-.81a5.357,5.357,0,0,1-3.174.81Zm1.9-4.871v3.343h3.138a2.96,2.96,0,0,0,1.779-.441,1.459,1.459,0,0,0,.59-1.241q0-1.661-2.44-1.661Zm0-1.518h2.451q2.666,0,2.666-1.559t-2.522-1.61h-2.594Z" transform="translate(119 711)"/><path class="i" d="M4.58-5.339H7.355v1.2H4.58V-1H3.309V-4.143H.533v-1.2H3.309V-8.244H4.58Zm10.609-3.9L11.067,0H9.741L13.85-8.914H8.463V-9.953h6.727Zm4.983,5.2a10.569,10.569,0,0,1,.414-2.967A8.618,8.618,0,0,1,21.82-9.591a5.249,5.249,0,0,1,1.7-1.641l.26.834A5.444,5.444,0,0,0,22.145-8.06a10.135,10.135,0,0,0-.7,3.521l-.007.581A10.188,10.188,0,0,0,22.4.622,5.47,5.47,0,0,0,23.782,2.44l-.26.772a5.418,5.418,0,0,1-1.736-1.7A9.5,9.5,0,0,1,20.173-4.04Zm10.042.7H31.6v1.032H30.215V0H28.943V-2.311H24.411v-.745l4.457-6.9h1.347Zm-4.368,0h3.1V-8.224l-.15.273ZM37.584-4.375a3.094,3.094,0,0,1-.947.759,2.569,2.569,0,0,1-1.207.287,2.652,2.652,0,0,1-1.5-.424,2.755,2.755,0,0,1-.988-1.193,4.067,4.067,0,0,1-.349-1.7,4.143,4.143,0,0,1,.379-1.8A2.787,2.787,0,0,1,34.05-9.666a3.07,3.07,0,0,1,1.627-.424A2.78,2.78,0,0,1,38-8.986a4.815,4.815,0,0,1,.851,3.011v.369a6.434,6.434,0,0,1-1.148,4.242A4.412,4.412,0,0,1,34.241.007H34V-1.06h.267a3.478,3.478,0,0,0,2.406-.817A3.509,3.509,0,0,0,37.584-4.375Zm-1.948,0a1.953,1.953,0,0,0,1.172-.39,2.3,2.3,0,0,0,.783-.964v-.506a3.48,3.48,0,0,0-.54-2.023,1.611,1.611,0,0,0-1.367-.779,1.624,1.624,0,0,0-1.34.639,2.637,2.637,0,0,0-.506,1.685,2.744,2.744,0,0,0,.489,1.678A1.548,1.548,0,0,0,35.636-4.375ZM41.18-4.99l.506-4.963h5.1v1.169H42.759l-.3,2.714A3.212,3.212,0,0,1,44.119-6.5a2.746,2.746,0,0,1,2.16.9,3.523,3.523,0,0,1,.8,2.43,3.4,3.4,0,0,1-.831,2.423,3.027,3.027,0,0,1-2.321.885,3.146,3.146,0,0,1-2.153-.731,2.919,2.919,0,0,1-.95-2.023h1.2a2.008,2.008,0,0,0,.608,1.289,1.892,1.892,0,0,0,1.3.434,1.706,1.706,0,0,0,1.384-.6,2.515,2.515,0,0,0,.5-1.661,2.308,2.308,0,0,0-.543-1.6,1.849,1.849,0,0,0-1.446-.6,2.085,2.085,0,0,0-1.3.362l-.335.273ZM51.509-3.972a10.574,10.574,0,0,1-.4,2.922,8.641,8.641,0,0,1-1.224,2.581,5.361,5.361,0,0,1-1.726,1.682l-.267-.772A5.5,5.5,0,0,0,49.584-.065a10.839,10.839,0,0,0,.653-3.77v-.219a11.254,11.254,0,0,0-.3-2.669A9.009,9.009,0,0,0,49.1-8.935a5.108,5.108,0,0,0-1.207-1.524l.267-.772a5.34,5.34,0,0,1,1.719,1.668A8.66,8.66,0,0,1,51.1-6.986,10.818,10.818,0,0,1,51.509-3.972ZM63.314,0H56.793V-.909l3.445-3.828a8.185,8.185,0,0,0,1.056-1.412,2.356,2.356,0,0,0,.291-1.125,1.786,1.786,0,0,0-.472-1.278,1.649,1.649,0,0,0-1.258-.5,1.953,1.953,0,0,0-1.466.537,2.05,2.05,0,0,0-.523,1.494H56.6a2.936,2.936,0,0,1,.885-2.222,3.282,3.282,0,0,1,2.369-.848,3.153,3.153,0,0,1,2.194.728,2.483,2.483,0,0,1,.807,1.938q0,1.47-1.873,3.5L58.317-1.032h5Zm6.3-9.96v1.073h-.232a3.33,3.33,0,0,0-2.352.875,3.641,3.641,0,0,0-1.012,2.386,2.7,2.7,0,0,1,2.146-.9,2.581,2.581,0,0,1,2.075.916,3.533,3.533,0,0,1,.776,2.365,3.522,3.522,0,0,1-.837,2.461,2.883,2.883,0,0,1-2.246.923,2.841,2.841,0,0,1-2.317-1.1,4.348,4.348,0,0,1-.889-2.827v-.485a6.552,6.552,0,0,1,1.172-4.2,4.306,4.306,0,0,1,3.49-1.487ZM67.956-5.476a2.018,2.018,0,0,0-1.2.39A2.03,2.03,0,0,0,66-4.108v.465a3.265,3.265,0,0,0,.554,1.982,1.659,1.659,0,0,0,1.381.752,1.608,1.608,0,0,0,1.343-.629,2.61,2.61,0,0,0,.489-1.647,2.61,2.61,0,0,0-.5-1.658A1.589,1.589,0,0,0,67.956-5.476ZM77.479-9.96v1.073h-.232a3.33,3.33,0,0,0-2.352.875,3.641,3.641,0,0,0-1.012,2.386,2.7,2.7,0,0,1,2.146-.9,2.581,2.581,0,0,1,2.075.916,3.533,3.533,0,0,1,.776,2.365,3.522,3.522,0,0,1-.837,2.461A2.883,2.883,0,0,1,75.8.137a2.841,2.841,0,0,1-2.317-1.1,4.348,4.348,0,0,1-.889-2.827v-.485a6.552,6.552,0,0,1,1.172-4.2,4.306,4.306,0,0,1,3.49-1.487ZM75.817-5.476a2.018,2.018,0,0,0-1.2.39,2.03,2.03,0,0,0-.759.978v.465a3.265,3.265,0,0,0,.554,1.982A1.659,1.659,0,0,0,75.8-.909a1.608,1.608,0,0,0,1.343-.629,2.61,2.61,0,0,0,.489-1.647,2.61,2.61,0,0,0-.5-1.658A1.589,1.589,0,0,0,75.817-5.476ZM88.806-9.96v1.073h-.232a3.33,3.33,0,0,0-2.352.875A3.641,3.641,0,0,0,85.21-5.626a2.7,2.7,0,0,1,2.146-.9,2.581,2.581,0,0,1,2.075.916,3.533,3.533,0,0,1,.776,2.365A3.522,3.522,0,0,1,89.37-.786a2.883,2.883,0,0,1-2.246.923,2.841,2.841,0,0,1-2.317-1.1,4.348,4.348,0,0,1-.889-2.827v-.485a6.552,6.552,0,0,1,1.172-4.2A4.306,4.306,0,0,1,88.58-9.96ZM87.145-5.476a2.018,2.018,0,0,0-1.2.39,2.03,2.03,0,0,0-.759.978v.465a3.265,3.265,0,0,0,.554,1.982,1.659,1.659,0,0,0,1.381.752,1.608,1.608,0,0,0,1.343-.629,2.61,2.61,0,0,0,.489-1.647,2.61,2.61,0,0,0-.5-1.658A1.589,1.589,0,0,0,87.145-5.476ZM98.226,0H91.7V-.909l3.445-3.828a8.185,8.185,0,0,0,1.056-1.412A2.356,2.356,0,0,0,96.5-7.273a1.786,1.786,0,0,0-.472-1.278,1.649,1.649,0,0,0-1.258-.5,1.953,1.953,0,0,0-1.466.537,2.05,2.05,0,0,0-.523,1.494H91.513A2.936,2.936,0,0,1,92.4-9.242a3.282,3.282,0,0,1,2.369-.848,3.153,3.153,0,0,1,2.194.728,2.483,2.483,0,0,1,.807,1.938q0,1.47-1.873,3.5L93.229-1.032h5Zm11.231-9.242L105.335,0h-1.326l4.108-8.914H102.73V-9.953h6.727Zm3.274,3.65h.95a2.088,2.088,0,0,0,1.408-.472A1.576,1.576,0,0,0,115.6-7.3a1.544,1.544,0,0,0-1.743-1.75,1.813,1.813,0,0,0-1.309.468,1.639,1.639,0,0,0-.489,1.241H110.8a2.539,2.539,0,0,1,.865-1.965,3.15,3.15,0,0,1,2.2-.783,3.113,3.113,0,0,1,2.208.745,2.692,2.692,0,0,1,.8,2.071,2.185,2.185,0,0,1-.42,1.258,2.538,2.538,0,0,1-1.145.909,2.446,2.446,0,0,1,1.268.861,2.392,2.392,0,0,1,.448,1.47,2.715,2.715,0,0,1-.875,2.126,3.277,3.277,0,0,1-2.276.786,3.363,3.363,0,0,1-2.28-.759,2.517,2.517,0,0,1-.878-2h1.271a1.627,1.627,0,0,0,.513,1.258,1.95,1.95,0,0,0,1.374.472,1.914,1.914,0,0,0,1.4-.479,1.844,1.844,0,0,0,.485-1.374,1.673,1.673,0,0,0-.533-1.333,2.323,2.323,0,0,0-1.538-.479h-.95Z" transform="translate(119 739)"/><path class="i" d="M1.155,0V-9.953H4.409a3.777,3.777,0,0,1,2.437.67A2.414,2.414,0,0,1,7.663-7.3a2.022,2.022,0,0,1-.4,1.234,2.57,2.57,0,0,1-1.08.831,2.308,2.308,0,0,1,1.275.858A2.462,2.462,0,0,1,7.93-2.871,2.662,2.662,0,0,1,7.062-.766,3.59,3.59,0,0,1,4.607,0ZM2.468-4.655v3.582H4.635a2.087,2.087,0,0,0,1.446-.475,1.669,1.669,0,0,0,.53-1.309q0-1.8-1.955-1.8Zm0-1.053H4.45a2.081,2.081,0,0,0,1.377-.431,1.442,1.442,0,0,0,.516-1.169A1.418,1.418,0,0,0,5.865-8.5a2.354,2.354,0,0,0-1.456-.373H2.468ZM15.258,0H13.986V-2.68a6.708,6.708,0,0,1-1.709.219,2.907,2.907,0,0,1-2.116-.711A2.742,2.742,0,0,1,9.42-5.2V-7.4h1.265v2.249Q10.719-3.5,12.277-3.5a6.708,6.708,0,0,0,1.709-.219V-7.4h1.271Zm5.093.137A3.232,3.232,0,0,1,17.9-.851a3.666,3.666,0,0,1-.943-2.642v-.232a4.438,4.438,0,0,1,.42-1.965,3.28,3.28,0,0,1,1.176-1.354,2.956,2.956,0,0,1,1.637-.489,2.77,2.77,0,0,1,2.242.95,4.114,4.114,0,0,1,.8,2.721v.526H18.225a2.629,2.629,0,0,0,.639,1.767A2.009,2.009,0,0,0,20.419-.9a2.2,2.2,0,0,0,1.135-.273,2.851,2.851,0,0,0,.813-.725l.772.6A3.106,3.106,0,0,1,20.351.137Zm-.157-6.631a1.687,1.687,0,0,0-1.285.557,2.708,2.708,0,0,0-.643,1.562h3.705v-.1a2.409,2.409,0,0,0-.52-1.494A1.588,1.588,0,0,0,20.193-6.494ZM30.946-3.616A4.429,4.429,0,0,1,30.174-.9,2.476,2.476,0,0,1,28.082.137a2.713,2.713,0,0,1-2.119-.854V2.844H24.7V-7.4h1.155l.062.82a2.605,2.605,0,0,1,2.146-.957,2.522,2.522,0,0,1,2.109,1,4.477,4.477,0,0,1,.776,2.8ZM29.682-3.76a3.268,3.268,0,0,0-.533-1.976,1.718,1.718,0,0,0-1.463-.725,1.859,1.859,0,0,0-1.723,1.019v3.534A1.863,1.863,0,0,0,27.7-.9a1.71,1.71,0,0,0,1.446-.721A3.567,3.567,0,0,0,29.682-3.76ZM37.119,0a2.657,2.657,0,0,1-.178-.779,2.822,2.822,0,0,1-2.105.916,2.611,2.611,0,0,1-1.794-.619,2,2,0,0,1-.7-1.569,2.091,2.091,0,0,1,.878-1.794,4.142,4.142,0,0,1,2.471-.639h1.23v-.581a1.42,1.42,0,0,0-.4-1.056,1.593,1.593,0,0,0-1.169-.393,1.844,1.844,0,0,0-1.135.342,1.007,1.007,0,0,0-.458.827H32.491a1.745,1.745,0,0,1,.393-1.07,2.683,2.683,0,0,1,1.066-.817,3.588,3.588,0,0,1,1.48-.3,2.924,2.924,0,0,1,2,.639,2.306,2.306,0,0,1,.752,1.76v3.4a4.162,4.162,0,0,0,.26,1.62V0Zm-2.1-.964a2.223,2.223,0,0,0,1.128-.308,1.861,1.861,0,0,0,.772-.8V-3.589H35.93q-2.324,0-2.324,1.36a1.151,1.151,0,0,0,.4.93A1.524,1.524,0,0,0,35.021-.964Z" transform="translate(567 709)"/><path class="i" d="M7.068-4.245a5.784,5.784,0,0,1-.759,3.3A2.7,2.7,0,0,1,3.938.137,2.718,2.718,0,0,1,1.579-.919,5.49,5.49,0,0,1,.786-4.074V-5.763a5.655,5.655,0,0,1,.759-3.261A2.719,2.719,0,0,1,3.924-10.09,2.744,2.744,0,0,1,6.289-9.061a5.458,5.458,0,0,1,.779,3.175ZM5.8-5.975a4.634,4.634,0,0,0-.451-2.341,1.553,1.553,0,0,0-1.429-.735,1.532,1.532,0,0,0-1.415.731A4.525,4.525,0,0,0,2.051-6.07v2.023a4.708,4.708,0,0,0,.468,2.382A1.55,1.55,0,0,0,3.938-.9,1.529,1.529,0,0,0,5.329-1.62,4.538,4.538,0,0,0,5.8-3.9Zm7.731,1.6a3.094,3.094,0,0,1-.947.759,2.569,2.569,0,0,1-1.207.287,2.652,2.652,0,0,1-1.5-.424,2.755,2.755,0,0,1-.988-1.193,4.067,4.067,0,0,1-.349-1.7,4.143,4.143,0,0,1,.379-1.8A2.787,2.787,0,0,1,10-9.666a3.07,3.07,0,0,1,1.627-.424,2.78,2.78,0,0,1,2.328,1.1,4.815,4.815,0,0,1,.851,3.011v.369a6.434,6.434,0,0,1-1.148,4.242A4.412,4.412,0,0,1,10.192.007H9.946V-1.06h.267a3.478,3.478,0,0,0,2.406-.817A3.509,3.509,0,0,0,13.535-4.375Zm-1.948,0a1.953,1.953,0,0,0,1.172-.39,2.3,2.3,0,0,0,.783-.964v-.506A3.48,3.48,0,0,0,13-8.258a1.611,1.611,0,0,0-1.367-.779,1.624,1.624,0,0,0-1.34.639,2.637,2.637,0,0,0-.506,1.685,2.744,2.744,0,0,0,.489,1.678A1.548,1.548,0,0,0,11.587-4.375ZM16.639-.663a.792.792,0,0,1,.195-.547.742.742,0,0,1,.584-.219.765.765,0,0,1,.591.219.776.776,0,0,1,.2.547.734.734,0,0,1-.2.526.778.778,0,0,1-.591.212.755.755,0,0,1-.584-.212A.748.748,0,0,1,16.639-.663ZM16.646-6.7a.792.792,0,0,1,.195-.547.742.742,0,0,1,.584-.219.765.765,0,0,1,.591.219.776.776,0,0,1,.2.547.734.734,0,0,1-.2.526.778.778,0,0,1-.591.212.755.755,0,0,1-.584-.212A.748.748,0,0,1,16.646-6.7Zm9.536,2.454a5.784,5.784,0,0,1-.759,3.3A2.7,2.7,0,0,1,23.051.137,2.718,2.718,0,0,1,20.692-.919,5.49,5.49,0,0,1,19.9-4.074V-5.763a5.655,5.655,0,0,1,.759-3.261,2.719,2.719,0,0,1,2.379-1.066A2.744,2.744,0,0,1,25.4-9.061a5.458,5.458,0,0,1,.779,3.175ZM24.917-5.975a4.634,4.634,0,0,0-.451-2.341,1.553,1.553,0,0,0-1.429-.735,1.532,1.532,0,0,0-1.415.731,4.525,4.525,0,0,0-.458,2.249v2.023a4.708,4.708,0,0,0,.468,2.382A1.55,1.55,0,0,0,23.051-.9a1.529,1.529,0,0,0,1.391-.725A4.538,4.538,0,0,0,24.917-3.9Zm8.224,2.632h1.381v1.032H33.141V0H31.869V-2.311H27.337v-.745l4.457-6.9h1.347Zm-4.368,0h3.1V-8.224l-.15.273Z" transform="translate(567 739)"/><path class="m" d="M15.5,0A15.5,15.5,0,1,1,0,15.5,15.5,15.5,0,0,1,15.5,0Z" transform="translate(519 702)"/><path class="k" d="M24.131,5.262a.474.474,0,1,0-.5.8,1.753,1.753,0,0,1,0,2.975l-7.774,4.847A1.753,1.753,0,0,1,13.174,12.4V2.706a1.753,1.753,0,0,1,2.681-1.488L20.38,4.041a.474.474,0,1,0,.5-.8L16.356.414a2.7,2.7,0,0,0-4.13,2.292V12.4a2.668,2.668,0,0,0,1.39,2.362,2.668,2.668,0,0,0,2.74-.07l7.774-4.847a2.7,2.7,0,0,0,0-4.584Z" transform="translate(516.774 709.892)"/><circle class="j" cx="27.5" cy="27.5" r="27.5" transform="translate(102.231 472.399)"/><g transform="translate(2)"><rect class="a" width="4" height="21" rx="2" transform="translate(123 489)"/><rect class="a" width="4" height="13" rx="2" transform="translate(129 497)"/><rect class="a" width="4" height="6" rx="2" transform="translate(129 489)"/></g><path class="n" d="M0,0H125" transform="translate(185.5 499.5)"/><path class="o" d="M0,0H234" transform="translate(316.5 499.5)"/><g class="p" transform="matrix(1, 0, 0, 1, 0, 0)"><path class="a" d="M7.5,0A7.5,7.5,0,1,1,0,7.5,7.5,7.5,0,0,1,7.5,0Z" transform="translate(309 492)"/></g></svg>