<svg xmlns="http://www.w3.org/2000/svg" xmlns:xlink="http://www.w3.org/1999/xlink" viewBox="336 307 327.679 229"><defs><style>.a{fill:#ffe7ed;}.b{fill:#ff1844;}.b,.c{stroke:rgba(0,0,0,0);}.c{fill:#b9c2c9;}.d{filter:url(#a);}</style><filter id="a" x="336" y="307" width="327.679" height="229" filterUnits="userSpaceOnUse"><feOffset dy="6" input="SourceAlpha"/><feGaussianBlur stdDeviation="10" result="b"/><feFlood flood-opacity="0.133"/><feComposite operator="in" in2="b"/><feComposite in="SourceGraphic"/></filter></defs><g class="d" transform="matrix(1, 0, 0, 1, 0, 0)"><path class="a" d="M6,0H261.679a6,6,0,0,1,6,6V163a6,6,0,0,1-6,6H6a6,6,0,0,1-6-6V6A6,6,0,0,1,6,0Z" transform="translate(366 331)"/></g><path class="b" d="M6.543-5.107l4.043-9.111H12L6.5-2.314l-.352.674A3.3,3.3,0,0,1,3.105.205,3.042,3.042,0,0,1,2.188.1l.107-.977a3.131,3.131,0,0,0,.82.068,2.2,2.2,0,0,0,1.943-1.24L5.3-2.49l.615-1.27L.537-14.219H1.914ZM17.979-.791a3.086,3.086,0,0,0,2.046-.688,2.423,2.423,0,0,0,.894-1.782h1.123A3.309,3.309,0,0,1,21.436-1.5,3.793,3.793,0,0,1,19.956-.254,4.459,4.459,0,0,1,17.979.2a4.082,4.082,0,0,1-3.3-1.445,5.843,5.843,0,0,1-1.216-3.887v-.352a6.605,6.605,0,0,1,.547-2.764,4.214,4.214,0,0,1,1.567-1.855,4.327,4.327,0,0,1,2.388-.654,4.075,4.075,0,0,1,2.866,1.035A3.775,3.775,0,0,1,22.041-7H20.918a2.874,2.874,0,0,0-.894-2,2.893,2.893,0,0,0-2.056-.762,2.914,2.914,0,0,0-2.456,1.143,5.17,5.17,0,0,0-.874,3.2v.342a5.054,5.054,0,0,0,.874,3.154A2.934,2.934,0,0,0,17.979-.791Zm9.268-4.053H25.625V0H24.443V-10.566h1.182v4.688h1.6L31.1-10.566h1.475L28.242-5.439,33.057,0H31.514Zm6.846-.6a6.218,6.218,0,0,1,.591-2.744,4.5,4.5,0,0,1,1.67-1.9,4.5,4.5,0,0,1,2.446-.679,4.347,4.347,0,0,1,3.418,1.479,5.7,5.7,0,0,1,1.309,3.921v.244a6.272,6.272,0,0,1-.591,2.759A4.411,4.411,0,0,1,41.27-.469,4.566,4.566,0,0,1,38.818.2a4.35,4.35,0,0,1-3.413-1.479,5.688,5.688,0,0,1-1.313-3.921Zm1.172.322a4.8,4.8,0,0,0,.981,3.11A3.148,3.148,0,0,0,38.818-.791a3.138,3.138,0,0,0,2.563-1.216,4.952,4.952,0,0,0,.981-3.208v-.225a5.375,5.375,0,0,0-.449-2.217,3.61,3.61,0,0,0-1.26-1.558A3.219,3.219,0,0,0,38.8-9.766,3.122,3.122,0,0,0,36.25-8.54a4.96,4.96,0,0,0-.986,3.208Zm19.17-.059A6.363,6.363,0,0,1,53.34-1.255,3.484,3.484,0,0,1,50.41.2a3.911,3.911,0,0,1-3.32-1.523V4.063H45.928V-10.566h1.084l.059,1.494a3.75,3.75,0,0,1,3.311-1.689,3.515,3.515,0,0,1,2.974,1.436,6.5,6.5,0,0,1,1.079,3.984Zm-1.172-.205a5.435,5.435,0,0,0-.83-3.193,2.677,2.677,0,0,0-2.314-1.172,3.235,3.235,0,0,0-1.846.518,3.255,3.255,0,0,0-1.182,1.5v5.068a3.1,3.1,0,0,0,1.2,1.387,3.464,3.464,0,0,0,1.846.479,2.652,2.652,0,0,0,2.3-1.177A5.917,5.917,0,0,0,53.262-5.381ZM61.113.2a4.587,4.587,0,0,1-2.437-.664,4.526,4.526,0,0,1-1.694-1.851,5.77,5.77,0,0,1-.605-2.661V-5.4a6.218,6.218,0,0,1,.591-2.744,4.7,4.7,0,0,1,1.646-1.919,4.059,4.059,0,0,1,2.285-.7A3.815,3.815,0,0,1,63.95-9.448a5.328,5.328,0,0,1,1.128,3.589v.654H57.539v.225a4.424,4.424,0,0,0,1.03,2.993,3.278,3.278,0,0,0,2.593,1.2,3.808,3.808,0,0,0,1.655-.342,3.671,3.671,0,0,0,1.3-1.094l.732.557A4.264,4.264,0,0,1,61.113.2ZM60.9-9.766a2.921,2.921,0,0,0-2.222.967,4.466,4.466,0,0,0-1.1,2.6h6.338v-.127a3.878,3.878,0,0,0-.869-2.48A2.693,2.693,0,0,0,60.9-9.766ZM75.469,0H74.3V-4.844H68.6V0H67.432V-10.566H68.6V-5.83H74.3v-4.736h1.172ZM85.537-10.566h1.172V0H85.537V-8.682L79.834,0H78.672V-10.566h1.162v8.691ZM93.926.2a4.587,4.587,0,0,1-2.437-.664,4.526,4.526,0,0,1-1.694-1.851,5.77,5.77,0,0,1-.605-2.661V-5.4a6.218,6.218,0,0,1,.591-2.744,4.7,4.7,0,0,1,1.646-1.919,4.059,4.059,0,0,1,2.285-.7,3.815,3.815,0,0,1,3.052,1.313,5.328,5.328,0,0,1,1.128,3.589v.654H90.352v.225a4.424,4.424,0,0,0,1.03,2.993,3.278,3.278,0,0,0,2.593,1.2,3.808,3.808,0,0,0,1.655-.342,3.671,3.671,0,0,0,1.3-1.094l.732.557A4.264,4.264,0,0,1,93.926.2Zm-.215-9.961a2.921,2.921,0,0,0-2.222.967,4.466,4.466,0,0,0-1.1,2.6h6.338v-.127a3.878,3.878,0,0,0-.869-2.48A2.693,2.693,0,0,0,93.711-9.766Zm10.674,4.326a6.218,6.218,0,0,1,.591-2.744,4.5,4.5,0,0,1,1.67-1.9,4.5,4.5,0,0,1,2.446-.679,4.347,4.347,0,0,1,3.418,1.479,5.7,5.7,0,0,1,1.309,3.921v.244a6.272,6.272,0,0,1-.591,2.759,4.411,4.411,0,0,1-1.665,1.89A4.566,4.566,0,0,1,109.111.2,4.35,4.35,0,0,1,105.7-1.284a5.688,5.688,0,0,1-1.313-3.921Zm1.172.322a4.8,4.8,0,0,0,.981,3.11,3.148,3.148,0,0,0,2.573,1.216,3.138,3.138,0,0,0,2.563-1.216,4.952,4.952,0,0,0,.981-3.208v-.225a5.375,5.375,0,0,0-.449-2.217,3.609,3.609,0,0,0-1.26-1.558,3.219,3.219,0,0,0-1.855-.552,3.122,3.122,0,0,0-2.549,1.226,4.96,4.96,0,0,0-.986,3.208Zm14.932-4.746A4.3,4.3,0,0,1,123.75-8.55,4.841,4.841,0,0,1,125-5.068v.254a5.716,5.716,0,0,1-.571,2.583,4.231,4.231,0,0,1-1.641,1.787,4.691,4.691,0,0,1-2.456.64A4.406,4.406,0,0,1,116.948-1.2a5.239,5.239,0,0,1-1.294-3.716V-5.85a9.663,9.663,0,0,1,1.25-5.244,5.005,5.005,0,0,1,3.555-2.344,5.407,5.407,0,0,0,2.046-.635,1.255,1.255,0,0,0,.591-1.094H124.1a2.485,2.485,0,0,1-.342,1.357,2.4,2.4,0,0,1-1.025.864,8.074,8.074,0,0,1-2.09.552,4.194,4.194,0,0,0-2.593,1.372,5.783,5.783,0,0,0-1.274,2.993,4.812,4.812,0,0,1,1.567-1.328A4.447,4.447,0,0,1,120.488-9.863Zm-3.662,4.8v.244a4.284,4.284,0,0,0,.967,2.905,3.194,3.194,0,0,0,2.539,1.118,3.164,3.164,0,0,0,2.539-1.128,4.425,4.425,0,0,0,.957-2.964v-.254a3.8,3.8,0,0,0-.972-2.7,3.312,3.312,0,0,0-2.544-1.045,3.244,3.244,0,0,0-2.529,1.06A3.958,3.958,0,0,0,116.826-5.059Zm18.906-.117a6.363,6.363,0,0,1-1.094,3.921A3.484,3.484,0,0,1,131.709.2a3.911,3.911,0,0,1-3.32-1.523V4.063h-1.162V-10.566h1.084l.059,1.494a3.75,3.75,0,0,1,3.311-1.689,3.515,3.515,0,0,1,2.974,1.436,6.5,6.5,0,0,1,1.079,3.984Zm-1.172-.205a5.435,5.435,0,0,0-.83-3.193,2.677,2.677,0,0,0-2.314-1.172,3.235,3.235,0,0,0-1.846.518,3.255,3.255,0,0,0-1.182,1.5v5.068a3.1,3.1,0,0,0,1.2,1.387,3.464,3.464,0,0,0,1.846.479,2.652,2.652,0,0,0,2.3-1.177A5.917,5.917,0,0,0,134.561-5.381ZM144.99,0a5.526,5.526,0,0,1-.225-1.475A4.075,4.075,0,0,1,143.2-.239,4.8,4.8,0,0,1,141.182.2a3.542,3.542,0,0,1-2.466-.85,2.768,2.768,0,0,1-.942-2.148,2.828,2.828,0,0,1,1.284-2.441,6.171,6.171,0,0,1,3.579-.9h2.119v-1.2a2.315,2.315,0,0,0-.7-1.782,2.886,2.886,0,0,0-2.036-.649A3.187,3.187,0,0,0,140-9.15a1.857,1.857,0,0,0-.8,1.5l-1.172-.01A2.717,2.717,0,0,1,139.2-9.839a4.512,4.512,0,0,1,2.881-.923,4.116,4.116,0,0,1,2.788.884,3.171,3.171,0,0,1,1.05,2.466v5a6.2,6.2,0,0,0,.322,2.295V0Zm-3.672-.84a3.923,3.923,0,0,0,2.095-.566,3.333,3.333,0,0,0,1.343-1.514V-5.244h-2.09a5.236,5.236,0,0,0-2.734.64,1.92,1.92,0,0,0-.986,1.7,1.889,1.889,0,0,0,.659,1.475A2.483,2.483,0,0,0,141.318-.84Zm11.973-9.023a4.3,4.3,0,0,1,3.262,1.313,4.841,4.841,0,0,1,1.25,3.481v.254a5.716,5.716,0,0,1-.571,2.583,4.231,4.231,0,0,1-1.641,1.787,4.691,4.691,0,0,1-2.456.64A4.406,4.406,0,0,1,149.751-1.2a5.239,5.239,0,0,1-1.294-3.716V-5.85a9.663,9.663,0,0,1,1.25-5.244,5.005,5.005,0,0,1,3.555-2.344,5.407,5.407,0,0,0,2.046-.635,1.255,1.255,0,0,0,.591-1.094H156.9a2.485,2.485,0,0,1-.342,1.357,2.4,2.4,0,0,1-1.025.864,8.074,8.074,0,0,1-2.09.552,4.194,4.194,0,0,0-2.593,1.372,5.783,5.783,0,0,0-1.274,2.993,4.812,4.812,0,0,1,1.567-1.328A4.447,4.447,0,0,1,153.291-9.863Zm-3.662,4.8v.244a4.284,4.284,0,0,0,.967,2.905,3.194,3.194,0,0,0,2.539,1.118,3.164,3.164,0,0,0,2.539-1.128,4.425,4.425,0,0,0,.957-2.964v-.254a3.8,3.8,0,0,0-.972-2.7,3.312,3.312,0,0,0-2.544-1.045,3.244,3.244,0,0,0-2.529,1.06A3.958,3.958,0,0,0,149.629-5.059Zm9.766-.381a6.218,6.218,0,0,1,.591-2.744,4.5,4.5,0,0,1,1.67-1.9,4.5,4.5,0,0,1,2.446-.679,4.347,4.347,0,0,1,3.418,1.479,5.7,5.7,0,0,1,1.309,3.921v.244a6.272,6.272,0,0,1-.591,2.759,4.411,4.411,0,0,1-1.665,1.89A4.566,4.566,0,0,1,164.121.2a4.35,4.35,0,0,1-3.413-1.479,5.688,5.688,0,0,1-1.313-3.921Zm1.172.322a4.8,4.8,0,0,0,.981,3.11,3.148,3.148,0,0,0,2.573,1.216,3.138,3.138,0,0,0,2.563-1.216,4.952,4.952,0,0,0,.981-3.208v-.225a5.375,5.375,0,0,0-.449-2.217,3.61,3.61,0,0,0-1.26-1.558,3.219,3.219,0,0,0-1.855-.552,3.122,3.122,0,0,0-2.549,1.226,4.96,4.96,0,0,0-.986,3.208ZM178.828-9.57H174.98V0h-1.172V-9.57h-3.7v-1h8.721Zm4.785,4.727h-1.621V0h-1.182V-10.566h1.182v4.688h1.6l3.877-4.687h1.475l-4.336,5.127L189.424,0h-1.543Zm14.434-5.723h1.172V0h-1.172V-8.682L192.344,0h-1.162V-10.566h1.162v8.691Z" transform="translate(399 453)"/><path class="c" d="M5.269-6.113H1.987V0H.757V-7.109H5.269Zm5,4.458H7.52L6.943,0H5.659L8.345-7.109H9.453L12.144,0H10.854Zm-2.407-1H9.927L8.9-5.6Zm6.318.01V0H12.949V-7.109h2.72a2.752,2.752,0,0,1,1.892.62,2.084,2.084,0,0,1,.7,1.641,2.015,2.015,0,0,1-.686,1.626,2.885,2.885,0,0,1-1.921.581Zm0-.991h1.484a1.462,1.462,0,0,0,1.006-.31,1.14,1.14,0,0,0,.347-.9,1.23,1.23,0,0,0-.352-.92,1.355,1.355,0,0,0-.967-.354H14.185ZM23.32-1.655H20.566L19.99,0H18.706l2.686-7.109H22.5L25.19,0H23.9Zm-2.407-1h2.061L21.943-5.6ZM31.641,0H30.41V-3.159H27.231V0H26V-7.109h1.235V-4.15H30.41V-7.109h1.23Zm6.6-6.113H36.021V0H34.795V-6.113H32.6v-1h5.64Zm5.288-1h1.235V0H43.525V-5.063L40.405,0H39.17V-7.109h1.235v5.068Zm3.95,4.468V0H46.24V-7.109h2.72a2.752,2.752,0,0,1,1.892.62,2.084,2.084,0,0,1,.7,1.641,2.015,2.015,0,0,1-.686,1.626,2.885,2.885,0,0,1-1.921.581Zm0-.991H48.96a1.462,1.462,0,0,0,1.006-.31,1.14,1.14,0,0,0,.347-.9,1.23,1.23,0,0,0-.352-.92,1.355,1.355,0,0,0-.967-.354H47.476Zm10.83.264a4.362,4.362,0,0,1-.361,1.833A2.732,2.732,0,0,1,56.912-.325,2.841,2.841,0,0,1,55.366.1a2.847,2.847,0,0,1-1.541-.422,2.774,2.774,0,0,1-1.045-1.2,4.225,4.225,0,0,1-.374-1.8v-.4a4.324,4.324,0,0,1,.369-1.836,2.771,2.771,0,0,1,1.04-1.218,2.832,2.832,0,0,1,1.541-.422A2.857,2.857,0,0,1,56.9-6.79a2.736,2.736,0,0,1,1.038,1.2,4.315,4.315,0,0,1,.371,1.824ZM57.07-3.74a3.108,3.108,0,0,0-.447-1.812,1.462,1.462,0,0,0-1.267-.63,1.457,1.457,0,0,0-1.252.627,3.048,3.048,0,0,0-.461,1.775v.41A3.084,3.084,0,0,0,54.1-1.558a1.47,1.47,0,0,0,1.267.64,1.453,1.453,0,0,0,1.262-.625,3.151,3.151,0,0,0,.442-1.826ZM59.536,0V-7.109h2.437a2.975,2.975,0,0,1,1.836.483,1.7,1.7,0,0,1,.63,1.44,1.535,1.535,0,0,1-.264.879A1.7,1.7,0,0,1,63.4-3.7a1.569,1.569,0,0,1,.891.588,1.714,1.714,0,0,1,.315,1.038,1.893,1.893,0,0,1-.642,1.538A2.792,2.792,0,0,1,62.129,0Zm1.235-3.208V-.986h1.372a1.328,1.328,0,0,0,.908-.288,1.011,1.011,0,0,0,.327-.8,1.015,1.015,0,0,0-1.133-1.133Zm0-.908h1.211a1.4,1.4,0,0,0,.9-.261.9.9,0,0,0,.325-.74.907.907,0,0,0-.3-.762,1.516,1.516,0,0,0-.935-.234h-1.2Zm9.053,2.461H67.07L66.494,0H65.21L67.9-7.109H69L71.694,0H70.405Zm-2.407-1h2.061L68.447-5.6ZM78.145,0h-1.23V-3.159H73.735V0H72.5V-7.109h1.235V-4.15h3.179V-7.109h1.23Zm7.1,0h-1.23V-3.159H80.84V0H79.6V-7.109H80.84V-4.15h3.179V-7.109h1.23Zm7.134-3.369a4.362,4.362,0,0,1-.361,1.833A2.732,2.732,0,0,1,90.989-.325,2.841,2.841,0,0,1,89.443.1,2.847,2.847,0,0,1,87.9-.325a2.774,2.774,0,0,1-1.045-1.2,4.225,4.225,0,0,1-.374-1.8v-.4a4.324,4.324,0,0,1,.369-1.836,2.771,2.771,0,0,1,1.04-1.218,2.832,2.832,0,0,1,1.541-.422,2.857,2.857,0,0,1,1.541.417,2.736,2.736,0,0,1,1.038,1.2,4.315,4.315,0,0,1,.371,1.824ZM91.147-3.74A3.108,3.108,0,0,0,90.7-5.552a1.462,1.462,0,0,0-1.267-.63,1.457,1.457,0,0,0-1.252.627,3.048,3.048,0,0,0-.461,1.775v.41a3.084,3.084,0,0,0,.457,1.812,1.47,1.47,0,0,0,1.267.64,1.453,1.453,0,0,0,1.262-.625,3.151,3.151,0,0,0,.442-1.826Z" transform="translate(453 476)"/><path class="b" d="M16.266-19.1h8.461v6.117H16.266v9.563H9.82v-9.562H1.336V-19.1H9.82v-9.164h6.445ZM56.93,0H50.156V-26.109L42.07-23.6v-5.508L56.2-34.172h.727ZM91.406,0H68.016V-4.641L79.055-16.406a27.233,27.233,0,0,0,3.363-4.336,6.966,6.966,0,0,0,1.09-3.516,5.213,5.213,0,0,0-1.148-3.574,4.146,4.146,0,0,0-3.281-1.3,4.471,4.471,0,0,0-3.621,1.582,6.267,6.267,0,0,0-1.324,4.16h-6.8a11.187,11.187,0,0,1,1.488-5.7,10.489,10.489,0,0,1,4.207-4.043A12.787,12.787,0,0,1,79.2-34.594q5.273,0,8.191,2.531A8.955,8.955,0,0,1,90.3-24.914a11.474,11.474,0,0,1-1.312,5.156,28.654,28.654,0,0,1-4.5,6.117l-7.758,8.18H91.406Zm27.117-14.109q0,7.078-2.93,10.828T107.016.469q-5.578,0-8.531-3.68T95.461-13.758v-6.281q0-7.148,2.965-10.852t8.543-3.7q5.578,0,8.531,3.668t3.023,10.535ZM111.75-21q0-4.242-1.16-6.176a3.921,3.921,0,0,0-3.621-1.934,3.852,3.852,0,0,0-3.527,1.84,11.674,11.674,0,0,0-1.207,5.754v8.3a13.094,13.094,0,0,0,1.137,6.2,3.87,3.87,0,0,0,3.645,2.027A3.8,3.8,0,0,0,110.6-6.937a12.781,12.781,0,0,0,1.148-5.953Z" transform="translate(427 404)"/><path class="b" d="M1.305-15.5a3.852,3.852,0,0,1,1.121-2.854,3.988,3.988,0,0,1,2.94-1.114,4,4,0,0,1,2.96,1.114,3.949,3.949,0,0,1,1.114,2.92v.949a3.826,3.826,0,0,1-1.114,2.834,3.979,3.979,0,0,1-2.933,1.107,4.105,4.105,0,0,1-2.933-1.088,3.839,3.839,0,0,1-1.154-2.933Zm2.241,1.015a2.105,2.105,0,0,0,.508,1.47,1.719,1.719,0,0,0,1.338.56,1.684,1.684,0,0,0,1.318-.56,2.2,2.2,0,0,0,.5-1.523V-15.5A2.13,2.13,0,0,0,6.7-16.98a1.71,1.71,0,0,0-1.338-.567,1.661,1.661,0,0,0-1.325.573,2.231,2.231,0,0,0-.494,1.51Zm6.987,9.782a3.774,3.774,0,0,1,1.147-2.861,4.068,4.068,0,0,1,2.927-1.094,4.062,4.062,0,0,1,2.933,1.094,3.9,3.9,0,0,1,1.14,2.953v.936A3.856,3.856,0,0,1,17.58-.85,3.956,3.956,0,0,1,14.634.264a4.073,4.073,0,0,1-2.973-1.1,3.88,3.88,0,0,1-1.127-2.907Zm2.241,1.028a2.1,2.1,0,0,0,.521,1.47,1.726,1.726,0,0,0,1.338.573,1.673,1.673,0,0,0,1.325-.547,2.249,2.249,0,0,0,.481-1.536v-.989a2.084,2.084,0,0,0-.514-1.477,1.719,1.719,0,0,0-1.318-.554,1.714,1.714,0,0,0-1.325.554,2.178,2.178,0,0,0-.508,1.529ZM6.051-1.437,4.4-2.386l9.374-15,1.648.949Z" transform="translate(552 390)"/></svg>