<svg xmlns="http://www.w3.org/2000/svg" xmlns:xlink="http://www.w3.org/1999/xlink" viewBox="225 325 327.679 229"><defs><style>.a{fill:#67b930;}.b{fill:#fff;}.b,.c,.e{stroke:rgba(0,0,0,0);}.c{fill:#9fe27f;}.d{fill:#ffdb00;}.e{fill:#b79d00;}.f{filter:url(#c);}.g{filter:url(#a);}</style><filter id="a" x="225" y="325" width="327.679" height="229" filterUnits="userSpaceOnUse"><feOffset dy="6" input="SourceAlpha"/><feGaussianBlur stdDeviation="10" result="b"/><feFlood flood-opacity="0.133"/><feComposite operator="in" in2="b"/><feComposite in="SourceGraphic"/></filter><filter id="c" x="344" y="360" width="89.793" height="91.271" filterUnits="userSpaceOnUse"><feOffset dy="3" input="SourceAlpha"/><feGaussianBlur stdDeviation="3" result="d"/><feFlood flood-opacity="0.161"/><feComposite operator="in" in2="d"/><feComposite in="SourceGraphic"/></filter></defs><g class="g" transform="matrix(1, 0, 0, 1, 0, 0)"><path class="a" d="M6,0H261.679a6,6,0,0,1,6,6V163a6,6,0,0,1-6,6H6a6,6,0,0,1-6-6V6A6,6,0,0,1,6,0Z" transform="translate(255 349)"/></g><path class="b" d="M2.578-4.434A4.315,4.315,0,0,0,3.789-1.694,4.06,4.06,0,0,0,6.6-.82,3.593,3.593,0,0,0,9.639-2.3a6.47,6.47,0,0,0,1.113-3.975v-.352H4.814V-7.656h5.938v-.352a6.189,6.189,0,0,0-1.143-3.926,3.718,3.718,0,0,0-3.086-1.455q-3.5,0-3.945,3.623h-1.2A5.115,5.115,0,0,1,2.93-13.193a5.127,5.127,0,0,1,3.594-1.221,4.915,4.915,0,0,1,3.94,1.753A7.1,7.1,0,0,1,11.953-7.91v1.7a8.04,8.04,0,0,1-.669,3.364A5.139,5.139,0,0,1,9.4-.591,5.038,5.038,0,0,1,6.6.2a5.3,5.3,0,0,1-3.643-1.2A5.052,5.052,0,0,1,1.377-4.434Zm15.02-.41H15.977V0H14.795V-10.566h1.182v4.688h1.6l3.877-4.687H22.93L18.594-5.439,23.408,0H21.865Zm6.846-.6a6.218,6.218,0,0,1,.591-2.744,4.5,4.5,0,0,1,1.67-1.9,4.5,4.5,0,0,1,2.446-.679,4.347,4.347,0,0,1,3.418,1.479,5.7,5.7,0,0,1,1.309,3.921v.244a6.272,6.272,0,0,1-.591,2.759,4.411,4.411,0,0,1-1.665,1.89A4.566,4.566,0,0,1,29.17.2a4.35,4.35,0,0,1-3.413-1.479,5.688,5.688,0,0,1-1.313-3.921Zm1.172.322a4.8,4.8,0,0,0,.981,3.11A3.148,3.148,0,0,0,29.17-.791a3.138,3.138,0,0,0,2.563-1.216,4.952,4.952,0,0,0,.981-3.208v-.225a5.375,5.375,0,0,0-.449-2.217,3.61,3.61,0,0,0-1.26-1.558,3.219,3.219,0,0,0-1.855-.552A3.122,3.122,0,0,0,26.6-8.54a4.96,4.96,0,0,0-.986,3.208ZM44.4,0H43.232V-4.844H37.539V0H36.367V-10.566h1.172V-5.83h5.693v-4.736H44.4Zm2.48-5.439a6.218,6.218,0,0,1,.591-2.744,4.5,4.5,0,0,1,1.67-1.9,4.5,4.5,0,0,1,2.446-.679A4.347,4.347,0,0,1,55.01-9.282a5.7,5.7,0,0,1,1.309,3.921v.244a6.272,6.272,0,0,1-.591,2.759,4.411,4.411,0,0,1-1.665,1.89A4.566,4.566,0,0,1,51.611.2,4.35,4.35,0,0,1,48.2-1.284a5.688,5.688,0,0,1-1.313-3.921Zm1.172.322a4.8,4.8,0,0,0,.981,3.11A3.148,3.148,0,0,0,51.611-.791a3.138,3.138,0,0,0,2.563-1.216,4.952,4.952,0,0,0,.981-3.208v-.225a5.375,5.375,0,0,0-.449-2.217,3.61,3.61,0,0,0-1.26-1.558,3.219,3.219,0,0,0-1.855-.552A3.122,3.122,0,0,0,49.043-8.54a4.96,4.96,0,0,0-.986,3.208ZM64.58-1.582l4.2-8.984h1.445V0H69.053V-8.672L64.99,0h-.83L60.02-8.867V0H58.857V-10.566h1.533Zm15.713-8.984h1.172V0H80.293V-8.682L74.59,0H73.428V-10.566H74.59v8.691Zm12,0V0H91.123V-4.258H87.842L85.264,0H83.975l2.656-4.4A2.945,2.945,0,0,1,84.946-5.5a3.126,3.126,0,0,1-.6-1.914,2.837,2.837,0,0,1,1.03-2.295,4.217,4.217,0,0,1,2.788-.859ZM85.518-7.393a2.072,2.072,0,0,0,.591,1.523,2.277,2.277,0,0,0,1.646.615h3.369V-9.57H88.135a2.9,2.9,0,0,0-1.919.586A1.969,1.969,0,0,0,85.518-7.393ZM108.428,0h-1.172V-9.561h-5.693V0h-1.172V-10.566h8.037Zm11.621-5.176a6.363,6.363,0,0,1-1.094,3.921A3.484,3.484,0,0,1,116.025.2a3.911,3.911,0,0,1-3.32-1.523V4.063h-1.162V-10.566h1.084l.059,1.494A3.75,3.75,0,0,1,116-10.762a3.515,3.515,0,0,1,2.974,1.436,6.5,6.5,0,0,1,1.079,3.984Zm-1.172-.205a5.435,5.435,0,0,0-.83-3.193,2.677,2.677,0,0,0-2.314-1.172,3.235,3.235,0,0,0-1.846.518,3.255,3.255,0,0,0-1.182,1.5v5.068a3.1,3.1,0,0,0,1.2,1.387,3.464,3.464,0,0,0,1.846.479,2.652,2.652,0,0,0,2.3-1.177A5.917,5.917,0,0,0,118.877-5.381Zm10.7-5.186h1.172V0H129.58V-8.682L123.877,0h-1.162V-10.566h1.162v8.691Zm8.555.7A4.3,4.3,0,0,1,141.4-8.55a4.841,4.841,0,0,1,1.25,3.481v.254a5.716,5.716,0,0,1-.571,2.583,4.231,4.231,0,0,1-1.641,1.787,4.691,4.691,0,0,1-2.456.64A4.406,4.406,0,0,1,134.595-1.2,5.239,5.239,0,0,1,133.3-4.912V-5.85a9.663,9.663,0,0,1,1.25-5.244,5.005,5.005,0,0,1,3.555-2.344,5.407,5.407,0,0,0,2.046-.635,1.255,1.255,0,0,0,.591-1.094h1.006a2.485,2.485,0,0,1-.342,1.357,2.4,2.4,0,0,1-1.025.864,8.074,8.074,0,0,1-2.09.552,4.194,4.194,0,0,0-2.593,1.372,5.783,5.783,0,0,0-1.274,2.993,4.812,4.812,0,0,1,1.567-1.328A4.447,4.447,0,0,1,138.135-9.863Zm-3.662,4.8v.244a4.284,4.284,0,0,0,.967,2.905,3.194,3.194,0,0,0,2.539,1.118,3.164,3.164,0,0,0,2.539-1.128,4.425,4.425,0,0,0,.957-2.964v-.254a3.8,3.8,0,0,0-.972-2.7,3.312,3.312,0,0,0-2.544-1.045,3.244,3.244,0,0,0-2.529,1.06A3.958,3.958,0,0,0,134.473-5.059Zm11.7-1.67h3.047a4.694,4.694,0,0,1,2.056.425,3.062,3.062,0,0,1,1.338,1.177,3.315,3.315,0,0,1,.454,1.748,3.108,3.108,0,0,1-1.05,2.456A4.145,4.145,0,0,1,149.18,0h-4.17V-10.566h1.162Zm0,1V-.986H149.2a2.881,2.881,0,0,0,1.978-.635,2.2,2.2,0,0,0,.718-1.738,2.219,2.219,0,0,0-.7-1.7,2.762,2.762,0,0,0-1.909-.669ZM156.65,0h-1.172V-10.566h1.172Zm11.377-10.566V0h-1.172V-9.561h-4.326l-.186,3.955a16.581,16.581,0,0,1-.439,3.354,3.384,3.384,0,0,1-.957,1.7A2.5,2.5,0,0,1,159.258,0h-.449V-1.035l.361-.02a1.527,1.527,0,0,0,1.445-.977,10.559,10.559,0,0,0,.576-3.418l.215-5.117Zm10.078,0h1.172V0h-1.172V-8.682L172.4,0H171.24V-10.566H172.4v8.691Z" transform="translate(298 471)"/><path class="c" d="M4.277-5.171a.918.918,0,0,0-.361-.762,1.55,1.55,0,0,0-.981-.283,1.392,1.392,0,0,0-.889.281.882.882,0,0,0-.356.725H.459A1.744,1.744,0,0,1,.781-6.245a2.106,2.106,0,0,1,.894-.706A3.093,3.093,0,0,1,2.935-7.2a3,3,0,0,1,1.9.532,1.788,1.788,0,0,1,.676,1.489,1.484,1.484,0,0,1-.293.889,1.972,1.972,0,0,1-.82.64,1.86,1.86,0,0,1,.911.623A1.674,1.674,0,0,1,5.62-1.992,1.82,1.82,0,0,1,4.888-.471,3.119,3.119,0,0,1,2.935.093a3.33,3.33,0,0,1-1.36-.269A2.043,2.043,0,0,1,.662-.908,1.893,1.893,0,0,1,.356-1.973h1.23a.968.968,0,0,0,.381.774,1.466,1.466,0,0,0,.967.315,1.674,1.674,0,0,0,1.052-.308.966.966,0,0,0,.4-.8,1.035,1.035,0,0,0-.349-.872,1.645,1.645,0,0,0-1.023-.271H2.178v-.977h.791Q4.277-4.111,4.277-5.171Zm6.47,3.516H7.993L7.417,0H6.133L8.818-7.109H9.927L12.617,0H11.328Zm-2.407-1H10.4L9.37-5.6Zm13,.337A2.567,2.567,0,0,1,20.5-.54,2.863,2.863,0,0,1,18.55.1a2.772,2.772,0,0,1-1.5-.4,2.644,2.644,0,0,1-1-1.145,4.132,4.132,0,0,1-.366-1.724v-.664a4.162,4.162,0,0,1,.356-1.772,2.686,2.686,0,0,1,1.023-1.182,2.853,2.853,0,0,1,1.541-.415,2.741,2.741,0,0,1,1.895.64,2.672,2.672,0,0,1,.835,1.807h-1.23a1.756,1.756,0,0,0-.447-1.106,1.477,1.477,0,0,0-1.052-.339,1.443,1.443,0,0,0-1.238.588,2.939,2.939,0,0,0-.442,1.726v.63A3.117,3.117,0,0,0,17.341-1.5,1.37,1.37,0,0,0,18.55-.9a1.6,1.6,0,0,0,1.094-.327,1.706,1.706,0,0,0,.464-1.089Zm6.543-4.795V0H26.65V-2.8A6.7,6.7,0,0,1,25-2.6a2.889,2.889,0,0,1-1.929-.562,2.124,2.124,0,0,1-.659-1.694V-7.109h1.23v2.266a1.294,1.294,0,0,0,.313.967A1.514,1.514,0,0,0,25-3.589a6.626,6.626,0,0,0,1.65-.205V-7.109Zm5.635,3.936H30.6V-.986h3.413V0H29.36V-7.109h4.614v1H30.6V-4.15h2.92Zm6.636-2.939H37.935V0H36.709V-6.113h-2.2v-1h5.64Zm5.981,2.72,1.426-3.716h1.372l-2.476,5.9-.225.444A1.677,1.677,0,0,1,44.648.1L44.141.073,44.15-.9a2.943,2.943,0,0,0,.415.02.757.757,0,0,0,.742-.449l.254-.6L43.13-7.109h1.348ZM55.3-2.314a2.567,2.567,0,0,1-.84,1.775A2.863,2.863,0,0,1,52.51.1a2.772,2.772,0,0,1-1.5-.4,2.644,2.644,0,0,1-1-1.145,4.132,4.132,0,0,1-.366-1.724v-.664A4.162,4.162,0,0,1,50-5.61a2.686,2.686,0,0,1,1.023-1.182,2.853,2.853,0,0,1,1.541-.415,2.741,2.741,0,0,1,1.895.64A2.672,2.672,0,0,1,55.3-4.761h-1.23a1.756,1.756,0,0,0-.447-1.106,1.477,1.477,0,0,0-1.052-.339,1.443,1.443,0,0,0-1.238.588,2.939,2.939,0,0,0-.442,1.726v.63A3.117,3.117,0,0,0,51.3-1.5,1.37,1.37,0,0,0,52.51-.9,1.6,1.6,0,0,0,53.6-1.226a1.706,1.706,0,0,0,.464-1.089Zm3.208-.732h-.84V0h-1.23V-7.109h1.23v2.988h.679l2.09-2.988h1.514l-2.441,3.4L62.163,0H60.679Zm10.015-.322a4.362,4.362,0,0,1-.361,1.833A2.732,2.732,0,0,1,67.126-.325,2.841,2.841,0,0,1,65.581.1a2.847,2.847,0,0,1-1.541-.422A2.774,2.774,0,0,1,63-1.528a4.225,4.225,0,0,1-.374-1.8v-.4a4.324,4.324,0,0,1,.369-1.836,2.771,2.771,0,0,1,1.04-1.218,2.832,2.832,0,0,1,1.541-.422,2.857,2.857,0,0,1,1.541.417,2.736,2.736,0,0,1,1.038,1.2,4.315,4.315,0,0,1,.371,1.824ZM67.285-3.74a3.108,3.108,0,0,0-.447-1.812,1.462,1.462,0,0,0-1.267-.63,1.457,1.457,0,0,0-1.252.627,3.048,3.048,0,0,0-.461,1.775v.41a3.084,3.084,0,0,0,.457,1.812,1.47,1.47,0,0,0,1.267.64,1.453,1.453,0,0,0,1.262-.625,3.151,3.151,0,0,0,.442-1.826Zm3.7,1.1V0H69.751V-7.109h2.72a2.752,2.752,0,0,1,1.892.62,2.084,2.084,0,0,1,.7,1.641,2.015,2.015,0,0,1-.686,1.626,2.885,2.885,0,0,1-1.921.581Zm0-.991h1.484a1.462,1.462,0,0,0,1.006-.31,1.14,1.14,0,0,0,.347-.9,1.23,1.23,0,0,0-.352-.92,1.355,1.355,0,0,0-.967-.354H70.986Zm9.312.459h-2.92V-.986h3.413V0H76.143V-7.109h4.614v1H77.378V-4.15H80.3ZM87.441,0h-1.23V-3.159H83.032V0H81.8V-7.109h1.235V-4.15h3.179V-7.109h1.23Zm5.815-7.109h1.235V0H93.257V-5.063L90.137,0H88.9V-7.109h1.235v5.068ZM99.478,0V-2.656H98.1L96.729,0H95.405l1.587-3.022a1.984,1.984,0,0,1-1.24-1.919,1.97,1.97,0,0,1,.671-1.589A2.848,2.848,0,0,1,98.3-7.109h2.417V0Zm-2.5-4.888a1.267,1.267,0,0,0,.337.938,1.373,1.373,0,0,0,1.011.337h1.147v-2.5H98.33a1.4,1.4,0,0,0-1.016.327A1.2,1.2,0,0,0,96.982-4.888ZM105.9-2.642V0h-1.235V-7.109h2.72a2.752,2.752,0,0,1,1.892.62,2.084,2.084,0,0,1,.7,1.641,2.015,2.015,0,0,1-.686,1.626,2.885,2.885,0,0,1-1.921.581Zm0-.991h1.484a1.462,1.462,0,0,0,1.006-.31,1.14,1.14,0,0,0,.347-.9,1.23,1.23,0,0,0-.352-.92,1.355,1.355,0,0,0-.967-.354H105.9Zm9.136,1.978h-2.754L111.709,0h-1.284l2.686-7.109h1.108L116.909,0H115.62Zm-2.407-1h2.061L113.662-5.6Zm9.575-3.462h-3.276V-4.39h1.455a3.219,3.219,0,0,1,1.362.269,1.977,1.977,0,0,1,.884.762,2.14,2.14,0,0,1,.3,1.143,2.046,2.046,0,0,1-.676,1.6A2.7,2.7,0,0,1,120.415,0H117.7V-7.109h4.512ZM118.931-3.4V-.986h1.45a1.339,1.339,0,0,0,.974-.339,1.2,1.2,0,0,0,.349-.9,1.094,1.094,0,0,0-.342-.85,1.387,1.387,0,0,0-.947-.322Zm10.747.029a4.362,4.362,0,0,1-.361,1.833,2.732,2.732,0,0,1-1.033,1.211A2.841,2.841,0,0,1,126.738.1,2.847,2.847,0,0,1,125.2-.325a2.774,2.774,0,0,1-1.045-1.2,4.225,4.225,0,0,1-.374-1.8v-.4a4.324,4.324,0,0,1,.369-1.836,2.771,2.771,0,0,1,1.04-1.218,2.832,2.832,0,0,1,1.541-.422,2.857,2.857,0,0,1,1.541.417,2.736,2.736,0,0,1,1.038,1.2,4.315,4.315,0,0,1,.371,1.824Zm-1.235-.371A3.108,3.108,0,0,0,128-5.552a1.462,1.462,0,0,0-1.267-.63,1.457,1.457,0,0,0-1.252.627,3.048,3.048,0,0,0-.461,1.775v.41a3.084,3.084,0,0,0,.457,1.812,1.47,1.47,0,0,0,1.267.64A1.453,1.453,0,0,0,128-1.543a3.151,3.151,0,0,0,.442-1.826Zm7.6-2.373h-2.217V0H132.6V-6.113h-2.2v-1h5.64Zm2.2,1.724H139.7a3.219,3.219,0,0,1,1.362.269,1.977,1.977,0,0,1,.884.762,2.14,2.14,0,0,1,.3,1.143,2.045,2.045,0,0,1-.676,1.6A2.7,2.7,0,0,1,139.731,0h-2.72V-7.109h1.235ZM144.185,0h-1.23V-7.109h1.23Zm-5.937-3.4V-.986h1.45a1.339,1.339,0,0,0,.974-.339,1.2,1.2,0,0,0,.349-.9,1.094,1.094,0,0,0-.342-.85,1.387,1.387,0,0,0-.947-.322Z" transform="translate(316 494)"/><g transform="translate(461.081 466)"><g class="f" transform="matrix(1, 0, 0, 1, -461.08, -466)"><path class="d" d="M70.871,40.682,69.76,39.165a4.78,4.78,0,0,1-.045-5.57L70.8,32.064A4.779,4.779,0,0,0,69.144,25.1l-1.652-.886a4.758,4.758,0,0,1-2.447-5l.315-1.847a4.769,4.769,0,0,0-4.5-5.555l-1.877-.075A4.786,4.786,0,0,1,54.6,8.3l-.525-1.8A4.759,4.759,0,0,0,47.6,3.448l-1.727.736a4.758,4.758,0,0,1-5.435-1.2l-1.246-1.4a4.759,4.759,0,0,0-7.147.06L30.815,3.057a4.774,4.774,0,0,1-5.42,1.276l-1.742-.721a4.78,4.78,0,0,0-6.426,3.153l-.5,1.817a4.741,4.741,0,0,1-4.324,3.5l-1.877.105a4.767,4.767,0,0,0-4.414,5.63l.345,1.847a4.76,4.76,0,0,1-2.372,5.03l-1.636.916A4.765,4.765,0,0,0,.922,32.589l1.111,1.516a4.78,4.78,0,0,1,.045,5.57L1,41.207a4.779,4.779,0,0,0,1.652,6.966l1.652.886a4.758,4.758,0,0,1,2.447,5l-.315,1.847a4.769,4.769,0,0,0,4.5,5.555l1.877.075A4.786,4.786,0,0,1,17.2,64.974l.525,1.8a4.759,4.759,0,0,0,6.471,3.048l1.727-.736a4.758,4.758,0,0,1,5.435,1.2l1.246,1.4a4.759,4.759,0,0,0,7.147-.06l1.231-1.411a4.774,4.774,0,0,1,5.42-1.276l1.742.721a4.78,4.78,0,0,0,6.426-3.153l.5-1.817a4.741,4.741,0,0,1,4.324-3.5l1.877-.105a4.767,4.767,0,0,0,4.414-5.63l-.345-1.847a4.76,4.76,0,0,1,2.372-5.03l1.636-.916A4.76,4.76,0,0,0,70.871,40.682Z" transform="translate(353 366)"/></g></g><path class="e" d="M1.872-9.439,2.979-19.2H13.737v3.177H6.1l-.475,4.126a6.041,6.041,0,0,1,2.887-.725,5.533,5.533,0,0,1,4.3,1.7A6.793,6.793,0,0,1,14.37-6.157a6.959,6.959,0,0,1-.784,3.329A5.537,5.537,0,0,1,11.338-.547,7.017,7.017,0,0,1,7.884.264a7.452,7.452,0,0,1-3.23-.705A5.729,5.729,0,0,1,2.3-2.426a5.408,5.408,0,0,1-.916-2.914H5.155a2.816,2.816,0,0,0,.837,1.865,2.654,2.654,0,0,0,1.879.666,2.342,2.342,0,0,0,1.991-.929,4.306,4.306,0,0,0,.7-2.63,3.56,3.56,0,0,0-.8-2.5,2.951,2.951,0,0,0-2.281-.87,3.3,3.3,0,0,0-2.2.712L4.9-8.688Zm27.435-4.654a4.465,4.465,0,0,1-.7,2.479,5.029,5.029,0,0,1-1.925,1.727A5.567,5.567,0,0,1,28.9-8.035a4.751,4.751,0,0,1,.817,2.775,5.031,5.031,0,0,1-1.74,4.041A7.059,7.059,0,0,1,23.243.264,7.091,7.091,0,0,1,18.5-1.226,5.019,5.019,0,0,1,16.743-5.26a4.782,4.782,0,0,1,.817-2.782,5.466,5.466,0,0,1,2.2-1.846,4.978,4.978,0,0,1-1.918-1.727,4.5,4.5,0,0,1-.692-2.479A4.975,4.975,0,0,1,18.787-18a6.436,6.436,0,0,1,4.443-1.457,6.479,6.479,0,0,1,4.436,1.444A4.956,4.956,0,0,1,29.307-14.093ZM25.893-5.537a2.764,2.764,0,0,0-.725-2,2.585,2.585,0,0,0-1.951-.751,2.581,2.581,0,0,0-1.938.745,2.759,2.759,0,0,0-.725,2.01,2.757,2.757,0,0,0,.712,1.978,2.593,2.593,0,0,0,1.978.751,2.587,2.587,0,0,0,1.945-.725A2.752,2.752,0,0,0,25.893-5.537Zm-.4-8.372a2.637,2.637,0,0,0-.593-1.8,2.1,2.1,0,0,0-1.674-.679,2.12,2.12,0,0,0-1.661.659,2.621,2.621,0,0,0-.593,1.819,2.755,2.755,0,0,0,.593,1.846,2.076,2.076,0,0,0,1.674.7,2.056,2.056,0,0,0,1.668-.7A2.775,2.775,0,0,0,25.5-13.909Z" transform="translate(370 414)"/><path class="e" d="M.649-8.039a1.968,1.968,0,0,1,.595-1.487A2.157,2.157,0,0,1,2.8-10.1a2.191,2.191,0,0,1,1.572.564A2.005,2.005,0,0,1,4.97-8v.492a1.943,1.943,0,0,1-.595,1.483,2.18,2.18,0,0,1-1.559.561,2.194,2.194,0,0,1-1.569-.564,1.991,1.991,0,0,1-.6-1.521Zm1.313.526a.921.921,0,0,0,.236.66.812.812,0,0,0,.619.25.774.774,0,0,0,.608-.253.979.979,0,0,0,.226-.677v-.506A.959.959,0,0,0,3.425-8.7.791.791,0,0,0,2.8-8.955a.793.793,0,0,0-.608.25.979.979,0,0,0-.232.694ZM5.407-2.44a1.943,1.943,0,0,1,.6-1.487,2.187,2.187,0,0,1,1.559-.564,2.209,2.209,0,0,1,1.569.557,1.994,1.994,0,0,1,.6,1.535v.492a1.957,1.957,0,0,1-.588,1.48A2.167,2.167,0,0,1,7.581.137,2.193,2.193,0,0,1,6-.431a1.982,1.982,0,0,1-.595-1.5Zm1.313.533a.914.914,0,0,0,.246.643A.8.8,0,0,0,7.581-1q.834,0,.834-.923v-.52a.929.929,0,0,0-.232-.66.8.8,0,0,0-.615-.25.8.8,0,0,0-.615.25.958.958,0,0,0-.232.68ZM3.206-.745l-.964-.52L7.1-9.044l.964.52Z" transform="translate(401 403)"/></svg>