<svg xmlns="http://www.w3.org/2000/svg" viewBox="805 737 736 480"><defs><style>.a{fill:#fffbe5;}.b{fill:#ffdb00;}.c{fill:#4b4b4b;}.c,.d{stroke:rgba(0,0,0,0);}.d{fill:#b9c2c9;}.e{fill:#fef0e5;}.f{fill:#ffe7ed;}.g{fill:#d4eefb;}.h{fill:#dff0e8;}.i{fill:#fe6f01;}.j{fill:#ff1844;}.k{fill:#14abf4;}.l{fill:#67b82f;}</style></defs><rect class="a" width="230" height="230" rx="6" transform="translate(805 737)"/><g transform="translate(898 745.456)"><g transform="translate(0 51)"><path class="b" d="M40.5,51H4.5A4.513,4.513,0,0,0,0,55.5v27A4.513,4.513,0,0,0,4.5,87h36A4.513,4.513,0,0,0,45,82.5v-27A4.513,4.513,0,0,0,40.5,51Zm0,9-18,11.25L4.5,60V55.5l18,11.25,18-11.25Z" transform="translate(0 -51)"/></g></g><path class="c" d="M12.588-6.65A8.8,8.8,0,0,1,11.885-3,5.326,5.326,0,0,1,9.893-.625,5.481,5.481,0,0,1,6.885.2,5.434,5.434,0,0,1,3.906-.63,5.453,5.453,0,0,1,1.89-2.983a8.439,8.439,0,0,1-.737-3.54V-7.549a8.691,8.691,0,0,1,.713-3.623,5.434,5.434,0,0,1,2.017-2.407,5.411,5.411,0,0,1,2.983-.835,5.512,5.512,0,0,1,3.013.825A5.316,5.316,0,0,1,11.885-11.2a8.838,8.838,0,0,1,.7,3.647Zm-1.865-.918A6.375,6.375,0,0,0,9.707-11.45,3.35,3.35,0,0,0,6.865-12.8a3.314,3.314,0,0,0-2.8,1.353A6.245,6.245,0,0,0,3.018-7.7V-6.65A6.384,6.384,0,0,0,4.048-2.8,3.328,3.328,0,0,0,6.885-1.4,3.314,3.314,0,0,0,9.7-2.72a6.348,6.348,0,0,0,1.025-3.794ZM22.969-9.1H19.424V0H17.617V-9.1H14.141v-1.465h8.828ZM33.369,0H31.563V-9.072H26.7V0H24.883V-10.566h8.486ZM45.2-5.166a6.327,6.327,0,0,1-1.1,3.887A3.537,3.537,0,0,1,41.1.2a3.875,3.875,0,0,1-3.027-1.221V4.063H36.27V-10.566h1.65l.088,1.172a3.722,3.722,0,0,1,3.066-1.367,3.6,3.6,0,0,1,3.013,1.436A6.4,6.4,0,0,1,45.2-5.332Zm-1.807-.205a4.669,4.669,0,0,0-.762-2.822,2.454,2.454,0,0,0-2.09-1.035,2.656,2.656,0,0,0-2.461,1.455v5.049a2.661,2.661,0,0,0,2.48,1.445,2.442,2.442,0,0,0,2.065-1.03A5.1,5.1,0,0,0,43.389-5.371ZM54.014,0a3.8,3.8,0,0,1-.254-1.113A4.031,4.031,0,0,1,50.752.2a3.73,3.73,0,0,1-2.563-.884,2.859,2.859,0,0,1-1-2.241,2.987,2.987,0,0,1,1.255-2.563,5.916,5.916,0,0,1,3.53-.913H53.73v-.83a2.029,2.029,0,0,0-.566-1.509,2.276,2.276,0,0,0-1.67-.562,2.634,2.634,0,0,0-1.621.488,1.439,1.439,0,0,0-.654,1.182H47.4a2.493,2.493,0,0,1,.562-1.528,3.832,3.832,0,0,1,1.523-1.167,5.125,5.125,0,0,1,2.114-.43,4.177,4.177,0,0,1,2.861.913,3.294,3.294,0,0,1,1.074,2.515v4.863a5.946,5.946,0,0,0,.371,2.314V0Zm-3-1.377a3.175,3.175,0,0,0,1.611-.439,2.658,2.658,0,0,0,1.1-1.143V-5.127H52.314q-3.32,0-3.32,1.943a1.645,1.645,0,0,0,.566,1.328A2.177,2.177,0,0,0,51.016-1.377ZM58.535,0V-10.566h4.121a5.92,5.92,0,0,1,3.237.737,2.421,2.421,0,0,1,1.128,2.163,2.163,2.163,0,0,1-.439,1.323,2.722,2.722,0,0,1-1.3.9,2.871,2.871,0,0,1,1.538.879A2.274,2.274,0,0,1,67.4-3,2.577,2.577,0,0,1,66.333-.771,5.1,5.1,0,0,1,63.311,0Zm1.807-4.639v3.184H63.33a2.819,2.819,0,0,0,1.694-.42,1.39,1.39,0,0,0,.562-1.182q0-1.582-2.324-1.582Zm0-1.445h2.334q2.539,0,2.539-1.484T62.813-9.1H60.342ZM73.086-4.5H71.768V0H69.951V-10.566h1.816v4.473h1.182L76.5-10.566h2.188l-4.18,5.078L79.043,0H76.748ZM87.119,0a3.8,3.8,0,0,1-.254-1.113A4.031,4.031,0,0,1,83.857.2a3.73,3.73,0,0,1-2.563-.884,2.859,2.859,0,0,1-1-2.241,2.987,2.987,0,0,1,1.255-2.563,5.916,5.916,0,0,1,3.53-.913h1.758v-.83a2.029,2.029,0,0,0-.566-1.509,2.276,2.276,0,0,0-1.67-.562,2.634,2.634,0,0,0-1.621.488,1.439,1.439,0,0,0-.654,1.182H80.508a2.493,2.493,0,0,1,.562-1.528,3.832,3.832,0,0,1,1.523-1.167,5.125,5.125,0,0,1,2.114-.43,4.177,4.177,0,0,1,2.861.913,3.294,3.294,0,0,1,1.074,2.515v4.863a5.946,5.946,0,0,0,.371,2.314V0Zm-3-1.377a3.175,3.175,0,0,0,1.611-.439,2.658,2.658,0,0,0,1.1-1.143V-5.127H85.42q-3.32,0-3.32,1.943a1.645,1.645,0,0,0,.566,1.328A2.177,2.177,0,0,0,84.121-1.377ZM100.811.2a4.617,4.617,0,0,1-3.5-1.411A5.237,5.237,0,0,1,95.967-4.99v-.332a6.341,6.341,0,0,1,.6-2.808,4.685,4.685,0,0,1,1.68-1.934,4.223,4.223,0,0,1,2.339-.7,3.957,3.957,0,0,1,3.2,1.357,5.877,5.877,0,0,1,1.143,3.887v.752H97.773a3.756,3.756,0,0,0,.913,2.524,2.87,2.87,0,0,0,2.222.962,3.147,3.147,0,0,0,1.621-.391,4.073,4.073,0,0,0,1.162-1.035l1.1.859A4.437,4.437,0,0,1,100.811.2Zm-.225-9.473a2.41,2.41,0,0,0-1.836.8,3.869,3.869,0,0,0-.918,2.231h5.293v-.137a3.441,3.441,0,0,0-.742-2.134A2.269,2.269,0,0,0,100.586-9.277Zm8.135-1.289.049,1.172a3.9,3.9,0,0,1,3.135-1.367,3.021,3.021,0,0,1,3.018,1.7,4,4,0,0,1,1.372-1.23,4.052,4.052,0,0,1,2-.469q3.477,0,3.535,3.682V0H120.02V-6.973a2.426,2.426,0,0,0-.518-1.694,2.279,2.279,0,0,0-1.738-.562,2.4,2.4,0,0,0-1.67.6,2.436,2.436,0,0,0-.771,1.616V0h-1.816V-6.924a2.016,2.016,0,0,0-2.256-2.3,2.417,2.417,0,0,0-2.432,1.514V0h-1.807V-10.566ZM131.074,0a3.8,3.8,0,0,1-.254-1.113A4.031,4.031,0,0,1,127.813.2a3.73,3.73,0,0,1-2.563-.884,2.859,2.859,0,0,1-1-2.241A2.987,2.987,0,0,1,125.5-5.493a5.916,5.916,0,0,1,3.53-.913h1.758v-.83a2.029,2.029,0,0,0-.566-1.509,2.276,2.276,0,0,0-1.67-.562,2.634,2.634,0,0,0-1.621.488,1.439,1.439,0,0,0-.654,1.182h-1.816a2.493,2.493,0,0,1,.562-1.528,3.832,3.832,0,0,1,1.523-1.167,5.125,5.125,0,0,1,2.114-.43,4.177,4.177,0,0,1,2.861.913A3.294,3.294,0,0,1,132.6-7.334v4.863a5.946,5.946,0,0,0,.371,2.314V0Zm-3-1.377a3.175,3.175,0,0,0,1.611-.439,2.658,2.658,0,0,0,1.1-1.143V-5.127h-1.416q-3.32,0-3.32,1.943a1.645,1.645,0,0,0,.566,1.328A2.177,2.177,0,0,0,128.076-1.377ZM137.393,0h-1.807V-10.566h1.807Zm-1.953-13.369a1.078,1.078,0,0,1,.269-.742,1.008,1.008,0,0,1,.8-.3,1.024,1.024,0,0,1,.8.3,1.067,1.067,0,0,1,.273.742,1.032,1.032,0,0,1-.273.732,1.043,1.043,0,0,1-.8.293,1.026,1.026,0,0,1-.8-.293A1.043,1.043,0,0,1,135.439-13.369ZM142.246,0h-1.807V-15h1.807Z" transform="translate(848 881)"/><path class="d" d="M.867,0V-8.531H3.791a3.57,3.57,0,0,1,2.2.58A2.043,2.043,0,0,1,6.75-6.223a1.842,1.842,0,0,1-.316,1.055,2.037,2.037,0,0,1-.926.727,1.883,1.883,0,0,1,1.069.706A2.056,2.056,0,0,1,6.955-2.49,2.271,2.271,0,0,1,6.185-.645,3.35,3.35,0,0,1,3.979,0ZM2.35-3.85v2.666H4a1.593,1.593,0,0,0,1.09-.346,1.213,1.213,0,0,0,.393-.961A1.217,1.217,0,0,0,4.119-3.85Zm0-1.09H3.8a1.68,1.68,0,0,0,1.081-.313,1.074,1.074,0,0,0,.39-.888,1.089,1.089,0,0,0-.36-.914,1.82,1.82,0,0,0-1.122-.281H2.35Zm12.6,2.162a3.08,3.08,0,0,1-1.008,2.13A3.436,3.436,0,0,1,11.6.117a3.327,3.327,0,0,1-1.8-.483,3.173,3.173,0,0,1-1.2-1.374,4.958,4.958,0,0,1-.439-2.068v-.8A4.994,4.994,0,0,1,8.6-6.732,3.224,3.224,0,0,1,9.823-8.15a3.424,3.424,0,0,1,1.849-.5,3.29,3.29,0,0,1,2.273.768,3.207,3.207,0,0,1,1,2.168H13.471a2.107,2.107,0,0,0-.536-1.327,1.772,1.772,0,0,0-1.263-.407,1.732,1.732,0,0,0-1.485.706,3.526,3.526,0,0,0-.53,2.071v.756a3.741,3.741,0,0,0,.5,2.109,1.643,1.643,0,0,0,1.45.727,1.917,1.917,0,0,0,1.313-.393,2.047,2.047,0,0,0,.557-1.307Zm6.311-1.031h-3.5v2.625h4.1V0H16.271V-8.531h5.537v1.2H17.754V-4.98h3.5Zm7.857-.264,1.711-4.459h1.646L29.5-1.453l-.27.533a2.013,2.013,0,0,1-1.9,1.043L26.725.088l.012-1.172a3.531,3.531,0,0,0,.5.023.909.909,0,0,0,.891-.539l.3-.721L25.512-8.531h1.617ZM33.6,0V-8.531h2.924a3.57,3.57,0,0,1,2.2.58,2.043,2.043,0,0,1,.756,1.729,1.842,1.842,0,0,1-.316,1.055,2.037,2.037,0,0,1-.926.727,1.883,1.883,0,0,1,1.069.706,2.056,2.056,0,0,1,.378,1.245,2.271,2.271,0,0,1-.771,1.846A3.35,3.35,0,0,1,36.715,0Zm1.482-3.85v2.666h1.646a1.593,1.593,0,0,0,1.09-.346,1.213,1.213,0,0,0,.393-.961A1.217,1.217,0,0,0,36.855-3.85Zm0-1.09h1.453a1.68,1.68,0,0,0,1.081-.313,1.074,1.074,0,0,0,.39-.888,1.089,1.089,0,0,0-.36-.914,1.82,1.82,0,0,0-1.122-.281H35.086ZM46.16-3.809h-3.5v2.625h4.1V0H41.174V-8.531h5.537v1.2H42.656V-4.98h3.5ZM55.8,2.1H54.4V0H48.779V2.1H47.35L47.3-1.184h.686A3.421,3.421,0,0,0,48.8-2.616a9.09,9.09,0,0,0,.393-2.13l.223-3.785H54.8v7.348h1.084ZM49.664-1.184H53.32V-7.336H50.83l-.141,2.4A7.862,7.862,0,0,1,49.664-1.184ZM63.8-4.043a5.234,5.234,0,0,1-.434,2.2A3.278,3.278,0,0,1,62.13-.39a3.409,3.409,0,0,1-1.854.507A3.417,3.417,0,0,1,58.427-.39a3.329,3.329,0,0,1-1.254-1.444A5.07,5.07,0,0,1,56.725-4v-.48a5.189,5.189,0,0,1,.442-2.2,3.325,3.325,0,0,1,1.248-1.462,3.4,3.4,0,0,1,1.849-.507,3.428,3.428,0,0,1,1.849.5,3.283,3.283,0,0,1,1.245,1.441A5.178,5.178,0,0,1,63.8-4.518ZM62.32-4.488a3.729,3.729,0,0,0-.536-2.174,1.754,1.754,0,0,0-1.521-.756,1.749,1.749,0,0,0-1.5.753,3.657,3.657,0,0,0-.554,2.13v.492a3.7,3.7,0,0,0,.548,2.174,1.764,1.764,0,0,0,1.521.768,1.743,1.743,0,0,0,1.515-.75,3.781,3.781,0,0,0,.53-2.191ZM67.2-8.531l2.461,6.539,2.455-6.539h1.916V0H72.557V-2.812L72.7-6.574,70.184,0H69.123L66.609-6.568l.146,3.756V0H65.279V-8.531Zm15.293,0V0H81.018V-7.336H78.4l-.152,3.3a9.453,9.453,0,0,1-.378,2.4,2.429,2.429,0,0,1-.841,1.245A2.5,2.5,0,0,1,75.557,0h-.375V-1.184l.234-.018a1.154,1.154,0,0,0,.788-.357,2.1,2.1,0,0,0,.422-.94,11.42,11.42,0,0,0,.2-1.854l.164-4.178Zm6.768,4.723h-3.5v2.625h4.1V0H84.275V-8.531h5.537v1.2H85.758V-4.98h3.5ZM97.834,0H96.357V-3.791H92.543V0H91.061V-8.531h1.482V-4.98h3.814V-8.531h1.477Zm6.979-8.531h1.482V0h-1.482V-6.076L101.068,0H99.586V-8.531h1.482v6.082ZM112.277,0V-3.187h-1.652L108.979,0h-1.588l1.9-3.627a2.381,2.381,0,0,1-1.488-2.3,2.364,2.364,0,0,1,.806-1.907,3.417,3.417,0,0,1,2.247-.694h2.9V0Zm-2.994-5.865a1.521,1.521,0,0,0,.4,1.125,1.647,1.647,0,0,0,1.213.4h1.377v-3H110.9a1.674,1.674,0,0,0-1.219.393A1.445,1.445,0,0,0,109.283-5.865Z" transform="translate(863 903)"/><rect class="e" width="230" height="230" rx="6" transform="translate(1058 737)"/><path class="c" d="M5.342-6.387H3.613V0H1.738V-14.219H3.613v6.27H5.078l4.971-6.27h2.334L6.953-7.324,12.783,0H10.488ZM20.742,0a3.8,3.8,0,0,1-.254-1.113A4.031,4.031,0,0,1,17.48.2a3.73,3.73,0,0,1-2.563-.884,2.859,2.859,0,0,1-1-2.241,2.987,2.987,0,0,1,1.255-2.563,5.916,5.916,0,0,1,3.53-.913h1.758v-.83a2.029,2.029,0,0,0-.566-1.509,2.276,2.276,0,0,0-1.67-.562,2.634,2.634,0,0,0-1.621.488,1.439,1.439,0,0,0-.654,1.182H14.131a2.493,2.493,0,0,1,.562-1.528,3.832,3.832,0,0,1,1.523-1.167,5.125,5.125,0,0,1,2.114-.43,4.177,4.177,0,0,1,2.861.913,3.294,3.294,0,0,1,1.074,2.515v4.863a5.946,5.946,0,0,0,.371,2.314V0Zm-3-1.377a3.175,3.175,0,0,0,1.611-.439,2.658,2.658,0,0,0,1.1-1.143V-5.127H19.043q-3.32,0-3.32,1.943a1.645,1.645,0,0,0,.566,1.328A2.177,2.177,0,0,0,17.744-1.377ZM33.76-10.566V0H31.943V-9.072H28.35l-.215,3.955a8.742,8.742,0,0,1-.913,3.9A2.664,2.664,0,0,1,24.883,0H24.16V-1.592l.518-.039a1.494,1.494,0,0,0,1.26-1.016,11.45,11.45,0,0,0,.488-3.4l.2-4.521Zm11.563,0V0H43.506V-9.072H39.912L39.7-5.117a8.742,8.742,0,0,1-.913,3.9A2.664,2.664,0,0,1,36.445,0h-.723V-1.592l.518-.039A1.494,1.494,0,0,0,37.5-2.646a11.449,11.449,0,0,0,.488-3.4l.2-4.521ZM56.934-5.3H52.168V-6.777h4.766ZM63.8-10.566h1.816v9.092h4.863v-9.092h1.807v9.092h1.26l-.176,4.609H71.748V0H63.8ZM79.873.2a4.617,4.617,0,0,1-3.5-1.411A5.237,5.237,0,0,1,75.029-4.99v-.332a6.341,6.341,0,0,1,.6-2.808,4.685,4.685,0,0,1,1.68-1.934,4.223,4.223,0,0,1,2.339-.7,3.957,3.957,0,0,1,3.2,1.357,5.877,5.877,0,0,1,1.143,3.887v.752H76.836a3.756,3.756,0,0,0,.913,2.524,2.87,2.87,0,0,0,2.222.962,3.147,3.147,0,0,0,1.621-.391,4.073,4.073,0,0,0,1.162-1.035l1.1.859A4.437,4.437,0,0,1,79.873.2Zm-.225-9.473a2.41,2.41,0,0,0-1.836.8,3.869,3.869,0,0,0-.918,2.231h5.293v-.137a3.441,3.441,0,0,0-.742-2.134A2.269,2.269,0,0,0,79.648-9.277ZM94.717,0H92.91V-4.512H88.057V0H86.24V-10.566h1.816v4.58H92.91v-4.58h1.807Zm10.752-9.1h-3.545V0h-1.807V-9.1H96.641v-1.465h8.828Zm10.684,3.936a6.327,6.327,0,0,1-1.1,3.887A3.537,3.537,0,0,1,112.061.2a3.875,3.875,0,0,1-3.027-1.221V4.063h-1.807V-10.566h1.65l.088,1.172a3.722,3.722,0,0,1,3.066-1.367,3.6,3.6,0,0,1,3.013,1.436,6.4,6.4,0,0,1,1.108,3.994Zm-1.807-.205a4.669,4.669,0,0,0-.762-2.822,2.454,2.454,0,0,0-2.09-1.035,2.656,2.656,0,0,0-2.461,1.455v5.049a2.661,2.661,0,0,0,2.48,1.445,2.442,2.442,0,0,0,2.065-1.03A5.1,5.1,0,0,0,114.346-5.371Z" transform="translate(1115 881)"/><path class="d" d="M5.133-6.205A1.1,1.1,0,0,0,4.7-7.119a1.86,1.86,0,0,0-1.178-.34,1.67,1.67,0,0,0-1.066.337,1.058,1.058,0,0,0-.428.87H.551A2.093,2.093,0,0,1,.938-7.494,2.527,2.527,0,0,1,2.01-8.341a3.712,3.712,0,0,1,1.512-.3A3.6,3.6,0,0,1,5.8-8a2.145,2.145,0,0,1,.812,1.787A1.781,1.781,0,0,1,6.258-5.15a2.366,2.366,0,0,1-.984.768,2.232,2.232,0,0,1,1.093.747,2.008,2.008,0,0,1,.378,1.245A2.183,2.183,0,0,1,5.865-.565,3.742,3.742,0,0,1,3.521.111,4,4,0,0,1,1.89-.211a2.451,2.451,0,0,1-1.1-.879A2.271,2.271,0,0,1,.428-2.367H1.9a1.162,1.162,0,0,0,.457.929,1.76,1.76,0,0,0,1.16.378A2.009,2.009,0,0,0,4.784-1.43a1.159,1.159,0,0,0,.478-.961,1.242,1.242,0,0,0-.419-1.046,1.974,1.974,0,0,0-1.228-.325h-1V-4.934h.949Q5.133-4.934,5.133-6.205ZM12.9-1.986h-3.3L8.9,0H7.359l3.223-8.531h1.33L15.141,0H13.594Zm-2.889-1.2H12.48L11.244-6.721ZM22.857,0H21.381V-7.336H17.625V0H16.148V-8.531h6.709Zm7.014-8.531h1.482V0H29.871V-6.076L26.127,0H24.645V-8.531h1.482v6.082Zm9.768,5.754a3.08,3.08,0,0,1-1.008,2.13,3.436,3.436,0,0,1-2.338.765,3.327,3.327,0,0,1-1.8-.483A3.173,3.173,0,0,1,33.3-1.74a4.958,4.958,0,0,1-.439-2.068v-.8a4.994,4.994,0,0,1,.428-2.127A3.224,3.224,0,0,1,34.515-8.15a3.424,3.424,0,0,1,1.849-.5,3.29,3.29,0,0,1,2.273.768,3.207,3.207,0,0,1,1,2.168H38.162a2.107,2.107,0,0,0-.536-1.327,1.772,1.772,0,0,0-1.263-.407,1.732,1.732,0,0,0-1.485.706,3.526,3.526,0,0,0-.53,2.071v.756a3.741,3.741,0,0,0,.5,2.109,1.643,1.643,0,0,0,1.45.727,1.917,1.917,0,0,0,1.313-.393,2.047,2.047,0,0,0,.557-1.307Zm2.783-2.49h1.746a3.863,3.863,0,0,1,1.635.322,2.373,2.373,0,0,1,1.061.914,2.568,2.568,0,0,1,.363,1.371,2.455,2.455,0,0,1-.812,1.922A3.238,3.238,0,0,1,44.2,0H40.939V-8.531h1.482Zm0,1.189v2.895h1.74a1.607,1.607,0,0,0,1.169-.407,1.439,1.439,0,0,0,.419-1.081,1.313,1.313,0,0,0-.41-1.02A1.664,1.664,0,0,0,44.2-4.078ZM51.492,0V-8.531h2.924a3.57,3.57,0,0,1,2.2.58,2.043,2.043,0,0,1,.756,1.729,1.842,1.842,0,0,1-.316,1.055,2.037,2.037,0,0,1-.926.727,1.883,1.883,0,0,1,1.069.706A2.056,2.056,0,0,1,57.58-2.49,2.271,2.271,0,0,1,56.81-.645,3.35,3.35,0,0,1,54.6,0Zm1.482-3.85v2.666h1.646a1.593,1.593,0,0,0,1.09-.346A1.213,1.213,0,0,0,56.1-2.49,1.217,1.217,0,0,0,54.744-3.85Zm0-1.09h1.453a1.68,1.68,0,0,0,1.081-.313,1.074,1.074,0,0,0,.39-.888,1.089,1.089,0,0,0-.36-.914,1.82,1.82,0,0,0-1.122-.281H52.975Zm12.6,2.162a3.08,3.08,0,0,1-1.008,2.13,3.436,3.436,0,0,1-2.338.765,3.327,3.327,0,0,1-1.8-.483,3.173,3.173,0,0,1-1.2-1.374,4.958,4.958,0,0,1-.439-2.068v-.8a4.994,4.994,0,0,1,.428-2.127A3.224,3.224,0,0,1,60.448-8.15a3.424,3.424,0,0,1,1.849-.5,3.29,3.29,0,0,1,2.273.768,3.207,3.207,0,0,1,1,2.168H64.1A2.107,2.107,0,0,0,63.56-7.04,1.772,1.772,0,0,0,62.3-7.447a1.732,1.732,0,0,0-1.485.706,3.526,3.526,0,0,0-.53,2.071v.756a3.741,3.741,0,0,0,.5,2.109,1.643,1.643,0,0,0,1.45.727,1.917,1.917,0,0,0,1.313-.393A2.047,2.047,0,0,0,64.1-2.777Zm6.311-1.031h-3.5v2.625h4.1V0H66.9V-8.531h5.537v1.2H68.379V-4.98h3.5Zm4.734-1.641L78.41-8.531h1.711L77.543-4.3,80.18,0H78.451L76.617-3.129,74.777,0H73.055L75.7-4.3l-2.584-4.23h1.711Zm11.912-.756a1.1,1.1,0,0,0-.434-.914,1.86,1.86,0,0,0-1.178-.34,1.67,1.67,0,0,0-1.066.337,1.058,1.058,0,0,0-.428.87H83.947a2.093,2.093,0,0,1,.387-1.242,2.527,2.527,0,0,1,1.072-.847,3.712,3.712,0,0,1,1.512-.3A3.6,3.6,0,0,1,89.194-8a2.145,2.145,0,0,1,.812,1.787,1.781,1.781,0,0,1-.352,1.066,2.366,2.366,0,0,1-.984.768,2.232,2.232,0,0,1,1.093.747,2.008,2.008,0,0,1,.378,1.245,2.183,2.183,0,0,1-.879,1.825,3.742,3.742,0,0,1-2.344.677,4,4,0,0,1-1.632-.322,2.451,2.451,0,0,1-1.1-.879,2.271,2.271,0,0,1-.366-1.277H85.3a1.162,1.162,0,0,0,.457.929,1.76,1.76,0,0,0,1.16.378,2.009,2.009,0,0,0,1.263-.369,1.159,1.159,0,0,0,.478-.961,1.242,1.242,0,0,0-.419-1.046,1.974,1.974,0,0,0-1.228-.325h-1V-4.934h.949Q88.529-4.934,88.529-6.205ZM91.518,0V-8.531h2.924a3.57,3.57,0,0,1,2.2.58A2.043,2.043,0,0,1,97.4-6.223a1.842,1.842,0,0,1-.316,1.055,2.037,2.037,0,0,1-.926.727,1.883,1.883,0,0,1,1.069.706,2.056,2.056,0,0,1,.378,1.245,2.271,2.271,0,0,1-.771,1.846A3.35,3.35,0,0,1,94.629,0ZM93-3.85v2.666h1.646a1.593,1.593,0,0,0,1.09-.346,1.213,1.213,0,0,0,.393-.961A1.217,1.217,0,0,0,94.77-3.85Zm0-1.09h1.453a1.68,1.68,0,0,0,1.081-.313,1.074,1.074,0,0,0,.39-.888,1.089,1.089,0,0,0-.36-.914,1.82,1.82,0,0,0-1.122-.281H93Zm12.9.9a5.234,5.234,0,0,1-.434,2.2A3.278,3.278,0,0,1,104.224-.39a3.409,3.409,0,0,1-1.854.507,3.417,3.417,0,0,1-1.849-.507,3.329,3.329,0,0,1-1.254-1.444A5.07,5.07,0,0,1,98.818-4v-.48a5.189,5.189,0,0,1,.442-2.2,3.325,3.325,0,0,1,1.248-1.462,3.4,3.4,0,0,1,1.849-.507,3.428,3.428,0,0,1,1.849.5,3.283,3.283,0,0,1,1.245,1.441,5.178,5.178,0,0,1,.445,2.188Zm-1.482-.445a3.729,3.729,0,0,0-.536-2.174,1.754,1.754,0,0,0-1.521-.756,1.749,1.749,0,0,0-1.5.753,3.657,3.657,0,0,0-.554,2.13v.492a3.7,3.7,0,0,0,.548,2.174,1.764,1.764,0,0,0,1.521.768,1.743,1.743,0,0,0,1.515-.75,3.781,3.781,0,0,0,.53-2.191ZM114.146,0H112.67V-3.791h-3.814V0h-1.482V-8.531h1.482V-4.98h3.814V-8.531h1.477Zm4.277-3.656h-1.008V0h-1.477V-8.531h1.477v3.586h.814l2.508-3.586h1.816l-2.93,4.084L122.813,0h-1.781Zm12.018-.387a5.234,5.234,0,0,1-.434,2.2A3.278,3.278,0,0,1,128.769-.39a3.409,3.409,0,0,1-1.854.507,3.417,3.417,0,0,1-1.849-.507,3.329,3.329,0,0,1-1.254-1.444A5.07,5.07,0,0,1,123.363-4v-.48a5.189,5.189,0,0,1,.442-2.2,3.325,3.325,0,0,1,1.248-1.462,3.4,3.4,0,0,1,1.849-.507,3.428,3.428,0,0,1,1.849.5A3.283,3.283,0,0,1,130-6.706a5.178,5.178,0,0,1,.445,2.188Zm-1.482-.445a3.729,3.729,0,0,0-.536-2.174,1.754,1.754,0,0,0-1.521-.756,1.749,1.749,0,0,0-1.5.753,3.657,3.657,0,0,0-.554,2.13v.492a3.7,3.7,0,0,0,.548,2.174,1.764,1.764,0,0,0,1.521.768,1.743,1.743,0,0,0,1.515-.75,3.781,3.781,0,0,0,.53-2.191ZM131.918,0V-8.531h2.924a3.57,3.57,0,0,1,2.2.58,2.043,2.043,0,0,1,.756,1.729,1.842,1.842,0,0,1-.316,1.055,2.037,2.037,0,0,1-.926.727,1.883,1.883,0,0,1,1.069.706,2.056,2.056,0,0,1,.378,1.245,2.271,2.271,0,0,1-.771,1.846A3.35,3.35,0,0,1,135.029,0ZM133.4-3.85v2.666h1.646a1.593,1.593,0,0,0,1.09-.346,1.213,1.213,0,0,0,.393-.961A1.217,1.217,0,0,0,135.17-3.85Zm0-1.09h1.453a1.68,1.68,0,0,0,1.081-.313,1.074,1.074,0,0,0,.39-.888,1.089,1.089,0,0,0-.36-.914,1.82,1.82,0,0,0-1.122-.281H133.4Z" transform="translate(1104 903)"/><rect class="f" width="230" height="230" rx="6" transform="translate(1311 737)"/><path class="c" d="M12.588-6.65A8.8,8.8,0,0,1,11.885-3,5.326,5.326,0,0,1,9.893-.625,5.481,5.481,0,0,1,6.885.2,5.434,5.434,0,0,1,3.906-.63,5.453,5.453,0,0,1,1.89-2.983a8.439,8.439,0,0,1-.737-3.54V-7.549a8.691,8.691,0,0,1,.713-3.623,5.434,5.434,0,0,1,2.017-2.407,5.411,5.411,0,0,1,2.983-.835,5.512,5.512,0,0,1,3.013.825A5.316,5.316,0,0,1,11.885-11.2a8.838,8.838,0,0,1,.7,3.647Zm-1.865-.918A6.375,6.375,0,0,0,9.707-11.45,3.35,3.35,0,0,0,6.865-12.8a3.314,3.314,0,0,0-2.8,1.353A6.245,6.245,0,0,0,3.018-7.7V-6.65A6.384,6.384,0,0,0,4.048-2.8,3.328,3.328,0,0,0,6.885-1.4,3.314,3.314,0,0,0,9.7-2.72a6.348,6.348,0,0,0,1.025-3.794ZM22.969-9.1H19.424V0H17.617V-9.1H14.141v-1.465h8.828ZM33.369,0H31.563V-9.072H26.7V0H24.883V-10.566h8.486ZM45.2-5.166a6.327,6.327,0,0,1-1.1,3.887A3.537,3.537,0,0,1,41.1.2a3.875,3.875,0,0,1-3.027-1.221V4.063H36.27V-10.566h1.65l.088,1.172a3.722,3.722,0,0,1,3.066-1.367,3.6,3.6,0,0,1,3.013,1.436A6.4,6.4,0,0,1,45.2-5.332Zm-1.807-.205a4.669,4.669,0,0,0-.762-2.822,2.454,2.454,0,0,0-2.09-1.035,2.656,2.656,0,0,0-2.461,1.455v5.049a2.661,2.661,0,0,0,2.48,1.445,2.442,2.442,0,0,0,2.065-1.03A5.1,5.1,0,0,0,43.389-5.371ZM54.014,0a3.8,3.8,0,0,1-.254-1.113A4.031,4.031,0,0,1,50.752.2a3.73,3.73,0,0,1-2.563-.884,2.859,2.859,0,0,1-1-2.241,2.987,2.987,0,0,1,1.255-2.563,5.916,5.916,0,0,1,3.53-.913H53.73v-.83a2.029,2.029,0,0,0-.566-1.509,2.276,2.276,0,0,0-1.67-.562,2.634,2.634,0,0,0-1.621.488,1.439,1.439,0,0,0-.654,1.182H47.4a2.493,2.493,0,0,1,.562-1.528,3.832,3.832,0,0,1,1.523-1.167,5.125,5.125,0,0,1,2.114-.43,4.177,4.177,0,0,1,2.861.913,3.294,3.294,0,0,1,1.074,2.515v4.863a5.946,5.946,0,0,0,.371,2.314V0Zm-3-1.377a3.175,3.175,0,0,0,1.611-.439,2.658,2.658,0,0,0,1.1-1.143V-5.127H52.314q-3.32,0-3.32,1.943a1.645,1.645,0,0,0,.566,1.328A2.177,2.177,0,0,0,51.016-1.377ZM58.535,0V-10.566h4.121a5.92,5.92,0,0,1,3.237.737,2.421,2.421,0,0,1,1.128,2.163,2.163,2.163,0,0,1-.439,1.323,2.722,2.722,0,0,1-1.3.9,2.871,2.871,0,0,1,1.538.879A2.274,2.274,0,0,1,67.4-3,2.577,2.577,0,0,1,66.333-.771,5.1,5.1,0,0,1,63.311,0Zm1.807-4.639v3.184H63.33a2.819,2.819,0,0,0,1.694-.42,1.39,1.39,0,0,0,.562-1.182q0-1.582-2.324-1.582Zm0-1.445h2.334q2.539,0,2.539-1.484T62.813-9.1H60.342ZM73.086-4.5H71.768V0H69.951V-10.566h1.816v4.473h1.182L76.5-10.566h2.188l-4.18,5.078L79.043,0H76.748ZM87.119,0a3.8,3.8,0,0,1-.254-1.113A4.031,4.031,0,0,1,83.857.2a3.73,3.73,0,0,1-2.563-.884,2.859,2.859,0,0,1-1-2.241,2.987,2.987,0,0,1,1.255-2.563,5.916,5.916,0,0,1,3.53-.913h1.758v-.83a2.029,2.029,0,0,0-.566-1.509,2.276,2.276,0,0,0-1.67-.562,2.634,2.634,0,0,0-1.621.488,1.439,1.439,0,0,0-.654,1.182H80.508a2.493,2.493,0,0,1,.562-1.528,3.832,3.832,0,0,1,1.523-1.167,5.125,5.125,0,0,1,2.114-.43,4.177,4.177,0,0,1,2.861.913,3.294,3.294,0,0,1,1.074,2.515v4.863a5.946,5.946,0,0,0,.371,2.314V0Zm-3-1.377a3.175,3.175,0,0,0,1.611-.439,2.658,2.658,0,0,0,1.1-1.143V-5.127H85.42q-3.32,0-3.32,1.943a1.645,1.645,0,0,0,.566,1.328A2.177,2.177,0,0,0,84.121-1.377ZM100.9-6.338a8.817,8.817,0,0,1-3.511-1.7,3.256,3.256,0,0,1-1.1-2.5,3.439,3.439,0,0,1,1.343-2.778,5.337,5.337,0,0,1,3.491-1.1,5.825,5.825,0,0,1,2.612.566,4.3,4.3,0,0,1,1.777,1.563,4,4,0,0,1,.63,2.178h-1.885a2.586,2.586,0,0,0-.82-2.026,3.343,3.343,0,0,0-2.314-.737,3.42,3.42,0,0,0-2.163.61,2.035,2.035,0,0,0-.776,1.694,1.831,1.831,0,0,0,.737,1.47,7.238,7.238,0,0,0,2.51,1.1A11.623,11.623,0,0,1,104.2-6.9a4.209,4.209,0,0,1,1.484,1.4,3.577,3.577,0,0,1,.483,1.885,3.322,3.322,0,0,1-1.348,2.769,5.746,5.746,0,0,1-3.6,1.04,6.683,6.683,0,0,1-2.734-.562A4.6,4.6,0,0,1,96.528-1.9a3.754,3.754,0,0,1-.688-2.217h1.885a2.449,2.449,0,0,0,.952,2.036,4.009,4.009,0,0,0,2.544.747,3.685,3.685,0,0,0,2.275-.605,1.967,1.967,0,0,0,.791-1.65,1.931,1.931,0,0,0-.732-1.616A8.444,8.444,0,0,0,100.9-6.338ZM111-14.219l4.648,11.6,4.648-11.6h2.432V0H120.85V-5.537l.176-5.977L116.357,0h-1.436l-4.658-11.484.186,5.947V0h-1.875V-14.219Zm19.229,7.881a8.817,8.817,0,0,1-3.511-1.7,3.256,3.256,0,0,1-1.1-2.5,3.439,3.439,0,0,1,1.343-2.778,5.337,5.337,0,0,1,3.491-1.1,5.825,5.825,0,0,1,2.612.566,4.3,4.3,0,0,1,1.777,1.563,4,4,0,0,1,.63,2.178h-1.885a2.586,2.586,0,0,0-.82-2.026,3.343,3.343,0,0,0-2.314-.737,3.42,3.42,0,0,0-2.163.61,2.035,2.035,0,0,0-.776,1.694,1.831,1.831,0,0,0,.737,1.47,7.238,7.238,0,0,0,2.51,1.1,11.622,11.622,0,0,1,2.773,1.1,4.209,4.209,0,0,1,1.484,1.4,3.577,3.577,0,0,1,.483,1.885A3.322,3.322,0,0,1,134.15-.845a5.746,5.746,0,0,1-3.6,1.04,6.683,6.683,0,0,1-2.734-.562A4.6,4.6,0,0,1,125.854-1.9a3.754,3.754,0,0,1-.688-2.217h1.885A2.449,2.449,0,0,0,128-2.085a4.009,4.009,0,0,0,2.544.747,3.685,3.685,0,0,0,2.275-.605,1.967,1.967,0,0,0,.791-1.65,1.931,1.931,0,0,0-.732-1.616A8.444,8.444,0,0,0,130.225-6.338Z" transform="translate(1358 881)"/><path class="d" d="M5.643-1.986h-3.3L1.646,0H.105L3.328-8.531h1.33L7.887,0H6.34Zm-2.889-1.2H5.227L3.99-6.721ZM8.854,0V-8.531h2.924a3.57,3.57,0,0,1,2.2.58,2.043,2.043,0,0,1,.756,1.729,1.842,1.842,0,0,1-.316,1.055,2.037,2.037,0,0,1-.926.727,1.883,1.883,0,0,1,1.069.706,2.056,2.056,0,0,1,.378,1.245,2.271,2.271,0,0,1-.771,1.846A3.35,3.35,0,0,1,11.965,0Zm1.482-3.85v2.666h1.646a1.593,1.593,0,0,0,1.09-.346,1.213,1.213,0,0,0,.393-.961A1.217,1.217,0,0,0,12.105-3.85Zm0-1.09h1.453a1.68,1.68,0,0,0,1.081-.313,1.074,1.074,0,0,0,.39-.888,1.089,1.089,0,0,0-.36-.914,1.82,1.82,0,0,0-1.122-.281H10.336Zm12.252-2.4h-2.66V0H18.457V-7.336H15.82v-1.2h6.768Zm7.928,3.293a5.234,5.234,0,0,1-.434,2.2A3.278,3.278,0,0,1,28.843-.39a3.409,3.409,0,0,1-1.854.507A3.417,3.417,0,0,1,25.14-.39a3.329,3.329,0,0,1-1.254-1.444A5.07,5.07,0,0,1,23.438-4v-.48a5.189,5.189,0,0,1,.442-2.2,3.325,3.325,0,0,1,1.248-1.462,3.4,3.4,0,0,1,1.849-.507,3.428,3.428,0,0,1,1.849.5A3.283,3.283,0,0,1,30.07-6.706a5.178,5.178,0,0,1,.445,2.188Zm-1.482-.445A3.729,3.729,0,0,0,28.5-6.662a1.754,1.754,0,0,0-1.521-.756,1.749,1.749,0,0,0-1.5.753,3.657,3.657,0,0,0-.554,2.13v.492a3.7,3.7,0,0,0,.548,2.174,1.764,1.764,0,0,0,1.521.768,1.743,1.743,0,0,0,1.515-.75,3.781,3.781,0,0,0,.53-2.191Zm4.881-4.043,2.461,6.539L38.83-8.531h1.916V0H39.27V-2.812l.146-3.762L36.9,0H35.836L33.322-6.568l.146,3.756V0H31.992V-8.531ZM47.273-1.986h-3.3L43.277,0H41.736l3.223-8.531h1.33L49.518,0H47.971Zm-2.889-1.2h2.473L45.621-6.721ZM56.648-7.336h-2.66V0H52.518V-7.336H49.881v-1.2h6.768Zm6.346-1.2h1.482V0H62.994V-6.076L59.25,0H57.768V-8.531H59.25v6.082Zm9.785,0V0H71.3V-3.357a8.042,8.042,0,0,1-1.98.24,3.467,3.467,0,0,1-2.314-.674,2.548,2.548,0,0,1-.791-2.033V-8.531h1.477v2.719a1.552,1.552,0,0,0,.375,1.16,1.817,1.817,0,0,0,1.254.346,7.951,7.951,0,0,0,1.98-.246V-8.531Zm6.762,4.723h-3.5v2.625h4.1V0H74.555V-8.531h5.537v1.2H76.037V-4.98h3.5ZM87.85-2.777a3.08,3.08,0,0,1-1.008,2.13A3.436,3.436,0,0,1,84.5.117a3.327,3.327,0,0,1-1.8-.483,3.173,3.173,0,0,1-1.2-1.374,4.958,4.958,0,0,1-.439-2.068v-.8A4.994,4.994,0,0,1,81.5-6.732,3.224,3.224,0,0,1,82.726-8.15a3.424,3.424,0,0,1,1.849-.5,3.29,3.29,0,0,1,2.273.768,3.207,3.207,0,0,1,1,2.168H86.373a2.107,2.107,0,0,0-.536-1.327,1.772,1.772,0,0,0-1.263-.407,1.732,1.732,0,0,0-1.485.706,3.526,3.526,0,0,0-.53,2.071v.756a3.741,3.741,0,0,0,.5,2.109,1.643,1.643,0,0,0,1.45.727,1.917,1.917,0,0,0,1.313-.393,2.047,2.047,0,0,0,.557-1.307Zm3.85-.879H90.691V0H89.215V-8.531h1.477v3.586h.814l2.508-3.586H95.83L92.9-4.447,96.088,0H94.307Zm10.436-4.875h1.482V0h-1.482V-6.076L98.391,0H96.908V-8.531h1.482v6.082Z" transform="translate(1374 903)"/><rect class="g" width="230" height="230" rx="6" transform="translate(1058 987)"/><path class="c" d="M12.109-4.512A5.231,5.231,0,0,1,10.444-1.03,5.457,5.457,0,0,1,6.719.2,5.01,5.01,0,0,1,2.681-1.611,7.268,7.268,0,0,1,1.162-6.445V-7.812A8.1,8.1,0,0,1,1.87-11.3a5.288,5.288,0,0,1,2.007-2.31,5.588,5.588,0,0,1,3.008-.806,5.138,5.138,0,0,1,3.633,1.265,5.294,5.294,0,0,1,1.592,3.5H10.225a4.067,4.067,0,0,0-1.06-2.461,3.212,3.212,0,0,0-2.28-.762,3.356,3.356,0,0,0-2.817,1.328A6.093,6.093,0,0,0,3.047-7.764v1.377a6.263,6.263,0,0,0,.967,3.682A3.125,3.125,0,0,0,6.719-1.338a3.608,3.608,0,0,0,2.4-.708,3.929,3.929,0,0,0,1.108-2.466ZM22.236-9.1H18.691V0H16.885V-9.1H13.408v-1.465h8.828ZM30.518,0a3.8,3.8,0,0,1-.254-1.113A4.031,4.031,0,0,1,27.256.2a3.73,3.73,0,0,1-2.563-.884,2.859,2.859,0,0,1-1-2.241,2.987,2.987,0,0,1,1.255-2.563,5.916,5.916,0,0,1,3.53-.913h1.758v-.83a2.029,2.029,0,0,0-.566-1.509A2.276,2.276,0,0,0,28-9.307a2.634,2.634,0,0,0-1.621.488,1.439,1.439,0,0,0-.654,1.182H23.906a2.493,2.493,0,0,1,.562-1.528,3.832,3.832,0,0,1,1.523-1.167,5.125,5.125,0,0,1,2.114-.43,4.177,4.177,0,0,1,2.861.913,3.294,3.294,0,0,1,1.074,2.515v4.863a5.946,5.946,0,0,0,.371,2.314V0Zm-3-1.377a3.175,3.175,0,0,0,1.611-.439,2.658,2.658,0,0,0,1.1-1.143V-5.127H28.818q-3.32,0-3.32,1.943a1.645,1.645,0,0,0,.566,1.328A2.177,2.177,0,0,0,27.52-1.377ZM42.725-9.1H39.18V0H37.373V-9.1H33.9v-1.465h8.828Zm8.594-1.465h1.807V0H51.318V-7.705L46.445,0H44.639V-10.566h1.807v7.715Zm8.945,9.287a2.6,2.6,0,0,0,1.689-.586,2.061,2.061,0,0,0,.8-1.465h1.709A3.276,3.276,0,0,1,63.838-1.6,4.116,4.116,0,0,1,62.3-.293,4.438,4.438,0,0,1,60.264.2a4.353,4.353,0,0,1-3.433-1.44,5.737,5.737,0,0,1-1.274-3.94v-.3a6.361,6.361,0,0,1,.566-2.744A4.314,4.314,0,0,1,57.749-10.1a4.619,4.619,0,0,1,2.5-.664A4.238,4.238,0,0,1,63.208-9.7a3.8,3.8,0,0,1,1.255,2.764H62.754a2.49,2.49,0,0,0-.776-1.685,2.415,2.415,0,0,0-1.724-.659,2.529,2.529,0,0,0-2.134.991,4.655,4.655,0,0,0-.757,2.866v.342a4.562,4.562,0,0,0,.752,2.813A2.541,2.541,0,0,0,60.264-1.279ZM74.346-9.1H70.8V0H68.994V-9.1H65.518v-1.465h8.828Zm8.594-1.465h1.807V0H82.939V-7.705L78.066,0H76.26V-10.566h1.807v7.715Zm8,6.064H89.619V0H87.8V-10.566h1.816v4.473H90.8l3.555-4.473h2.188l-4.18,5.078L96.895,0H94.6ZM104.971,0a3.8,3.8,0,0,1-.254-1.113A4.031,4.031,0,0,1,101.709.2a3.73,3.73,0,0,1-2.563-.884,2.859,2.859,0,0,1-1-2.241A2.987,2.987,0,0,1,99.4-5.493a5.916,5.916,0,0,1,3.53-.913h1.758v-.83a2.029,2.029,0,0,0-.566-1.509,2.276,2.276,0,0,0-1.67-.562,2.634,2.634,0,0,0-1.621.488,1.439,1.439,0,0,0-.654,1.182H98.359a2.493,2.493,0,0,1,.562-1.528,3.832,3.832,0,0,1,1.523-1.167,5.125,5.125,0,0,1,2.114-.43,4.177,4.177,0,0,1,2.861.913,3.294,3.294,0,0,1,1.074,2.515v4.863a5.946,5.946,0,0,0,.371,2.314V0Zm-3-1.377a3.175,3.175,0,0,0,1.611-.439,2.658,2.658,0,0,0,1.1-1.143V-5.127h-1.416q-3.32,0-3.32,1.943a1.645,1.645,0,0,0,.566,1.328A2.177,2.177,0,0,0,101.973-1.377Z" transform="translate(1119 1131)"/><path class="d" d="M5.133-6.205A1.1,1.1,0,0,0,4.7-7.119a1.86,1.86,0,0,0-1.178-.34,1.67,1.67,0,0,0-1.066.337,1.058,1.058,0,0,0-.428.87H.551A2.093,2.093,0,0,1,.938-7.494,2.527,2.527,0,0,1,2.01-8.341a3.712,3.712,0,0,1,1.512-.3A3.6,3.6,0,0,1,5.8-8a2.145,2.145,0,0,1,.812,1.787A1.781,1.781,0,0,1,6.258-5.15a2.366,2.366,0,0,1-.984.768,2.232,2.232,0,0,1,1.093.747,2.008,2.008,0,0,1,.378,1.245A2.183,2.183,0,0,1,5.865-.565,3.742,3.742,0,0,1,3.521.111,4,4,0,0,1,1.89-.211a2.451,2.451,0,0,1-1.1-.879A2.271,2.271,0,0,1,.428-2.367H1.9a1.162,1.162,0,0,0,.457.929,1.76,1.76,0,0,0,1.16.378A2.009,2.009,0,0,0,4.784-1.43a1.159,1.159,0,0,0,.478-.961,1.242,1.242,0,0,0-.419-1.046,1.974,1.974,0,0,0-1.228-.325h-1V-4.934h.949Q5.133-4.934,5.133-6.205ZM12.9-1.986h-3.3L8.9,0H7.359l3.223-8.531h1.33L15.141,0H13.594Zm-2.889-1.2H12.48L11.244-6.721ZM19.1,0V-8.531H22.02a3.57,3.57,0,0,1,2.2.58,2.043,2.043,0,0,1,.756,1.729,1.842,1.842,0,0,1-.316,1.055,2.037,2.037,0,0,1-.926.727,1.883,1.883,0,0,1,1.069.706,2.056,2.056,0,0,1,.378,1.245,2.271,2.271,0,0,1-.771,1.846A3.35,3.35,0,0,1,22.207,0Zm1.482-3.85v2.666h1.646a1.593,1.593,0,0,0,1.09-.346,1.213,1.213,0,0,0,.393-.961A1.217,1.217,0,0,0,22.348-3.85Zm0-1.09h1.453a1.68,1.68,0,0,0,1.081-.313,1.074,1.074,0,0,0,.39-.888,1.089,1.089,0,0,0-.36-.914,1.82,1.82,0,0,0-1.122-.281H20.578ZM31.652-3.809h-3.5v2.625h4.1V0H26.666V-8.531H32.2v1.2H28.148V-4.98h3.5Zm8.309,1.031a3.08,3.08,0,0,1-1.008,2.13,3.436,3.436,0,0,1-2.338.765,3.327,3.327,0,0,1-1.8-.483,3.173,3.173,0,0,1-1.2-1.374,4.958,4.958,0,0,1-.439-2.068v-.8a4.994,4.994,0,0,1,.428-2.127A3.224,3.224,0,0,1,34.837-8.15a3.424,3.424,0,0,1,1.849-.5,3.29,3.29,0,0,1,2.273.768,3.207,3.207,0,0,1,1,2.168H38.484a2.107,2.107,0,0,0-.536-1.327,1.772,1.772,0,0,0-1.263-.407,1.732,1.732,0,0,0-1.485.706,3.526,3.526,0,0,0-.53,2.071v.756a3.741,3.741,0,0,0,.5,2.109,1.643,1.643,0,0,0,1.45.727,1.917,1.917,0,0,0,1.313-.393,2.047,2.047,0,0,0,.557-1.307Zm2.783-2.49H44.49a3.863,3.863,0,0,1,1.635.322,2.373,2.373,0,0,1,1.061.914,2.568,2.568,0,0,1,.363,1.371,2.455,2.455,0,0,1-.812,1.922A3.238,3.238,0,0,1,44.525,0H41.262V-8.531h1.482Zm0,1.189v2.895h1.74a1.607,1.607,0,0,0,1.169-.407,1.439,1.439,0,0,0,.419-1.081,1.313,1.313,0,0,0-.41-1.02,1.664,1.664,0,0,0-1.137-.387ZM58.564,0H57.088V-7.336H53.332V0H51.855V-8.531h6.709Zm6.773-3.809h-3.5v2.625h4.1V0H60.352V-8.531h5.537v1.2H61.834V-4.98h3.5Zm3.281.639V0H67.137V-8.531H70.4a3.3,3.3,0,0,1,2.271.744,2.5,2.5,0,0,1,.841,1.969,2.418,2.418,0,0,1-.823,1.951,3.463,3.463,0,0,1-2.306.7Zm0-1.189H70.4a1.754,1.754,0,0,0,1.207-.372,1.367,1.367,0,0,0,.416-1.075,1.475,1.475,0,0,0-.422-1.1,1.626,1.626,0,0,0-1.16-.425H68.619ZM80.033-8.531h1.482V0H80.033V-6.076L76.289,0H74.807V-8.531h1.482v6.082ZM90.1-4.043a5.234,5.234,0,0,1-.434,2.2A3.278,3.278,0,0,1,88.427-.39a3.409,3.409,0,0,1-1.854.507A3.417,3.417,0,0,1,84.724-.39,3.329,3.329,0,0,1,83.47-1.834,5.07,5.07,0,0,1,83.021-4v-.48a5.189,5.189,0,0,1,.442-2.2,3.325,3.325,0,0,1,1.248-1.462,3.4,3.4,0,0,1,1.849-.507,3.428,3.428,0,0,1,1.849.5,3.283,3.283,0,0,1,1.245,1.441A5.178,5.178,0,0,1,90.1-4.518Zm-1.482-.445a3.729,3.729,0,0,0-.536-2.174,1.754,1.754,0,0,0-1.521-.756,1.749,1.749,0,0,0-1.5.753,3.657,3.657,0,0,0-.554,2.13v.492a3.7,3.7,0,0,0,.548,2.174,1.764,1.764,0,0,0,1.521.768,1.743,1.743,0,0,0,1.515-.75,3.781,3.781,0,0,0,.53-2.191ZM99.422,2.1H98.016V0H92.4V2.1h-1.43L90.92-1.184h.686a3.421,3.421,0,0,0,.814-1.433,9.09,9.09,0,0,0,.393-2.13l.223-3.785h5.379v7.348H99.5ZM93.281-1.184h3.656V-7.336h-2.49l-.141,2.4A7.862,7.862,0,0,1,93.281-1.184Z" transform="translate(1123 1153)"/><rect class="h" width="230" height="230" rx="6" transform="translate(1311 987)"/><path class="c" d="M11.953-14.219V0H10.068V-5.889A13.256,13.256,0,0,1,8.2-5.483a14.571,14.571,0,0,1-1.914.112A5.3,5.3,0,0,1,2.676-6.426,4.2,4.2,0,0,1,1.465-9.658v-4.561H3.35v4.512a2.926,2.926,0,0,0,.679,2.139,3.175,3.175,0,0,0,2.261.654,14.256,14.256,0,0,0,3.779-.527v-6.777ZM19.443.2a4.617,4.617,0,0,1-3.5-1.411A5.237,5.237,0,0,1,14.6-4.99v-.332a6.341,6.341,0,0,1,.6-2.808,4.685,4.685,0,0,1,1.68-1.934,4.223,4.223,0,0,1,2.339-.7,3.957,3.957,0,0,1,3.2,1.357,5.877,5.877,0,0,1,1.143,3.887v.752H16.406a3.756,3.756,0,0,0,.913,2.524,2.87,2.87,0,0,0,2.222.962,3.147,3.147,0,0,0,1.621-.391,4.073,4.073,0,0,0,1.162-1.035l1.1.859A4.437,4.437,0,0,1,19.443.2Zm-.225-9.473a2.41,2.41,0,0,0-1.836.8,3.868,3.868,0,0,0-.918,2.231h5.293v-.137a3.441,3.441,0,0,0-.742-2.134A2.269,2.269,0,0,0,19.219-9.277ZM28.945-4.5H27.627V0H25.811V-10.566h1.816v4.473h1.182l3.555-4.473h2.188l-4.18,5.078L34.9,0H32.607Zm14.346-6.064H45.1V0H43.291V-7.705L38.418,0H36.611V-10.566h1.807v7.715ZM56.24-4.5H54.922V0H53.105V-10.566h1.816v4.473H56.1l3.555-4.473h2.188l-4.18,5.078L62.2,0H59.9Zm16.172-6.064V0H70.6V-9.072H67l-.215,3.955a8.742,8.742,0,0,1-.913,3.9A2.664,2.664,0,0,1,63.535,0h-.723V-1.592l.518-.039a1.494,1.494,0,0,0,1.26-1.016,11.45,11.45,0,0,0,.488-3.4l.2-4.521Zm9.736,0h1.807V0H82.148V-7.705L77.275,0H75.469V-10.566h1.807v7.715ZM91.24.2a4.617,4.617,0,0,1-3.5-1.411A5.237,5.237,0,0,1,86.4-4.99v-.332A6.341,6.341,0,0,1,87-8.13a4.685,4.685,0,0,1,1.68-1.934,4.223,4.223,0,0,1,2.339-.7,3.957,3.957,0,0,1,3.2,1.357,5.877,5.877,0,0,1,1.143,3.887v.752H88.2a3.756,3.756,0,0,0,.913,2.524,2.87,2.87,0,0,0,2.222.962,3.147,3.147,0,0,0,1.621-.391,4.073,4.073,0,0,0,1.162-1.035l1.1.859A4.437,4.437,0,0,1,91.24.2Zm-.225-9.473a2.41,2.41,0,0,0-1.836.8,3.869,3.869,0,0,0-.918,2.231h5.293v-.137a3.441,3.441,0,0,0-.742-2.134A2.269,2.269,0,0,0,91.016-9.277ZM106.084,0h-1.807V-4.512H99.424V0H97.607V-10.566h1.816v4.58h4.854v-4.58h1.807Zm10.752-9.1h-3.545V0h-1.807V-9.1h-3.477v-1.465h8.828ZM125.117,0a3.8,3.8,0,0,1-.254-1.113A4.031,4.031,0,0,1,121.855.2a3.73,3.73,0,0,1-2.563-.884,2.859,2.859,0,0,1-1-2.241,2.987,2.987,0,0,1,1.255-2.563,5.916,5.916,0,0,1,3.53-.913h1.758v-.83a2.029,2.029,0,0,0-.566-1.509,2.276,2.276,0,0,0-1.67-.562,2.634,2.634,0,0,0-1.621.488,1.439,1.439,0,0,0-.654,1.182h-1.816a2.493,2.493,0,0,1,.562-1.528,3.832,3.832,0,0,1,1.523-1.167,5.125,5.125,0,0,1,2.114-.43,4.177,4.177,0,0,1,2.861.913,3.294,3.294,0,0,1,1.074,2.515v4.863a5.946,5.946,0,0,0,.371,2.314V0Zm-3-1.377a3.175,3.175,0,0,0,1.611-.439,2.658,2.658,0,0,0,1.1-1.143V-5.127h-1.416q-3.32,0-3.32,1.943a1.645,1.645,0,0,0,.566,1.328A2.177,2.177,0,0,0,122.119-1.377Zm13.438-1.016,3.594-8.174h2.256V0H139.6V-7.686L136.182,0h-1.25l-3.486-7.852V0h-1.807V-10.566h2.344Z" transform="translate(1354 1131)"/><path class="d" d="M.867,0V-8.531H3.791a3.57,3.57,0,0,1,2.2.58A2.043,2.043,0,0,1,6.75-6.223a1.842,1.842,0,0,1-.316,1.055,2.037,2.037,0,0,1-.926.727,1.883,1.883,0,0,1,1.069.706A2.056,2.056,0,0,1,6.955-2.49,2.271,2.271,0,0,1,6.185-.645,3.35,3.35,0,0,1,3.979,0ZM2.35-3.85v2.666H4a1.593,1.593,0,0,0,1.09-.346,1.213,1.213,0,0,0,.393-.961A1.217,1.217,0,0,0,4.119-3.85Zm0-1.09H3.8a1.68,1.68,0,0,0,1.081-.313,1.074,1.074,0,0,0,.39-.888,1.089,1.089,0,0,0-.36-.914,1.82,1.82,0,0,0-1.122-.281H2.35Zm12.6,2.162a3.08,3.08,0,0,1-1.008,2.13A3.436,3.436,0,0,1,11.6.117a3.327,3.327,0,0,1-1.8-.483,3.173,3.173,0,0,1-1.2-1.374,4.958,4.958,0,0,1-.439-2.068v-.8A4.994,4.994,0,0,1,8.6-6.732,3.224,3.224,0,0,1,9.823-8.15a3.424,3.424,0,0,1,1.849-.5,3.29,3.29,0,0,1,2.273.768,3.207,3.207,0,0,1,1,2.168H13.471a2.107,2.107,0,0,0-.536-1.327,1.772,1.772,0,0,0-1.263-.407,1.732,1.732,0,0,0-1.485.706,3.526,3.526,0,0,0-.53,2.071v.756a3.741,3.741,0,0,0,.5,2.109,1.643,1.643,0,0,0,1.45.727,1.917,1.917,0,0,0,1.313-.393,2.047,2.047,0,0,0,.557-1.307Zm6.311-1.031h-3.5v2.625h4.1V0H16.271V-8.531h5.537v1.2H17.754V-4.98h3.5Zm7.857-.264,1.711-4.459h1.646L29.5-1.453l-.27.533a2.013,2.013,0,0,1-1.9,1.043L26.725.088l.012-1.172a3.531,3.531,0,0,0,.5.023.909.909,0,0,0,.891-.539l.3-.721L25.512-8.531h1.617ZM33.6,0V-8.531h2.924a3.57,3.57,0,0,1,2.2.58,2.043,2.043,0,0,1,.756,1.729,1.842,1.842,0,0,1-.316,1.055,2.037,2.037,0,0,1-.926.727,1.883,1.883,0,0,1,1.069.706,2.056,2.056,0,0,1,.378,1.245,2.271,2.271,0,0,1-.771,1.846A3.35,3.35,0,0,1,36.715,0Zm1.482-3.85v2.666h1.646a1.593,1.593,0,0,0,1.09-.346,1.213,1.213,0,0,0,.393-.961A1.217,1.217,0,0,0,36.855-3.85Zm0-1.09h1.453a1.68,1.68,0,0,0,1.081-.313,1.074,1.074,0,0,0,.39-.888,1.089,1.089,0,0,0-.36-.914,1.82,1.82,0,0,0-1.122-.281H35.086ZM46.16-3.809h-3.5v2.625h4.1V0H41.174V-8.531h5.537v1.2H42.656V-4.98h3.5ZM55.8,2.1H54.4V0H48.779V2.1H47.35L47.3-1.184h.686A3.421,3.421,0,0,0,48.8-2.616a9.09,9.09,0,0,0,.393-2.13l.223-3.785H54.8v7.348h1.084ZM49.664-1.184H53.32V-7.336H50.83l-.141,2.4A7.862,7.862,0,0,1,49.664-1.184ZM63.8-4.043a5.234,5.234,0,0,1-.434,2.2A3.278,3.278,0,0,1,62.13-.39a3.409,3.409,0,0,1-1.854.507A3.417,3.417,0,0,1,58.427-.39a3.329,3.329,0,0,1-1.254-1.444A5.07,5.07,0,0,1,56.725-4v-.48a5.189,5.189,0,0,1,.442-2.2,3.325,3.325,0,0,1,1.248-1.462,3.4,3.4,0,0,1,1.849-.507,3.428,3.428,0,0,1,1.849.5,3.283,3.283,0,0,1,1.245,1.441A5.178,5.178,0,0,1,63.8-4.518ZM62.32-4.488a3.729,3.729,0,0,0-.536-2.174,1.754,1.754,0,0,0-1.521-.756,1.749,1.749,0,0,0-1.5.753,3.657,3.657,0,0,0-.554,2.13v.492a3.7,3.7,0,0,0,.548,2.174,1.764,1.764,0,0,0,1.521.768,1.743,1.743,0,0,0,1.515-.75,3.781,3.781,0,0,0,.53-2.191ZM67.2-8.531l2.461,6.539,2.455-6.539h1.916V0H72.557V-2.812L72.7-6.574,70.184,0H69.123L66.609-6.568l.146,3.756V0H65.279V-8.531Zm15.293,0V0H81.018V-7.336H78.4l-.152,3.3a9.453,9.453,0,0,1-.378,2.4,2.429,2.429,0,0,1-.841,1.245A2.5,2.5,0,0,1,75.557,0h-.375V-1.184l.234-.018a1.154,1.154,0,0,0,.788-.357,2.1,2.1,0,0,0,.422-.94,11.42,11.42,0,0,0,.2-1.854l.164-4.178Zm6.768,4.723h-3.5v2.625h4.1V0H84.275V-8.531h5.537v1.2H85.758V-4.98h3.5ZM97.834,0H96.357V-3.791H92.543V0H91.061V-8.531h1.482V-4.98h3.814V-8.531h1.477Zm6.979-8.531h1.482V0h-1.482V-6.076L101.068,0H99.586V-8.531h1.482v6.082ZM112.277,0V-3.187h-1.652L108.979,0h-1.588l1.9-3.627a2.381,2.381,0,0,1-1.488-2.3,2.364,2.364,0,0,1,.806-1.907,3.417,3.417,0,0,1,2.247-.694h2.9V0Zm-2.994-5.865a1.521,1.521,0,0,0,.4,1.125,1.647,1.647,0,0,0,1.213.4h1.377v-3H110.9a1.674,1.674,0,0,0-1.219.393A1.445,1.445,0,0,0,109.283-5.865Z" transform="translate(1369 1153)"/><g transform="translate(1150 787)"><path class="i" d="M36.452,0,25.06,11.392,36.452,22.784V15.945h9.115V6.839H36.452Zm2.28,33.032a25.85,25.85,0,0,1-8.136-1.3,2.335,2.335,0,0,0-2.322.552l-5.012,5.009A34.284,34.284,0,0,1,8.248,22.282l5.01-5.031a2.2,2.2,0,0,0,.571-2.284,25.894,25.894,0,0,1-1.3-8.128,2.286,2.286,0,0,0-2.276-2.284H2.276A2.283,2.283,0,0,0,0,6.839,38.728,38.728,0,0,0,38.732,45.567a2.284,2.284,0,0,0,2.276-2.276V35.318A2.284,2.284,0,0,0,38.732,33.032Z"/></g><g transform="translate(1404 790.133)"><path class="j" d="M40.5,0H4.5A4.513,4.513,0,0,0,0,4.5V45l9-9H40.5A4.513,4.513,0,0,0,45,31.5V4.5A4.513,4.513,0,0,0,40.5,0ZM15.75,20.25h-4.5v-4.5h4.5Zm9,0h-4.5v-4.5h4.5Zm9,0h-4.5v-4.5h4.5Z"/></g><g transform="translate(23)"><g transform="translate(1128 1040)"><path class="k" d="M31,20.917H51.917A22.525,22.525,0,0,0,31,0Z" transform="translate(-6.917)"/><path class="k" d="M46.37,44.638a22.445,22.445,0,0,0,5.915-13.714H32.656Z" transform="translate(-7.286 -6.9)"/><path class="k" d="M20.976,24.024V0A22.526,22.526,0,1,0,36.825,39.873Z"/></g></g><g transform="translate(59.342)"><path class="l" d="M77.76,193.474c0,.86.45,1.232,1.239,1.577v-3.235A1.6,1.6,0,0,0,77.76,193.474Z" transform="translate(1266.529 863.973)"/><path class="l" d="M104.426,241.469V244.8q1.617-.291,1.617-1.6C106.043,242.241,105.344,241.851,104.426,241.469Z" transform="translate(1243.851 821.746)"/><path class="l" d="M64.728,113H4.076A4.076,4.076,0,0,0,0,117.076v26.848A4.076,4.076,0,0,0,4.076,148H64.728a4.076,4.076,0,0,0,4.076-4.076V117.076A4.076,4.076,0,0,0,64.728,113Zm-35.885,5.916H46.152a2.244,2.244,0,0,1,0,4.487H28.843a2.244,2.244,0,0,1,0-4.487Zm-13.223,19.5v2.014a.619.619,0,0,1-.619.619H13.488a.619.619,0,0,1-.619-.619v-2.068a11.977,11.977,0,0,1-4.709-1.684.619.619,0,0,1-.223-.806l.811-1.583a.619.619,0,0,1,.895-.233,11.355,11.355,0,0,0,3.225,1.356v-4.067c-2.626-.738-4.514-1.7-4.514-4.394,0-2.521,1.552-4.476,4.514-5v-1.985a.619.619,0,0,1,.619-.619H15a.619.619,0,0,1,.619.619V121.9a10.4,10.4,0,0,1,3.934,1.411.619.619,0,0,1,.223.825l-.79,1.451a.619.619,0,0,1-.867.232,9.438,9.438,0,0,0-2.5-1.031v4.059c2.744.766,5.008,1.634,5.008,4.774C20.627,136.6,18.637,138.108,15.619,138.419ZM26.6,130.5a2.244,2.244,0,0,1,2.244-2.244H61.707a2.244,2.244,0,0,1,0,4.487H28.843A2.244,2.244,0,0,1,26.6,130.5Zm35.108,11.524H49.891a2.244,2.244,0,0,1,0-4.487H61.707a2.244,2.244,0,0,1,0,4.487Z" transform="translate(1332.658 931)"/></g></svg>