<svg xmlns="http://www.w3.org/2000/svg" viewBox="211 197 786 590">
  <defs>
    <style>
      .cls-1 {
        fill: #f2f5fa;
      }

      .cls-12, .cls-2 {
        fill: #fff;
      }

      .cls-2 {
        stroke: #ebf0f6;
      }

      .cls-13, .cls-2 {
        stroke-width: 2px;
      }

      .cls-3 {
        fill: #4b6179;
      }

      .cls-10, .cls-12, .cls-14, .cls-3 {
        stroke: rgba(0,0,0,0);
      }

      .cls-4 {
        fill: #67b931;
      }

      .cls-5 {
        fill: #efefef;
      }

      .cls-6 {
        fill: #ccd0d2;
      }

      .cls-7 {
        fill: #e2574c;
      }

      .cls-8 {
        fill: #f4b459;
      }

      .cls-9 {
        fill: #fafbfd;
        stroke: #e9eef8;
      }

      .cls-10 {
        fill: #a0b5c8;
      }

      .cls-11 {
        fill: #e36a73;
      }

      .cls-13, .cls-16 {
        fill: none;
      }

      .cls-13 {
        stroke: #ebf0f4;
      }

      .cls-14 {
        fill: #3ca2fd;
      }

      .cls-15 {
        stroke: none;
      }
    </style>
  </defs>
  <rect id="Rectangle_1" data-name="Rectangle 1" class="cls-1" width="786" height="590" transform="translate(211 197)"/>
  <g id="Rectangle_2" data-name="Rectangle 2" class="cls-2" transform="translate(305 325)">
    <path class="cls-15" d="M6,0H593a6,6,0,0,1,6,6V462a0,0,0,0,1,0,0H0a0,0,0,0,1,0,0V6A6,6,0,0,1,6,0Z"/>
    <path class="cls-16" d="M6,1H593a5,5,0,0,1,5,5V460a1,1,0,0,1-1,1H2a1,1,0,0,1-1-1V6A5,5,0,0,1,6,1Z"/>
  </g>
  <path id="Path_14" data-name="Path 14" class="cls-3" d="M15.735-8.313a11,11,0,0,1-.879,4.559,6.657,6.657,0,0,1-2.49,2.972A6.851,6.851,0,0,1,8.606.244,6.793,6.793,0,0,1,4.883-.787,6.816,6.816,0,0,1,2.362-3.729,10.549,10.549,0,0,1,1.44-8.154V-9.436a10.864,10.864,0,0,1,.891-4.529,6.792,6.792,0,0,1,2.521-3.009,6.764,6.764,0,0,1,3.729-1.044,6.89,6.89,0,0,1,3.766,1.031A6.645,6.645,0,0,1,14.856-14a11.048,11.048,0,0,1,.879,4.559ZM13.4-9.46a7.969,7.969,0,0,0-1.27-4.852A4.187,4.187,0,0,0,8.582-16a4.142,4.142,0,0,0-3.5,1.691A7.806,7.806,0,0,0,3.772-9.619v1.306A7.98,7.98,0,0,0,5.06-3.5,4.16,4.16,0,0,0,8.606-1.746,4.143,4.143,0,0,0,12.122-3.4,7.935,7.935,0,0,0,13.4-8.142ZM29.688,0H27.429V-5.64H21.362V0H19.092V-13.208h2.271v5.725h6.067v-5.725h2.258ZM44.141-13.208V0H41.87V-11.34H37.378L37.109-6.4a10.928,10.928,0,0,1-1.141,4.871A3.33,3.33,0,0,1,33.044,0h-.9V-1.99l.647-.049a1.867,1.867,0,0,0,1.575-1.27,14.312,14.312,0,0,0,.61-4.248l.244-5.652ZM55.92,0A4.744,4.744,0,0,1,55.6-1.392,5.039,5.039,0,0,1,51.843.244a4.662,4.662,0,0,1-3.2-1.1,3.574,3.574,0,0,1-1.251-2.8,3.734,3.734,0,0,1,1.569-3.2,7.4,7.4,0,0,1,4.413-1.141h2.2V-9.045a2.536,2.536,0,0,0-.708-1.886,2.845,2.845,0,0,0-2.087-.7,3.293,3.293,0,0,0-2.026.61,1.8,1.8,0,0,0-.818,1.477H47.656a3.117,3.117,0,0,1,.7-1.91,4.791,4.791,0,0,1,1.9-1.459,6.406,6.406,0,0,1,2.643-.537,5.221,5.221,0,0,1,3.577,1.141,4.117,4.117,0,0,1,1.343,3.143v6.079A7.432,7.432,0,0,0,58.289-.2V0ZM52.173-1.721a3.969,3.969,0,0,0,2.014-.549A3.323,3.323,0,0,0,55.566-3.7v-2.71H53.8q-4.15,0-4.15,2.429a2.056,2.056,0,0,0,.708,1.66A2.721,2.721,0,0,0,52.173-1.721ZM69.91-13.208h2.258V0H69.91V-9.631L63.818,0H61.56V-13.208h2.258v9.644Zm.61-4.81a3.025,3.025,0,0,1-1.007,2.374,3.824,3.824,0,0,1-2.643.9,3.831,3.831,0,0,1-2.649-.9,3.021,3.021,0,0,1-1.013-2.368h1.843a1.848,1.848,0,0,0,.464,1.337,1.794,1.794,0,0,0,1.355.482,1.82,1.82,0,0,0,1.337-.476,1.8,1.8,0,0,0,.482-1.343ZM86.584,0H84.326V-5.64H78.259V0H75.989V-13.208h2.271v5.725h6.067v-5.725h2.258ZM95.8-6.726a7.8,7.8,0,0,1,.763-3.491,5.691,5.691,0,0,1,2.124-2.393,5.782,5.782,0,0,1,3.107-.842,5.57,5.57,0,0,1,4.364,1.868,7.186,7.186,0,0,1,1.666,4.968v.159A7.869,7.869,0,0,1,107.086-3,5.608,5.608,0,0,1,104.974-.61a5.848,5.848,0,0,1-3.156.854,5.556,5.556,0,0,1-4.352-1.868A7.149,7.149,0,0,1,95.8-6.567Zm2.271.269A5.65,5.65,0,0,0,99.091-2.93,3.262,3.262,0,0,0,101.819-1.6a3.242,3.242,0,0,0,2.734-1.349,6.179,6.179,0,0,0,1.013-3.778,5.641,5.641,0,0,0-1.031-3.522,3.279,3.279,0,0,0-2.74-1.349,3.243,3.243,0,0,0-2.7,1.331A6.133,6.133,0,0,0,98.071-6.458ZM121.46,0H119.2V-11.34h-6.079V0h-2.271V-13.208H121.46Zm14.453-13.208V0h-2.271V-11.34H129.15L128.882-6.4a10.928,10.928,0,0,1-1.141,4.871A3.33,3.33,0,0,1,124.817,0h-.9V-1.99l.647-.049a1.867,1.867,0,0,0,1.575-1.27,14.312,14.312,0,0,0,.61-4.248l.244-5.652ZM147.693,0a4.744,4.744,0,0,1-.317-1.392,5.039,5.039,0,0,1-3.76,1.636,4.662,4.662,0,0,1-3.2-1.1,3.574,3.574,0,0,1-1.251-2.8,3.734,3.734,0,0,1,1.569-3.2,7.4,7.4,0,0,1,4.413-1.141h2.2V-9.045a2.536,2.536,0,0,0-.708-1.886,2.845,2.845,0,0,0-2.087-.7,3.293,3.293,0,0,0-2.026.61,1.8,1.8,0,0,0-.818,1.477h-2.271a3.117,3.117,0,0,1,.7-1.91,4.791,4.791,0,0,1,1.9-1.459,6.406,6.406,0,0,1,2.643-.537,5.221,5.221,0,0,1,3.577,1.141A4.117,4.117,0,0,1,149.6-9.167v6.079A7.432,7.432,0,0,0,150.061-.2V0Zm-3.748-1.721a3.969,3.969,0,0,0,2.014-.549A3.323,3.323,0,0,0,147.339-3.7v-2.71h-1.77q-4.15,0-4.15,2.429a2.056,2.056,0,0,0,.708,1.66A2.721,2.721,0,0,0,143.945-1.721Zm19.006-9.656h-4.431V0h-2.258V-11.377h-4.346v-1.831h11.035ZM173.3,0a4.744,4.744,0,0,1-.317-1.392,5.039,5.039,0,0,1-3.76,1.636,4.662,4.662,0,0,1-3.2-1.1,3.574,3.574,0,0,1-1.251-2.8,3.734,3.734,0,0,1,1.569-3.2,7.4,7.4,0,0,1,4.413-1.141h2.2V-9.045a2.536,2.536,0,0,0-.708-1.886,2.845,2.845,0,0,0-2.087-.7,3.293,3.293,0,0,0-2.026.61,1.8,1.8,0,0,0-.818,1.477h-2.271a3.117,3.117,0,0,1,.7-1.91,4.791,4.791,0,0,1,1.9-1.459,6.406,6.406,0,0,1,2.643-.537,5.221,5.221,0,0,1,3.577,1.141,4.117,4.117,0,0,1,1.343,3.143v6.079A7.432,7.432,0,0,0,175.671-.2V0Zm-3.748-1.721a3.969,3.969,0,0,0,2.014-.549A3.323,3.323,0,0,0,172.949-3.7v-2.71h-1.77q-4.15,0-4.15,2.429a2.056,2.056,0,0,0,.708,1.66A2.721,2.721,0,0,0,169.556-1.721Z" transform="translate(516 437)"/>
  <circle id="Ellipse_1" data-name="Ellipse 1" class="cls-4" cx="59.5" cy="59.5" r="59.5" transform="translate(545 266)"/>
  <g id="credit-card" transform="translate(572 206.538)">
    <path id="Path_1" data-name="Path 1" class="cls-5" d="M3.07,98.462H62.43a3.079,3.079,0,0,1,3.07,3.07v33.773a3.079,3.079,0,0,1-3.07,3.07H3.07A3.079,3.079,0,0,1,0,135.306V101.532A3.079,3.079,0,0,1,3.07,98.462Z"/>
    <path id="Path_2" data-name="Path 2" class="cls-6" d="M98.433,169.354H77.964a2.053,2.053,0,0,0-2.047,2.047v3.07a2.053,2.053,0,0,0,2.047,2.047H98.433a2.053,2.053,0,0,0,2.047-2.047V171.4A2.053,2.053,0,0,0,98.433,169.354Zm-28.656,0H49.308a2.053,2.053,0,0,0-2.047,2.047v3.07a2.053,2.053,0,0,0,2.047,2.047H69.777a2.053,2.053,0,0,0,2.047-2.047V171.4A2.053,2.053,0,0,0,69.777,169.354Z" transform="translate(-41.12 -61.681)"/>
    <path id="Path_3" data-name="Path 3" class="cls-7" d="M335.437,271.754a4.605,4.605,0,1,1-4.605,4.605A4.586,4.586,0,0,1,335.437,271.754Z" transform="translate(-287.847 -150.776)"/>
    <path id="Path_4" data-name="Path 4" class="cls-8" d="M390.574,271.754a4.605,4.605,0,1,1-4.605,4.605A4.586,4.586,0,0,1,390.574,271.754Z" transform="translate(-335.821 -150.776)"/>
    <path id="Path_5" data-name="Path 5" class="cls-6" d="M70.289,275.692H48.8a1.535,1.535,0,0,0,0,3.07H70.289a1.508,1.508,0,0,0,1.535-1.535A1.539,1.539,0,0,0,70.289,275.692Zm-9.211,5.117H48.8a1.535,1.535,0,1,0,0,3.07H61.078a1.508,1.508,0,0,0,1.535-1.535A1.54,1.54,0,0,0,61.078,280.809Z" transform="translate(-41.121 -154.203)"/>
  </g>
  <g id="Group_7" data-name="Group 7" transform="translate(0 -30)">
    <g id="Group_1" data-name="Group 1">
      <g id="Rectangle_3" data-name="Rectangle 3" class="cls-9" transform="translate(352 508)">
        <rect class="cls-15" width="155" height="144" rx="4"/>
        <rect class="cls-16" x="0.5" y="0.5" width="154" height="143" rx="3.5"/>
      </g>
      <path id="Path_6" data-name="Path 6" class="cls-10" d="M7.377-2.777A3.08,3.08,0,0,1,6.369-.647,3.436,3.436,0,0,1,4.031.117a3.327,3.327,0,0,1-1.8-.483,3.173,3.173,0,0,1-1.2-1.374A4.958,4.958,0,0,1,.6-3.809v-.8a4.994,4.994,0,0,1,.428-2.127A3.224,3.224,0,0,1,2.253-8.15a3.424,3.424,0,0,1,1.849-.5,3.29,3.29,0,0,1,2.273.768,3.207,3.207,0,0,1,1,2.168H5.9A2.107,2.107,0,0,0,5.364-7.04,1.772,1.772,0,0,0,4.1-7.447a1.732,1.732,0,0,0-1.485.706,3.526,3.526,0,0,0-.53,2.071v.756a3.741,3.741,0,0,0,.5,2.109,1.643,1.643,0,0,0,1.45.727,1.917,1.917,0,0,0,1.313-.393A2.047,2.047,0,0,0,5.9-2.777Zm4.395-1.295,1.711-4.459h1.646L12.158-1.453l-.27.533A2.013,2.013,0,0,1,9.99.123L9.381.088l.012-1.172a3.531,3.531,0,0,0,.5.023.909.909,0,0,0,.891-.539l.3-.721L8.168-8.531H9.785Zm6.41-4.459,2.461,6.539L23.1-8.531h1.916V0H23.537V-2.812l.146-3.762L21.164,0H20.1L17.59-6.568l.146,3.756V0H16.26V-8.531Zm10.506,0,2.461,6.539L33.6-8.531H35.52V0H34.043V-2.812l.146-3.762L31.67,0H30.609L28.1-6.568l.146,3.756V0H26.766V-8.531ZM42.047-1.986h-3.3L38.051,0H36.51l3.223-8.531h1.33L44.291,0H42.744Zm-2.889-1.2h2.473L40.395-6.721Z" transform="translate(407 546)"/>
      <path id="Path_7" data-name="Path 7" class="cls-3" d="M4.9-3.9H3.149V0H.952V-10.664H4.915a4.479,4.479,0,0,1,2.915.842,2.907,2.907,0,0,1,1.025,2.38,3.281,3.281,0,0,1-.472,1.82A3.222,3.222,0,0,1,6.951-4.46L9.258-.1V0H6.9Zm-1.75-1.78H4.922A1.815,1.815,0,0,0,6.2-6.1a1.505,1.505,0,0,0,.454-1.161,1.611,1.611,0,0,0-.428-1.187,1.781,1.781,0,0,0-1.315-.432H3.149ZM18.6-10.664V-3.64A3.6,3.6,0,0,1,17.5-.872,4.221,4.221,0,0,1,14.509.146a4.269,4.269,0,0,1-2.966-.989A3.535,3.535,0,0,1,10.422-3.56v-7.1h2.2v7.039a2.032,2.032,0,0,0,.5,1.527,1.926,1.926,0,0,0,1.388.48q1.853,0,1.882-1.948v-7.1ZM20.4,0V-10.664h3.735a4.9,4.9,0,0,1,2.944.743,2.542,2.542,0,0,1,1,2.179,2.409,2.409,0,0,1-.4,1.381,2.327,2.327,0,0,1-1.121.875,2.251,2.251,0,0,1,1.293.828,2.447,2.447,0,0,1,.472,1.523,2.814,2.814,0,0,1-.981,2.329,4.418,4.418,0,0,1-2.8.806Zm2.2-4.644v2.878h1.882a1.816,1.816,0,0,0,1.212-.37,1.268,1.268,0,0,0,.436-1.022,1.339,1.339,0,0,0-1.516-1.487Zm0-1.553h1.626q1.663-.029,1.663-1.326a1.225,1.225,0,0,0-.421-1.044,2.215,2.215,0,0,0-1.329-.319H22.6ZM39.741-4.014H40.95v1.707H39.741V0H37.625V-2.307H33.252l-.1-1.333L37.6-10.664h2.139Zm-4.475,0h2.358V-7.778l-.139.242ZM42.4-5.244l.615-5.42h5.977V-8.9H44.751l-.264,2.292a3.356,3.356,0,0,1,1.6-.4,3.074,3.074,0,0,1,2.388.945,3.774,3.774,0,0,1,.864,2.644,3.866,3.866,0,0,1-.436,1.849A3.076,3.076,0,0,1,47.659-.3a3.9,3.9,0,0,1-1.919.45,4.14,4.14,0,0,1-1.794-.392,3.183,3.183,0,0,1-1.307-1.1,3,3,0,0,1-.509-1.619h2.095a1.565,1.565,0,0,0,.465,1.036,1.474,1.474,0,0,0,1.044.37,1.3,1.3,0,0,0,1.106-.516,2.392,2.392,0,0,0,.388-1.461,1.978,1.978,0,0,0-.447-1.392,1.64,1.64,0,0,0-1.267-.483,1.832,1.832,0,0,0-1.223.4l-.205.19Zm14.033-5.53v1.743h-.205a3.6,3.6,0,0,0-2.311.747A3.035,3.035,0,0,0,52.866-6.27a2.883,2.883,0,0,1,2.146-.864,2.716,2.716,0,0,1,2.212,1,3.993,3.993,0,0,1,.82,2.622,3.928,3.928,0,0,1-.45,1.882A3.23,3.23,0,0,1,56.32-.322a3.7,3.7,0,0,1-1.864.469,3.458,3.458,0,0,1-2.721-1.172A4.549,4.549,0,0,1,50.7-4.153v-.762a6.846,6.846,0,0,1,.656-3.065,4.807,4.807,0,0,1,1.882-2.058,5.516,5.516,0,0,1,2.845-.736ZM54.368-5.435a1.689,1.689,0,0,0-.93.267,1.61,1.61,0,0,0-.615.707v.645a2.859,2.859,0,0,0,.417,1.659,1.348,1.348,0,0,0,1.172.6,1.333,1.333,0,0,0,1.1-.538,2.2,2.2,0,0,0,.421-1.4A2.194,2.194,0,0,0,55.51-4.9,1.384,1.384,0,0,0,54.368-5.435Zm5.566,8.108-1.106-.579.264-.476A3.806,3.806,0,0,0,59.6-.161V-1.8h1.787L61.377-.337a3.805,3.805,0,0,1-.41,1.641A4.206,4.206,0,0,1,59.934,2.673Zm9.287-6.687H70.43v1.707H69.221V0H67.1V-2.307H62.732l-.1-1.333,4.446-7.024h2.139Zm-4.475,0H67.1V-7.778l-.139.242Zm7.134-1.23.615-5.42h5.977V-8.9H74.231l-.264,2.292a3.356,3.356,0,0,1,1.6-.4,3.074,3.074,0,0,1,2.388.945,3.774,3.774,0,0,1,.864,2.644,3.866,3.866,0,0,1-.436,1.849A3.076,3.076,0,0,1,77.139-.3a3.9,3.9,0,0,1-1.919.45,4.14,4.14,0,0,1-1.794-.392,3.183,3.183,0,0,1-1.307-1.1,3,3,0,0,1-.509-1.619H73.7a1.565,1.565,0,0,0,.465,1.036,1.474,1.474,0,0,0,1.044.37,1.3,1.3,0,0,0,1.106-.516,2.392,2.392,0,0,0,.388-1.461,1.978,1.978,0,0,0-.447-1.392,1.64,1.64,0,0,0-1.267-.483,1.832,1.832,0,0,0-1.223.4l-.205.19Zm15.469.835a5.4,5.4,0,0,1-.916,3.384A3.2,3.2,0,0,1,83.752.146,3.218,3.218,0,0,1,81.086-1a5.244,5.244,0,0,1-.945-3.3V-6.262a5.331,5.331,0,0,1,.927-3.391,3.22,3.22,0,0,1,2.67-1.157A3.223,3.223,0,0,1,86.4-9.664a5.228,5.228,0,0,1,.945,3.292ZM85.232-6.562a3.9,3.9,0,0,0-.363-1.93,1.225,1.225,0,0,0-1.132-.6,1.2,1.2,0,0,0-1.1.575,3.648,3.648,0,0,0-.377,1.8v2.593a4.092,4.092,0,0,0,.355,1.937,1.209,1.209,0,0,0,1.139.634,1.189,1.189,0,0,0,1.121-.608,3.994,3.994,0,0,0,.359-1.86ZM88.975-1.04a1.066,1.066,0,0,1,.341-.82,1.208,1.208,0,0,1,.853-.315,1.218,1.218,0,0,1,.861.315,1.066,1.066,0,0,1,.341.82,1.051,1.051,0,0,1-.337.809,1.223,1.223,0,0,1-.864.311,1.213,1.213,0,0,1-.857-.311A1.051,1.051,0,0,1,88.975-1.04Zm11.338-3.369A5.4,5.4,0,0,1,99.4-1.025,3.2,3.2,0,0,1,96.716.146,3.218,3.218,0,0,1,94.05-1a5.244,5.244,0,0,1-.945-3.3V-6.262a5.331,5.331,0,0,1,.927-3.391,3.22,3.22,0,0,1,2.67-1.157,3.223,3.223,0,0,1,2.666,1.146,5.228,5.228,0,0,1,.945,3.292ZM98.2-6.562a3.9,3.9,0,0,0-.363-1.93A1.225,1.225,0,0,0,96.7-9.1a1.2,1.2,0,0,0-1.1.575,3.648,3.648,0,0,0-.377,1.8v2.593a4.092,4.092,0,0,0,.355,1.937,1.209,1.209,0,0,0,1.139.634,1.189,1.189,0,0,0,1.121-.608,3.994,3.994,0,0,0,.359-1.86Zm10.723,2.153A5.4,5.4,0,0,1,108-1.025,3.2,3.2,0,0,1,105.322.146,3.218,3.218,0,0,1,102.656-1a5.244,5.244,0,0,1-.945-3.3V-6.262a5.331,5.331,0,0,1,.927-3.391,3.22,3.22,0,0,1,2.67-1.157,3.223,3.223,0,0,1,2.666,1.146,5.228,5.228,0,0,1,.945,3.292ZM106.8-6.562a3.9,3.9,0,0,0-.363-1.93,1.225,1.225,0,0,0-1.132-.6,1.2,1.2,0,0,0-1.1.575,3.648,3.648,0,0,0-.377,1.8v2.593a4.092,4.092,0,0,0,.355,1.937,1.209,1.209,0,0,0,1.139.634,1.189,1.189,0,0,0,1.121-.608,3.994,3.994,0,0,0,.359-1.86Z" transform="translate(375 600)"/>
    </g>
    <g id="Group_5" data-name="Group 5">
      <g id="Rectangle_5" data-name="Rectangle 5" class="cls-9" transform="translate(702 508)">
        <rect class="cls-15" width="155" height="144" rx="4"/>
        <rect class="cls-16" x="0.5" y="0.5" width="154" height="143" rx="3.5"/>
      </g>
      <path id="Path_10" data-name="Path 10" class="cls-10" d="M2.35-3.17V0H.867V-8.531H4.131A3.3,3.3,0,0,1,6.4-7.787a2.5,2.5,0,0,1,.841,1.969,2.418,2.418,0,0,1-.823,1.951,3.463,3.463,0,0,1-2.306.7Zm0-1.189H4.131a1.754,1.754,0,0,0,1.207-.372,1.367,1.367,0,0,0,.416-1.075,1.475,1.475,0,0,0-.422-1.1,1.626,1.626,0,0,0-1.16-.425H2.35Zm11.174.551h-3.5v2.625h4.1V0H8.537V-8.531h5.537v1.2H10.02V-4.98h3.5Zm7.254-3.527H16.84V0H15.363V-8.531h5.414Zm6.457-1.2h1.482V0H27.234V-6.076L23.49,0H22.008V-8.531H23.49v6.082ZM37-2.777a3.08,3.08,0,0,1-1.008,2.13,3.436,3.436,0,0,1-2.338.765,3.327,3.327,0,0,1-1.8-.483,3.173,3.173,0,0,1-1.2-1.374,4.958,4.958,0,0,1-.439-2.068v-.8a4.994,4.994,0,0,1,.428-2.127A3.224,3.224,0,0,1,31.878-8.15a3.424,3.424,0,0,1,1.849-.5A3.29,3.29,0,0,1,36-7.881a3.207,3.207,0,0,1,1,2.168H35.525a2.107,2.107,0,0,0-.536-1.327,1.772,1.772,0,0,0-1.263-.407,1.732,1.732,0,0,0-1.485.706,3.526,3.526,0,0,0-.53,2.071v.756a3.741,3.741,0,0,0,.5,2.109,1.643,1.643,0,0,0,1.45.727,1.917,1.917,0,0,0,1.313-.393,2.047,2.047,0,0,0,.557-1.307ZM44.49-7.336H41.83V0H40.359V-7.336H37.723v-1.2H44.49Zm2.6,4.166V0H45.609V-8.531h3.264a3.3,3.3,0,0,1,2.271.744,2.5,2.5,0,0,1,.841,1.969,2.418,2.418,0,0,1-.823,1.951,3.463,3.463,0,0,1-2.306.7Zm0-1.189h1.781a1.754,1.754,0,0,0,1.207-.372A1.367,1.367,0,0,0,50.5-5.807a1.475,1.475,0,0,0-.422-1.1,1.626,1.626,0,0,0-1.16-.425H47.092ZM58.055-1.986h-3.3L54.059,0H52.518L55.74-8.531h1.33L60.3,0H58.752Zm-2.889-1.2h2.473L56.4-6.721Zm6.088-5.35h1.482v7.348h3.756V-8.531h1.482V-1.2h1.031l-.117,3.252H67.529V0H61.254Zm14.2,0h1.482V0H75.451V-6.076L71.707,0H70.225V-8.531h1.482v6.082ZM82.916,0V-3.187H81.264L79.617,0H78.029l1.9-3.627a2.381,2.381,0,0,1-1.488-2.3,2.364,2.364,0,0,1,.806-1.907A3.417,3.417,0,0,1,81.5-8.531h2.9V0ZM79.922-5.865a1.521,1.521,0,0,0,.4,1.125,1.647,1.647,0,0,0,1.213.4h1.377v-3H81.539a1.674,1.674,0,0,0-1.219.393A1.445,1.445,0,0,0,79.922-5.865Z" transform="translate(737 546)"/>
      <path id="Path_11" data-name="Path 11" class="cls-3" d="M8.035,0H.725V-1.45l3.45-3.677A8.51,8.51,0,0,0,5.226-6.482a2.177,2.177,0,0,0,.341-1.1A1.629,1.629,0,0,0,5.208-8.7,1.3,1.3,0,0,0,4.182-9.1a1.4,1.4,0,0,0-1.132.494,1.958,1.958,0,0,0-.414,1.3H.513a3.5,3.5,0,0,1,.465-1.78,3.278,3.278,0,0,1,1.315-1.263,4,4,0,0,1,1.926-.458,3.784,3.784,0,0,1,2.56.791A2.8,2.8,0,0,1,7.69-7.786a3.586,3.586,0,0,1-.41,1.611A8.954,8.954,0,0,1,5.874-4.263L3.45-1.707H8.035Zm7.559-4.014H16.8v1.707H15.593V0H13.477V-2.307H9.1l-.1-1.333,4.446-7.024h2.139Zm-4.475,0h2.358V-7.778l-.139.242ZM27.92-2.2H24.067L23.335,0H21l3.97-10.664H27L31,0H28.66Zm-3.259-1.78h2.666l-1.34-3.992ZM38.745,0H36.621V-6.211H33.97V0H31.853V-7.925h6.892ZM47.5-3.889a4.753,4.753,0,0,1-.831,2.933,2.665,2.665,0,0,1-2.245,1.1A2.469,2.469,0,0,1,42.48-.688V3.047H40.364V-7.925h1.963l.073.776a2.488,2.488,0,0,1,2.007-.923,2.683,2.683,0,0,1,2.278,1.084A4.882,4.882,0,0,1,47.5-4Zm-2.117-.154a3.119,3.119,0,0,0-.392-1.707,1.276,1.276,0,0,0-1.139-.6,1.386,1.386,0,0,0-1.37.762v3.245a1.41,1.41,0,0,0,1.384.784Q45.381-1.56,45.381-4.043ZM52.456.146A3.89,3.89,0,0,1,49.618-.923a3.8,3.8,0,0,1-1.095-2.849v-.205a4.787,4.787,0,0,1,.461-2.135,3.386,3.386,0,0,1,1.307-1.45,3.669,3.669,0,0,1,1.93-.509,3.289,3.289,0,0,1,2.56,1.025,4.167,4.167,0,0,1,.934,2.908v.864H50.669a1.966,1.966,0,0,0,.619,1.245A1.871,1.871,0,0,0,52.6-1.56a2.285,2.285,0,0,0,1.912-.886l1.04,1.165A3.178,3.178,0,0,1,54.258-.231,4.229,4.229,0,0,1,52.456.146Zm-.242-6.5a1.326,1.326,0,0,0-1.022.425,2.195,2.195,0,0,0-.5,1.216h2.944v-.168a1.565,1.565,0,0,0-.381-1.088A1.368,1.368,0,0,0,52.214-6.357ZM63.809-7.925V0H61.692V-6.211H59.824l-.132,2.446a5.566,5.566,0,0,1-.769,2.849A2.265,2.265,0,0,1,57,0h-.718l-.022-1.721.264-.022a.965.965,0,0,0,.835-.674,6.916,6.916,0,0,0,.33-2.146l.146-3.362Zm8.24,0V0H69.939V-2.739H68.6L67.075,0H64.929l1.729-3.1a2.621,2.621,0,0,1-1.095-.894,2.222,2.222,0,0,1-.385-1.282,2.338,2.338,0,0,1,.89-1.886,3.744,3.744,0,0,1,2.384-.765Zm-3.56,3.706h1.45V-6.226H68.562a1.371,1.371,0,0,0-.916.3.911.911,0,0,0-.352.721.874.874,0,0,0,.337.7A1.332,1.332,0,0,0,68.489-4.219ZM84.785,0h-7.31V-1.45l3.45-3.677a8.51,8.51,0,0,0,1.051-1.355,2.177,2.177,0,0,0,.341-1.1A1.629,1.629,0,0,0,81.958-8.7,1.3,1.3,0,0,0,80.933-9.1,1.4,1.4,0,0,0,79.8-8.61a1.958,1.958,0,0,0-.414,1.3H77.263a3.5,3.5,0,0,1,.465-1.78,3.278,3.278,0,0,1,1.315-1.263,4,4,0,0,1,1.926-.458,3.784,3.784,0,0,1,2.56.791,2.8,2.8,0,0,1,.912,2.234,3.586,3.586,0,0,1-.41,1.611,8.954,8.954,0,0,1-1.406,1.912L80.2-1.707h4.585Zm8.474-4.409a5.4,5.4,0,0,1-.916,3.384A3.2,3.2,0,0,1,89.663.146,3.218,3.218,0,0,1,87-1a5.244,5.244,0,0,1-.945-3.3V-6.262a5.331,5.331,0,0,1,.927-3.391,3.22,3.22,0,0,1,2.67-1.157,3.223,3.223,0,0,1,2.666,1.146,5.228,5.228,0,0,1,.945,3.292ZM91.143-6.562a3.9,3.9,0,0,0-.363-1.93,1.225,1.225,0,0,0-1.132-.6,1.2,1.2,0,0,0-1.1.575,3.648,3.648,0,0,0-.377,1.8v2.593a4.092,4.092,0,0,0,.355,1.937,1.209,1.209,0,0,0,1.139.634,1.189,1.189,0,0,0,1.121-.608,3.994,3.994,0,0,0,.359-1.86ZM99.829,0H97.712V-8.159l-2.527.784V-9.1L99.6-10.679h.227Zm3.779-5.244.615-5.42H110.2V-8.9h-4.241L105.7-6.606a3.356,3.356,0,0,1,1.6-.4,3.074,3.074,0,0,1,2.388.945,3.774,3.774,0,0,1,.864,2.644,3.866,3.866,0,0,1-.436,1.849A3.076,3.076,0,0,1,108.867-.3a3.9,3.9,0,0,1-1.919.45,4.14,4.14,0,0,1-1.794-.392,3.183,3.183,0,0,1-1.307-1.1,3,3,0,0,1-.509-1.619h2.095A1.565,1.565,0,0,0,105.9-1.93a1.474,1.474,0,0,0,1.044.37,1.3,1.3,0,0,0,1.106-.516,2.392,2.392,0,0,0,.388-1.461,1.978,1.978,0,0,0-.447-1.392,1.64,1.64,0,0,0-1.267-.483,1.832,1.832,0,0,0-1.223.4l-.205.19Z" transform="translate(724 600)"/>
    </g>
    <g id="Group_4" data-name="Group 4">
      <g id="Rectangle_4" data-name="Rectangle 4" class="cls-9" transform="translate(527 508)">
        <rect class="cls-15" width="155" height="144.473" rx="4"/>
        <rect class="cls-16" x="0.5" y="0.5" width="154" height="143.473" rx="3.5"/>
      </g>
      <g id="Group_3" data-name="Group 3">
        <path id="Path_9" data-name="Path 9" class="cls-10" d="M7.377-2.777A3.08,3.08,0,0,1,6.369-.647,3.436,3.436,0,0,1,4.031.117a3.327,3.327,0,0,1-1.8-.483,3.173,3.173,0,0,1-1.2-1.374A4.958,4.958,0,0,1,.6-3.809v-.8a4.994,4.994,0,0,1,.428-2.127A3.224,3.224,0,0,1,2.253-8.15a3.424,3.424,0,0,1,1.849-.5,3.29,3.29,0,0,1,2.273.768,3.207,3.207,0,0,1,1,2.168H5.9A2.107,2.107,0,0,0,5.364-7.04,1.772,1.772,0,0,0,4.1-7.447a1.732,1.732,0,0,0-1.485.706,3.526,3.526,0,0,0-.53,2.071v.756a3.741,3.741,0,0,0,.5,2.109,1.643,1.643,0,0,0,1.45.727,1.917,1.917,0,0,0,1.313-.393A2.047,2.047,0,0,0,5.9-2.777Zm4.395-1.295,1.711-4.459h1.646L12.158-1.453l-.27.533A2.013,2.013,0,0,1,9.99.123L9.381.088l.012-1.172a3.531,3.531,0,0,0,.5.023.909.909,0,0,0,.891-.539l.3-.721L8.168-8.531H9.785Zm6.41-4.459,2.461,6.539L23.1-8.531h1.916V0H23.537V-2.812l.146-3.762L21.164,0H20.1L17.59-6.568l.146,3.756V0H16.26V-8.531Zm10.506,0,2.461,6.539L33.6-8.531H35.52V0H34.043V-2.812l.146-3.762L31.67,0H30.609L28.1-6.568l.146,3.756V0H26.766V-8.531ZM42.047-1.986h-3.3L38.051,0H36.51l3.223-8.531h1.33L44.291,0H42.744Zm-2.889-1.2h2.473L40.395-6.721Z" transform="translate(582 546)"/>
        <g id="Group_2" data-name="Group 2">
          <circle id="Ellipse_2" data-name="Ellipse 2" class="cls-11" cx="23" cy="23" r="23" transform="translate(581 561)"/>
          <path id="Path_15" data-name="Path 15" class="cls-12" d="M1.56-14.28V0h1.9V-6.1H8.1a2.522,2.522,0,0,1,1.12.21,1.875,1.875,0,0,1,.68.56,2.322,2.322,0,0,1,.38.82q.12.47.2.99a6.971,6.971,0,0,1,.12,1.06q.02.54.04,1.01a6.163,6.163,0,0,0,.09.85A1.192,1.192,0,0,0,11,0h2.12a2.441,2.441,0,0,1-.45-.83,6.505,6.505,0,0,1-.23-.99,9.207,9.207,0,0,1-.1-1.06q-.02-.54-.06-1.06a9.192,9.192,0,0,0-.17-1,3.035,3.035,0,0,0-.34-.87,2.192,2.192,0,0,0-.62-.67,2.544,2.544,0,0,0-1.01-.4v-.04a3.037,3.037,0,0,0,1.89-1.34,4.334,4.334,0,0,0,.59-2.28,3.442,3.442,0,0,0-1.15-2.74,4.7,4.7,0,0,0-3.19-1ZM7.42-7.7H3.46v-4.98H8.18a2.466,2.466,0,0,1,1.94.68,2.562,2.562,0,0,1,.6,1.76,2.62,2.62,0,0,1-.27,1.27,2.136,2.136,0,0,1-.72.78,2.749,2.749,0,0,1-1.05.39A7.659,7.659,0,0,1,7.42-7.7Z" transform="translate(597 592)"/>
        </g>
        <path id="Path_8" data-name="Path 8" class="cls-3" d="M2.729-3.256V0H.825V-9.242H4.431a4.171,4.171,0,0,1,1.831.381A2.807,2.807,0,0,1,7.478-7.779a3.018,3.018,0,0,1,.425,1.6,2.654,2.654,0,0,1-.93,2.142A3.873,3.873,0,0,1,4.4-3.256Zm0-1.542h1.7a1.673,1.673,0,0,0,1.152-.355,1.293,1.293,0,0,0,.4-1.016,1.524,1.524,0,0,0-.4-1.1,1.494,1.494,0,0,0-1.1-.432H2.729ZM8.8-3.5A4.073,4.073,0,0,1,9.2-5.319a2.881,2.881,0,0,1,1.133-1.238A3.306,3.306,0,0,1,12.048-7a3.128,3.128,0,0,1,2.269.851A3.414,3.414,0,0,1,15.3-3.834l.013.47a3.59,3.59,0,0,1-.882,2.536,3.067,3.067,0,0,1-2.368.955A3.082,3.082,0,0,1,9.69-.825,3.653,3.653,0,0,1,8.8-3.415Zm1.834.133a2.56,2.56,0,0,0,.368,1.495,1.215,1.215,0,0,0,1.054.517A1.218,1.218,0,0,0,13.1-1.863,2.8,2.8,0,0,0,13.476-3.5,2.535,2.535,0,0,0,13.1-4.983a1.218,1.218,0,0,0-1.054-.527,1.2,1.2,0,0,0-1.041.524A2.849,2.849,0,0,0,10.639-3.364Zm9.985,1.2,1.8-4.7h2.3V0H22.883V-4.215L21.239,0H20.008L18.4-4.145V0H16.561V-6.868H18.84ZM30.291,0a2.037,2.037,0,0,1-.184-.616,2.22,2.22,0,0,1-1.733.743A2.439,2.439,0,0,1,26.7-.457a1.878,1.878,0,0,1-.663-1.473,1.941,1.941,0,0,1,.809-1.676,3.994,3.994,0,0,1,2.339-.59h.844v-.394a1.132,1.132,0,0,0-.244-.762.961.961,0,0,0-.771-.286,1.093,1.093,0,0,0-.727.222.755.755,0,0,0-.263.609H26.19a1.843,1.843,0,0,1,.368-1.1,2.434,2.434,0,0,1,1.041-.8A3.794,3.794,0,0,1,29.11-7a3,3,0,0,1,2.015.638,2.232,2.232,0,0,1,.746,1.793v2.977a3.284,3.284,0,0,0,.273,1.479V0ZM28.774-1.276a1.58,1.58,0,0,0,.749-.181,1.188,1.188,0,0,0,.508-.486V-3.123h-.686q-1.377,0-1.466.952l-.006.108a.734.734,0,0,0,.241.565A.937.937,0,0,0,28.774-1.276ZM39.235,0H37.394V-2.641H35.115V0H33.281V-6.868h1.834v2.755h2.279V-6.868h1.841Zm10.81-7.7H45.919v1.79H47.4a3.935,3.935,0,0,1,2.587.79,2.62,2.62,0,0,1,.955,2.13A2.709,2.709,0,0,1,50-.828,3.786,3.786,0,0,1,47.474,0H44V-9.242h6.049ZM45.919-4.374V-1.53h1.517a1.653,1.653,0,0,0,1.165-.4A1.387,1.387,0,0,0,49.036-3,1.254,1.254,0,0,0,48.62-4a1.715,1.715,0,0,0-1.139-.378ZM56.018,0a2.037,2.037,0,0,1-.184-.616A2.22,2.22,0,0,1,54.1.127a2.439,2.439,0,0,1-1.673-.584,1.878,1.878,0,0,1-.663-1.473,1.941,1.941,0,0,1,.809-1.676,3.994,3.994,0,0,1,2.339-.59h.844v-.394a1.132,1.132,0,0,0-.244-.762.961.961,0,0,0-.771-.286,1.093,1.093,0,0,0-.727.222.755.755,0,0,0-.263.609H51.917a1.843,1.843,0,0,1,.368-1.1,2.434,2.434,0,0,1,1.041-.8A3.794,3.794,0,0,1,54.837-7a3,3,0,0,1,2.015.638A2.232,2.232,0,0,1,57.6-4.564v2.977a3.284,3.284,0,0,0,.273,1.479V0ZM54.5-1.276a1.58,1.58,0,0,0,.749-.181,1.188,1.188,0,0,0,.508-.486V-3.123h-.686q-1.377,0-1.466.952l-.006.108a.734.734,0,0,0,.241.565A.937.937,0,0,0,54.5-1.276Zm6.341-5.592v5.389h1.885V-6.868h1.841v5.389h1.885V-6.868h1.834V0h-9.28V-6.868Zm11.61,4.335h-.736V0H69.881V-6.868h1.834v2.583h.654l1.5-2.583h2.317L73.938-3.6,76.394,0H73.95ZM80.247.127A3.372,3.372,0,0,1,77.787-.8a3.294,3.294,0,0,1-.949-2.469v-.178a4.149,4.149,0,0,1,.4-1.85,2.935,2.935,0,0,1,1.133-1.257A3.18,3.18,0,0,1,80.044-7a2.85,2.85,0,0,1,2.219.889,3.611,3.611,0,0,1,.809,2.52v.749H78.7a1.7,1.7,0,0,0,.536,1.079,1.621,1.621,0,0,0,1.133.406,1.98,1.98,0,0,0,1.657-.768l.9,1.009A2.754,2.754,0,0,1,81.809-.2,3.665,3.665,0,0,1,80.247.127ZM80.038-5.51a1.149,1.149,0,0,0-.885.368,1.9,1.9,0,0,0-.435,1.054h2.552v-.146a1.356,1.356,0,0,0-.33-.943A1.186,1.186,0,0,0,80.038-5.51Zm9.775.114h-2.2V0H85.77V-5.4H83.6V-6.868h6.208Z" transform="translate(560 631.017)"/>
      </g>
    </g>
  </g>
  <line id="Line_1" data-name="Line 1" class="cls-13" x2="505" transform="translate(352.5 649.5)"/>
  <g id="Group_6" data-name="Group 6" transform="translate(0 -30)">
    <path id="Path_12" data-name="Path 12" class="cls-14" d="M5.877-8.531H7.641V0H5.877V-5.666L2.461,0H.7V-8.531H2.461v5.678ZM14.549,0h-1.7V-2.437h-2.1V0H9.053V-6.34h1.693V-3.8h2.1V-6.34h1.7Zm1.061-3.123a4.208,4.208,0,0,1,.624-2.432,1.979,1.979,0,0,1,1.72-.9,1.767,1.767,0,0,1,.779.17V-9h1.693v2.719a1.819,1.819,0,0,1,.8-.176,1.987,1.987,0,0,1,1.726.9A4.454,4.454,0,0,1,23.578-3a3.726,3.726,0,0,1-.627,2.276A2.02,2.02,0,0,1,21.24.117a1.957,1.957,0,0,1-.814-.164V2.438H18.732V-.041a1.907,1.907,0,0,1-.791.158A2.012,2.012,0,0,1,16.295-.65a3.507,3.507,0,0,1-.68-2.1Zm6.27,0a3,3,0,0,0-.287-1.456.89.89,0,0,0-.809-.507,1.731,1.731,0,0,0-.357.041v3.768a1.768,1.768,0,0,0,.369.035q1,0,1.078-1.512ZM17.3-3q0,1.752,1.072,1.752a1.747,1.747,0,0,0,.357-.029V-5.045a1.685,1.685,0,0,0-.346-.041.88.88,0,0,0-.8.5A3.374,3.374,0,0,0,17.3-3Zm7.061-.229a3.76,3.76,0,0,1,.363-1.682,2.659,2.659,0,0,1,1.046-1.143,3.051,3.051,0,0,1,1.585-.4,2.887,2.887,0,0,1,2.095.785,3.151,3.151,0,0,1,.905,2.133l.012.434a3.314,3.314,0,0,1-.814,2.341,2.831,2.831,0,0,1-2.186.882,2.845,2.845,0,0,1-2.188-.879,3.372,3.372,0,0,1-.817-2.391Zm1.693.123a2.363,2.363,0,0,0,.34,1.38,1.122,1.122,0,0,0,.973.478,1.124,1.124,0,0,0,.961-.472,2.586,2.586,0,0,0,.346-1.509A2.34,2.34,0,0,0,28.33-4.6a1.124,1.124,0,0,0-.973-.486A1.106,1.106,0,0,0,26.4-4.6,2.63,2.63,0,0,0,26.057-3.105Zm11.063-.006a3.8,3.8,0,0,1-.665,2.347,2.132,2.132,0,0,1-1.8.882,1.975,1.975,0,0,1-1.553-.668V2.438H31.412V-6.34h1.57l.059.621a1.99,1.99,0,0,1,1.605-.738,2.147,2.147,0,0,1,1.822.867,3.905,3.905,0,0,1,.65,2.391Zm-1.693-.123A2.5,2.5,0,0,0,35.112-4.6a1.021,1.021,0,0,0-.911-.48,1.109,1.109,0,0,0-1.1.609v2.6a1.128,1.128,0,0,0,1.107.627Q35.426-1.248,35.426-3.234ZM42.029-2,43.688-6.34h2.121V0H44.115V-3.891L42.6,0H41.461L39.973-3.826V0H38.279V-6.34h2.1Zm8.924,2a1.88,1.88,0,0,1-.17-.568,2.049,2.049,0,0,1-1.6.686A2.251,2.251,0,0,1,47.64-.422a1.734,1.734,0,0,1-.612-1.359,1.792,1.792,0,0,1,.747-1.547,3.686,3.686,0,0,1,2.159-.545h.779v-.363a1.045,1.045,0,0,0-.226-.7.887.887,0,0,0-.712-.264A1.009,1.009,0,0,0,49.1-5a.7.7,0,0,0-.243.563H47.168a1.7,1.7,0,0,1,.34-1.02,2.246,2.246,0,0,1,.961-.735,3.5,3.5,0,0,1,1.395-.267,2.767,2.767,0,0,1,1.86.589,2.06,2.06,0,0,1,.688,1.655v2.748A3.031,3.031,0,0,0,52.664-.1V0Zm-1.4-1.178a1.458,1.458,0,0,0,.691-.167,1.1,1.1,0,0,0,.469-.448v-1.09H50.08q-1.271,0-1.354.879l-.006.1a.678.678,0,0,0,.223.521A.865.865,0,0,0,49.553-1.178Zm4.16-5.162h1.693v4.975h2.121V-6.34h1.7v4.986h.949l-.117,3.234H58.482V0h-4.77Zm11.133,0h1.693V0H64.846V-3.914L62.725,0h-1.7V-6.34h1.7v3.908Zm8.273,0V0H71.432V-2.191H70.359L69.141,0H67.424l1.383-2.479a2.1,2.1,0,0,1-.876-.715,1.777,1.777,0,0,1-.308-1.025,1.871,1.871,0,0,1,.712-1.509,3,3,0,0,1,1.907-.612ZM70.271-3.375h1.16V-4.98h-1.1a1.1,1.1,0,0,0-.732.237.729.729,0,0,0-.281.577.7.7,0,0,0,.27.563A1.065,1.065,0,0,0,70.271-3.375Zm7,.146a3.76,3.76,0,0,1,.363-1.682,2.659,2.659,0,0,1,1.046-1.143,3.051,3.051,0,0,1,1.585-.4,2.887,2.887,0,0,1,2.095.785,3.151,3.151,0,0,1,.905,2.133l.012.434a3.314,3.314,0,0,1-.814,2.341,2.831,2.831,0,0,1-2.186.882,2.845,2.845,0,0,1-2.188-.879,3.372,3.372,0,0,1-.817-2.391Zm1.693.123a2.363,2.363,0,0,0,.34,1.38,1.122,1.122,0,0,0,.973.478,1.124,1.124,0,0,0,.961-.472,2.586,2.586,0,0,0,.346-1.509A2.34,2.34,0,0,0,81.234-4.6a1.124,1.124,0,0,0-.973-.486A1.106,1.106,0,0,0,79.3-4.6,2.63,2.63,0,0,0,78.961-3.105Zm8.5-2.883a2.486,2.486,0,0,1,1.945.809,3.166,3.166,0,0,1,.727,2.2V-2.9a3.006,3.006,0,0,1-.809,2.2,2.9,2.9,0,0,1-2.174.826A2.8,2.8,0,0,1,84.97-.771,3.476,3.476,0,0,1,84.158-3.2V-3.48a6.7,6.7,0,0,1,.724-3.349,3.165,3.165,0,0,1,2.142-1.526,2.943,2.943,0,0,0,.967-.325.527.527,0,0,0,.217-.448h1.371a1.8,1.8,0,0,1-.5,1.383,3.681,3.681,0,0,1-1.761.715,2.241,2.241,0,0,0-1.184.592A2.337,2.337,0,0,0,85.553-5.2,2.651,2.651,0,0,1,87.463-5.988Zm-.322,1.371a1.174,1.174,0,0,0-.946.4A2.021,2.021,0,0,0,85.852-2.9a1.962,1.962,0,0,0,.334,1.233,1.156,1.156,0,0,0,.967.425,1.147,1.147,0,0,0,.949-.416,1.946,1.946,0,0,0,.34-1.225v-.141A1.8,1.8,0,0,0,88.1-4.21,1.184,1.184,0,0,0,87.141-4.617Zm6.732,1.389a3.76,3.76,0,0,1,.363-1.682,2.659,2.659,0,0,1,1.046-1.143,3.051,3.051,0,0,1,1.585-.4,2.887,2.887,0,0,1,2.095.785,3.151,3.151,0,0,1,.905,2.133l.012.434a3.314,3.314,0,0,1-.814,2.341,2.831,2.831,0,0,1-2.186.882A2.845,2.845,0,0,1,94.69-.762a3.372,3.372,0,0,1-.817-2.391Zm1.693.123a2.363,2.363,0,0,0,.34,1.38,1.122,1.122,0,0,0,.973.478,1.124,1.124,0,0,0,.961-.472,2.586,2.586,0,0,0,.346-1.509A2.34,2.34,0,0,0,97.84-4.6a1.124,1.124,0,0,0-.973-.486,1.106,1.106,0,0,0-.961.483A2.63,2.63,0,0,0,95.566-3.105ZM106.436,0h-1.7V-4.969h-2.121V0h-1.693V-6.34h5.514Zm6.809-6.34V0h-1.693V-4.969h-1.494l-.105,1.957a4.453,4.453,0,0,1-.615,2.279A1.812,1.812,0,0,1,107.8,0h-.574l-.018-1.377.211-.018a.772.772,0,0,0,.668-.539,5.533,5.533,0,0,0,.264-1.717l.117-2.689ZM118.225,0a1.88,1.88,0,0,1-.17-.568,2.049,2.049,0,0,1-1.6.686,2.251,2.251,0,0,1-1.544-.539,1.734,1.734,0,0,1-.612-1.359,1.792,1.792,0,0,1,.747-1.547,3.686,3.686,0,0,1,2.159-.545h.779v-.363a1.045,1.045,0,0,0-.226-.7.887.887,0,0,0-.712-.264,1.009,1.009,0,0,0-.671.205.7.7,0,0,0-.243.563h-1.693a1.7,1.7,0,0,1,.34-1.02,2.246,2.246,0,0,1,.961-.735,3.5,3.5,0,0,1,1.395-.267,2.767,2.767,0,0,1,1.86.589,2.06,2.06,0,0,1,.688,1.655v2.748A3.031,3.031,0,0,0,119.936-.1V0Zm-1.4-1.178a1.458,1.458,0,0,0,.691-.167,1.1,1.1,0,0,0,.469-.448v-1.09h-.633Q116.08-2.883,116-2l-.006.1a.678.678,0,0,0,.223.521A.865.865,0,0,0,116.824-1.178Zm9.422-3.8h-2.033V0h-1.7V-4.98h-2V-6.34h5.73Zm3.768,5.1a3.112,3.112,0,0,1-2.271-.855,3.041,3.041,0,0,1-.876-2.279v-.164a3.83,3.83,0,0,1,.369-1.708,2.709,2.709,0,0,1,1.046-1.16,2.936,2.936,0,0,1,1.544-.407,2.631,2.631,0,0,1,2.048.82,3.333,3.333,0,0,1,.747,2.326v.691h-4.037a1.573,1.573,0,0,0,.5,1,1.5,1.5,0,0,0,1.046.375,1.828,1.828,0,0,0,1.529-.709l.832.932a2.542,2.542,0,0,1-1.031.841A3.383,3.383,0,0,1,130.014.117Zm-.193-5.2a1.06,1.06,0,0,0-.817.34,1.756,1.756,0,0,0-.4.973h2.355v-.135a1.252,1.252,0,0,0-.3-.87A1.094,1.094,0,0,0,129.82-5.086Z" transform="translate(353 718)"/>
    <path id="Path_13" data-name="Path 13" class="cls-10" d="M7.547,0H6.416V-3.943h-4.3V0H.99V-8.531H2.115v3.668h4.3V-8.531H7.547Zm5.742,0a2.277,2.277,0,0,1-.152-.668,2.419,2.419,0,0,1-1.8.785,2.238,2.238,0,0,1-1.538-.53,1.716,1.716,0,0,1-.6-1.345A1.792,1.792,0,0,1,9.946-3.3a3.55,3.55,0,0,1,2.118-.548h1.055v-.5a1.217,1.217,0,0,0-.34-.905,1.366,1.366,0,0,0-1-.337,1.581,1.581,0,0,0-.973.293.863.863,0,0,0-.393.709H9.322A1.5,1.5,0,0,1,9.659-5.5a2.3,2.3,0,0,1,.914-.7,3.075,3.075,0,0,1,1.269-.258,2.506,2.506,0,0,1,1.717.548A1.976,1.976,0,0,1,14.2-4.4v2.918a3.567,3.567,0,0,0,.223,1.389V0Zm-1.8-.826a1.905,1.905,0,0,0,.967-.264,1.6,1.6,0,0,0,.662-.686v-1.3h-.85q-1.992,0-1.992,1.166a.987.987,0,0,0,.34.8A1.306,1.306,0,0,0,11.49-.826Zm5.6-5.514V-.885h2.32V-6.34H20.49V-.885H22.8V-6.34h1.09V0H16V-6.34Zm12.621,0h1.084V0H29.707V-4.623L26.783,0H25.7V-6.34h1.084v4.629Zm7.869,4.752L39.053-6.34h1.16L37.664.979q-.592,1.582-1.881,1.582l-.205-.018-.4-.076V1.588l.293.023a1.442,1.442,0,0,0,.858-.223,1.611,1.611,0,0,0,.507-.814l.24-.645L34.811-6.34h1.184Zm6.146.82a1.561,1.561,0,0,0,1.014-.352A1.237,1.237,0,0,0,45.217-2h1.025a1.966,1.966,0,0,1-.375,1.037,2.47,2.47,0,0,1-.923.785,2.663,2.663,0,0,1-1.222.293,2.612,2.612,0,0,1-2.06-.864A3.442,3.442,0,0,1,40.9-3.111v-.182a3.817,3.817,0,0,1,.34-1.646,2.588,2.588,0,0,1,.976-1.119,2.771,2.771,0,0,1,1.5-.4,2.543,2.543,0,0,1,1.772.639,2.283,2.283,0,0,1,.753,1.658H45.217a1.494,1.494,0,0,0-.466-1.011,1.449,1.449,0,0,0-1.034-.4,1.517,1.517,0,0,0-1.28.595,2.793,2.793,0,0,0-.454,1.72v.205a2.737,2.737,0,0,0,.451,1.688A1.524,1.524,0,0,0,43.723-.768ZM52.658-6.34V0h-1.09V-5.443H49.412L49.283-3.07a5.245,5.245,0,0,1-.548,2.338,1.6,1.6,0,0,1-1.4.732H46.9V-.955l.311-.023a.9.9,0,0,0,.756-.609,6.87,6.87,0,0,0,.293-2.039l.117-2.713Zm3.814,4.752L57.949-6.34h1.16L56.561.979q-.592,1.582-1.881,1.582l-.205-.018-.4-.076V1.588l.293.023a1.442,1.442,0,0,0,.858-.223,1.611,1.611,0,0,0,.507-.814l.24-.645L53.707-6.34h1.184Zm7.7-3.855H61.248V0h-1.09V-6.34h4.014Zm5.039-.9h1.084V0H69.211V-4.623L66.287,0H65.2V-6.34h1.084v4.629Zm9.445,4.9,2.156-4.9h1.354V0H81.082V-4.611L79.031,0h-.75L76.189-4.711V0H75.105V-6.34h1.406Zm4.963-1.793A3.745,3.745,0,0,1,83.985-4.9,2.732,2.732,0,0,1,85-6.053a2.775,2.775,0,0,1,1.491-.4,2.674,2.674,0,0,1,2.095.9,3.449,3.449,0,0,1,.8,2.385V-3.1a3.777,3.777,0,0,1-.354,1.661A2.692,2.692,0,0,1,88.022-.293a2.807,2.807,0,0,1-1.515.41,2.667,2.667,0,0,1-2.089-.9,3.432,3.432,0,0,1-.8-2.373Zm1.09.129A2.712,2.712,0,0,0,85.2-1.406a1.566,1.566,0,0,0,1.31.639,1.556,1.556,0,0,0,1.313-.647,2.966,2.966,0,0,0,.486-1.813,2.708,2.708,0,0,0-.5-1.69A1.574,1.574,0,0,0,86.5-5.566a1.557,1.557,0,0,0-1.295.639A2.944,2.944,0,0,0,84.709-3.1Zm11.1.346h-.762V0H93.961V-2.754H93.2L91.424,0H90.053L92.32-3.281,90.27-6.34h1.313l1.635,2.625h.744V-6.34h1.084v2.625h.738L97.43-6.34h1.313L96.686-3.275,98.953,0H97.582ZM105.117,0h-1.084V-2.707h-2.912V0h-1.09V-6.34h1.09v2.748h2.912V-6.34h1.084Zm1.453-3.229a3.745,3.745,0,0,1,.366-1.676,2.732,2.732,0,0,1,1.02-1.148,2.775,2.775,0,0,1,1.491-.4,2.674,2.674,0,0,1,2.095.9,3.449,3.449,0,0,1,.8,2.385V-3.1a3.777,3.777,0,0,1-.354,1.661,2.692,2.692,0,0,1-1.014,1.146,2.807,2.807,0,0,1-1.515.41,2.667,2.667,0,0,1-2.089-.9,3.432,3.432,0,0,1-.8-2.373Zm1.09.129a2.712,2.712,0,0,0,.489,1.693,1.566,1.566,0,0,0,1.31.639,1.556,1.556,0,0,0,1.313-.647,2.966,2.966,0,0,0,.486-1.813,2.708,2.708,0,0,0-.5-1.69,1.574,1.574,0,0,0-1.315-.647,1.557,1.557,0,0,0-1.295.639A2.944,2.944,0,0,0,107.66-3.1Zm8.725-.129a3.745,3.745,0,0,1,.366-1.676,2.732,2.732,0,0,1,1.02-1.148,2.775,2.775,0,0,1,1.491-.4,2.674,2.674,0,0,1,2.095.9,3.449,3.449,0,0,1,.8,2.385V-3.1a3.777,3.777,0,0,1-.354,1.661,2.692,2.692,0,0,1-1.014,1.146,2.807,2.807,0,0,1-1.515.41,2.667,2.667,0,0,1-2.089-.9,3.432,3.432,0,0,1-.8-2.373Zm1.09.129a2.712,2.712,0,0,0,.489,1.693,1.566,1.566,0,0,0,1.31.639,1.556,1.556,0,0,0,1.313-.647,2.966,2.966,0,0,0,.486-1.813,2.708,2.708,0,0,0-.5-1.69,1.574,1.574,0,0,0-1.315-.647,1.557,1.557,0,0,0-1.295.639A2.944,2.944,0,0,0,117.475-3.1ZM128.7,0h-1.084V-5.443H124.7V0h-1.09V-6.34H128.7Zm6.938-6.34V0h-1.09V-5.443h-2.156l-.129,2.373a5.245,5.245,0,0,1-.548,2.338,1.6,1.6,0,0,1-1.4.732h-.434V-.955l.311-.023a.9.9,0,0,0,.756-.609,6.87,6.87,0,0,0,.293-2.039l.117-2.713ZM141.293,0a2.277,2.277,0,0,1-.152-.668,2.419,2.419,0,0,1-1.8.785,2.238,2.238,0,0,1-1.538-.53,1.716,1.716,0,0,1-.6-1.345A1.792,1.792,0,0,1,137.95-3.3a3.55,3.55,0,0,1,2.118-.548h1.055v-.5a1.217,1.217,0,0,0-.34-.905,1.366,1.366,0,0,0-1-.337,1.581,1.581,0,0,0-.973.293.863.863,0,0,0-.393.709h-1.09a1.5,1.5,0,0,1,.337-.917,2.3,2.3,0,0,1,.914-.7,3.075,3.075,0,0,1,1.269-.258,2.506,2.506,0,0,1,1.717.548,1.976,1.976,0,0,1,.645,1.509v2.918a3.567,3.567,0,0,0,.223,1.389V0Zm-1.8-.826a1.905,1.905,0,0,0,.967-.264,1.6,1.6,0,0,0,.662-.686v-1.3h-.85q-1.992,0-1.992,1.166a.987.987,0,0,0,.34.8A1.306,1.306,0,0,0,139.494-.826Zm9.123-4.635H146.49V0h-1.084V-5.461H143.32V-6.34h5.3Zm5.156-.879h1.084V0h-1.084V-4.623L150.85,0h-1.084V-6.34h1.084v4.629Zm7.535.879h-2.127V0H158.1V-5.461h-2.086V-6.34h5.3Zm2.238,1.307h1.646a2.537,2.537,0,0,1,1.705.563,1.887,1.887,0,0,1,.627,1.494,1.941,1.941,0,0,1-.645,1.523A2.512,2.512,0,0,1,165.146,0h-2.684V-6.34h1.084Zm0,.885V-.885h1.611A1.326,1.326,0,0,0,166.1-1.2a1.12,1.12,0,0,0,.334-.858,1.193,1.193,0,0,0-.325-.864,1.244,1.244,0,0,0-.911-.349Zm11.086-2.707a2.445,2.445,0,0,1,1.913.8,3.035,3.035,0,0,1,.718,2.106v.1a3.6,3.6,0,0,1-.346,1.6,2.562,2.562,0,0,1-.993,1.1,2.835,2.835,0,0,1-1.491.39,2.654,2.654,0,0,1-2.057-.853,3.26,3.26,0,0,1-.779-2.288v-.527a5.916,5.916,0,0,1,.741-3.176,3.106,3.106,0,0,1,2.188-1.436,2.906,2.906,0,0,0,1.107-.357.68.68,0,0,0,.287-.58h.891a1.773,1.773,0,0,1-.331,1.143,1.849,1.849,0,0,1-1.058.58l-.809.182a2.722,2.722,0,0,0-1.45.771,2.788,2.788,0,0,0-.63,1.444A2.674,2.674,0,0,1,174.633-5.977Zm-.211.891a1.6,1.6,0,0,0-1.266.536,2.181,2.181,0,0,0-.469,1.485v.094a2.529,2.529,0,0,0,.472,1.614,1.541,1.541,0,0,0,1.274.595,1.536,1.536,0,0,0,1.277-.6,2.785,2.785,0,0,0,.469-1.746,2.113,2.113,0,0,0-.472-1.438A1.617,1.617,0,0,0,174.422-5.086ZM182.4,0a2.277,2.277,0,0,1-.152-.668,2.419,2.419,0,0,1-1.8.785,2.238,2.238,0,0,1-1.538-.53,1.716,1.716,0,0,1-.6-1.345,1.792,1.792,0,0,1,.753-1.538,3.55,3.55,0,0,1,2.118-.548h1.055v-.5a1.217,1.217,0,0,0-.34-.905,1.366,1.366,0,0,0-1-.337,1.581,1.581,0,0,0-.973.293.863.863,0,0,0-.393.709h-1.09a1.5,1.5,0,0,1,.337-.917,2.3,2.3,0,0,1,.914-.7,3.075,3.075,0,0,1,1.269-.258,2.506,2.506,0,0,1,1.717.548,1.976,1.976,0,0,1,.645,1.509v2.918a3.567,3.567,0,0,0,.223,1.389V0Zm-1.8-.826a1.905,1.905,0,0,0,.967-.264,1.6,1.6,0,0,0,.662-.686v-1.3h-.85q-1.992,0-1.992,1.166a.987.987,0,0,0,.34.8A1.306,1.306,0,0,0,180.6-.826ZM190.189,0h-1.084V-2.707h-2.912V0H185.1V-6.34h1.09v2.748h2.912V-6.34h1.084ZM193.9-2.7h-.791V0h-1.09V-6.34h1.09v2.684h.709l2.133-2.684h1.313L194.76-3.293,197.479,0H196.1Zm4.219-.527a3.745,3.745,0,0,1,.366-1.676,2.732,2.732,0,0,1,1.02-1.148,2.775,2.775,0,0,1,1.491-.4,2.674,2.674,0,0,1,2.095.9,3.449,3.449,0,0,1,.8,2.385V-3.1a3.777,3.777,0,0,1-.354,1.661,2.692,2.692,0,0,1-1.014,1.146,2.807,2.807,0,0,1-1.515.41,2.667,2.667,0,0,1-2.089-.9,3.432,3.432,0,0,1-.8-2.373Zm1.09.129a2.712,2.712,0,0,0,.489,1.693,1.566,1.566,0,0,0,1.31.639,1.556,1.556,0,0,0,1.313-.647,2.966,2.966,0,0,0,.486-1.813,2.708,2.708,0,0,0-.5-1.69A1.574,1.574,0,0,0,201-5.566a1.557,1.557,0,0,0-1.295.639A2.944,2.944,0,0,0,199.213-3.1ZM205.354,0V-6.34h2.473a3.552,3.552,0,0,1,1.942.442,1.453,1.453,0,0,1,.677,1.3,1.3,1.3,0,0,1-.264.794,1.633,1.633,0,0,1-.779.542,1.723,1.723,0,0,1,.923.527,1.364,1.364,0,0,1,.349.938,1.546,1.546,0,0,1-.642,1.336A3.061,3.061,0,0,1,208.219,0Zm1.084-2.783v1.91h1.793a1.691,1.691,0,0,0,1.017-.252.834.834,0,0,0,.337-.709q0-.949-1.395-.949Zm0-.867h1.4q1.523,0,1.523-.891t-1.441-.92h-1.482Zm8.215,2.883a1.561,1.561,0,0,0,1.014-.352,1.237,1.237,0,0,0,.48-.879h1.025A1.966,1.966,0,0,1,216.8-.961a2.47,2.47,0,0,1-.923.785,2.663,2.663,0,0,1-1.222.293,2.612,2.612,0,0,1-2.06-.864,3.442,3.442,0,0,1-.765-2.364v-.182a3.817,3.817,0,0,1,.34-1.646,2.588,2.588,0,0,1,.976-1.119,2.771,2.771,0,0,1,1.5-.4,2.543,2.543,0,0,1,1.772.639,2.283,2.283,0,0,1,.753,1.658h-1.025a1.494,1.494,0,0,0-.466-1.011,1.449,1.449,0,0,0-1.034-.4,1.517,1.517,0,0,0-1.28.595,2.793,2.793,0,0,0-.454,1.72v.205a2.737,2.737,0,0,0,.451,1.688A1.524,1.524,0,0,0,214.652-.768ZM220.365-2.7h-.791V0h-1.09V-6.34h1.09v2.684h.709l2.133-2.684h1.313l-2.508,3.047L223.939,0h-1.377Zm4.219-.527A3.745,3.745,0,0,1,224.95-4.9a2.732,2.732,0,0,1,1.02-1.148,2.775,2.775,0,0,1,1.491-.4,2.674,2.674,0,0,1,2.095.9,3.449,3.449,0,0,1,.8,2.385V-3.1A3.777,3.777,0,0,1,230-1.438a2.692,2.692,0,0,1-1.014,1.146,2.807,2.807,0,0,1-1.515.41,2.667,2.667,0,0,1-2.089-.9,3.432,3.432,0,0,1-.8-2.373Zm1.09.129a2.712,2.712,0,0,0,.489,1.693,1.566,1.566,0,0,0,1.31.639,1.556,1.556,0,0,0,1.313-.647,2.966,2.966,0,0,0,.486-1.813,2.708,2.708,0,0,0-.5-1.69,1.574,1.574,0,0,0-1.315-.647,1.557,1.557,0,0,0-1.295.639A2.944,2.944,0,0,0,225.674-3.1Zm10.143-3.24H236.9V0h-1.084V-4.623L232.893,0h-1.084V-6.34h1.084v4.629Zm.293-2.309a1.452,1.452,0,0,1-.483,1.14,1.836,1.836,0,0,1-1.269.431,1.839,1.839,0,0,1-1.271-.434,1.45,1.45,0,0,1-.486-1.137h.885a.887.887,0,0,0,.223.642.861.861,0,0,0,.65.231A.874.874,0,0,0,235-8a.865.865,0,0,0,.231-.645ZM243.586-2.7h-.791V0h-1.09V-6.34h1.09v2.684h.709l2.133-2.684h1.313l-2.508,3.047L247.16,0h-1.377Zm8.42,2.7a2.277,2.277,0,0,1-.152-.668,2.419,2.419,0,0,1-1.8.785,2.238,2.238,0,0,1-1.538-.53,1.716,1.716,0,0,1-.6-1.345,1.792,1.792,0,0,1,.753-1.538,3.55,3.55,0,0,1,2.118-.548h1.055v-.5a1.217,1.217,0,0,0-.34-.905,1.366,1.366,0,0,0-1-.337,1.581,1.581,0,0,0-.973.293.863.863,0,0,0-.393.709h-1.09a1.5,1.5,0,0,1,.337-.917,2.3,2.3,0,0,1,.914-.7,3.075,3.075,0,0,1,1.269-.258,2.506,2.506,0,0,1,1.717.548A1.976,1.976,0,0,1,252.92-4.4v2.918a3.567,3.567,0,0,0,.223,1.389V0Zm-1.8-.826a1.905,1.905,0,0,0,.967-.264,1.6,1.6,0,0,0,.662-.686v-1.3h-.85q-1.992,0-1.992,1.166a.987.987,0,0,0,.34.8A1.306,1.306,0,0,0,250.207-.826ZM259.975-3.1a3.8,3.8,0,0,1-.662,2.332,2.122,2.122,0,0,1-1.793.885A2.325,2.325,0,0,1,255.7-.615V2.438h-1.084V-6.34h.99l.053.7a2.233,2.233,0,0,1,1.84-.82,2.162,2.162,0,0,1,1.808.861,3.838,3.838,0,0,1,.665,2.4Zm-1.084-.123a2.8,2.8,0,0,0-.457-1.693,1.472,1.472,0,0,0-1.254-.621,1.593,1.593,0,0,0-1.477.873v3.029a1.6,1.6,0,0,0,1.488.867,1.465,1.465,0,0,0,1.239-.618A3.058,3.058,0,0,0,258.891-3.223Zm7.172-2.238h-2.127V0h-1.084V-5.461h-2.086V-6.34h5.3Zm.768,2.232A3.745,3.745,0,0,1,267.2-4.9a2.732,2.732,0,0,1,1.02-1.148,2.775,2.775,0,0,1,1.491-.4,2.674,2.674,0,0,1,2.095.9,3.449,3.449,0,0,1,.8,2.385V-3.1a3.777,3.777,0,0,1-.354,1.661,2.692,2.692,0,0,1-1.014,1.146,2.807,2.807,0,0,1-1.515.41,2.667,2.667,0,0,1-2.089-.9,3.432,3.432,0,0,1-.8-2.373Zm1.09.129a2.712,2.712,0,0,0,.489,1.693,1.566,1.566,0,0,0,1.31.639,1.556,1.556,0,0,0,1.313-.647,2.966,2.966,0,0,0,.486-1.813,2.708,2.708,0,0,0-.5-1.69,1.574,1.574,0,0,0-1.315-.647,1.557,1.557,0,0,0-1.295.639A2.944,2.944,0,0,0,267.92-3.1Zm10.143-3.24h1.084V0h-1.084V-4.623L275.139,0h-1.084V-6.34h1.084v4.629Zm.293-2.309a1.452,1.452,0,0,1-.483,1.14,1.836,1.836,0,0,1-1.269.431,1.839,1.839,0,0,1-1.271-.434,1.45,1.45,0,0,1-.486-1.137h.885a.887.887,0,0,0,.223.642.861.861,0,0,0,.65.231A.874.874,0,0,0,277.245-8a.865.865,0,0,0,.231-.645Zm8.5,7.154,2.438-7.037h1.23L287.355,0h-1L283.2-8.531h1.225ZM292.869,0h-1.125V-8.531h1.125Zm4.57-3.8a5.29,5.29,0,0,1-2.106-1.022,1.954,1.954,0,0,1-.659-1.5,2.064,2.064,0,0,1,.806-1.667,3.2,3.2,0,0,1,2.095-.659,3.5,3.5,0,0,1,1.567.34,2.577,2.577,0,0,1,1.066.938,2.4,2.4,0,0,1,.378,1.307h-1.131a1.552,1.552,0,0,0-.492-1.216,2.006,2.006,0,0,0-1.389-.442,2.052,2.052,0,0,0-1.3.366,1.221,1.221,0,0,0-.466,1.017,1.1,1.1,0,0,0,.442.882,4.343,4.343,0,0,0,1.506.659,6.973,6.973,0,0,1,1.664.659,2.525,2.525,0,0,1,.891.841,2.146,2.146,0,0,1,.29,1.131,1.993,1.993,0,0,1-.809,1.661,3.448,3.448,0,0,1-2.162.624,4.01,4.01,0,0,1-1.641-.337,2.761,2.761,0,0,1-1.175-.923,2.252,2.252,0,0,1-.413-1.33h1.131a1.469,1.469,0,0,0,.571,1.222,2.4,2.4,0,0,0,1.526.448A2.211,2.211,0,0,0,299-1.166a1.18,1.18,0,0,0,.475-.99,1.158,1.158,0,0,0-.439-.97A5.066,5.066,0,0,0,297.439-3.8Zm9.316,1.576h-3.574L302.379,0h-1.16l3.258-8.531h.984L308.725,0H307.57Zm-3.234-.926h2.9l-1.453-3.99ZM309.668,1.7l-.615-.422A2.827,2.827,0,0,0,309.627-.3v-.979h1.061v.85A2.669,2.669,0,0,1,310.4.75,2.771,2.771,0,0,1,309.668,1.7Zm6.984-10.23,2.789,6.961,2.789-6.961h1.459V0h-1.125V-3.322l.105-3.586L319.869,0h-.861l-2.795-6.891.111,3.568V0H315.2V-8.531ZM329.42,0a2.277,2.277,0,0,1-.152-.668,2.419,2.419,0,0,1-1.8.785,2.238,2.238,0,0,1-1.538-.53,1.716,1.716,0,0,1-.6-1.345,1.792,1.792,0,0,1,.753-1.538,3.55,3.55,0,0,1,2.118-.548h1.055v-.5a1.217,1.217,0,0,0-.34-.905,1.366,1.366,0,0,0-1-.337,1.581,1.581,0,0,0-.973.293.863.863,0,0,0-.393.709h-1.09a1.5,1.5,0,0,1,.337-.917,2.3,2.3,0,0,1,.914-.7,3.075,3.075,0,0,1,1.269-.258,2.506,2.506,0,0,1,1.717.548,1.976,1.976,0,0,1,.645,1.509v2.918a3.567,3.567,0,0,0,.223,1.389V0Zm-1.8-.826a1.905,1.905,0,0,0,.967-.264,1.6,1.6,0,0,0,.662-.686v-1.3h-.85q-1.992,0-1.992,1.166a.987.987,0,0,0,.34.8A1.306,1.306,0,0,0,327.621-.826Zm8.1-.855a.8.8,0,0,0-.331-.683,3.187,3.187,0,0,0-1.154-.419,5.457,5.457,0,0,1-1.307-.422,1.859,1.859,0,0,1-.715-.586,1.4,1.4,0,0,1-.231-.809,1.645,1.645,0,0,1,.659-1.318,2.574,2.574,0,0,1,1.685-.539,2.649,2.649,0,0,1,1.749.557,1.768,1.768,0,0,1,.671,1.424h-1.09a.979.979,0,0,0-.378-.768,1.416,1.416,0,0,0-.952-.322,1.482,1.482,0,0,0-.926.258.812.812,0,0,0-.334.674.658.658,0,0,0,.311.592,3.821,3.821,0,0,0,1.122.381,5.847,5.847,0,0,1,1.315.434,1.919,1.919,0,0,1,.747.606,1.491,1.491,0,0,1,.243.864,1.623,1.623,0,0,1-.68,1.362,2.851,2.851,0,0,1-1.764.513,3.193,3.193,0,0,1-1.348-.27,2.192,2.192,0,0,1-.917-.753,1.815,1.815,0,0,1-.331-1.046h1.084a1.122,1.122,0,0,0,.437.864,1.693,1.693,0,0,0,1.075.319,1.748,1.748,0,0,0,.987-.249A.765.765,0,0,0,335.725-1.682Zm3.967-6.193V-6.34h1.184V-5.5h-1.184V-1.57A.878.878,0,0,0,339.85-1a.666.666,0,0,0,.539.19,2.624,2.624,0,0,0,.516-.07V0a3.143,3.143,0,0,1-.832.117,1.35,1.35,0,0,1-1.1-.439,1.888,1.888,0,0,1-.369-1.248V-5.5h-1.154V-6.34h1.154V-7.875Zm5.08,7.992a2.77,2.77,0,0,1-2.1-.847,3.142,3.142,0,0,1-.809-2.265v-.2a3.8,3.8,0,0,1,.36-1.685,2.811,2.811,0,0,1,1.008-1.16,2.534,2.534,0,0,1,1.4-.419,2.374,2.374,0,0,1,1.922.814,3.526,3.526,0,0,1,.686,2.332v.451h-4.295a2.254,2.254,0,0,0,.548,1.515,1.722,1.722,0,0,0,1.333.577A1.888,1.888,0,0,0,345.8-1a2.444,2.444,0,0,0,.7-.621l.662.516A2.662,2.662,0,0,1,344.771.117Zm-.135-5.684a1.446,1.446,0,0,0-1.1.478,2.321,2.321,0,0,0-.551,1.339h3.176v-.082a2.065,2.065,0,0,0-.445-1.28A1.361,1.361,0,0,0,344.637-5.566Zm6.926.2a3.248,3.248,0,0,0-.533-.041,1.428,1.428,0,0,0-1.447.908V0H348.5V-6.34h1.055l.018.732a1.688,1.688,0,0,1,1.512-.85,1.107,1.107,0,0,1,.48.082ZM359-2.707a3.139,3.139,0,0,1-1,2.089,3.274,3.274,0,0,1-2.235.735,3.006,3.006,0,0,1-2.423-1.084,4.361,4.361,0,0,1-.911-2.9v-.82a4.861,4.861,0,0,1,.425-2.092,3.173,3.173,0,0,1,1.2-1.386,3.353,3.353,0,0,1,1.8-.483,3.083,3.083,0,0,1,2.18.759,3.176,3.176,0,0,1,.955,2.1h-1.131a2.44,2.44,0,0,0-.636-1.477,1.927,1.927,0,0,0-1.368-.457,2.013,2.013,0,0,0-1.69.8,3.656,3.656,0,0,0-.612,2.268v.826a3.758,3.758,0,0,0,.58,2.209,1.875,1.875,0,0,0,1.623.82,2.165,2.165,0,0,0,1.438-.425,2.357,2.357,0,0,0,.665-1.479ZM364.283,0a2.277,2.277,0,0,1-.152-.668,2.419,2.419,0,0,1-1.8.785,2.238,2.238,0,0,1-1.538-.53,1.716,1.716,0,0,1-.6-1.345A1.792,1.792,0,0,1,360.94-3.3a3.55,3.55,0,0,1,2.118-.548h1.055v-.5a1.217,1.217,0,0,0-.34-.905,1.366,1.366,0,0,0-1-.337,1.581,1.581,0,0,0-.973.293.863.863,0,0,0-.393.709h-1.09a1.5,1.5,0,0,1,.337-.917,2.3,2.3,0,0,1,.914-.7,3.075,3.075,0,0,1,1.269-.258,2.506,2.506,0,0,1,1.717.548A1.976,1.976,0,0,1,365.2-4.4v2.918a3.567,3.567,0,0,0,.223,1.389V0Zm-1.8-.826a1.905,1.905,0,0,0,.967-.264,1.6,1.6,0,0,0,.662-.686v-1.3h-.85q-1.992,0-1.992,1.166a.987.987,0,0,0,.34.8A1.306,1.306,0,0,0,362.484-.826Zm7.477-4.541a3.248,3.248,0,0,0-.533-.041,1.428,1.428,0,0,0-1.447.908V0H366.9V-6.34h1.055l.018.732a1.688,1.688,0,0,1,1.512-.85,1.107,1.107,0,0,1,.48.082Zm.732,2.145a3.714,3.714,0,0,1,.691-2.347,2.186,2.186,0,0,1,1.811-.888,2.2,2.2,0,0,1,1.764.762V-9h1.084V0h-1l-.053-.68a2.208,2.208,0,0,1-1.811.8,2.165,2.165,0,0,1-1.8-.9,3.756,3.756,0,0,1-.694-2.355Zm1.084.123a2.812,2.812,0,0,0,.445,1.688,1.44,1.44,0,0,0,1.23.609,1.581,1.581,0,0,0,1.506-.926V-4.641a1.593,1.593,0,0,0-1.494-.9,1.446,1.446,0,0,0-1.242.615A3.1,3.1,0,0,0,371.777-3.1ZM7.506,16H6.375V8.395H2.168V16H1.043V7.469H7.506Zm7.23-3.1a3.8,3.8,0,0,1-.662,2.332,2.122,2.122,0,0,1-1.793.885,2.325,2.325,0,0,1-1.816-.732v3.053H9.381V9.66h.99l.053.7a2.233,2.233,0,0,1,1.84-.82,2.162,2.162,0,0,1,1.808.861,3.838,3.838,0,0,1,.665,2.4Zm-1.084-.123a2.8,2.8,0,0,0-.457-1.693,1.472,1.472,0,0,0-1.254-.621,1.593,1.593,0,0,0-1.477.873v3.029a1.6,1.6,0,0,0,1.488.867,1.465,1.465,0,0,0,1.239-.618A3.058,3.058,0,0,0,13.652,12.777Zm2.174-.006a3.745,3.745,0,0,1,.366-1.676,2.732,2.732,0,0,1,1.02-1.148,2.775,2.775,0,0,1,1.491-.4,2.674,2.674,0,0,1,2.095.9,3.449,3.449,0,0,1,.8,2.385V12.9a3.777,3.777,0,0,1-.354,1.661,2.692,2.692,0,0,1-1.014,1.146,2.807,2.807,0,0,1-1.515.41,2.667,2.667,0,0,1-2.089-.9,3.432,3.432,0,0,1-.8-2.373Zm1.09.129a2.712,2.712,0,0,0,.489,1.693,1.658,1.658,0,0,0,2.622-.009,2.966,2.966,0,0,0,.486-1.813,2.708,2.708,0,0,0-.5-1.69,1.574,1.574,0,0,0-1.315-.647,1.557,1.557,0,0,0-1.295.639A2.944,2.944,0,0,0,16.916,12.9ZM23.057,16V9.66h2.473a3.552,3.552,0,0,1,1.942.442,1.453,1.453,0,0,1,.677,1.3,1.3,1.3,0,0,1-.264.794,1.633,1.633,0,0,1-.779.542,1.723,1.723,0,0,1,.923.527,1.364,1.364,0,0,1,.349.938,1.546,1.546,0,0,1-.642,1.336A3.061,3.061,0,0,1,25.922,16Zm1.084-2.783v1.91h1.793a1.691,1.691,0,0,0,1.017-.252.834.834,0,0,0,.337-.709q0-.949-1.395-.949Zm0-.867h1.4q1.523,0,1.523-.891t-1.441-.92H24.141Zm8.3,3.768a2.77,2.77,0,0,1-2.1-.847,3.142,3.142,0,0,1-.809-2.265v-.2a3.8,3.8,0,0,1,.36-1.685,2.811,2.811,0,0,1,1.008-1.16,2.534,2.534,0,0,1,1.4-.419,2.374,2.374,0,0,1,1.922.814,3.526,3.526,0,0,1,.686,2.332v.451H30.621a2.254,2.254,0,0,0,.548,1.515,1.722,1.722,0,0,0,1.333.577A1.888,1.888,0,0,0,33.475,15a2.444,2.444,0,0,0,.7-.621l.662.516A2.662,2.662,0,0,1,32.443,16.117Zm-.135-5.684a1.446,1.446,0,0,0-1.1.478,2.321,2.321,0,0,0-.551,1.339h3.176v-.082a2.065,2.065,0,0,0-.445-1.28A1.361,1.361,0,0,0,32.309,10.434ZM41.525,12.9a3.8,3.8,0,0,1-.662,2.332,2.122,2.122,0,0,1-1.793.885,2.325,2.325,0,0,1-1.816-.732v3.053H36.17V9.66h.99l.053.7a2.233,2.233,0,0,1,1.84-.82,2.162,2.162,0,0,1,1.808.861,3.838,3.838,0,0,1,.665,2.4Zm-1.084-.123a2.8,2.8,0,0,0-.457-1.693,1.472,1.472,0,0,0-1.254-.621,1.593,1.593,0,0,0-1.477.873v3.029a1.6,1.6,0,0,0,1.488.867,1.465,1.465,0,0,0,1.239-.618A3.058,3.058,0,0,0,40.441,12.777Zm3.645-.932h1.646a2.537,2.537,0,0,1,1.705.563,1.887,1.887,0,0,1,.627,1.494,1.941,1.941,0,0,1-.645,1.523A2.512,2.512,0,0,1,45.686,16H43V9.66h1.084Zm0,.885v2.385H45.7a1.326,1.326,0,0,0,.943-.313,1.12,1.12,0,0,0,.334-.858,1.193,1.193,0,0,0-.325-.864,1.244,1.244,0,0,0-.911-.349Zm9.633-2.191H51.592V16H50.508V10.539H48.422V9.66h5.3ZM57.4,16.117a2.77,2.77,0,0,1-2.1-.847,3.142,3.142,0,0,1-.809-2.265v-.2a3.8,3.8,0,0,1,.36-1.685,2.811,2.811,0,0,1,1.008-1.16,2.534,2.534,0,0,1,1.4-.419,2.374,2.374,0,0,1,1.922.814,3.526,3.526,0,0,1,.686,2.332v.451H55.582a2.254,2.254,0,0,0,.548,1.515,1.722,1.722,0,0,0,1.333.577A1.888,1.888,0,0,0,58.436,15a2.444,2.444,0,0,0,.7-.621l.662.516A2.662,2.662,0,0,1,57.4,16.117Zm-.135-5.684a1.446,1.446,0,0,0-1.1.478,2.321,2.321,0,0,0-.551,1.339h3.176v-.082a2.065,2.065,0,0,0-.445-1.28A1.361,1.361,0,0,0,57.27,10.434ZM61.1,17.7l-.615-.422a2.827,2.827,0,0,0,.574-1.582v-.979h1.061v.85a2.669,2.669,0,0,1-.29,1.184A2.771,2.771,0,0,1,61.1,17.7ZM71.643,16H70.559V10.557H67.641V16h-1.09V9.66h5.092Zm7.1-3.1a3.8,3.8,0,0,1-.662,2.332,2.122,2.122,0,0,1-1.793.885,2.325,2.325,0,0,1-1.816-.732v3.053H73.383V9.66h.99l.053.7a2.233,2.233,0,0,1,1.84-.82,2.162,2.162,0,0,1,1.808.861,3.838,3.838,0,0,1,.665,2.4Zm-1.084-.123a2.8,2.8,0,0,0-.457-1.693,1.472,1.472,0,0,0-1.254-.621,1.593,1.593,0,0,0-1.477.873v3.029a1.6,1.6,0,0,0,1.488.867,1.465,1.465,0,0,0,1.239-.618A3.058,3.058,0,0,0,77.654,12.777Zm5.092,3.34a2.77,2.77,0,0,1-2.1-.847,3.142,3.142,0,0,1-.809-2.265v-.2a3.8,3.8,0,0,1,.36-1.685,2.811,2.811,0,0,1,1.008-1.16,2.534,2.534,0,0,1,1.4-.419,2.374,2.374,0,0,1,1.922.814,3.526,3.526,0,0,1,.686,2.332v.451H80.924a2.254,2.254,0,0,0,.548,1.515,1.722,1.722,0,0,0,1.333.577A1.888,1.888,0,0,0,83.777,15a2.444,2.444,0,0,0,.7-.621l.662.516A2.662,2.662,0,0,1,82.746,16.117Zm-.135-5.684a1.446,1.446,0,0,0-1.1.478,2.321,2.321,0,0,0-.551,1.339h3.176v-.082a2.065,2.065,0,0,0-.445-1.28A1.361,1.361,0,0,0,82.611,10.434Zm3.809,4.682.375-.463a4.394,4.394,0,0,0,.721-2.461l.1-2.531H91.7v5.455h.814v2.748H91.43V16H87.006v1.863H85.922l.006-2.748Zm1.283,0h2.912V10.662H88.664L88.6,12.174A5.245,5.245,0,0,1,87.7,15.115ZM98.895,16H97.811V13.293H94.9V16h-1.09V9.66H94.9v2.748h2.912V9.66h1.084Zm5.654,0a2.277,2.277,0,0,1-.152-.668,2.419,2.419,0,0,1-1.8.785,2.238,2.238,0,0,1-1.538-.53,1.716,1.716,0,0,1-.6-1.345,1.792,1.792,0,0,1,.753-1.538,3.55,3.55,0,0,1,2.118-.548h1.055v-.5a1.217,1.217,0,0,0-.34-.905,1.366,1.366,0,0,0-1-.337,1.581,1.581,0,0,0-.973.293.863.863,0,0,0-.393.709h-1.09a1.5,1.5,0,0,1,.337-.917,2.3,2.3,0,0,1,.914-.7,3.075,3.075,0,0,1,1.269-.258,2.506,2.506,0,0,1,1.717.548,1.976,1.976,0,0,1,.645,1.509v2.918a3.567,3.567,0,0,0,.223,1.389V16Zm-1.8-.826a1.905,1.905,0,0,0,.967-.264,1.6,1.6,0,0,0,.662-.686v-1.3h-.85q-1.992,0-1.992,1.166a.987.987,0,0,0,.34.8A1.306,1.306,0,0,0,102.75,15.174Zm7.9-3.779a.843.843,0,0,0-.34-.706,1.5,1.5,0,0,0-.932-.261,1.512,1.512,0,0,0-.958.3.874.874,0,0,0-.384.7h-1.078a1.63,1.63,0,0,1,.691-1.354,3.235,3.235,0,0,1,3.463-.05,1.617,1.617,0,0,1,.621,1.362,1.313,1.313,0,0,1-.258.785,1.756,1.756,0,0,1-.732.568,1.453,1.453,0,0,1,1.107,1.477,1.642,1.642,0,0,1-.674,1.383,3.371,3.371,0,0,1-3.606-.026,1.72,1.72,0,0,1-.712-1.45h1.078a.989.989,0,0,0,.413.794,1.592,1.592,0,0,0,1.028.331,1.622,1.622,0,0,0,1-.287.891.891,0,0,0,.381-.744.88.88,0,0,0-.319-.765,1.7,1.7,0,0,0-.993-.231h-1.084v-.914h1.178Q110.648,12.279,110.648,11.395ZM118.436,16h-1.084V13.293h-2.912V16h-1.09V9.66h1.09v2.748h2.912V9.66h1.084Zm5.654,0a2.277,2.277,0,0,1-.152-.668,2.419,2.419,0,0,1-1.8.785,2.238,2.238,0,0,1-1.538-.53,1.716,1.716,0,0,1-.6-1.345,1.792,1.792,0,0,1,.753-1.538,3.55,3.55,0,0,1,2.118-.548h1.055v-.5a1.217,1.217,0,0,0-.34-.905,1.366,1.366,0,0,0-1-.337,1.581,1.581,0,0,0-.973.293.863.863,0,0,0-.393.709h-1.09a1.5,1.5,0,0,1,.337-.917,2.3,2.3,0,0,1,.914-.7,3.075,3.075,0,0,1,1.269-.258,2.506,2.506,0,0,1,1.717.548A1.976,1.976,0,0,1,125,11.6v2.918a3.567,3.567,0,0,0,.223,1.389V16Zm-1.8-.826a1.905,1.905,0,0,0,.967-.264,1.6,1.6,0,0,0,.662-.686v-1.3h-.85q-1.992,0-1.992,1.166a.987.987,0,0,0,.34.8A1.306,1.306,0,0,0,122.291,15.174Zm9.2.826H130.4V13.7a5.75,5.75,0,0,1-1.465.188,2.492,2.492,0,0,1-1.813-.609,2.35,2.35,0,0,1-.636-1.734V9.654h1.084v1.928Q127.6,13,128.936,13a5.75,5.75,0,0,0,1.465-.187V9.66h1.09Zm4.365.117a2.77,2.77,0,0,1-2.1-.847,3.142,3.142,0,0,1-.809-2.265v-.2a3.8,3.8,0,0,1,.36-1.685,2.811,2.811,0,0,1,1.008-1.16,2.534,2.534,0,0,1,1.4-.419,2.374,2.374,0,0,1,1.922.814,3.526,3.526,0,0,1,.686,2.332v.451h-4.295a2.254,2.254,0,0,0,.548,1.515,1.722,1.722,0,0,0,1.333.577,1.888,1.888,0,0,0,.973-.234,2.444,2.444,0,0,0,.7-.621l.662.516A2.662,2.662,0,0,1,135.855,16.117Zm-.135-5.684a1.446,1.446,0,0,0-1.1.478,2.321,2.321,0,0,0-.551,1.339h3.176v-.082a2.065,2.065,0,0,0-.445-1.28A1.361,1.361,0,0,0,135.721,10.434ZM144.762,16h-1.084V13.293h-2.912V16h-1.09V9.66h1.09v2.748h2.912V9.66h1.084Zm5.654,0a2.277,2.277,0,0,1-.152-.668,2.419,2.419,0,0,1-1.8.785,2.238,2.238,0,0,1-1.538-.53,1.716,1.716,0,0,1-.6-1.345,1.792,1.792,0,0,1,.753-1.538,3.55,3.55,0,0,1,2.118-.548h1.055v-.5a1.217,1.217,0,0,0-.34-.905,1.366,1.366,0,0,0-1-.337,1.581,1.581,0,0,0-.973.293.863.863,0,0,0-.393.709h-1.09a1.5,1.5,0,0,1,.337-.917,2.3,2.3,0,0,1,.914-.7,3.075,3.075,0,0,1,1.269-.258,2.506,2.506,0,0,1,1.717.548,1.976,1.976,0,0,1,.645,1.509v2.918a3.567,3.567,0,0,0,.223,1.389V16Zm-1.8-.826a1.905,1.905,0,0,0,.967-.264,1.6,1.6,0,0,0,.662-.686v-1.3h-.85q-1.992,0-1.992,1.166a.987.987,0,0,0,.34.8A1.306,1.306,0,0,0,148.617,15.174ZM161.2,9.66V16h-1.09V10.557h-2.156l-.129,2.373a5.245,5.245,0,0,1-.548,2.338,1.6,1.6,0,0,1-1.4.732h-.434v-.955l.311-.023a.9.9,0,0,0,.756-.609,6.87,6.87,0,0,0,.293-2.039l.117-2.713Zm5.842,0h1.084V16h-1.084V11.377L164.115,16h-1.084V9.66h1.084v4.629Zm8.578.363a2.445,2.445,0,0,1,1.913.8,3.035,3.035,0,0,1,.718,2.106v.1a3.6,3.6,0,0,1-.346,1.6,2.562,2.562,0,0,1-.993,1.1,2.835,2.835,0,0,1-1.491.39,2.654,2.654,0,0,1-2.057-.853,3.26,3.26,0,0,1-.779-2.288v-.527a5.916,5.916,0,0,1,.741-3.176,3.106,3.106,0,0,1,2.188-1.436,2.906,2.906,0,0,0,1.107-.357.68.68,0,0,0,.287-.58h.891a1.773,1.773,0,0,1-.331,1.143,1.849,1.849,0,0,1-1.058.58L175.6,8.8a2.722,2.722,0,0,0-1.45.771,2.788,2.788,0,0,0-.63,1.444A2.674,2.674,0,0,1,175.617,10.023Zm-.211.891a1.6,1.6,0,0,0-1.266.536,2.181,2.181,0,0,0-.469,1.485v.094a2.529,2.529,0,0,0,.472,1.614,1.663,1.663,0,0,0,2.552,0,2.785,2.785,0,0,0,.469-1.746,2.113,2.113,0,0,0-.472-1.438A1.617,1.617,0,0,0,175.406,10.914ZM183.381,16a2.277,2.277,0,0,1-.152-.668,2.419,2.419,0,0,1-1.8.785,2.238,2.238,0,0,1-1.538-.53,1.716,1.716,0,0,1-.6-1.345,1.792,1.792,0,0,1,.753-1.538,3.55,3.55,0,0,1,2.118-.548h1.055v-.5a1.217,1.217,0,0,0-.34-.905,1.366,1.366,0,0,0-1-.337,1.581,1.581,0,0,0-.973.293.863.863,0,0,0-.393.709h-1.09a1.5,1.5,0,0,1,.337-.917,2.3,2.3,0,0,1,.914-.7,3.075,3.075,0,0,1,1.269-.258,2.506,2.506,0,0,1,1.717.548,1.976,1.976,0,0,1,.645,1.509v2.918a3.567,3.567,0,0,0,.223,1.389V16Zm-1.8-.826a1.905,1.905,0,0,0,.967-.264,1.6,1.6,0,0,0,.662-.686v-1.3h-.85q-1.992,0-1.992,1.166a.987.987,0,0,0,.34.8A1.306,1.306,0,0,0,181.582,15.174Zm9.592.826H190.09V13.293h-2.912V16h-1.09V9.66h1.09v2.748h2.912V9.66h1.084Zm3.715-2.7H194.1V16h-1.09V9.66h1.09v2.684h.709l2.133-2.684h1.313l-2.508,3.047L198.463,16h-1.377Zm4.219-.527a3.745,3.745,0,0,1,.366-1.676,2.732,2.732,0,0,1,1.02-1.148,2.775,2.775,0,0,1,1.491-.4,2.674,2.674,0,0,1,2.095.9,3.449,3.449,0,0,1,.8,2.385V12.9a3.777,3.777,0,0,1-.354,1.661,2.692,2.692,0,0,1-1.014,1.146,2.807,2.807,0,0,1-1.515.41,2.667,2.667,0,0,1-2.089-.9,3.432,3.432,0,0,1-.8-2.373Zm1.09.129a2.712,2.712,0,0,0,.489,1.693,1.658,1.658,0,0,0,2.622-.009,2.966,2.966,0,0,0,.486-1.813,2.708,2.708,0,0,0-.5-1.69,1.574,1.574,0,0,0-1.315-.647,1.557,1.557,0,0,0-1.295.639A2.944,2.944,0,0,0,200.2,12.9Zm6.141,3.1V9.66h2.473a3.552,3.552,0,0,1,1.942.442,1.453,1.453,0,0,1,.677,1.3,1.3,1.3,0,0,1-.264.794,1.633,1.633,0,0,1-.779.542,1.723,1.723,0,0,1,.923.527,1.364,1.364,0,0,1,.349.938,1.546,1.546,0,0,1-.642,1.336A3.061,3.061,0,0,1,209.2,16Zm1.084-2.783v1.91h1.793a1.691,1.691,0,0,0,1.017-.252.834.834,0,0,0,.337-.709q0-.949-1.395-.949Zm0-.867h1.4q1.523,0,1.523-.891t-1.441-.92h-1.482Zm8.215,2.883a1.561,1.561,0,0,0,1.014-.352,1.237,1.237,0,0,0,.48-.879h1.025a1.966,1.966,0,0,1-.375,1.037,2.47,2.47,0,0,1-.923.785,2.663,2.663,0,0,1-1.222.293,2.612,2.612,0,0,1-2.06-.864,3.442,3.442,0,0,1-.765-2.364v-.182a3.817,3.817,0,0,1,.34-1.646,2.588,2.588,0,0,1,.976-1.119,2.771,2.771,0,0,1,1.5-.4,2.543,2.543,0,0,1,1.772.639,2.283,2.283,0,0,1,.753,1.658h-1.025a1.494,1.494,0,0,0-.466-1.011,1.449,1.449,0,0,0-1.034-.4,1.517,1.517,0,0,0-1.28.595,2.793,2.793,0,0,0-.454,1.72v.205a2.737,2.737,0,0,0,.451,1.688A1.524,1.524,0,0,0,215.637,15.232ZM221.35,13.3h-.791V16h-1.09V9.66h1.09v2.684h.709L223.4,9.66h1.313l-2.508,3.047L224.924,16h-1.377Zm8.42,2.7a2.277,2.277,0,0,1-.152-.668,2.419,2.419,0,0,1-1.8.785,2.238,2.238,0,0,1-1.538-.53,1.716,1.716,0,0,1-.6-1.345,1.792,1.792,0,0,1,.753-1.538,3.55,3.55,0,0,1,2.118-.548H229.6v-.5a1.217,1.217,0,0,0-.34-.905,1.366,1.366,0,0,0-1-.337,1.581,1.581,0,0,0-.973.293.863.863,0,0,0-.393.709H225.8a1.5,1.5,0,0,1,.337-.917,2.3,2.3,0,0,1,.914-.7,3.075,3.075,0,0,1,1.269-.258,2.506,2.506,0,0,1,1.717.548,1.976,1.976,0,0,1,.645,1.509v2.918a3.567,3.567,0,0,0,.223,1.389V16Zm-1.8-.826a1.905,1.905,0,0,0,.967-.264,1.6,1.6,0,0,0,.662-.686v-1.3h-.85q-1.992,0-1.992,1.166a.987.987,0,0,0,.34.8A1.306,1.306,0,0,0,227.971,15.174Zm9.258-5.514V16h-1.09V13.533H234.5L233.01,16h-1.172l1.594-2.631a1.892,1.892,0,0,1-.935-.688,1.851,1.851,0,0,1-.325-1.087,1.715,1.715,0,0,1,.65-1.4,2.7,2.7,0,0,1,1.74-.536Zm-3.967,1.945a.956.956,0,0,0,.316.747,1.228,1.228,0,0,0,.838.29h1.723v-2.1H234.58a1.46,1.46,0,0,0-.961.3A.953.953,0,0,0,233.262,11.605ZM243.914,13.3h-.791V16h-1.09V9.66h1.09v2.684h.709l2.133-2.684h1.313l-2.508,3.047L247.488,16h-1.377Zm8.42,2.7a2.277,2.277,0,0,1-.152-.668,2.419,2.419,0,0,1-1.8.785,2.238,2.238,0,0,1-1.538-.53,1.716,1.716,0,0,1-.6-1.345,1.792,1.792,0,0,1,.753-1.538,3.55,3.55,0,0,1,2.118-.548h1.055v-.5a1.217,1.217,0,0,0-.34-.905,1.366,1.366,0,0,0-1-.337,1.581,1.581,0,0,0-.973.293.863.863,0,0,0-.393.709h-1.09a1.5,1.5,0,0,1,.337-.917,2.3,2.3,0,0,1,.914-.7,3.075,3.075,0,0,1,1.269-.258,2.506,2.506,0,0,1,1.717.548,1.976,1.976,0,0,1,.645,1.509v2.918a3.567,3.567,0,0,0,.223,1.389V16Zm-1.8-.826a1.905,1.905,0,0,0,.967-.264,1.6,1.6,0,0,0,.662-.686v-1.3h-.85q-1.992,0-1.992,1.166a.987.987,0,0,0,.34.8A1.306,1.306,0,0,0,250.535,15.174ZM260.3,12.9a3.8,3.8,0,0,1-.662,2.332,2.122,2.122,0,0,1-1.793.885,2.325,2.325,0,0,1-1.816-.732v3.053h-1.084V9.66h.99l.053.7a2.233,2.233,0,0,1,1.84-.82,2.162,2.162,0,0,1,1.808.861,3.838,3.838,0,0,1,.665,2.4Zm-1.084-.123a2.8,2.8,0,0,0-.457-1.693,1.472,1.472,0,0,0-1.254-.621,1.593,1.593,0,0,0-1.477.873v3.029a1.6,1.6,0,0,0,1.488.867,1.465,1.465,0,0,0,1.239-.618A3.058,3.058,0,0,0,259.219,12.777Zm7.172-2.238h-2.127V16H263.18V10.539h-2.086V9.66h5.3ZM271.359,16a2.277,2.277,0,0,1-.152-.668,2.419,2.419,0,0,1-1.8.785,2.238,2.238,0,0,1-1.538-.53,1.716,1.716,0,0,1-.6-1.345,1.792,1.792,0,0,1,.753-1.538,3.55,3.55,0,0,1,2.118-.548h1.055v-.5a1.217,1.217,0,0,0-.34-.905,1.366,1.366,0,0,0-1-.337,1.581,1.581,0,0,0-.973.293.863.863,0,0,0-.393.709h-1.09a1.5,1.5,0,0,1,.337-.917,2.3,2.3,0,0,1,.914-.7,3.075,3.075,0,0,1,1.269-.258,2.506,2.506,0,0,1,1.717.548,1.976,1.976,0,0,1,.645,1.509v2.918a3.567,3.567,0,0,0,.223,1.389V16Zm-1.8-.826a1.905,1.905,0,0,0,.967-.264,1.6,1.6,0,0,0,.662-.686v-1.3h-.85q-1.992,0-1.992,1.166a.987.987,0,0,0,.34.8A1.306,1.306,0,0,0,269.561,15.174Zm7.33-.059.375-.463a4.394,4.394,0,0,0,.721-2.461l.1-2.531h4.084v5.455h.814v2.748H281.9V16h-4.424v1.863h-1.084l.006-2.748Zm1.283,0h2.912V10.662h-1.951l-.064,1.512A5.245,5.245,0,0,1,278.174,15.115ZM289.383,9.66V16h-1.09V10.557h-2.156l-.129,2.373a5.245,5.245,0,0,1-.548,2.338,1.6,1.6,0,0,1-1.4.732h-.434v-.955l.311-.023a.9.9,0,0,0,.756-.609,6.87,6.87,0,0,0,.293-2.039L285.1,9.66Zm6.586,0V16h-1.09V13.533h-1.635L291.75,16h-1.172l1.594-2.631a1.892,1.892,0,0,1-.935-.688,1.851,1.851,0,0,1-.325-1.087,1.715,1.715,0,0,1,.65-1.4,2.7,2.7,0,0,1,1.74-.536ZM292,11.605a.956.956,0,0,0,.316.747,1.228,1.228,0,0,0,.838.29h1.723v-2.1H293.32a1.46,1.46,0,0,0-.961.3A.953.953,0,0,0,292,11.605Zm8.391,1.166a3.745,3.745,0,0,1,.366-1.676,2.732,2.732,0,0,1,1.02-1.148,2.775,2.775,0,0,1,1.491-.4,2.674,2.674,0,0,1,2.095.9,3.449,3.449,0,0,1,.8,2.385V12.9a3.777,3.777,0,0,1-.354,1.661,2.692,2.692,0,0,1-1.014,1.146,2.807,2.807,0,0,1-1.515.41,2.667,2.667,0,0,1-2.089-.9,3.432,3.432,0,0,1-.8-2.373Zm1.09.129a2.712,2.712,0,0,0,.489,1.693,1.658,1.658,0,0,0,2.622-.009,2.966,2.966,0,0,0,.486-1.813,2.708,2.708,0,0,0-.5-1.69,1.574,1.574,0,0,0-1.315-.647,1.557,1.557,0,0,0-1.295.639A2.944,2.944,0,0,0,301.482,12.9ZM312.709,16h-1.084V10.557h-2.918V16h-1.09V9.66h5.092Zm6.938-6.34V16h-1.09V10.557H316.4l-.129,2.373a5.245,5.245,0,0,1-.548,2.338,1.6,1.6,0,0,1-1.4.732h-.434v-.955l.311-.023a.9.9,0,0,0,.756-.609,6.87,6.87,0,0,0,.293-2.039l.117-2.713ZM325.3,16a2.277,2.277,0,0,1-.152-.668,2.419,2.419,0,0,1-1.8.785,2.238,2.238,0,0,1-1.538-.53,1.716,1.716,0,0,1-.6-1.345,1.792,1.792,0,0,1,.753-1.538,3.55,3.55,0,0,1,2.118-.548h1.055v-.5a1.217,1.217,0,0,0-.34-.905,1.366,1.366,0,0,0-1-.337,1.581,1.581,0,0,0-.973.293.863.863,0,0,0-.393.709h-1.09a1.5,1.5,0,0,1,.337-.917,2.3,2.3,0,0,1,.914-.7,3.075,3.075,0,0,1,1.269-.258,2.506,2.506,0,0,1,1.717.548,1.976,1.976,0,0,1,.645,1.509v2.918a3.567,3.567,0,0,0,.223,1.389V16Zm-1.8-.826a1.905,1.905,0,0,0,.967-.264,1.6,1.6,0,0,0,.662-.686v-1.3h-.85q-1.992,0-1.992,1.166a.987.987,0,0,0,.34.8A1.306,1.306,0,0,0,323.5,15.174Zm9.123-4.635H330.5V16h-1.084V10.539h-2.086V9.66h5.3Zm2.238,1.307h1.646a2.537,2.537,0,0,1,1.705.563,1.887,1.887,0,0,1,.627,1.494,1.941,1.941,0,0,1-.645,1.523,2.512,2.512,0,0,1-1.734.574h-2.684V9.66h1.084ZM341.1,16h-1.09V9.66h1.09Zm-6.24-3.27v2.385h1.611a1.326,1.326,0,0,0,.943-.313,1.12,1.12,0,0,0,.334-.858,1.193,1.193,0,0,0-.325-.864,1.244,1.244,0,0,0-.911-.349Zm11.2,3.27V9.66h2.473a3.552,3.552,0,0,1,1.942.442,1.453,1.453,0,0,1,.677,1.3,1.3,1.3,0,0,1-.264.794,1.633,1.633,0,0,1-.779.542,1.723,1.723,0,0,1,.923.527,1.364,1.364,0,0,1,.349.938,1.546,1.546,0,0,1-.642,1.336,3.061,3.061,0,0,1-1.813.463Zm1.084-2.783v1.91h1.793a1.691,1.691,0,0,0,1.017-.252.834.834,0,0,0,.337-.709q0-.949-1.395-.949Zm0-.867h1.4q1.523,0,1.523-.891t-1.441-.92H347.15ZM359.895,9.66h1.084V16h-1.084V11.377L356.971,16h-1.084V9.66h1.084v4.629Zm8,6.34h-1.084V13.293H363.9V16h-1.09V9.66h1.09v2.748h2.912V9.66H367.9Zm6.451-5.461h-2.127V16h-1.084V10.539h-2.086V9.66h5.3Zm3.686,5.578a2.77,2.77,0,0,1-2.1-.847,3.142,3.142,0,0,1-.809-2.265v-.2a3.8,3.8,0,0,1,.36-1.685,2.811,2.811,0,0,1,1.008-1.16,2.534,2.534,0,0,1,1.4-.419,2.374,2.374,0,0,1,1.922.814,3.526,3.526,0,0,1,.686,2.332v.451h-4.295a2.254,2.254,0,0,0,.548,1.515,1.722,1.722,0,0,0,1.333.577,1.888,1.888,0,0,0,.973-.234,2.444,2.444,0,0,0,.7-.621l.662.516A2.662,2.662,0,0,1,378.035,16.117Zm-.135-5.684a1.446,1.446,0,0,0-1.1.478,2.321,2.321,0,0,0-.551,1.339h3.176v-.082a2.065,2.065,0,0,0-.445-1.28A1.361,1.361,0,0,0,377.9,10.434Zm9.217,2.467a3.8,3.8,0,0,1-.662,2.332,2.122,2.122,0,0,1-1.793.885,2.325,2.325,0,0,1-1.816-.732v3.053h-1.084V9.66h.99l.053.7a2.233,2.233,0,0,1,1.84-.82,2.162,2.162,0,0,1,1.808.861,3.838,3.838,0,0,1,.665,2.4Zm-1.084-.123a2.8,2.8,0,0,0-.457-1.693,1.472,1.472,0,0,0-1.254-.621,1.593,1.593,0,0,0-1.477.873v3.029a1.6,1.6,0,0,0,1.488.867,1.465,1.465,0,0,0,1.239-.618A3.058,3.058,0,0,0,386.033,12.777ZM393.674,16H392.59V13.293h-2.912V16h-1.09V9.66h1.09v2.748h2.912V9.66h1.084Zm4.371.117a2.77,2.77,0,0,1-2.1-.847,3.142,3.142,0,0,1-.809-2.265v-.2a3.8,3.8,0,0,1,.36-1.685,2.811,2.811,0,0,1,1.008-1.16,2.534,2.534,0,0,1,1.4-.419,2.374,2.374,0,0,1,1.922.814,3.526,3.526,0,0,1,.686,2.332v.451h-4.295a2.254,2.254,0,0,0,.548,1.515,1.722,1.722,0,0,0,1.333.577,1.888,1.888,0,0,0,.973-.234,2.444,2.444,0,0,0,.7-.621l.662.516A2.662,2.662,0,0,1,398.045,16.117Zm-.135-5.684a1.446,1.446,0,0,0-1.1.478,2.321,2.321,0,0,0-.551,1.339h3.176v-.082a2.065,2.065,0,0,0-.445-1.28A1.361,1.361,0,0,0,397.91,10.434Zm8.572.105h-2.127V16h-1.084V10.539h-2.086V9.66h5.3Zm3.686,5.578a2.77,2.77,0,0,1-2.1-.847,3.142,3.142,0,0,1-.809-2.265v-.2a3.8,3.8,0,0,1,.36-1.685,2.811,2.811,0,0,1,1.008-1.16,2.534,2.534,0,0,1,1.4-.419,2.374,2.374,0,0,1,1.922.814,3.526,3.526,0,0,1,.686,2.332v.451h-4.295a2.254,2.254,0,0,0,.548,1.515,1.722,1.722,0,0,0,1.333.577A1.888,1.888,0,0,0,411.2,15a2.444,2.444,0,0,0,.7-.621l.662.516A2.662,2.662,0,0,1,410.168,16.117Zm-.135-5.684a1.446,1.446,0,0,0-1.1.478,2.321,2.321,0,0,0-.551,1.339h3.176v-.082a2.065,2.065,0,0,0-.445-1.28A1.361,1.361,0,0,0,410.033,10.434Zm6.791,2.1a9.059,9.059,0,0,1,.354-2.543,7.387,7.387,0,0,1,1.058-2.215A4.5,4.5,0,0,1,419.7,6.373l.223.715a4.667,4.667,0,0,0-1.4,2,8.687,8.687,0,0,0-.6,3.018l-.006.5a8.733,8.733,0,0,0,.826,3.926,4.689,4.689,0,0,0,1.184,1.559l-.223.662a4.644,4.644,0,0,1-1.488-1.453A8.144,8.144,0,0,1,416.824,12.537Zm6.369-2.1a1.482,1.482,0,0,0-1,.369,1.123,1.123,0,0,0-.425.873h-1.031a1.8,1.8,0,0,1,.346-1.043,2.479,2.479,0,0,1,.92-.794,2.577,2.577,0,0,1,1.2-.3,2.507,2.507,0,0,1,2,.894,3.466,3.466,0,0,1,.765,2.335v.182a3.747,3.747,0,0,1-.349,1.626,2.662,2.662,0,0,1-.979,1.137,2.619,2.619,0,0,1-1.438.4,2.477,2.477,0,0,1-1.758-.656,2.144,2.144,0,0,1-.7-1.635h1.031a1.351,1.351,0,0,0,.416,1,1.4,1.4,0,0,0,1.014.407,1.432,1.432,0,0,0,1.148-.539,2.548,2.548,0,0,0,.521-1.482h-2.379v-.891h2.367a2.428,2.428,0,0,0-.521-1.374A1.421,1.421,0,0,0,423.193,10.434Zm8.936.105H430V16h-1.084V10.539h-2.086V9.66h5.3Zm3.129,3.873,1.477-4.752h1.16l-2.549,7.318q-.592,1.582-1.881,1.582l-.205-.018-.4-.076v-.879l.293.023a1.442,1.442,0,0,0,.858-.223,1.611,1.611,0,0,0,.507-.814l.24-.645-2.262-6.27h1.184ZM4.922,25.66H6.006V32H4.922V27.377L2,32H.914V25.66H2v4.629Zm8,6.34H11.842V29.293H8.93V32H7.84V25.66H8.93v2.748h2.912V25.66h1.084Zm1.506-3.053a4.4,4.4,0,0,1,.615-2.5,1.934,1.934,0,0,1,1.688-.908,2.1,2.1,0,0,1,.873.17V23h1.084v2.748a2.124,2.124,0,0,1,.961-.205,1.939,1.939,0,0,1,1.693.908,4.66,4.66,0,0,1,.615,2.619,3.659,3.659,0,0,1-.612,2.227,1.982,1.982,0,0,1-1.685.826,2.3,2.3,0,0,1-.973-.187v2.5H17.607V31.953a2.18,2.18,0,0,1-.885.17,1.976,1.976,0,0,1-1.679-.826,3.724,3.724,0,0,1-.612-2.262Zm6.445,0a3.514,3.514,0,0,0-.41-1.854,1.27,1.27,0,0,0-1.131-.659,1.637,1.637,0,0,0-.645.117v4.588a1.871,1.871,0,0,0,.656.1,1.306,1.306,0,0,0,1.128-.562A3,3,0,0,0,20.877,28.947Zm-5.361.123a2.842,2.842,0,0,0,.381,1.617,1.251,1.251,0,0,0,1.1.551,1.709,1.709,0,0,0,.615-.105v-4.6a1.612,1.612,0,0,0-.6-.1,1.22,1.22,0,0,0-1.1.639A3.979,3.979,0,0,0,15.516,29.07Zm7.564-.3a3.745,3.745,0,0,1,.366-1.676,2.732,2.732,0,0,1,1.02-1.148,2.775,2.775,0,0,1,1.491-.4,2.674,2.674,0,0,1,2.095.9,3.449,3.449,0,0,1,.8,2.385V28.9a3.777,3.777,0,0,1-.354,1.661,2.692,2.692,0,0,1-1.014,1.146,2.807,2.807,0,0,1-1.515.41,2.667,2.667,0,0,1-2.089-.9,3.432,3.432,0,0,1-.8-2.373Zm1.09.129a2.712,2.712,0,0,0,.489,1.693,1.658,1.658,0,0,0,2.622-.009,2.966,2.966,0,0,0,.486-1.813,2.708,2.708,0,0,0-.5-1.69,1.574,1.574,0,0,0-1.315-.647,1.557,1.557,0,0,0-1.295.639A2.944,2.944,0,0,0,24.17,28.9Zm11.4,0a3.8,3.8,0,0,1-.662,2.332,2.122,2.122,0,0,1-1.793.885,2.325,2.325,0,0,1-1.816-.732v3.053H30.211V25.66h.99l.053.7a2.233,2.233,0,0,1,1.84-.82A2.162,2.162,0,0,1,34.9,26.4a3.838,3.838,0,0,1,.665,2.4Zm-1.084-.123a2.8,2.8,0,0,0-.457-1.693,1.472,1.472,0,0,0-1.254-.621,1.593,1.593,0,0,0-1.477.873v3.029a1.6,1.6,0,0,0,1.488.867,1.465,1.465,0,0,0,1.239-.618A3.058,3.058,0,0,0,34.482,28.777Zm6.111,1.787,2.156-4.9H44.1V32H43.02V27.389L40.969,32h-.75l-2.092-4.711V32H37.043V25.66h1.406ZM49.758,32a2.277,2.277,0,0,1-.152-.668,2.419,2.419,0,0,1-1.8.785,2.238,2.238,0,0,1-1.538-.53,1.716,1.716,0,0,1-.6-1.345,1.792,1.792,0,0,1,.753-1.538,3.55,3.55,0,0,1,2.118-.548h1.055v-.5a1.217,1.217,0,0,0-.34-.905,1.366,1.366,0,0,0-1-.337,1.581,1.581,0,0,0-.973.293.863.863,0,0,0-.393.709h-1.09a1.5,1.5,0,0,1,.337-.917,2.3,2.3,0,0,1,.914-.7,3.075,3.075,0,0,1,1.269-.258,2.506,2.506,0,0,1,1.717.548,1.976,1.976,0,0,1,.645,1.509v2.918a3.567,3.567,0,0,0,.223,1.389V32Zm-1.8-.826a1.905,1.905,0,0,0,.967-.264,1.6,1.6,0,0,0,.662-.686v-1.3h-.85q-1.992,0-1.992,1.166a.987.987,0,0,0,.34.8A1.306,1.306,0,0,0,47.959,31.174Zm4.506-5.514h1.09v5.455h2.918V25.66h1.084v5.455h.756l-.105,2.766h-.973V32h-4.77Zm11.115,0h1.084V32H63.58V27.377L60.656,32H59.572V25.66h1.084v4.629Zm4.008,2.689h1.523a3.2,3.2,0,0,1,.9-2.036A2.882,2.882,0,0,1,74,26.381a3.288,3.288,0,0,1,.855,2.18l.006.34a3.756,3.756,0,0,1-.363,1.67,2.687,2.687,0,0,1-1.02,1.146,2.817,2.817,0,0,1-1.5.4,2.676,2.676,0,0,1-2-.8,3.2,3.2,0,0,1-.873-2.077H67.588V32H66.5V25.66h1.084Zm2.59.551a2.712,2.712,0,0,0,.489,1.693,1.572,1.572,0,0,0,1.315.639,1.546,1.546,0,0,0,1.31-.65,2.982,2.982,0,0,0,.483-1.811,2.722,2.722,0,0,0-.492-1.687,1.647,1.647,0,0,0-2.613-.012A2.944,2.944,0,0,0,70.178,28.9ZM84.352,32H83.268V26.557H80.35V32H79.26V25.66h5.092Zm7.1-3.1a3.8,3.8,0,0,1-.662,2.332,2.122,2.122,0,0,1-1.793.885,2.325,2.325,0,0,1-1.816-.732v3.053H86.092V25.66h.99l.053.7a2.233,2.233,0,0,1,1.84-.82,2.162,2.162,0,0,1,1.808.861,3.838,3.838,0,0,1,.665,2.4Zm-1.084-.123a2.8,2.8,0,0,0-.457-1.693,1.472,1.472,0,0,0-1.254-.621,1.593,1.593,0,0,0-1.477.873v3.029a1.6,1.6,0,0,0,1.488.867,1.465,1.465,0,0,0,1.239-.618A3.058,3.058,0,0,0,90.363,28.777Zm5.092,3.34a2.77,2.77,0,0,1-2.1-.847,3.142,3.142,0,0,1-.809-2.265v-.2a3.8,3.8,0,0,1,.36-1.685,2.811,2.811,0,0,1,1.008-1.16,2.534,2.534,0,0,1,1.4-.419,2.374,2.374,0,0,1,1.922.814,3.526,3.526,0,0,1,.686,2.332v.451H93.633a2.254,2.254,0,0,0,.548,1.515,1.722,1.722,0,0,0,1.333.577A1.888,1.888,0,0,0,96.486,31a2.444,2.444,0,0,0,.7-.621l.662.516A2.662,2.662,0,0,1,95.455,32.117Zm-.135-5.684a1.446,1.446,0,0,0-1.1.478,2.321,2.321,0,0,0-.551,1.339h3.176v-.082a2.065,2.065,0,0,0-.445-1.28A1.361,1.361,0,0,0,95.32,26.434Zm3.809,4.682.375-.463a4.394,4.394,0,0,0,.721-2.461l.1-2.531h4.084v5.455h.814v2.748h-1.084V32H99.715v1.863H98.631l.006-2.748Zm1.283,0h2.912V26.662h-1.951l-.064,1.512A5.245,5.245,0,0,1,100.412,31.115Zm5.725-2.344A3.745,3.745,0,0,1,106.5,27.1a2.732,2.732,0,0,1,1.02-1.148,2.775,2.775,0,0,1,1.491-.4,2.674,2.674,0,0,1,2.095.9,3.449,3.449,0,0,1,.8,2.385V28.9a3.777,3.777,0,0,1-.354,1.661,2.692,2.692,0,0,1-1.014,1.146,2.807,2.807,0,0,1-1.515.41,2.667,2.667,0,0,1-2.089-.9,3.432,3.432,0,0,1-.8-2.373Zm1.09.129a2.712,2.712,0,0,0,.489,1.693,1.658,1.658,0,0,0,2.622-.009,2.966,2.966,0,0,0,.486-1.813,2.708,2.708,0,0,0-.5-1.69,1.574,1.574,0,0,0-1.315-.647,1.557,1.557,0,0,0-1.295.639A2.944,2.944,0,0,0,107.227,28.9Zm8.584,2.332a1.561,1.561,0,0,0,1.014-.352A1.237,1.237,0,0,0,117.3,30h1.025a1.966,1.966,0,0,1-.375,1.037,2.47,2.47,0,0,1-.923.785,2.663,2.663,0,0,1-1.222.293,2.612,2.612,0,0,1-2.06-.864,3.442,3.442,0,0,1-.765-2.364v-.182a3.817,3.817,0,0,1,.34-1.646,2.588,2.588,0,0,1,.976-1.119,2.771,2.771,0,0,1,1.5-.4,2.543,2.543,0,0,1,1.772.639,2.283,2.283,0,0,1,.753,1.658H117.3a1.494,1.494,0,0,0-.466-1.011,1.449,1.449,0,0,0-1.034-.4,1.517,1.517,0,0,0-1.28.595,2.793,2.793,0,0,0-.454,1.72v.205a2.737,2.737,0,0,0,.451,1.688A1.524,1.524,0,0,0,115.811,31.232Zm8.449-4.693h-2.127V32h-1.084V26.539h-2.086V25.66h5.3ZM129.229,32a2.277,2.277,0,0,1-.152-.668,2.419,2.419,0,0,1-1.8.785,2.238,2.238,0,0,1-1.538-.53,1.716,1.716,0,0,1-.6-1.345,1.792,1.792,0,0,1,.753-1.538A3.55,3.55,0,0,1,128,28.156h1.055v-.5a1.217,1.217,0,0,0-.34-.905,1.366,1.366,0,0,0-1-.337,1.581,1.581,0,0,0-.973.293.863.863,0,0,0-.393.709h-1.09a1.5,1.5,0,0,1,.337-.917,2.3,2.3,0,0,1,.914-.7,3.075,3.075,0,0,1,1.269-.258,2.506,2.506,0,0,1,1.717.548,1.976,1.976,0,0,1,.645,1.509v2.918a3.567,3.567,0,0,0,.223,1.389V32Zm-1.8-.826a1.905,1.905,0,0,0,.967-.264,1.6,1.6,0,0,0,.662-.686v-1.3h-.85q-1.992,0-1.992,1.166a.987.987,0,0,0,.34.8A1.306,1.306,0,0,0,127.43,31.174Zm4.512.826V25.66h2.473a3.552,3.552,0,0,1,1.942.442,1.453,1.453,0,0,1,.677,1.3,1.3,1.3,0,0,1-.264.794,1.633,1.633,0,0,1-.779.542,1.723,1.723,0,0,1,.923.527,1.364,1.364,0,0,1,.349.938,1.546,1.546,0,0,1-.642,1.336,3.061,3.061,0,0,1-1.813.463Zm1.084-2.783v1.91h1.793a1.691,1.691,0,0,0,1.017-.252.834.834,0,0,0,.337-.709q0-.949-1.395-.949Zm0-.867h1.4q1.523,0,1.523-.891t-1.441-.92h-1.482ZM142.8,25.66h1.084V32H142.8V27.377L139.875,32h-1.084V25.66h1.084v4.629Zm7.535.879h-2.127V32h-1.084V26.539h-2.086V25.66h5.3Zm9.4-2.145h-4.113v2.555h2.121a3.092,3.092,0,0,1,2.086.686,2.309,2.309,0,0,1,.75,1.816,2.362,2.362,0,0,1-.756,1.84,3.041,3.041,0,0,1-2.062.709h-3.27V23.469h5.244Zm-4.113,3.48V31.08h2.057a1.81,1.81,0,0,0,1.3-.445,1.576,1.576,0,0,0,.466-1.2A1.475,1.475,0,0,0,159,28.3a1.845,1.845,0,0,0-1.274-.428ZM165.838,32a2.277,2.277,0,0,1-.152-.668,2.419,2.419,0,0,1-1.8.785,2.238,2.238,0,0,1-1.538-.53,1.716,1.716,0,0,1-.6-1.345A1.792,1.792,0,0,1,162.5,28.7a3.55,3.55,0,0,1,2.118-.548h1.055v-.5a1.217,1.217,0,0,0-.34-.905,1.366,1.366,0,0,0-1-.337,1.581,1.581,0,0,0-.973.293.863.863,0,0,0-.393.709h-1.09a1.5,1.5,0,0,1,.337-.917,2.3,2.3,0,0,1,.914-.7,3.075,3.075,0,0,1,1.269-.258,2.506,2.506,0,0,1,1.717.548,1.976,1.976,0,0,1,.645,1.509v2.918a3.567,3.567,0,0,0,.223,1.389V32Zm-1.8-.826a1.905,1.905,0,0,0,.967-.264,1.6,1.6,0,0,0,.662-.686v-1.3h-.85q-1.992,0-1.992,1.166a.987.987,0,0,0,.34.8A1.306,1.306,0,0,0,164.039,31.174Zm9.592.826h-1.084V29.293h-2.912V32h-1.09V25.66h1.09v2.748h2.912V25.66h1.084Zm3.715-2.7h-.791V32h-1.09V25.66h1.09v2.684h.709L179.4,25.66h1.313L178.2,28.707,180.92,32h-1.377Zm4.471,4.4-.615-.422a2.827,2.827,0,0,0,.574-1.582v-.979h1.061v.85a2.669,2.669,0,0,1-.29,1.184A2.771,2.771,0,0,1,181.816,33.7Zm5.461-1.7V25.66h2.473a3.552,3.552,0,0,1,1.942.442,1.453,1.453,0,0,1,.677,1.3,1.3,1.3,0,0,1-.264.794,1.633,1.633,0,0,1-.779.542,1.723,1.723,0,0,1,.923.527,1.364,1.364,0,0,1,.349.938,1.546,1.546,0,0,1-.642,1.336,3.061,3.061,0,0,1-1.813.463Zm1.084-2.783v1.91h1.793a1.691,1.691,0,0,0,1.017-.252.834.834,0,0,0,.337-.709q0-.949-1.395-.949Zm0-.867h1.4q1.523,0,1.523-.891t-1.441-.92h-1.482Zm6.855-.5h1.646a2.537,2.537,0,0,1,1.705.563A1.887,1.887,0,0,1,199.2,29.9a1.941,1.941,0,0,1-.645,1.523,2.512,2.512,0,0,1-1.734.574h-2.684V25.66h1.084ZM201.457,32h-1.09V25.66h1.09Zm-6.24-3.27v2.385h1.611a1.326,1.326,0,0,0,.943-.313,1.12,1.12,0,0,0,.334-.858,1.193,1.193,0,0,0-.325-.864,1.244,1.244,0,0,0-.911-.349ZM208.535,32h-1.084V26.557h-2.918V32h-1.09V25.66h5.092Zm3.814-1.588,1.477-4.752h1.16l-2.549,7.318q-.592,1.582-1.881,1.582l-.205-.018-.4-.076v-.879l.293.023a1.442,1.442,0,0,0,.858-.223,1.611,1.611,0,0,0,.507-.814l.24-.645-2.262-6.27h1.184Zm6.146.82a1.561,1.561,0,0,0,1.014-.352,1.237,1.237,0,0,0,.48-.879h1.025a1.966,1.966,0,0,1-.375,1.037,2.47,2.47,0,0,1-.923.785,2.663,2.663,0,0,1-1.222.293,2.612,2.612,0,0,1-2.06-.864,3.442,3.442,0,0,1-.765-2.364v-.182a3.817,3.817,0,0,1,.34-1.646,2.588,2.588,0,0,1,.976-1.119,2.771,2.771,0,0,1,1.5-.4,2.543,2.543,0,0,1,1.772.639,2.283,2.283,0,0,1,.753,1.658H219.99a1.494,1.494,0,0,0-.466-1.011,1.449,1.449,0,0,0-1.034-.4,1.517,1.517,0,0,0-1.28.595,2.793,2.793,0,0,0-.454,1.72v.205a2.737,2.737,0,0,0,.451,1.688A1.524,1.524,0,0,0,218.5,31.232Zm8.449-4.693h-2.127V32h-1.084V26.539h-2.086V25.66h5.3Zm5.156-.879h1.084V32H232.1V27.377L229.178,32h-1.084V25.66h1.084v4.629ZM235.025,32V25.66H237.5a3.552,3.552,0,0,1,1.942.442,1.453,1.453,0,0,1,.677,1.3,1.3,1.3,0,0,1-.264.794,1.633,1.633,0,0,1-.779.542,1.723,1.723,0,0,1,.923.527,1.364,1.364,0,0,1,.349.938,1.546,1.546,0,0,1-.642,1.336,3.061,3.061,0,0,1-1.813.463Zm1.084-2.783v1.91H237.9a1.691,1.691,0,0,0,1.017-.252.834.834,0,0,0,.337-.709q0-.949-1.395-.949Zm0-.867h1.4q1.523,0,1.523-.891t-1.441-.92h-1.482Zm6.855-2.689v5.455h2.32V25.66h1.084v5.455h2.314V25.66h1.09V32h-7.9V25.66Zm12.621,0h1.084V32h-1.084V27.377L252.662,32h-1.084V25.66h1.084v4.629Zm6.926,0H263.6V32h-1.084V27.377L259.588,32H258.5V25.66h1.084v4.629Zm.293-2.309a1.452,1.452,0,0,1-.483,1.14,2.082,2.082,0,0,1-2.54,0,1.45,1.45,0,0,1-.486-1.137h.885a.887.887,0,0,0,.223.642.861.861,0,0,0,.65.231.8.8,0,0,0,.873-.873ZM268.477,32V23.469h2.789a3.238,3.238,0,0,1,2.089.574,2.07,2.07,0,0,1,.7,1.7,1.733,1.733,0,0,1-.34,1.058,2.2,2.2,0,0,1-.926.712,1.979,1.979,0,0,1,1.093.735,2.11,2.11,0,0,1,.4,1.292,2.282,2.282,0,0,1-.744,1.8,3.077,3.077,0,0,1-2.1.656Zm1.125-3.99v3.07h1.857a1.788,1.788,0,0,0,1.239-.407,1.43,1.43,0,0,0,.454-1.122q0-1.541-1.676-1.541Zm0-.9h1.7a1.784,1.784,0,0,0,1.181-.369,1.236,1.236,0,0,0,.442-1,1.216,1.216,0,0,0-.41-1.022,2.017,2.017,0,0,0-1.248-.319H269.6ZM279.691,32a2.277,2.277,0,0,1-.152-.668,2.419,2.419,0,0,1-1.8.785,2.238,2.238,0,0,1-1.538-.53,1.716,1.716,0,0,1-.6-1.345,1.792,1.792,0,0,1,.753-1.538,3.55,3.55,0,0,1,2.118-.548h1.055v-.5a1.217,1.217,0,0,0-.34-.905,1.366,1.366,0,0,0-1-.337,1.581,1.581,0,0,0-.973.293.863.863,0,0,0-.393.709h-1.09a1.5,1.5,0,0,1,.337-.917,2.3,2.3,0,0,1,.914-.7,3.075,3.075,0,0,1,1.269-.258,2.506,2.506,0,0,1,1.717.548,1.976,1.976,0,0,1,.645,1.509v2.918a3.567,3.567,0,0,0,.223,1.389V32Zm-1.8-.826a1.905,1.905,0,0,0,.967-.264,1.6,1.6,0,0,0,.662-.686v-1.3h-.85q-1.992,0-1.992,1.166a.987.987,0,0,0,.34.8A1.306,1.306,0,0,0,277.893,31.174Zm5.6-5.514v5.455h2.32V25.66h1.084v5.455h2.314V25.66h1.09V32h-7.9V25.66Zm10.594,4.752,1.477-4.752h1.16l-2.549,7.318q-.592,1.582-1.881,1.582l-.205-.018-.4-.076v-.879l.293.023a1.442,1.442,0,0,0,.858-.223,1.611,1.611,0,0,0,.507-.814l.24-.645-2.262-6.27H292.5ZM305.842,32h-1.084V26.557H301.84V32h-1.09V25.66h5.092Zm6.938-6.34V32h-1.09V26.557h-2.156L309.4,28.93a5.245,5.245,0,0,1-.548,2.338,1.6,1.6,0,0,1-1.4.732h-.434v-.955l.311-.023a.9.9,0,0,0,.756-.609,6.87,6.87,0,0,0,.293-2.039l.117-2.713ZM318.434,32a2.277,2.277,0,0,1-.152-.668,2.419,2.419,0,0,1-1.8.785,2.238,2.238,0,0,1-1.538-.53,1.716,1.716,0,0,1-.6-1.345,1.792,1.792,0,0,1,.753-1.538,3.55,3.55,0,0,1,2.118-.548h1.055v-.5a1.217,1.217,0,0,0-.34-.905,1.366,1.366,0,0,0-1-.337,1.581,1.581,0,0,0-.973.293.863.863,0,0,0-.393.709h-1.09a1.5,1.5,0,0,1,.337-.917,2.3,2.3,0,0,1,.914-.7,3.075,3.075,0,0,1,1.269-.258,2.506,2.506,0,0,1,1.717.548,1.976,1.976,0,0,1,.645,1.509v2.918a3.567,3.567,0,0,0,.223,1.389V32Zm-1.8-.826a1.905,1.905,0,0,0,.967-.264,1.6,1.6,0,0,0,.662-.686v-1.3h-.85q-1.992,0-1.992,1.166a.987.987,0,0,0,.34.8A1.306,1.306,0,0,0,316.635,31.174Zm6.955.059a1.561,1.561,0,0,0,1.014-.352,1.237,1.237,0,0,0,.48-.879h1.025a1.966,1.966,0,0,1-.375,1.037,2.47,2.47,0,0,1-.923.785,2.663,2.663,0,0,1-1.222.293,2.612,2.612,0,0,1-2.06-.864,3.442,3.442,0,0,1-.765-2.364v-.182a3.817,3.817,0,0,1,.34-1.646,2.588,2.588,0,0,1,.976-1.119,2.771,2.771,0,0,1,1.5-.4,2.543,2.543,0,0,1,1.772.639,2.283,2.283,0,0,1,.753,1.658h-1.025a1.494,1.494,0,0,0-.466-1.011,1.449,1.449,0,0,0-1.034-.4,1.517,1.517,0,0,0-1.28.595,2.793,2.793,0,0,0-.454,1.72v.205a2.737,2.737,0,0,0,.451,1.688A1.524,1.524,0,0,0,323.59,31.232Zm8.449-4.693h-2.127V32h-1.084V26.539h-2.086V25.66h5.3Zm5.156-.879h1.084V32H337.2V27.377L334.271,32h-1.084V25.66h1.084v4.629Zm4.8,3.639H341.2V32h-1.09V25.66h1.09v2.684h.709l2.133-2.684h1.313l-2.508,3.047L345.568,32h-1.377Zm4.219-.527a3.745,3.745,0,0,1,.366-1.676,2.732,2.732,0,0,1,1.02-1.148,2.775,2.775,0,0,1,1.491-.4,2.674,2.674,0,0,1,2.095.9,3.449,3.449,0,0,1,.8,2.385V28.9a3.777,3.777,0,0,1-.354,1.661,2.692,2.692,0,0,1-1.014,1.146,2.807,2.807,0,0,1-1.515.41,2.667,2.667,0,0,1-2.089-.9,3.432,3.432,0,0,1-.8-2.373Zm1.09.129a2.712,2.712,0,0,0,.489,1.693,1.658,1.658,0,0,0,2.622-.009,2.966,2.966,0,0,0,.486-1.813,2.708,2.708,0,0,0-.5-1.69,1.574,1.574,0,0,0-1.315-.647,1.557,1.557,0,0,0-1.295.639A2.944,2.944,0,0,0,347.3,28.9Zm6.141,3.1V25.66h2.473a3.552,3.552,0,0,1,1.942.442,1.453,1.453,0,0,1,.677,1.3,1.3,1.3,0,0,1-.264.794,1.633,1.633,0,0,1-.779.542,1.723,1.723,0,0,1,.923.527,1.364,1.364,0,0,1,.349.938,1.546,1.546,0,0,1-.642,1.336,3.061,3.061,0,0,1-1.813.463Zm1.084-2.783v1.91h1.793a1.691,1.691,0,0,0,1.017-.252.834.834,0,0,0,.337-.709q0-.949-1.395-.949Zm0-.867h1.4q1.523,0,1.523-.891t-1.441-.92h-1.482Zm7.746,2.063,1.477-4.752h1.16l-2.549,7.318q-.592,1.582-1.881,1.582l-.205-.018-.4-.076v-.879l.293.023a1.442,1.442,0,0,0,.858-.223,1.611,1.611,0,0,0,.507-.814l.24-.645-2.262-6.27h1.184Zm4.787-2.062h1.523a3.2,3.2,0,0,1,.9-2.036,2.882,2.882,0,0,1,3.993.067,3.288,3.288,0,0,1,.855,2.18l.006.34a3.756,3.756,0,0,1-.363,1.67,2.687,2.687,0,0,1-1.02,1.146,2.817,2.817,0,0,1-1.5.4,2.676,2.676,0,0,1-2-.8,3.2,3.2,0,0,1-.873-2.077h-1.518V32h-1.084V25.66h1.084Zm2.59.551a2.712,2.712,0,0,0,.489,1.693,1.572,1.572,0,0,0,1.315.639,1.546,1.546,0,0,0,1.31-.65,2.982,2.982,0,0,0,.483-1.811,2.722,2.722,0,0,0-.492-1.687,1.647,1.647,0,0,0-2.613-.012A2.944,2.944,0,0,0,369.65,28.9Zm10.963.4h-.791V32h-1.09V25.66h1.09v2.684h.709l2.133-2.684h1.313l-2.508,3.047L384.188,32h-1.377Zm8.42,2.7a2.277,2.277,0,0,1-.152-.668,2.419,2.419,0,0,1-1.8.785,2.238,2.238,0,0,1-1.538-.53,1.716,1.716,0,0,1-.6-1.345,1.792,1.792,0,0,1,.753-1.538,3.55,3.55,0,0,1,2.118-.548h1.055v-.5a1.217,1.217,0,0,0-.34-.905,1.366,1.366,0,0,0-1-.337,1.581,1.581,0,0,0-.973.293.863.863,0,0,0-.393.709h-1.09a1.5,1.5,0,0,1,.337-.917,2.3,2.3,0,0,1,.914-.7,3.075,3.075,0,0,1,1.269-.258,2.506,2.506,0,0,1,1.717.548,1.976,1.976,0,0,1,.645,1.509v2.918a3.567,3.567,0,0,0,.223,1.389V32Zm-1.8-.826a1.905,1.905,0,0,0,.967-.264,1.6,1.6,0,0,0,.662-.686v-1.3h-.85q-1.992,0-1.992,1.166a.987.987,0,0,0,.34.8A1.306,1.306,0,0,0,387.234,31.174ZM397,28.9a3.8,3.8,0,0,1-.662,2.332,2.122,2.122,0,0,1-1.793.885,2.325,2.325,0,0,1-1.816-.732v3.053h-1.084V25.66h.99l.053.7a2.233,2.233,0,0,1,1.84-.82,2.162,2.162,0,0,1,1.808.861A3.838,3.838,0,0,1,397,28.8Zm-1.084-.123a2.8,2.8,0,0,0-.457-1.693,1.472,1.472,0,0,0-1.254-.621,1.593,1.593,0,0,0-1.477.873v3.029a1.6,1.6,0,0,0,1.488.867,1.465,1.465,0,0,0,1.239-.618A3.058,3.058,0,0,0,395.918,28.777Zm7.172-2.238h-2.127V32h-1.084V26.539h-2.086V25.66h5.3Zm3.129,3.873L407.7,25.66h1.16l-2.549,7.318q-.592,1.582-1.881,1.582l-.205-.018-.4-.076v-.879l.293.023a1.442,1.442,0,0,0,.858-.223,1.611,1.611,0,0,0,.507-.814l.24-.645-2.262-6.27h1.184Zm6.105-1.816a9.063,9.063,0,0,1-.343,2.5,7.407,7.407,0,0,1-1.049,2.212,4.6,4.6,0,0,1-1.479,1.441l-.229-.662a4.711,4.711,0,0,0,1.45-2.147,9.29,9.29,0,0,0,.56-3.231v-.187a9.646,9.646,0,0,0-.258-2.288,7.722,7.722,0,0,0-.718-1.9,4.378,4.378,0,0,0-1.034-1.307l.229-.662a4.577,4.577,0,0,1,1.474,1.43,7.423,7.423,0,0,1,1.049,2.209A9.273,9.273,0,0,1,412.324,28.6Zm1.693,2.836a.679.679,0,0,1,.167-.469.636.636,0,0,1,.5-.187.655.655,0,0,1,.507.188.665.665,0,0,1,.173.469.629.629,0,0,1-.173.451.667.667,0,0,1-.507.182.6.6,0,0,1-.668-.633Z" transform="translate(353 745)"/>
  </g>
</svg>
