<svg id="Group_1" data-name="Group 1" xmlns="http://www.w3.org/2000/svg" xmlns:xlink="http://www.w3.org/1999/xlink" viewBox="247 158 706.679 627">
  <defs>
    <style>
      .cls-1 {
        fill: #fff;
      }

      .cls-2 {
        fill: #273341;
      }

      .cls-13, .cls-2, .cls-3, .cls-4 {
        stroke: rgba(0,0,0,0);
      }

      .cls-3 {
        fill: #c1cfdc;
      }

      .cls-4 {
        fill: #5f7080;
      }

      .cls-5 {
        fill: #e77e23;
      }

      .cls-6 {
        fill: #4db6ed;
      }

      .cls-7 {
        fill: #e84c3d;
      }

      .cls-8 {
        fill: rgba(0,0,0,0);
        stroke: #ecf1f5;
        stroke-width: 2px;
      }

      .cls-9 {
        fill: none;
      }

      .cls-10 {
        fill: #4bb6ec;
      }

      .cls-11 {
        fill: #f2f5fa;
      }

      .cls-12 {
        fill: #4e627a;
      }

      .cls-13, .cls-14 {
        fill: #4c627a;
      }

      .cls-15 {
        filter: url(#Path_7);
      }
    </style>
    <filter id="Path_7" x="247" y="158" width="706.679" height="627" filterUnits="userSpaceOnUse">
      <feOffset dy="10" input="SourceAlpha"/>
      <feGaussianBlur stdDeviation="10" result="blur"/>
      <feFlood flood-opacity="0.098"/>
      <feComposite operator="in" in2="blur"/>
      <feComposite in="SourceGraphic"/>
    </filter>
  </defs>
  <g class="cls-15" transform="matrix(1, 0, 0, 1, 0, 0)">
    <path id="Path_7-2" data-name="Path 7" class="cls-1" d="M6,0H640.679a6,6,0,0,1,6,6V561a6,6,0,0,1-6,6H6a6,6,0,0,1-6-6V6A6,6,0,0,1,6,0Z" transform="translate(277 178)"/>
  </g>
  <path id="Path_8" data-name="Path 8" class="cls-2" d="M13.32-4.963a5.754,5.754,0,0,1-1.832,3.83A6,6,0,0,1,7.391.215,5.511,5.511,0,0,1,2.949-1.772,8,8,0,0,1,1.278-7.09v-1.5a8.911,8.911,0,0,1,.779-3.835,5.817,5.817,0,0,1,2.208-2.541,6.147,6.147,0,0,1,3.309-.886,5.652,5.652,0,0,1,4,1.391,5.823,5.823,0,0,1,1.751,3.851H11.247a4.474,4.474,0,0,0-1.166-2.707,3.533,3.533,0,0,0-2.508-.838,3.691,3.691,0,0,0-3.1,1.461A6.7,6.7,0,0,0,3.352-8.54v1.515a6.89,6.89,0,0,0,1.063,4.05,3.437,3.437,0,0,0,2.976,1.5,3.969,3.969,0,0,0,2.637-.779,4.322,4.322,0,0,0,1.219-2.712Zm11.14-5.049h-3.9V0H18.573V-10.012H14.749v-1.611H24.46ZM33.569,0a4.175,4.175,0,0,1-.279-1.225A4.434,4.434,0,0,1,29.981.215a4.1,4.1,0,0,1-2.82-.972,3.145,3.145,0,0,1-1.1-2.465,3.286,3.286,0,0,1,1.38-2.82,6.508,6.508,0,0,1,3.883-1h1.934V-7.96a2.232,2.232,0,0,0-.623-1.66,2.5,2.5,0,0,0-1.837-.618,2.9,2.9,0,0,0-1.783.537,1.583,1.583,0,0,0-.72,1.3h-2a2.743,2.743,0,0,1,.618-1.681,4.216,4.216,0,0,1,1.676-1.284,5.638,5.638,0,0,1,2.326-.473,4.6,4.6,0,0,1,3.147,1,3.623,3.623,0,0,1,1.182,2.766v5.35a6.54,6.54,0,0,0,.408,2.546V0Zm-3.3-1.515A3.493,3.493,0,0,0,32.044-2a2.924,2.924,0,0,0,1.214-1.257V-5.64H31.7q-3.652,0-3.652,2.138a1.809,1.809,0,0,0,.623,1.461A2.4,2.4,0,0,0,30.271-1.515ZM47-10.012H43.1V0H41.11V-10.012H37.286v-1.611H47Zm9.453-1.611h1.987V0H56.45V-8.476L51.09,0H49.1V-11.623H51.09v8.486ZM66.29-1.407a2.863,2.863,0,0,0,1.858-.645,2.268,2.268,0,0,0,.881-1.611h1.88a3.6,3.6,0,0,1-.687,1.9A4.528,4.528,0,0,1,68.53-.322a4.882,4.882,0,0,1-2.24.537A4.788,4.788,0,0,1,62.514-1.37a6.311,6.311,0,0,1-1.4-4.334v-.333a7,7,0,0,1,.623-3.019,4.745,4.745,0,0,1,1.789-2.052,5.081,5.081,0,0,1,2.755-.73,4.662,4.662,0,0,1,3.25,1.171,4.185,4.185,0,0,1,1.38,3.04h-1.88a2.739,2.739,0,0,0-.854-1.853,2.657,2.657,0,0,0-1.9-.725,2.781,2.781,0,0,0-2.347,1.09A5.121,5.121,0,0,0,63.1-5.962v.376a5.019,5.019,0,0,0,.827,3.094A2.8,2.8,0,0,0,66.29-1.407Zm15.49-8.6h-3.9V0H75.894V-10.012H72.069v-1.611H81.78Zm9.453-1.611h1.987V0H91.233V-8.476L85.873,0H83.886V-11.623h1.987v8.486Zm8.8,6.671h-1.45V0h-2V-11.623h2V-6.7h1.3l3.91-4.92H106.2l-4.6,5.586L106.584,0H104.06ZM115.468,0a4.175,4.175,0,0,1-.279-1.225A4.434,4.434,0,0,1,111.88.215a4.1,4.1,0,0,1-2.82-.972,3.145,3.145,0,0,1-1.1-2.465,3.286,3.286,0,0,1,1.38-2.82,6.508,6.508,0,0,1,3.883-1h1.934V-7.96a2.232,2.232,0,0,0-.623-1.66,2.5,2.5,0,0,0-1.837-.618,2.9,2.9,0,0,0-1.783.537,1.583,1.583,0,0,0-.72,1.3h-2a2.743,2.743,0,0,1,.618-1.681,4.216,4.216,0,0,1,1.676-1.284,5.638,5.638,0,0,1,2.326-.473,4.6,4.6,0,0,1,3.147,1,3.623,3.623,0,0,1,1.182,2.766v5.35a6.54,6.54,0,0,0,.408,2.546V0Zm-3.3-1.515A3.493,3.493,0,0,0,113.942-2a2.924,2.924,0,0,0,1.214-1.257V-5.64H113.6q-3.652,0-3.652,2.138a1.809,1.809,0,0,0,.623,1.461A2.4,2.4,0,0,0,112.17-1.515Zm18.638-9.442a4.482,4.482,0,0,1,3.507,1.466,5.563,5.563,0,0,1,1.316,3.862v.183A6.6,6.6,0,0,1,135-2.508,4.7,4.7,0,0,1,133.176-.5a5.2,5.2,0,0,1-2.734.714,4.865,4.865,0,0,1-3.771-1.563,5.977,5.977,0,0,1-1.429-4.195V-6.51a10.845,10.845,0,0,1,1.359-5.822,5.694,5.694,0,0,1,4.012-2.632,5.328,5.328,0,0,0,2.03-.655,1.248,1.248,0,0,0,.526-1.063H134.8a3.25,3.25,0,0,1-.607,2.095,3.391,3.391,0,0,1-1.939,1.063l-1.482.333a4.99,4.99,0,0,0-2.659,1.413,5.111,5.111,0,0,0-1.155,2.648A4.9,4.9,0,0,1,130.808-10.957Zm-.387,1.633a2.925,2.925,0,0,0-2.32.983,4,4,0,0,0-.859,2.723v.172a4.636,4.636,0,0,0,.865,2.959,2.825,2.825,0,0,0,2.336,1.09,2.816,2.816,0,0,0,2.342-1.1,5.106,5.106,0,0,0,.859-3.2,3.875,3.875,0,0,0-.865-2.637A2.964,2.964,0,0,0,130.421-9.324Zm17.263,3.642a6.96,6.96,0,0,1-1.214,4.275A3.891,3.891,0,0,1,143.183.215a4.263,4.263,0,0,1-3.33-1.343v5.6h-1.987V-11.623h1.815l.1,1.289a4.094,4.094,0,0,1,3.373-1.5,3.963,3.963,0,0,1,3.314,1.579,7.036,7.036,0,0,1,1.219,4.394ZM145.7-5.908a5.135,5.135,0,0,0-.838-3.1,2.7,2.7,0,0,0-2.3-1.139,2.921,2.921,0,0,0-2.707,1.6V-3a2.927,2.927,0,0,0,2.729,1.59,2.686,2.686,0,0,0,2.272-1.133A5.606,5.606,0,0,0,145.7-5.908Zm3.985-.011a6.865,6.865,0,0,1,.671-3.072,5.008,5.008,0,0,1,1.869-2.105,5.088,5.088,0,0,1,2.734-.741,4.9,4.9,0,0,1,3.84,1.644,6.323,6.323,0,0,1,1.466,4.372v.14a6.925,6.925,0,0,1-.65,3.045,4.935,4.935,0,0,1-1.858,2.1,5.146,5.146,0,0,1-2.777.752,4.889,4.889,0,0,1-3.83-1.644,6.291,6.291,0,0,1-1.466-4.351Zm2,.236a4.972,4.972,0,0,0,.9,3.1,2.871,2.871,0,0,0,2.4,1.171,2.853,2.853,0,0,0,2.406-1.187,5.437,5.437,0,0,0,.892-3.325,4.964,4.964,0,0,0-.908-3.1,2.886,2.886,0,0,0-2.412-1.187,2.854,2.854,0,0,0-2.374,1.171A5.4,5.4,0,0,0,151.68-5.683ZM172.251,0h-1.987V-4.963h-5.339V0h-2V-11.623h2v5.038h5.339v-5.038h1.987Zm10.71-11.623h1.987V0h-1.987V-8.476L177.6,0h-1.987V-11.623H177.6v8.486Zm15,5.94a6.96,6.96,0,0,1-1.214,4.275A3.891,3.891,0,0,1,193.456.215a4.263,4.263,0,0,1-3.33-1.343v5.6h-1.987V-11.623h1.815l.1,1.289a4.094,4.094,0,0,1,3.373-1.5,3.963,3.963,0,0,1,3.314,1.579,7.036,7.036,0,0,1,1.219,4.394Zm-1.987-.226a5.135,5.135,0,0,0-.838-3.1,2.7,2.7,0,0,0-2.3-1.139,2.921,2.921,0,0,0-2.707,1.6V-3a2.927,2.927,0,0,0,2.729,1.59,2.686,2.686,0,0,0,2.272-1.133A5.606,5.606,0,0,0,195.97-5.908Zm3.985-.011a6.865,6.865,0,0,1,.671-3.072A5.008,5.008,0,0,1,202.5-11.1a5.088,5.088,0,0,1,2.734-.741,4.9,4.9,0,0,1,3.84,1.644,6.323,6.323,0,0,1,1.466,4.372v.14a6.925,6.925,0,0,1-.65,3.045,4.935,4.935,0,0,1-1.858,2.1,5.146,5.146,0,0,1-2.777.752,4.889,4.889,0,0,1-3.83-1.644,6.291,6.291,0,0,1-1.466-4.351Zm2,.236a4.972,4.972,0,0,0,.9,3.1,2.871,2.871,0,0,0,2.4,1.171,2.853,2.853,0,0,0,2.406-1.187,5.437,5.437,0,0,0,.892-3.325,4.964,4.964,0,0,0-.908-3.1,2.886,2.886,0,0,0-2.412-1.187,2.854,2.854,0,0,0-2.374,1.171A5.4,5.4,0,0,0,201.953-5.683ZM213.211,0V-11.623h4.533a6.512,6.512,0,0,1,3.561.811,2.663,2.663,0,0,1,1.241,2.379,2.379,2.379,0,0,1-.483,1.456,3,3,0,0,1-1.429.994,3.158,3.158,0,0,1,1.692.967,2.5,2.5,0,0,1,.639,1.719,2.834,2.834,0,0,1-1.176,2.449A5.612,5.612,0,0,1,218.464,0ZM215.2-5.1v3.5h3.287a3.1,3.1,0,0,0,1.864-.462,1.529,1.529,0,0,0,.618-1.3q0-1.74-2.557-1.74Zm0-1.59h2.567q2.793,0,2.793-1.633t-2.643-1.687H215.2ZM232.772,0a4.175,4.175,0,0,1-.279-1.225A4.434,4.434,0,0,1,229.185.215a4.1,4.1,0,0,1-2.82-.972,3.145,3.145,0,0,1-1.1-2.465,3.286,3.286,0,0,1,1.38-2.82,6.508,6.508,0,0,1,3.883-1h1.934V-7.96a2.232,2.232,0,0,0-.623-1.66A2.5,2.5,0,0,0,230-10.237a2.9,2.9,0,0,0-1.783.537,1.583,1.583,0,0,0-.72,1.3h-2a2.743,2.743,0,0,1,.618-1.681,4.216,4.216,0,0,1,1.676-1.284,5.638,5.638,0,0,1,2.326-.473,4.6,4.6,0,0,1,3.147,1,3.623,3.623,0,0,1,1.182,2.766v5.35a6.54,6.54,0,0,0,.408,2.546V0Zm-3.3-1.515A3.493,3.493,0,0,0,231.247-2a2.924,2.924,0,0,0,1.214-1.257V-5.64H230.9q-3.652,0-3.652,2.138a1.809,1.809,0,0,0,.623,1.461A2.4,2.4,0,0,0,229.475-1.515ZM247.06,0h-1.987V-4.963h-5.339V0h-2V-11.623h2v5.038h5.339v-5.038h1.987Zm10.71-11.623h1.987V0H257.77V-8.476L252.409,0h-1.987V-11.623h1.987v8.486Zm14.062,0V0h-2V-4.522h-3L264.1,0h-2.148l2.922-4.823a3.469,3.469,0,0,1-1.713-1.262,3.393,3.393,0,0,1-.6-1.993,3.143,3.143,0,0,1,1.192-2.562,4.941,4.941,0,0,1,3.19-.983Zm-7.272,3.566a1.753,1.753,0,0,0,.58,1.37,2.252,2.252,0,0,0,1.536.532h3.158v-3.856h-2.857a2.677,2.677,0,0,0-1.762.542A1.747,1.747,0,0,0,264.559-8.057Z" transform="translate(335 244)"/>
  <path id="Path_9" data-name="Path 9" class="cls-3" d="M.75-3.469a8.929,8.929,0,0,1,.363-2.569A7.052,7.052,0,0,1,2.18-8.212,4.234,4.234,0,0,1,3.668-9.557l.281.832A4.349,4.349,0,0,0,2.61-6.812a8.568,8.568,0,0,0-.56,2.944l-.006.5A9.315,9.315,0,0,0,2.546-.2a4.668,4.668,0,0,0,1.4,2.118l-.281.791A4.242,4.242,0,0,1,2.177,1.362,7.051,7.051,0,0,1,1.11-.812,9.281,9.281,0,0,1,.75-3.469ZM12.691-7.723h.129a3.657,3.657,0,0,1,1.79.442,3.14,3.14,0,0,1,1.254,1.245,3.638,3.638,0,0,1,.448,1.8,3.577,3.577,0,0,1-.448,1.79,3.156,3.156,0,0,1-1.242,1.233,3.656,3.656,0,0,1-1.778.445h-.152V.352H11.268V-.762h-.141a3.686,3.686,0,0,1-1.8-.442A3.117,3.117,0,0,1,8.077-2.437a3.586,3.586,0,0,1-.442-1.781,3.657,3.657,0,0,1,.445-1.8A3.164,3.164,0,0,1,9.328-7.274a3.626,3.626,0,0,1,1.8-.448h.141v-1.16h1.424ZM11.127-6.533a1.963,1.963,0,0,0-1.538.615,2.448,2.448,0,0,0-.554,1.7,2.379,2.379,0,0,0,.551,1.661,2,2,0,0,0,1.559.606h.123V-6.533Zm1.564,0v4.582h.141a1.945,1.945,0,0,0,1.532-.615,2.411,2.411,0,0,0,.548-1.664,2.447,2.447,0,0,0-.548-1.687,1.967,1.967,0,0,0-1.55-.615Zm4.5,3.3a3.738,3.738,0,0,1,.369-1.679A2.7,2.7,0,0,1,18.6-6.056a2.922,2.922,0,0,1,1.535-.4,2.769,2.769,0,0,1,2.083.826,3.249,3.249,0,0,1,.864,2.191l.006.334a3.772,3.772,0,0,1-.36,1.676A2.664,2.664,0,0,1,21.694-.287a2.944,2.944,0,0,1-1.55.4A2.75,2.75,0,0,1,18-.776a3.422,3.422,0,0,1-.806-2.382Zm1.424.123a2.555,2.555,0,0,0,.4,1.532,1.314,1.314,0,0,0,1.125.554,1.3,1.3,0,0,0,1.122-.562,2.822,2.822,0,0,0,.4-1.646,2.522,2.522,0,0,0-.413-1.523,1.319,1.319,0,0,0-1.122-.562,1.307,1.307,0,0,0-1.107.554A2.768,2.768,0,0,0,18.615-3.105Zm10.664-2.1H27.223V0H25.8V-5.209H23.766V-6.34h5.514Zm.68,1.98a3.738,3.738,0,0,1,.369-1.679,2.7,2.7,0,0,1,1.037-1.148,2.922,2.922,0,0,1,1.535-.4,2.769,2.769,0,0,1,2.083.826,3.249,3.249,0,0,1,.864,2.191l.006.334a3.772,3.772,0,0,1-.36,1.676A2.664,2.664,0,0,1,34.462-.287a2.944,2.944,0,0,1-1.55.4,2.75,2.75,0,0,1-2.147-.894,3.422,3.422,0,0,1-.806-2.382Zm1.424.123a2.555,2.555,0,0,0,.4,1.532,1.314,1.314,0,0,0,1.125.554,1.3,1.3,0,0,0,1.122-.562,2.822,2.822,0,0,0,.4-1.646,2.522,2.522,0,0,0-.413-1.523A1.319,1.319,0,0,0,32.9-5.314a1.307,1.307,0,0,0-1.107.554A2.768,2.768,0,0,0,31.383-3.105ZM39.662-1.02a1.287,1.287,0,0,0,.885-.311,1.061,1.061,0,0,0,.375-.768h1.342a2.091,2.091,0,0,1-.369,1.1,2.421,2.421,0,0,1-.937.812,2.794,2.794,0,0,1-1.277.3A2.7,2.7,0,0,1,37.57-.744a3.416,3.416,0,0,1-.779-2.379V-3.27a3.359,3.359,0,0,1,.773-2.317,2.678,2.678,0,0,1,2.109-.87,2.6,2.6,0,0,1,1.843.659,2.361,2.361,0,0,1,.747,1.731H40.922a1.3,1.3,0,0,0-.372-.9,1.2,1.2,0,0,0-.888-.352,1.253,1.253,0,0,0-1.066.5,2.556,2.556,0,0,0-.381,1.521v.229a2.6,2.6,0,0,0,.372,1.538A1.252,1.252,0,0,0,39.662-1.02Zm8.666-4.189H46.271V0H44.848V-5.209H42.814V-6.34h5.514Zm3.164,3.17,1.289-4.3H54.3l-2.52,7.3a2.048,2.048,0,0,1-1.969,1.6,2.551,2.551,0,0,1-.686-.105v-1.1l.27.018a1.385,1.385,0,0,0,.812-.2,1.3,1.3,0,0,0,.431-.659l.205-.545L48.615-6.34H50.15Zm3.65.9a3.773,3.773,0,0,0,.794-1.257,5.581,5.581,0,0,0,.243-1.521l.082-2.426h4.4v5.2h.879V1.887H60.123V0H56.057V1.887H54.615l.006-3.023Zm1.67,0h2.432V-5.115h-1.6L57.6-3.9A5.214,5.214,0,0,1,56.813-1.137Zm9.7-5.2h1.418V0H66.516V-4.23L64.031,0H62.613V-6.34h1.418v4.23Zm8.01,0V0H73.107V-2.326h-1.33L70.424,0H68.947l1.494-2.561a1.99,1.99,0,0,1-.9-.7,1.81,1.81,0,0,1-.313-1.049,1.8,1.8,0,0,1,.683-1.45,2.847,2.847,0,0,1,1.843-.577ZM70.652-4.277a.806.806,0,0,0,.3.647,1.138,1.138,0,0,0,.759.249h1.4V-5.209H71.795a1.243,1.243,0,0,0-.832.264A.839.839,0,0,0,70.652-4.277Zm11.186.9A8.816,8.816,0,0,1,81.48-.864a7.114,7.114,0,0,1-1.084,2.2,4.245,4.245,0,0,1-1.518,1.374L78.6,1.922A4.5,4.5,0,0,0,79.989-.155a9.227,9.227,0,0,0,.513-3.19V-3.48a9.363,9.363,0,0,0-.445-2.968A5.235,5.235,0,0,0,78.779-8.6L78.6-8.76l.281-.8a4.2,4.2,0,0,1,1.453,1.289A6.994,6.994,0,0,1,81.41-6.2a8.628,8.628,0,0,1,.422,2.364Z" transform="translate(616 244)"/>
  <path id="Path_10" data-name="Path 10" class="cls-2" d="M9.268-7.765H4.759V0H2.215V-19.2H8.569a7.521,7.521,0,0,1,4.99,1.477,5.312,5.312,0,0,1,1.747,4.3,5.168,5.168,0,0,1-.969,3.125,5.784,5.784,0,0,1-2.7,1.991L16.15-.158V0H13.434ZM4.759-9.835H8.648a4.392,4.392,0,0,0,3-.976,3.3,3.3,0,0,0,1.114-2.61A3.471,3.471,0,0,0,11.7-16.15a4.5,4.5,0,0,0-3.065-.962H4.759ZM32.366-19.2V-6.144A6.122,6.122,0,0,1,30.658-1.7,6.88,6.88,0,0,1,26.064.237l-.672.026a7.185,7.185,0,0,1-5.023-1.7,6.082,6.082,0,0,1-1.9-4.68V-19.2h2.5v13A4.39,4.39,0,0,0,22.122-2.96a4.408,4.408,0,0,0,3.27,1.154,4.438,4.438,0,0,0,3.289-1.147,4.382,4.382,0,0,0,1.14-3.23V-19.2ZM36.36,0V-19.2h6.275a7.285,7.285,0,0,1,4.7,1.292,4.656,4.656,0,0,1,1.575,3.823,3.9,3.9,0,0,1-.765,2.38,4.957,4.957,0,0,1-2.083,1.6,4.452,4.452,0,0,1,2.459,1.655,4.749,4.749,0,0,1,.9,2.907,5.134,5.134,0,0,1-1.674,4.061A6.924,6.924,0,0,1,43.018,0Zm2.531-8.978V-2.07h4.179a4.024,4.024,0,0,0,2.788-.916,3.218,3.218,0,0,0,1.022-2.525q0-3.467-3.771-3.467Zm0-2.03h3.823a4.013,4.013,0,0,0,2.656-.831,2.782,2.782,0,0,0,1-2.254,2.735,2.735,0,0,0-.923-2.3,4.539,4.539,0,0,0-2.808-.719H38.892Z" transform="translate(335 351)"/>
  <path id="Path_11" data-name="Path 11" class="cls-2" d="M8.76-18.373h3.122a6.862,6.862,0,0,0,4.627-1.55,5.178,5.178,0,0,0,1.685-4.065q0-5.75-5.728-5.75a5.958,5.958,0,0,0-4.3,1.539,5.385,5.385,0,0,0-1.606,4.077H2.4a8.342,8.342,0,0,1,2.841-6.458,10.351,10.351,0,0,1,7.221-2.572A10.228,10.228,0,0,1,19.721-30.7,8.844,8.844,0,0,1,22.349-23.9a7.179,7.179,0,0,1-1.381,4.133,8.34,8.34,0,0,1-3.762,2.987,8.037,8.037,0,0,1,4.167,2.83,7.86,7.86,0,0,1,1.471,4.829,8.921,8.921,0,0,1-2.875,6.985A10.766,10.766,0,0,1,12.488.449,11.051,11.051,0,0,1,5-2.044,8.271,8.271,0,0,1,2.111-8.625H6.289A5.345,5.345,0,0,0,7.974-4.492a6.407,6.407,0,0,0,4.515,1.55,6.287,6.287,0,0,0,4.6-1.572,6.059,6.059,0,0,0,1.595-4.515,5.5,5.5,0,0,0-1.752-4.38,7.633,7.633,0,0,0-5.054-1.572H8.76Zm37.33,7.39h4.537v3.392H46.09V0H41.912V-7.592H27.021V-10.04L41.665-32.7H46.09Zm-14.353,0H41.912V-27.021l-.494.9ZM56.287-16.4,57.949-32.7H74.705v3.841H61.476l-.988,8.917a10.553,10.553,0,0,1,5.458-1.415,9.023,9.023,0,0,1,7.1,2.954,11.576,11.576,0,0,1,2.628,7.985,11.173,11.173,0,0,1-2.729,7.962A9.947,9.947,0,0,1,65.316.449a10.337,10.337,0,0,1-7.075-2.4A9.593,9.593,0,0,1,55.119-8.6H59.05a6.6,6.6,0,0,0,2,4.234,6.216,6.216,0,0,0,4.268,1.426,5.607,5.607,0,0,0,4.548-1.977,8.263,8.263,0,0,0,1.651-5.458,7.584,7.584,0,0,0-1.786-5.267,6.074,6.074,0,0,0-4.75-1.988,6.85,6.85,0,0,0-4.268,1.19l-1.1.9ZM80.5,6.514,78.142,4.9a10.839,10.839,0,0,0,2.2-6.064V-4.919h4.065v3.257A10.231,10.231,0,0,1,83.3,2.875,10.622,10.622,0,0,1,80.5,6.514ZM102.894,0H98.716V-27.694l-8.378,3.077v-3.773l11.9-4.47h.651Zm33.6,0H115.067V-2.987l11.32-12.578a26.9,26.9,0,0,0,3.47-4.638,7.741,7.741,0,0,0,.955-3.695,5.868,5.868,0,0,0-1.55-4.2,5.419,5.419,0,0,0-4.133-1.64,6.418,6.418,0,0,0-4.818,1.763,6.735,6.735,0,0,0-1.718,4.908h-4.155a9.646,9.646,0,0,1,2.909-7.3,10.783,10.783,0,0,1,7.783-2.785,10.361,10.361,0,0,1,7.21,2.392,8.16,8.16,0,0,1,2.65,6.368q0,4.829-6.154,11.5l-8.76,9.5H136.5Zm21.944-10.983h4.537v3.392h-4.537V0h-4.178V-7.592H139.37V-10.04L154.015-32.7h4.425Zm-14.353,0h10.175V-27.021l-.494.9Zm23.157,8.8a2.6,2.6,0,0,1,.64-1.8,2.439,2.439,0,0,1,1.92-.719,2.512,2.512,0,0,1,1.943.719,2.55,2.55,0,0,1,.663,1.8,2.411,2.411,0,0,1-.663,1.729,2.558,2.558,0,0,1-1.943.7,2.482,2.482,0,0,1-1.92-.7A2.459,2.459,0,0,1,167.244-2.179Zm32.1-11.77q0,7.3-2.493,10.849T189.054.449q-5.233,0-7.749-3.47T178.7-13.387v-5.548q0-7.21,2.493-10.714t7.816-3.5q5.278,0,7.771,3.38t2.561,10.433Zm-4.155-5.683q0-5.278-1.482-7.693a5.1,5.1,0,0,0-4.694-2.415,5.035,5.035,0,0,0-4.649,2.4q-1.46,2.4-1.5,7.39V-13.3q0,5.3,1.539,7.828a5.093,5.093,0,0,0,4.661,2.527,5.023,5.023,0,0,0,4.571-2.381q1.494-2.381,1.561-7.5Zm29.985,5.683q0,7.3-2.493,10.849T214.884.449q-5.233,0-7.749-3.47t-2.605-10.366v-5.548q0-7.21,2.493-10.714t7.816-3.5q5.278,0,7.771,3.38t2.561,10.433Zm-4.155-5.683q0-5.278-1.482-7.693a5.1,5.1,0,0,0-4.694-2.415,5.035,5.035,0,0,0-4.649,2.4q-1.46,2.4-1.5,7.39V-13.3q0,5.3,1.539,7.828a5.093,5.093,0,0,0,4.661,2.527,5.023,5.023,0,0,0,4.571-2.381q1.494-2.381,1.561-7.5Z" transform="translate(392 367)"/>
  <path id="Path_12" data-name="Path 12" class="cls-4" d="M9.441-4.988a6.6,6.6,0,0,1-.527,2.736A3.994,3.994,0,0,1,7.419-.469,4.111,4.111,0,0,1,5.164.146,4.076,4.076,0,0,1,2.93-.472,4.09,4.09,0,0,1,1.417-2.238,6.33,6.33,0,0,1,.864-4.893v-.769A6.518,6.518,0,0,1,1.4-8.379a4.075,4.075,0,0,1,1.512-1.805,4.058,4.058,0,0,1,2.238-.626,4.134,4.134,0,0,1,2.26.619A3.987,3.987,0,0,1,8.914-8.4a6.629,6.629,0,0,1,.527,2.736Zm-1.4-.688A4.781,4.781,0,0,0,7.28-8.588,2.512,2.512,0,0,0,5.149-9.6a2.485,2.485,0,0,0-2.1,1.014,4.683,4.683,0,0,0-.787,2.816v.784A4.788,4.788,0,0,0,3.036-2.1,2.5,2.5,0,0,0,5.164-1.047,2.486,2.486,0,0,0,7.273-2.04a4.761,4.761,0,0,0,.769-2.845ZM17.82,0H16.465V-6.8H12.817V0H11.455V-7.925H17.82Zm8.672-7.925V0H25.129V-6.8h-2.7l-.161,2.966a6.557,6.557,0,0,1-.685,2.922A2,2,0,0,1,19.834,0h-.542V-1.194l.388-.029a1.12,1.12,0,0,0,.945-.762,8.587,8.587,0,0,0,.366-2.549l.146-3.391ZM33.56,0a2.846,2.846,0,0,1-.19-.835,3.023,3.023,0,0,1-2.256.981,2.8,2.8,0,0,1-1.923-.663A2.145,2.145,0,0,1,28.44-2.2a2.24,2.24,0,0,1,.941-1.923A4.437,4.437,0,0,1,32.029-4.8h1.318v-.623a1.522,1.522,0,0,0-.425-1.132A1.707,1.707,0,0,0,31.67-6.98a1.976,1.976,0,0,0-1.216.366,1.079,1.079,0,0,0-.491.886H28.6a1.87,1.87,0,0,1,.421-1.146,2.874,2.874,0,0,1,1.143-.875,3.844,3.844,0,0,1,1.586-.322,3.133,3.133,0,0,1,2.146.685A2.47,2.47,0,0,1,34.7-5.5v3.647A4.459,4.459,0,0,0,34.98-.117V0ZM31.311-1.033a2.381,2.381,0,0,0,1.208-.33,1.994,1.994,0,0,0,.828-.857V-3.845H32.285q-2.49,0-2.49,1.458a1.234,1.234,0,0,0,.425,1A1.633,1.633,0,0,0,31.311-1.033Zm11.4-5.793H40.056V0H38.7V-6.826H36.094v-1.1h6.621ZM48.926,0a2.846,2.846,0,0,1-.19-.835,3.023,3.023,0,0,1-2.256.981,2.8,2.8,0,0,1-1.923-.663A2.145,2.145,0,0,1,43.806-2.2a2.24,2.24,0,0,1,.941-1.923A4.437,4.437,0,0,1,47.4-4.8h1.318v-.623a1.522,1.522,0,0,0-.425-1.132,1.707,1.707,0,0,0-1.252-.421,1.976,1.976,0,0,0-1.216.366,1.079,1.079,0,0,0-.491.886H43.967a1.87,1.87,0,0,1,.421-1.146,2.874,2.874,0,0,1,1.143-.875,3.844,3.844,0,0,1,1.586-.322,3.133,3.133,0,0,1,2.146.685A2.47,2.47,0,0,1,50.068-5.5v3.647a4.459,4.459,0,0,0,.278,1.736V0ZM46.677-1.033a2.381,2.381,0,0,0,1.208-.33,1.994,1.994,0,0,0,.828-.857V-3.845H47.651q-2.49,0-2.49,1.458a1.234,1.234,0,0,0,.425,1A1.633,1.633,0,0,0,46.677-1.033Zm56.609-2.944H99.712V-5.083h3.574ZM120.059,0H118.7V-9.031l-2.732,1v-1.23l3.882-1.458h.212Zm10.854-9.9L126.5,0h-1.421l4.4-9.551h-5.771v-1.113h7.207Zm7.258,6.321h1.479v1.106h-1.479V0h-1.362V-2.476h-4.856v-.8l4.775-7.39h1.443Zm-4.68,0h3.318V-8.811l-.161.293Zm7.478,5.706L140.2,1.6a3.534,3.534,0,0,0,.718-1.978V-1.6h1.326V-.542a3.336,3.336,0,0,1-.363,1.479A3.464,3.464,0,0,1,140.969,2.124ZM148.271,0h-1.362V-9.031l-2.732,1v-1.23l3.882-1.458h.212Zm10.957,0h-6.987V-.974l3.691-4.1a8.77,8.77,0,0,0,1.132-1.512,2.524,2.524,0,0,0,.311-1.2,1.913,1.913,0,0,0-.505-1.37,1.767,1.767,0,0,0-1.348-.535,2.093,2.093,0,0,0-1.571.575,2.2,2.2,0,0,0-.56,1.6h-1.355a3.145,3.145,0,0,1,.948-2.38,3.516,3.516,0,0,1,2.538-.908,3.379,3.379,0,0,1,2.351.78,2.661,2.661,0,0,1,.864,2.076q0,1.575-2.007,3.75l-2.856,3.1h5.354Zm8.423,0h-6.987V-.974l3.691-4.1a8.77,8.77,0,0,0,1.132-1.512,2.524,2.524,0,0,0,.311-1.2,1.913,1.913,0,0,0-.505-1.37,1.767,1.767,0,0,0-1.348-.535,2.093,2.093,0,0,0-1.571.575,2.2,2.2,0,0,0-.56,1.6h-1.355a3.145,3.145,0,0,1,.948-2.38,3.516,3.516,0,0,1,2.538-.908,3.379,3.379,0,0,1,2.351.78,2.661,2.661,0,0,1,.864,2.076q0,1.575-2.007,3.75l-2.856,3.1h5.354Zm1.6-.71a.849.849,0,0,1,.209-.586.8.8,0,0,1,.626-.234.819.819,0,0,1,.634.234.831.831,0,0,1,.216.586.786.786,0,0,1-.216.564.834.834,0,0,1-.634.227.809.809,0,0,1-.626-.227A.8.8,0,0,1,169.255-.71Zm10.466-3.838a6.2,6.2,0,0,1-.813,3.538A2.891,2.891,0,0,1,176.367.146,2.912,2.912,0,0,1,173.84-.985a5.882,5.882,0,0,1-.85-3.38V-6.174a6.059,6.059,0,0,1,.813-3.494,2.914,2.914,0,0,1,2.549-1.143,2.94,2.94,0,0,1,2.534,1.1,5.847,5.847,0,0,1,.835,3.4ZM178.367-6.4a4.965,4.965,0,0,0-.483-2.509,1.664,1.664,0,0,0-1.531-.787,1.642,1.642,0,0,0-1.516.784,4.848,4.848,0,0,0-.491,2.41v2.168a5.045,5.045,0,0,0,.5,2.552,1.661,1.661,0,0,0,1.52.824,1.638,1.638,0,0,0,1.49-.776,4.862,4.862,0,0,0,.509-2.446Zm9.778,1.853a6.2,6.2,0,0,1-.813,3.538A2.891,2.891,0,0,1,184.79.146a2.912,2.912,0,0,1-2.527-1.132,5.882,5.882,0,0,1-.85-3.38V-6.174a6.059,6.059,0,0,1,.813-3.494,2.914,2.914,0,0,1,2.549-1.143,2.94,2.94,0,0,1,2.534,1.1,5.847,5.847,0,0,1,.835,3.4ZM186.79-6.4a4.965,4.965,0,0,0-.483-2.509,1.664,1.664,0,0,0-1.531-.787,1.642,1.642,0,0,0-1.516.784,4.848,4.848,0,0,0-.491,2.41v2.168a5.045,5.045,0,0,0,.5,2.552,1.661,1.661,0,0,0,1.52.824,1.638,1.638,0,0,0,1.49-.776,4.862,4.862,0,0,0,.509-2.446Z" transform="translate(358 427)"/>
  <path id="Path_13" data-name="Path 13" class="cls-5" d="M7.5,0A7.5,7.5,0,1,1,0,7.5,7.5,7.5,0,0,1,7.5,0Z" transform="translate(336 415)"/>
  <path id="Path_14" data-name="Path 14" class="cls-4" d="M9.382,0H7.969V-9.507H2.71V0H1.3V-10.664H9.382ZM18.42-3.875a4.745,4.745,0,0,1-.828,2.915A2.653,2.653,0,0,1,15.352.146a2.906,2.906,0,0,1-2.271-.916V3.047H11.726V-7.925h1.238l.066.879a2.791,2.791,0,0,1,2.3-1.025,2.7,2.7,0,0,1,2.26,1.077,4.8,4.8,0,0,1,.831,3Zm-1.355-.154a3.5,3.5,0,0,0-.571-2.117,1.84,1.84,0,0,0-1.567-.776A1.992,1.992,0,0,0,13.081-5.83v3.787a2,2,0,0,0,1.86,1.084,1.832,1.832,0,0,0,1.549-.773A3.822,3.822,0,0,0,17.065-4.028ZM23.43.146A3.463,3.463,0,0,1,20.808-.912,3.928,3.928,0,0,1,19.8-3.743v-.249a4.756,4.756,0,0,1,.45-2.106,3.514,3.514,0,0,1,1.26-1.45,3.167,3.167,0,0,1,1.754-.524,2.968,2.968,0,0,1,2.4,1.018,4.408,4.408,0,0,1,.857,2.915v.564H21.152a2.817,2.817,0,0,0,.685,1.893A2.153,2.153,0,0,0,23.5-.959a2.36,2.36,0,0,0,1.216-.293,3.055,3.055,0,0,0,.872-.776l.828.645A3.328,3.328,0,0,1,23.43.146Zm-.168-7.1a1.807,1.807,0,0,0-1.377.6A2.9,2.9,0,0,0,21.2-4.687h3.97v-.1a2.581,2.581,0,0,0-.557-1.6A1.7,1.7,0,0,0,23.262-6.958Zm4.761,5.852.469-.579a5.492,5.492,0,0,0,.9-3.076l.125-3.164h5.1v6.819H35.64V2.329H34.285V0h-5.53V2.329H27.4l.007-3.435Zm1.6,0h3.64V-6.672H30.828l-.081,1.89A6.556,6.556,0,0,1,29.626-1.106Zm7.156-2.93A4.681,4.681,0,0,1,37.24-6.13a3.415,3.415,0,0,1,1.274-1.436,3.469,3.469,0,0,1,1.864-.505A3.342,3.342,0,0,1,43-6.951,4.311,4.311,0,0,1,44-3.97v.1A4.722,4.722,0,0,1,43.553-1.8,3.365,3.365,0,0,1,42.286-.366a3.509,3.509,0,0,1-1.893.513A3.334,3.334,0,0,1,37.782-.974a4.29,4.29,0,0,1-1-2.966Zm1.362.161a3.39,3.39,0,0,0,.612,2.117,1.957,1.957,0,0,0,1.637.8,1.945,1.945,0,0,0,1.641-.809,3.707,3.707,0,0,0,.608-2.267,3.384,3.384,0,0,0-.619-2.113,1.968,1.968,0,0,0-1.644-.809,1.946,1.946,0,0,0-1.619.8A3.68,3.68,0,0,0,38.145-3.875ZM52.178,0H50.823V-6.8H47.175V0H45.813V-7.925h6.365ZM60.85-7.925V0H59.487V-6.8h-2.7l-.161,2.966a6.557,6.557,0,0,1-.685,2.922A2,2,0,0,1,54.192,0H53.65V-1.194l.388-.029a1.12,1.12,0,0,0,.945-.762,8.587,8.587,0,0,0,.366-2.549L55.5-7.925ZM67.917,0a2.846,2.846,0,0,1-.19-.835,3.023,3.023,0,0,1-2.256.981,2.8,2.8,0,0,1-1.923-.663A2.145,2.145,0,0,1,62.8-2.2a2.24,2.24,0,0,1,.941-1.923A4.437,4.437,0,0,1,66.387-4.8h1.318v-.623a1.522,1.522,0,0,0-.425-1.132,1.707,1.707,0,0,0-1.252-.421,1.976,1.976,0,0,0-1.216.366,1.079,1.079,0,0,0-.491.886H62.959a1.87,1.87,0,0,1,.421-1.146,2.874,2.874,0,0,1,1.143-.875,3.844,3.844,0,0,1,1.586-.322,3.133,3.133,0,0,1,2.146.685A2.47,2.47,0,0,1,69.06-5.5v3.647a4.459,4.459,0,0,0,.278,1.736V0ZM65.669-1.033a2.381,2.381,0,0,0,1.208-.33,1.994,1.994,0,0,0,.828-.857V-3.845H66.643q-2.49,0-2.49,1.458a1.234,1.234,0,0,0,.425,1A1.633,1.633,0,0,0,65.669-1.033Zm11.4-5.793H74.414V0H73.059V-6.826H70.452v-1.1h6.621Zm2.8,1.633h2.058a3.171,3.171,0,0,1,2.131.7,2.359,2.359,0,0,1,.784,1.868,2.426,2.426,0,0,1-.806,1.9A3.14,3.14,0,0,1,81.87,0H78.516V-7.925h1.355ZM87.671,0H86.309V-7.925h1.362Zm-7.8-4.087v2.981h2.014A1.657,1.657,0,0,0,83.064-1.5a1.4,1.4,0,0,0,.417-1.073,1.491,1.491,0,0,0-.406-1.08,1.555,1.555,0,0,0-1.139-.436ZM104-3.977h-3.574V-5.083H104Zm24.939-.71a3.315,3.315,0,0,1-1.014.813,2.752,2.752,0,0,1-1.293.308,2.841,2.841,0,0,1-1.608-.454A2.952,2.952,0,0,1,123.962-5.3a4.357,4.357,0,0,1-.374-1.82A4.439,4.439,0,0,1,124-9.045a2.986,2.986,0,0,1,1.154-1.311,3.289,3.289,0,0,1,1.743-.454,2.978,2.978,0,0,1,2.494,1.183A5.159,5.159,0,0,1,130.3-6.4v.4a6.894,6.894,0,0,1-1.23,4.545A4.727,4.727,0,0,1,125.354.007h-.264V-1.135h.286a3.726,3.726,0,0,0,2.578-.875A3.76,3.76,0,0,0,128.936-4.687Zm-2.087,0A2.092,2.092,0,0,0,128.1-5.1a2.461,2.461,0,0,0,.839-1.033V-6.68a3.729,3.729,0,0,0-.579-2.168,1.727,1.727,0,0,0-1.465-.835A1.74,1.74,0,0,0,125.464-9a2.825,2.825,0,0,0-.542,1.805,2.94,2.94,0,0,0,.524,1.8A1.658,1.658,0,0,0,126.848-4.687ZM139.153,0h-6.987V-.974l3.691-4.1a8.77,8.77,0,0,0,1.132-1.512,2.524,2.524,0,0,0,.311-1.2,1.913,1.913,0,0,0-.505-1.37,1.767,1.767,0,0,0-1.348-.535,2.093,2.093,0,0,0-1.571.575,2.2,2.2,0,0,0-.56,1.6H131.96a3.145,3.145,0,0,1,.948-2.38,3.516,3.516,0,0,1,2.538-.908,3.379,3.379,0,0,1,2.351.78,2.661,2.661,0,0,1,.864,2.076q0,1.575-2.007,3.75l-2.856,3.1h5.354Zm1.531,2.124-.769-.527a3.534,3.534,0,0,0,.718-1.978V-1.6h1.326V-.542A3.336,3.336,0,0,1,141.6.938,3.464,3.464,0,0,1,140.684,2.124Zm9.536-6.672a6.2,6.2,0,0,1-.813,3.538A2.891,2.891,0,0,1,146.865.146a2.912,2.912,0,0,1-2.527-1.132,5.882,5.882,0,0,1-.85-3.38V-6.174a6.059,6.059,0,0,1,.813-3.494,2.914,2.914,0,0,1,2.549-1.143,2.94,2.94,0,0,1,2.534,1.1,5.847,5.847,0,0,1,.835,3.4ZM148.865-6.4a4.965,4.965,0,0,0-.483-2.509,1.664,1.664,0,0,0-1.531-.787,1.642,1.642,0,0,0-1.516.784,4.848,4.848,0,0,0-.491,2.41v2.168a5.045,5.045,0,0,0,.5,2.552,1.661,1.661,0,0,0,1.52.824,1.638,1.638,0,0,0,1.49-.776,4.862,4.862,0,0,0,.509-2.446ZM158.943,0h-6.987V-.974l3.691-4.1a8.77,8.77,0,0,0,1.132-1.512,2.524,2.524,0,0,0,.311-1.2,1.913,1.913,0,0,0-.505-1.37,1.767,1.767,0,0,0-1.348-.535,2.093,2.093,0,0,0-1.571.575,2.2,2.2,0,0,0-.56,1.6H151.75A3.145,3.145,0,0,1,152.7-9.9a3.516,3.516,0,0,1,2.538-.908,3.379,3.379,0,0,1,2.351.78,2.661,2.661,0,0,1,.864,2.076q0,1.575-2.007,3.75l-2.856,3.1h5.354Zm8.423,0h-6.987V-.974l3.691-4.1A8.77,8.77,0,0,0,165.2-6.588a2.524,2.524,0,0,0,.311-1.2,1.913,1.913,0,0,0-.505-1.37A1.767,1.767,0,0,0,163.66-9.7a2.093,2.093,0,0,0-1.571.575,2.2,2.2,0,0,0-.56,1.6h-1.355a3.145,3.145,0,0,1,.948-2.38,3.516,3.516,0,0,1,2.538-.908,3.379,3.379,0,0,1,2.351.78,2.661,2.661,0,0,1,.864,2.076q0,1.575-2.007,3.75l-2.856,3.1h5.354Zm1.6-.71a.849.849,0,0,1,.209-.586.8.8,0,0,1,.626-.234.819.819,0,0,1,.634.234.831.831,0,0,1,.216.586.786.786,0,0,1-.216.564.834.834,0,0,1-.634.227.809.809,0,0,1-.626-.227A.8.8,0,0,1,168.97-.71Zm10.466-3.838a6.2,6.2,0,0,1-.813,3.538A2.891,2.891,0,0,1,176.082.146a2.912,2.912,0,0,1-2.527-1.132,5.882,5.882,0,0,1-.85-3.38V-6.174a6.059,6.059,0,0,1,.813-3.494,2.914,2.914,0,0,1,2.549-1.143,2.94,2.94,0,0,1,2.534,1.1,5.847,5.847,0,0,1,.835,3.4ZM178.081-6.4A4.965,4.965,0,0,0,177.6-8.91a1.664,1.664,0,0,0-1.531-.787,1.642,1.642,0,0,0-1.516.784,4.848,4.848,0,0,0-.491,2.41v2.168a5.045,5.045,0,0,0,.5,2.552,1.661,1.661,0,0,0,1.52.824,1.638,1.638,0,0,0,1.49-.776,4.862,4.862,0,0,0,.509-2.446Zm9.778,1.853a6.2,6.2,0,0,1-.813,3.538A2.891,2.891,0,0,1,184.5.146a2.912,2.912,0,0,1-2.527-1.132,5.882,5.882,0,0,1-.85-3.38V-6.174a6.059,6.059,0,0,1,.813-3.494,2.914,2.914,0,0,1,2.549-1.143,2.94,2.94,0,0,1,2.534,1.1,5.847,5.847,0,0,1,.835,3.4ZM186.5-6.4a4.965,4.965,0,0,0-.483-2.509A1.664,1.664,0,0,0,184.49-9.7a1.642,1.642,0,0,0-1.516.784,4.848,4.848,0,0,0-.491,2.41v2.168a5.045,5.045,0,0,0,.5,2.552,1.661,1.661,0,0,0,1.52.824,1.638,1.638,0,0,0,1.49-.776,4.862,4.862,0,0,0,.509-2.446Z" transform="translate(358 457)"/>
  <path id="Path_15" data-name="Path 15" class="cls-6" d="M7.5,0A7.5,7.5,0,1,1,0,7.5,7.5,7.5,0,0,1,7.5,0Z" transform="translate(336 445)"/>
  <path id="Path_16" data-name="Path 16" class="cls-4" d="M9.441-4.988a6.6,6.6,0,0,1-.527,2.736A3.994,3.994,0,0,1,7.419-.469,4.111,4.111,0,0,1,5.164.146,4.076,4.076,0,0,1,2.93-.472,4.09,4.09,0,0,1,1.417-2.238,6.33,6.33,0,0,1,.864-4.893v-.769A6.518,6.518,0,0,1,1.4-8.379a4.075,4.075,0,0,1,1.512-1.805,4.058,4.058,0,0,1,2.238-.626,4.134,4.134,0,0,1,2.26.619A3.987,3.987,0,0,1,8.914-8.4a6.629,6.629,0,0,1,.527,2.736Zm-1.4-.688A4.781,4.781,0,0,0,7.28-8.588,2.512,2.512,0,0,0,5.149-9.6a2.485,2.485,0,0,0-2.1,1.014,4.683,4.683,0,0,0-.787,2.816v.784A4.788,4.788,0,0,0,3.036-2.1,2.5,2.5,0,0,0,5.164-1.047,2.486,2.486,0,0,0,7.273-2.04a4.761,4.761,0,0,0,.769-2.845Zm9.185-1.15H14.568V0H13.213V-6.826H10.605v-1.1h6.621Zm3.787,3.45h-.989V0H18.662V-7.925h1.362V-4.57h.886l2.666-3.354h1.641L22.083-4.116,25.481,0H23.76ZM31.538,0a2.846,2.846,0,0,1-.19-.835,3.023,3.023,0,0,1-2.256.981,2.8,2.8,0,0,1-1.923-.663A2.145,2.145,0,0,1,26.418-2.2,2.24,2.24,0,0,1,27.36-4.12,4.437,4.437,0,0,1,30.007-4.8h1.318v-.623A1.522,1.522,0,0,0,30.9-6.559a1.707,1.707,0,0,0-1.252-.421,1.976,1.976,0,0,0-1.216.366,1.079,1.079,0,0,0-.491.886H26.58A1.87,1.87,0,0,1,27-6.874a2.874,2.874,0,0,1,1.143-.875,3.844,3.844,0,0,1,1.586-.322,3.133,3.133,0,0,1,2.146.685A2.47,2.47,0,0,1,32.681-5.5v3.647a4.459,4.459,0,0,0,.278,1.736V0ZM29.29-1.033a2.381,2.381,0,0,0,1.208-.33,1.994,1.994,0,0,0,.828-.857V-3.845H30.264q-2.49,0-2.49,1.458a1.234,1.234,0,0,0,.425,1A1.633,1.633,0,0,0,29.29-1.033Zm9.873-4.724a1.054,1.054,0,0,0-.425-.883,1.87,1.87,0,0,0-1.165-.326,1.89,1.89,0,0,0-1.2.374,1.093,1.093,0,0,0-.48.879H34.548A2.038,2.038,0,0,1,35.413-7.4a3.459,3.459,0,0,1,2.161-.659,3.484,3.484,0,0,1,2.168.6,2.021,2.021,0,0,1,.776,1.7,1.641,1.641,0,0,1-.322.981,2.2,2.2,0,0,1-.916.71,1.817,1.817,0,0,1,1.384,1.846A2.053,2.053,0,0,1,39.822-.5a3.636,3.636,0,0,1-2.249.637,3.652,3.652,0,0,1-2.26-.67,2.151,2.151,0,0,1-.89-1.813h1.348a1.237,1.237,0,0,0,.516.992,1.99,1.99,0,0,0,1.285.414A2.028,2.028,0,0,0,38.826-1.3a1.114,1.114,0,0,0,.476-.93,1.1,1.1,0,0,0-.4-.956,2.131,2.131,0,0,0-1.241-.289H36.306V-4.614h1.472Q39.163-4.651,39.163-5.757Zm4.739.564h2.058a3.171,3.171,0,0,1,2.131.7,2.359,2.359,0,0,1,.784,1.868,2.426,2.426,0,0,1-.806,1.9A3.14,3.14,0,0,1,45.9,0H42.546V-7.925H43.9ZM51.7,0H50.339V-7.925H51.7ZM43.9-4.087v2.981h2.014A1.657,1.657,0,0,0,47.095-1.5a1.4,1.4,0,0,0,.417-1.073,1.491,1.491,0,0,0-.406-1.08,1.555,1.555,0,0,0-1.139-.436Zm61.26.11h-3.574V-5.083h3.574ZM131.792-9.9,127.375,0h-1.421l4.4-9.551h-5.771v-1.113h7.207ZM139.8-7.881a2.476,2.476,0,0,1-.421,1.421,2.865,2.865,0,0,1-1.139.974,3.056,3.056,0,0,1,1.322,1.047,2.636,2.636,0,0,1,.487,1.56,2.787,2.787,0,0,1-.934,2.2,3.588,3.588,0,0,1-2.457.82,3.572,3.572,0,0,1-2.465-.824,2.8,2.8,0,0,1-.927-2.2,2.714,2.714,0,0,1,.472-1.56,2.94,2.94,0,0,1,1.307-1.055,2.8,2.8,0,0,1-1.121-.974,2.512,2.512,0,0,1-.41-1.414,2.757,2.757,0,0,1,.864-2.139,3.242,3.242,0,0,1,2.278-.791,3.245,3.245,0,0,1,2.274.791A2.751,2.751,0,0,1,139.8-7.881Zm-1.106,4.973a1.965,1.965,0,0,0-.568-1.458,2.013,2.013,0,0,0-1.483-.564,1.978,1.978,0,0,0-1.469.557,1.988,1.988,0,0,0-.553,1.465,1.893,1.893,0,0,0,.538,1.428,2.066,2.066,0,0,0,1.5.52,2.06,2.06,0,0,0,1.494-.524A1.888,1.888,0,0,0,138.691-2.908ZM136.655-9.7a1.748,1.748,0,0,0-1.293.494,1.816,1.816,0,0,0-.494,1.344,1.807,1.807,0,0,0,.487,1.315,1.729,1.729,0,0,0,1.3.5,1.729,1.729,0,0,0,1.3-.5,1.807,1.807,0,0,0,.487-1.315,1.808,1.808,0,0,0-.505-1.326A1.724,1.724,0,0,0,136.655-9.7Zm5.193,11.821-.769-.527A3.534,3.534,0,0,0,141.8-.381V-1.6h1.326V-.542A3.336,3.336,0,0,1,142.76.938,3.464,3.464,0,0,1,141.848,2.124Zm8.042-6.812a3.315,3.315,0,0,1-1.014.813,2.752,2.752,0,0,1-1.293.308,2.841,2.841,0,0,1-1.608-.454A2.952,2.952,0,0,1,144.917-5.3a4.357,4.357,0,0,1-.374-1.82,4.439,4.439,0,0,1,.406-1.926,2.986,2.986,0,0,1,1.154-1.311,3.289,3.289,0,0,1,1.743-.454,2.978,2.978,0,0,1,2.494,1.183,5.159,5.159,0,0,1,.912,3.226v.4a6.894,6.894,0,0,1-1.23,4.545A4.727,4.727,0,0,1,146.309.007h-.264V-1.135h.286a3.726,3.726,0,0,0,2.578-.875A3.76,3.76,0,0,0,149.89-4.687Zm-2.087,0a2.092,2.092,0,0,0,1.256-.417,2.461,2.461,0,0,0,.839-1.033V-6.68a3.729,3.729,0,0,0-.579-2.168,1.727,1.727,0,0,0-1.465-.835A1.74,1.74,0,0,0,146.418-9a2.825,2.825,0,0,0-.542,1.805,2.94,2.94,0,0,0,.524,1.8A1.658,1.658,0,0,0,147.8-4.687Zm11.785-3.193a2.476,2.476,0,0,1-.421,1.421,2.865,2.865,0,0,1-1.139.974,3.056,3.056,0,0,1,1.322,1.047,2.636,2.636,0,0,1,.487,1.56,2.787,2.787,0,0,1-.934,2.2,3.588,3.588,0,0,1-2.457.82,3.572,3.572,0,0,1-2.465-.824,2.8,2.8,0,0,1-.927-2.2,2.714,2.714,0,0,1,.472-1.56,2.94,2.94,0,0,1,1.307-1.055,2.8,2.8,0,0,1-1.121-.974,2.512,2.512,0,0,1-.41-1.414,2.757,2.757,0,0,1,.864-2.139,3.242,3.242,0,0,1,2.278-.791,3.245,3.245,0,0,1,2.274.791A2.751,2.751,0,0,1,159.587-7.881Zm-1.106,4.973a1.965,1.965,0,0,0-.568-1.458,2.013,2.013,0,0,0-1.483-.564,1.978,1.978,0,0,0-1.469.557,1.988,1.988,0,0,0-.553,1.465,1.893,1.893,0,0,0,.538,1.428,2.066,2.066,0,0,0,1.5.52,2.06,2.06,0,0,0,1.494-.524A1.888,1.888,0,0,0,158.481-2.908ZM156.445-9.7a1.748,1.748,0,0,0-1.293.494,1.816,1.816,0,0,0-.494,1.344,1.807,1.807,0,0,0,.487,1.315,1.729,1.729,0,0,0,1.3.5,1.729,1.729,0,0,0,1.3-.5,1.807,1.807,0,0,0,.487-1.315,1.808,1.808,0,0,0-.505-1.326A1.724,1.724,0,0,0,156.445-9.7ZM168.23-4.548a6.2,6.2,0,0,1-.813,3.538A2.891,2.891,0,0,1,164.875.146a2.912,2.912,0,0,1-2.527-1.132,5.882,5.882,0,0,1-.85-3.38V-6.174a6.059,6.059,0,0,1,.813-3.494,2.914,2.914,0,0,1,2.549-1.143,2.94,2.94,0,0,1,2.534,1.1,5.847,5.847,0,0,1,.835,3.4ZM166.875-6.4a4.965,4.965,0,0,0-.483-2.509,1.664,1.664,0,0,0-1.531-.787,1.642,1.642,0,0,0-1.516.784,4.848,4.848,0,0,0-.491,2.41v2.168a5.045,5.045,0,0,0,.5,2.552,1.661,1.661,0,0,0,1.52.824,1.638,1.638,0,0,0,1.49-.776,4.862,4.862,0,0,0,.509-2.446ZM170.134-.71a.849.849,0,0,1,.209-.586.8.8,0,0,1,.626-.234.819.819,0,0,1,.634.234.831.831,0,0,1,.216.586.786.786,0,0,1-.216.564.834.834,0,0,1-.634.227.809.809,0,0,1-.626-.227A.8.8,0,0,1,170.134-.71ZM180.6-4.548a6.2,6.2,0,0,1-.813,3.538A2.891,2.891,0,0,1,177.246.146a2.912,2.912,0,0,1-2.527-1.132,5.882,5.882,0,0,1-.85-3.38V-6.174a6.059,6.059,0,0,1,.813-3.494,2.914,2.914,0,0,1,2.549-1.143,2.94,2.94,0,0,1,2.534,1.1,5.847,5.847,0,0,1,.835,3.4ZM179.246-6.4a4.965,4.965,0,0,0-.483-2.509,1.664,1.664,0,0,0-1.531-.787,1.642,1.642,0,0,0-1.516.784,4.848,4.848,0,0,0-.491,2.41v2.168a5.045,5.045,0,0,0,.5,2.552,1.661,1.661,0,0,0,1.52.824,1.638,1.638,0,0,0,1.49-.776,4.862,4.862,0,0,0,.509-2.446Zm9.778,1.853a6.2,6.2,0,0,1-.813,3.538A2.891,2.891,0,0,1,185.669.146a2.912,2.912,0,0,1-2.527-1.132,5.882,5.882,0,0,1-.85-3.38V-6.174a6.059,6.059,0,0,1,.813-3.494,2.914,2.914,0,0,1,2.549-1.143,2.94,2.94,0,0,1,2.534,1.1,5.847,5.847,0,0,1,.835,3.4ZM187.668-6.4a4.965,4.965,0,0,0-.483-2.509,1.664,1.664,0,0,0-1.531-.787,1.642,1.642,0,0,0-1.516.784,4.848,4.848,0,0,0-.491,2.41v2.168a5.045,5.045,0,0,0,.5,2.552,1.661,1.661,0,0,0,1.52.824,1.638,1.638,0,0,0,1.49-.776,4.862,4.862,0,0,0,.509-2.446Z" transform="translate(358 487)"/>
  <path id="Path_17" data-name="Path 17" class="cls-7" d="M7.5,0A7.5,7.5,0,1,1,0,7.5,7.5,7.5,0,0,1,7.5,0Z" transform="translate(336 475)"/>
  <path id="Path_18" data-name="Path 18" class="cls-8" d="M0,0H519" transform="translate(336.5 621.5)"/>
  <path id="Path_1" data-name="Path 1" class="cls-9" d="M1188.476,269l111.213-44.751,33.648,119.593-57.024-2.1-54.965-27.215Z" transform="translate(-533 192)"/>
  <circle id="Ellipse_3" data-name="Ellipse 3" class="cls-5" cx="90" cy="90" r="90" transform="translate(676 330)"/>
  <path id="Intersection_1" data-name="Intersection 1" class="cls-10" d="M21.1,120.3,105.876,90l26.6,86A90.125,90.125,0,0,1,21.1,120.3Z" transform="translate(660.124 330)"/>
  <path id="Intersection_2" data-name="Intersection 2" class="cls-7" d="M90,91l63.744-64.535A90.021,90.021,0,0,1,116,176.189Z" transform="translate(676 330)"/>
  <circle id="Ellipse_5" data-name="Ellipse 5" class="cls-1" cx="52.5" cy="52.5" r="52.5" transform="translate(714 368)"/>
  <path id="Path_19" data-name="Path 19" class="cls-11" d="M4,0H245a4,4,0,0,1,4,4V36a4,4,0,0,1-4,4H4a4,4,0,0,1-4-4V4A4,4,0,0,1,4,0Z" transform="translate(517 655)"/>
  <path id="Path_4" data-name="Path 4" class="cls-12" d="M20.987,5.984h1.995V7.979H20.987Zm2.992,0h1.995V7.979H23.979Zm2.992,0h1.995V7.979H26.971Zm-8.977,5.984H19.99v1.995H17.995Zm2.992,0h1.995v1.995H20.987Zm2.992,0h1.995v1.995H23.979ZM20.987,8.977h1.995v1.995H20.987Zm2.992,0h1.995v1.995H23.979Zm2.992,0h1.995v1.995H26.971Zm-8.977,0H19.99v1.995H17.995ZM28.966,0V1H26.971V0H19.99V1H17.995V0H16V15.958H30.961V0Zm1,14.961H17V3.99H29.964Z" transform="translate(513.857 666.581)"/>
  <path id="Path_20" data-name="Path 20" class="cls-13" d="M7.617,0H6.141V-7.336H2.385V0H.908V-8.531H7.617ZM9-3.229a3.738,3.738,0,0,1,.369-1.679,2.7,2.7,0,0,1,1.037-1.148,2.922,2.922,0,0,1,1.535-.4,2.769,2.769,0,0,1,2.083.826,3.249,3.249,0,0,1,.864,2.191l.006.334a3.772,3.772,0,0,1-.36,1.676A2.664,2.664,0,0,1,13.5-.287a2.944,2.944,0,0,1-1.55.4A2.75,2.75,0,0,1,9.806-.776,3.422,3.422,0,0,1,9-3.158Zm1.424.123a2.555,2.555,0,0,0,.4,1.532,1.314,1.314,0,0,0,1.125.554,1.3,1.3,0,0,0,1.122-.562,2.822,2.822,0,0,0,.4-1.646,2.522,2.522,0,0,0-.413-1.523,1.319,1.319,0,0,0-1.122-.562,1.307,1.307,0,0,0-1.107.554A2.768,2.768,0,0,0,10.424-3.105ZM18.7-1.02a1.287,1.287,0,0,0,.885-.311,1.061,1.061,0,0,0,.375-.768H21.3a2.091,2.091,0,0,1-.369,1.1A2.421,2.421,0,0,1,20-.182a2.794,2.794,0,0,1-1.277.3,2.7,2.7,0,0,1-2.109-.861,3.416,3.416,0,0,1-.779-2.379V-3.27a3.359,3.359,0,0,1,.773-2.317,2.678,2.678,0,0,1,2.109-.87,2.6,2.6,0,0,1,1.843.659A2.361,2.361,0,0,1,21.3-4.066H19.963a1.3,1.3,0,0,0-.372-.9,1.2,1.2,0,0,0-.888-.352,1.253,1.253,0,0,0-1.066.5,2.556,2.556,0,0,0-.381,1.521v.229a2.6,2.6,0,0,0,.372,1.538A1.252,1.252,0,0,0,18.7-1.02Zm9.064-5.32V0H26.344V-5.191H24.551l-.117,2.209a4.566,4.566,0,0,1-.612,2.288A1.763,1.763,0,0,1,22.289,0H21.85l-.006-1.184.293-.029a.849.849,0,0,0,.683-.571,6.085,6.085,0,0,0,.272-1.849l.117-2.707ZM32.074.117A2.946,2.946,0,0,1,29.88-.735a3.093,3.093,0,0,1-.841-2.271v-.176a3.8,3.8,0,0,1,.366-1.7,2.787,2.787,0,0,1,1.028-1.163,2.719,2.719,0,0,1,1.477-.416,2.488,2.488,0,0,1,2,.826,3.494,3.494,0,0,1,.706,2.338v.574H30.475A1.9,1.9,0,0,0,31-1.477a1.574,1.574,0,0,0,1.157.457,1.928,1.928,0,0,0,1.594-.791l.768.732A2.563,2.563,0,0,1,33.5-.2,3.183,3.183,0,0,1,32.074.117ZM31.9-5.314a1.2,1.2,0,0,0-.946.41,2.126,2.126,0,0,0-.46,1.143h2.713v-.105a1.731,1.731,0,0,0-.381-1.081A1.19,1.19,0,0,0,31.9-5.314Zm3.844,4.178a3.773,3.773,0,0,0,.794-1.257,5.581,5.581,0,0,0,.243-1.521l.082-2.426h4.4v5.2h.879V1.887H40.729V0H36.662V1.887H35.221l.006-3.023Zm1.67,0H39.85V-5.115h-1.6L38.209-3.9A5.214,5.214,0,0,1,37.418-1.137ZM48.533,0H47.109V-2.561H44.643V0H43.219V-6.34h1.424V-3.7h2.467V-6.34h1.424Zm5.473-6.34h1.418V0H54.006V-4.23L51.521,0H50.1V-6.34h1.418v4.23ZM59.73.117a2.946,2.946,0,0,1-2.194-.853A3.093,3.093,0,0,1,56.7-3.006v-.176a3.8,3.8,0,0,1,.366-1.7A2.787,2.787,0,0,1,58.09-6.041a2.719,2.719,0,0,1,1.477-.416,2.488,2.488,0,0,1,2,.826,3.494,3.494,0,0,1,.706,2.338v.574H58.131a1.9,1.9,0,0,0,.524,1.242,1.574,1.574,0,0,0,1.157.457,1.928,1.928,0,0,0,1.594-.791l.768.732A2.563,2.563,0,0,1,61.157-.2,3.183,3.183,0,0,1,59.73.117Zm-.17-5.432a1.2,1.2,0,0,0-.946.41,2.126,2.126,0,0,0-.46,1.143h2.713v-.105a1.731,1.731,0,0,0-.381-1.081A1.19,1.19,0,0,0,59.561-5.314Zm8.361.4h.867a1.552,1.552,0,0,0,1.04-.34,1.212,1.212,0,0,0,.384-.967,1.321,1.321,0,0,0-.319-.946,1.285,1.285,0,0,0-.976-.337,1.36,1.36,0,0,0-.943.331,1.106,1.106,0,0,0-.369.864H66.182a2.155,2.155,0,0,1,.349-1.2,2.342,2.342,0,0,1,.973-.841,3.168,3.168,0,0,1,1.4-.3,2.934,2.934,0,0,1,2.007.642,2.252,2.252,0,0,1,.729,1.784,1.813,1.813,0,0,1-.366,1.081,2.3,2.3,0,0,1-.946.765,2.093,2.093,0,0,1,1.069.756,2.069,2.069,0,0,1,.366,1.23,2.291,2.291,0,0,1-.788,1.828A3.06,3.06,0,0,1,68.9.117a3.037,3.037,0,0,1-2.016-.656A2.161,2.161,0,0,1,66.1-2.285h1.424a1.191,1.191,0,0,0,.378.914,1.433,1.433,0,0,0,1.017.352,1.478,1.478,0,0,0,1.043-.352,1.319,1.319,0,0,0,.381-1.02,1.332,1.332,0,0,0-.4-1.037,1.7,1.7,0,0,0-1.184-.363h-.838ZM78.656-3.592a4.653,4.653,0,0,1-.688,2.774,2.432,2.432,0,0,1-2.095.935A2.464,2.464,0,0,1,73.79-.794a4.455,4.455,0,0,1-.718-2.7V-4.969a4.583,4.583,0,0,1,.688-2.76,2.454,2.454,0,0,1,2.1-.92,2.468,2.468,0,0,1,2.089.9,4.443,4.443,0,0,1,.706,2.684ZM77.232-5.186A3.61,3.61,0,0,0,76.9-6.946a1.12,1.12,0,0,0-1.043-.56,1.119,1.119,0,0,0-1.025.53A3.336,3.336,0,0,0,74.49-5.32v1.934a3.7,3.7,0,0,0,.334,1.781,1.122,1.122,0,0,0,1.049.586,1.1,1.1,0,0,0,1.014-.542,3.484,3.484,0,0,0,.346-1.7Zm5.789,4.049a3.773,3.773,0,0,0,.794-1.257,5.581,5.581,0,0,0,.243-1.521l.082-2.426h4.4v5.2h.879V1.887H88V0H83.936V1.887H82.494L82.5-1.137Zm1.67,0h2.432V-5.115h-1.6L85.482-3.9A5.214,5.214,0,0,1,84.691-1.137ZM95.807,0H94.383V-2.561H91.916V0H90.492V-6.34h1.424V-3.7h2.467V-6.34h1.424Zm4.307.117a2.946,2.946,0,0,1-2.194-.853,3.093,3.093,0,0,1-.841-2.271v-.176a3.8,3.8,0,0,1,.366-1.7,2.787,2.787,0,0,1,1.028-1.163,2.719,2.719,0,0,1,1.477-.416,2.488,2.488,0,0,1,2,.826,3.494,3.494,0,0,1,.706,2.338v.574H98.514a1.9,1.9,0,0,0,.524,1.242,1.574,1.574,0,0,0,1.157.457,1.928,1.928,0,0,0,1.594-.791l.768.732A2.563,2.563,0,0,1,101.54-.2,3.183,3.183,0,0,1,100.113.117Zm-.17-5.432A1.2,1.2,0,0,0,99-4.9a2.126,2.126,0,0,0-.46,1.143h2.713v-.105a1.731,1.731,0,0,0-.381-1.081A1.19,1.19,0,0,0,99.943-5.314Zm7.775-1.025h1.418V0h-1.418V-4.23L105.234,0h-1.418V-6.34h1.418v4.23Zm.668-2.432a1.521,1.521,0,0,1-.516,1.2,2,2,0,0,1-1.377.457,2,2,0,0,1-1.377-.457,1.521,1.521,0,0,1-.516-1.2h1.066a.8.8,0,0,0,.22.6.833.833,0,0,0,.606.214.822.822,0,0,0,.6-.214.806.806,0,0,0,.217-.6Z" transform="translate(558 680)"/>
  <path id="Path_5" data-name="Path 5" class="cls-14" d="M5.615,103.541a.784.784,0,0,1-.556-.23L.231,98.483a.786.786,0,0,1,1.112-1.112l4.272,4.272,4.272-4.272A.786.786,0,1,1,11,98.483L6.17,103.311A.784.784,0,0,1,5.615,103.541Z" transform="translate(741.618 576.025)"/>
  <path id="Path_21" data-name="Path 21" class="cls-11" d="M4,0H75a4,4,0,0,1,4,4V36a4,4,0,0,1-4,4H4a4,4,0,0,1-4-4V4A4,4,0,0,1,4,0Z" transform="translate(777 655)"/>
  <path id="Path_22" data-name="Path 22" class="cls-13" d="M2.35-3.17V0H.867V-8.531H4.131A3.3,3.3,0,0,1,6.4-7.787a2.5,2.5,0,0,1,.841,1.969,2.418,2.418,0,0,1-.823,1.951,3.463,3.463,0,0,1-2.306.7Zm0-1.189H4.131a1.754,1.754,0,0,0,1.207-.372,1.367,1.367,0,0,0,.416-1.075,1.475,1.475,0,0,0-.422-1.1,1.626,1.626,0,0,0-1.16-.425H2.35ZM8.537,0V-8.531h2.52a3.952,3.952,0,0,1,2.007.5A3.436,3.436,0,0,1,14.42-6.6a4.538,4.538,0,0,1,.48,2.121v.428a4.519,4.519,0,0,1-.483,2.133A3.4,3.4,0,0,1,13.04-.5a4.135,4.135,0,0,1-2.048.5ZM10.02-7.336v6.152h.967a2.226,2.226,0,0,0,1.79-.729,3.178,3.178,0,0,0,.636-2.095v-.475a3.261,3.261,0,0,0-.6-2.121,2.14,2.14,0,0,0-1.752-.732ZM21.293-3.615H17.859V0H16.377V-8.531H21.8v1.2H17.859V-4.8h3.434Z" transform="translate(818 680)"/>
  <path id="Path_6" data-name="Path 6" class="cls-12" d="M9.3,4.135H7.236V8.269h-3.1L8.269,12.4,12.4,8.269H9.3ZM14.472,0H2.067A2.067,2.067,0,0,0,0,2.067v12.4a2.067,2.067,0,0,0,2.067,2.067h12.4a2.067,2.067,0,0,0,2.067-2.067V2.067A2.067,2.067,0,0,0,14.472,0Zm0,10.337a1.034,1.034,0,0,1-1.034,1.034H12.4c-.894,0-1.034,1.034-1.034,1.034v1.034a1.034,1.034,0,0,1-1.034,1.034H6.2a1.034,1.034,0,0,1-1.034-1.034V12.4a1.018,1.018,0,0,0-1.034-1.034H3.1a1.034,1.034,0,0,1-1.034-1.034V3.1A1.034,1.034,0,0,1,3.1,2.067H13.438A1.034,1.034,0,0,1,14.472,3.1Z" transform="translate(794 666)"/>
</svg>
