<?xml version="1.0" encoding="utf-8"?>
<!-- Generator: Adobe Illustrator 20.1.0, SVG Export Plug-In . SVG Version: 6.00 Build 0)  -->
<svg version="1.1" id="Artwork" xmlns="http://www.w3.org/2000/svg" xmlns:xlink="http://www.w3.org/1999/xlink" x="0px" y="0px"
	 viewBox="0 0 792 612" style="enable-background:new 0 0 792 612;" xml:space="preserve">
<style type="text/css">
	.st0{fill:#FFFFFF;}
	.st1{fill:#2CA01C;}
	.st2{fill:none;}
</style>
<g id="QuickBooks_-_Clearspace__x26__Lockup">
	<g id="QuickBooks_Lockup">
		<g id="Wordmark_2_">
			<path id="quickbooks" d="M275,418.8c-11.1,0-16.7-9.9-16.7-19.4c0-9.5,6.1-19.1,16.2-19.1c4.8,0,10.7,2.4,12.9,5.6l11.8-11.8
				c-5.6-6-14.7-9.5-24.7-9.5c-20.4,0-35.3,14.7-35.3,34.8c0,20.4,14.7,34.8,35.6,34.8c10.1,0,19.3-2.9,24.7-8.9L288.1,413
				C285.6,416.4,280,418.8,275,418.8z M176.4,402.6c0,7.7-5.1,16-14.5,16c-7.3,0-11.1-5.1-11.1-15.8v-36.5h-18.2v40.9
				c0,13.6,6.8,26.9,24.9,26.9c8.5,0,15.7-6.8,19.4-11.8h0.3v9.9h17.4v-65.9h-18.2V402.6z M209.4,432.4h18.2v-65.9h-18.2V432.4z
				 M99.7,374.8h-0.3c-2.6-2.9-9.5-10.2-20.8-10.2c-18.6,0-32.9,14.5-32.9,34.6c0,20.3,13.1,35.1,32,35.1c8.5,0,16.5-4.6,21.1-9.7
				h0.3V465h18.2v-98.3H99.9L99.7,374.8L99.7,374.8z M82.1,418.8c-11.2,0-17.7-9.9-17.7-19.6c0-9.2,5.8-19.3,17.7-19.3
				c10.9,0,17.6,10.1,17.6,19.6C99.7,408.9,93,418.8,82.1,418.8z M496.7,364.6c-20.8,0-35.8,14.5-35.8,34.6
				c0,20.8,15.3,35.3,35.8,35.3s35.8-14.7,35.8-35.3C532.5,379.3,517.3,364.6,496.7,364.6z M496.7,418.8
				c-11.9,0-17.2-10.1-17.2-19.6c0-9.2,5.5-19.3,17.2-19.3c11.9,0,17.2,10.1,17.2,19.3C513.9,408.6,508.6,418.8,496.7,418.8z
				 M689.9,366.5h-23.5l-23.5,27.4h-0.3v-63.7h-18.2v102.2h18.2v-32.5h0.3l24.4,32.5h24l-28.3-36L689.9,366.5z M576.6,364.6
				c-20.8,0-35.8,14.5-35.8,34.6c0,20.8,15.3,35.3,35.8,35.3c20.4,0,35.8-14.7,35.8-35.3C612.4,379.3,597.4,364.6,576.6,364.6z
				 M576.6,418.8c-11.9,0-17.2-10.1-17.2-19.6c0-9.2,5.5-19.3,17.2-19.3c11.9,0,17.2,10.1,17.2,19.3
				C594,408.6,588.5,418.8,576.6,418.8z M374.4,366.5h-23.5l-23.5,27.4H327v-63.7h-18.2v102.2H327v-32.5h0.3l24.4,32.5h24l-28.3-36
				L374.4,366.5z M419.9,364.6c-8.3,0-14.5,3.6-20.3,9h-0.2V330h-18.2v102.2h17.4v-9.4h0.3c4.1,6.8,12.3,11.2,20.8,11.2
				c18.7,0,33.1-14.8,33.1-35.1C452.6,379.3,438.4,364.6,419.9,364.6z M416.3,418.8c-10.9,0-17.6-9.7-17.6-19.3
				c0-9.4,6.6-19.6,17.6-19.6c11.8,0,17.7,10.1,17.7,19.3C434,408.9,427.5,418.8,416.3,418.8z M724.2,391.9
				c-9.4-2.2-12.6-3.4-12.6-7.2c0-5.3,6.6-6.3,9.7-6.3c5.6,0,12.1,3.4,14.5,6.6l10.7-10.2c-4.9-6.3-14.7-9.9-25-9.9
				c-13.1,0-26.9,6.6-26.9,21.5c0,12.8,9.9,16.5,19.8,18.9c10.2,2.4,14,4.1,14,8.3c0,6.1-7,7.2-9.4,7.2c-6,0-12.8-3.4-16.5-7.8
				l-11.1,11.2c6,6.6,16.4,10.7,26.9,10.7c17.7,0,28.3-8.5,28.3-22.5C746.3,398.5,733.4,394.1,724.2,391.9z"/>
			<path id="_xAE__1_" class="st0" d="M762.5,417.4c-4.3,0-7.5,3.4-7.5,7.5c0,4.1,3.4,7.5,7.5,7.5c4.3,0,7.5-3.2,7.5-7.5
				C770,420.7,766.6,417.4,762.5,417.4z M762.5,431.4c-3.6,0-6.3-2.9-6.3-6.3c0-3.6,2.9-6.3,6.3-6.3c3.6,0,6.3,2.9,6.3,6.3
				C768.8,428.5,765.9,431.4,762.5,431.4z M765.6,423.2c0-1.9-1.5-2.6-3.2-2.6h-3.1v8.5h1.5v-3.6h1l2,3.6h1.9l-2.2-3.7
				C764.9,425.3,765.6,424.4,765.6,423.2z M761,424.4V422h1.4c0.9,0,1.7,0.2,1.7,1.2c0,1-1,1.2-1.9,1.2L761,424.4L761,424.4z"/>
		</g>
		<g id="Icon_2_">
			<circle id="Circle_2_" class="st1" cx="396" cy="223.7" r="76.7"/>
			<path id="qb" class="st0" d="M340.6,223.7c0,16.5,13.3,29.8,29.8,29.8h4.3v-11.1h-4.3c-10.4,0-18.7-8.3-18.7-18.7
				S360,205,370.4,205h10.2c0,0,0,56.9,0,57.9c0,6.1,4.9,11.1,11.1,11.1v-80.1c0,0-11.4,0-21.3,0
				C353.9,193.9,340.6,207.3,340.6,223.7z M421.6,193.9h-4.3V205h4.3c10.4,0,18.7,8.3,18.7,18.7c0,10.4-8.3,18.7-18.7,18.7h-10.2
				c0,0,0-56.9,0-57.9c0-6.1-4.9-11.1-11.1-11.1v80.1c0,0,11.4,0,21.3,0c16.5,0,29.8-13.3,29.8-29.8
				C451.4,207.3,438.1,193.9,421.6,193.9z"/>
		</g>
		<path id="intuit_2_" d="M81.6,321.7c-3.7,0-6.6,2.2-7.8,4.8h-0.2v-4.1h-6v25.2H74v-13.8c0-3.4,1.9-6.8,5.8-6.8
			c4.1,0,4.8,3.7,4.8,6.6v14h6.3v-15.7C90.8,326.6,88.1,321.7,81.6,321.7z M55,347.6h6.3v-25.2H55V347.6z M169.4,319.1
			c2,0,3.7-1.7,3.7-3.7s-1.7-3.7-3.7-3.7s-3.7,1.7-3.7,3.7C165.5,317.4,167.2,319.1,169.4,319.1z M104.3,319.1c2,0,3.7-1.7,3.7-3.7
			s-1.7-3.7-3.7-3.7s-3.7,1.7-3.7,3.7S102.2,319.1,104.3,319.1z M94.1,328h7v19.6h6.3V328h7v-5.6H93.9L94.1,328L94.1,328z
			 M135.6,336.2c0,3.4-1.9,6.8-5.8,6.8c-4.1,0-4.8-3.7-4.8-6.6v-14h-6.3V338c0,5.1,2.7,10.2,9.2,10.2c3.7,0,6.6-2.2,7.8-4.8h0.2v4.1
			h6v-25.2h-6.3L135.6,336.2L135.6,336.2z M159.2,322.4v5.6h7v19.6h6.3V328h7v-5.6H159.2z M148.4,347.6h6.3v-25.2h-6.3V347.6z"/>
	</g>
	<rect id="Clearspace_1_" x="-31" y="70.3" class="st2" width="854" height="471.3"/>
</g>
</svg>
